<svg id="Layer_1" data-name="Layer 1" xmlns="http://www.w3.org/2000/svg" viewBox="0 0 444.45 450.12"><defs><style>.cls-1{fill:#00aced;}.cls-2{fill:#2d3091;}.cls-3{fill:#fff;}</style></defs><path class="cls-1" d="M222.22,377.62c-85.69,0-155.4-69.71-155.4-155.4s69.71-155.4,155.4-155.4,155.4,69.71,155.4,155.4S307.91,377.62,222.22,377.62Zm0-304.8c-82.38,0-149.4,67-149.4,149.4s67,149.4,149.4,149.4,149.4-67,149.4-149.4S304.6,72.82,222.22,72.82Z"/><path class="cls-1" d="M222.22,444.45A222.22,222.22,0,0,1,65.09,65.09,222.22,222.22,0,1,1,379.36,379.36,220.78,220.78,0,0,1,222.22,444.45ZM222.22,6C103,6,6,103,6,222.22s97,216.23,216.22,216.23,216.23-97,216.23-216.23S341.45,6,222.22,6Z"/><path d="M50.07,236.21a10.64,10.64,0,0,1-3.21,6.56,13.09,13.09,0,0,1-8.71,3.65,13,13,0,0,1-9.5-2.84,11.79,11.79,0,0,1-4.19-8.74,11.67,11.67,0,0,1,3-9.12,13,13,0,0,1,9-4,14.53,14.53,0,0,1,6,.81,11.47,11.47,0,0,1,4.56,3,11.65,11.65,0,0,1,2.6,5,3,3,0,0,0,2.32-1.19,3.75,3.75,0,0,0,.65-2.46,7.46,7.46,0,0,0-.51-2.19,7,7,0,0,0-1.17-2L53.94,221a13.81,13.81,0,0,1,2,3.45,12.06,12.06,0,0,1,.79,3.65,9.3,9.3,0,0,1-.64,4.29,6,6,0,0,1-2.51,2.86A8.13,8.13,0,0,1,50.07,236.21Zm-21.66-1.72a4.92,4.92,0,0,0,2.38,4,11.44,11.44,0,0,0,7,1.5,11,11,0,0,0,6.56-2.23,5.13,5.13,0,0,0-.52-8.27A11.12,11.12,0,0,0,37,228.12a13.8,13.8,0,0,0-4.91,1.1,6.56,6.56,0,0,0-2.88,2.31A4.77,4.77,0,0,0,28.41,234.49Z"/><path d="M24.19,218l.9-11.21,3.43.28-.09,1.1a2.26,2.26,0,0,0,.11,1.1,1.17,1.17,0,0,0,.52.51,4.73,4.73,0,0,0,1.47.27l9,.73a11.4,11.4,0,0,0,3.81-.17,3.86,3.86,0,0,0,2-1.27,4,4,0,0,0,.83-2.24,4.22,4.22,0,0,0-.51-2.47A4,4,0,0,0,44,203a10.19,10.19,0,0,0-3.58-.75l-9.95-.8a1.89,1.89,0,0,0-.9.08A1.07,1.07,0,0,0,29,202a3.47,3.47,0,0,0-.21,1.16l-.07.89-3.43-.27.76-9.48,3.44.27-.06.74a3.83,3.83,0,0,0,0,1.38,1.34,1.34,0,0,0,.57.63,5,5,0,0,0,1.47.25l9.78.78a12.52,12.52,0,0,1,4.47,1.09A8,8,0,0,1,49.4,203a10.6,10.6,0,0,1,0,9.07,8.89,8.89,0,0,1-2.24,2.78,7.62,7.62,0,0,1-2.91,1.54,14.35,14.35,0,0,1-4.34.15l-9.58-.77a6.48,6.48,0,0,0-1.71,0,1,1,0,0,0-.6.38,2.66,2.66,0,0,0-.27,1.14l-.08,1.05Z"/><path d="M28.63,181.73l1.12-5L50,174.09a5,5,0,0,0,2.07-.57,2.61,2.61,0,0,0,.68-1.5l3.36.75-2.36,10.64-3.36-.75.12-.64a2.26,2.26,0,0,0,0-1.3.72.72,0,0,0-.53-.49,5.59,5.59,0,0,0-1.36,0l-2.36.18-1.52,6.83L47,188.65a4.63,4.63,0,0,0,1,.49.81.81,0,0,0,.55-.07,1.15,1.15,0,0,0,.46-.54,9.35,9.35,0,0,0,.41-1.5l3.36.75-1.93,8.71-3.36-.75a3.59,3.59,0,0,0,.11-1.26,1.61,1.61,0,0,0-.33-.74,4.61,4.61,0,0,0-1-.82Zm12.93,3.58,1-4.47-7.15.7Z"/><path d="M33.06,163.73l3.83-10.57,3.24,1.17-.34.93a4.13,4.13,0,0,0-.27,1,1.19,1.19,0,0,0,.32.73,2.84,2.84,0,0,0,1,.56l13.36,4.85a3.86,3.86,0,0,0,1,.28.57.57,0,0,0,.4-.18,2.1,2.1,0,0,0,.41-.79,8.39,8.39,0,0,0,.63-3.56,6.6,6.6,0,0,0-1.06-3,12.57,12.57,0,0,0-2.89-3l2.09-2.47,7.61,6-6,16.54L53.21,171l.38-1a2.05,2.05,0,0,0,.16-1,1.15,1.15,0,0,0-.32-.65,2.94,2.94,0,0,0-1-.54L39.15,163a3.82,3.82,0,0,0-1.26-.29,1.16,1.16,0,0,0-.69.22,2,2,0,0,0-.49.84l-.41,1.14Z"/><path d="M41.37,142l4.86-10.14,3.1,1.48-.44.93a2.59,2.59,0,0,0-.36,1.13,1,1,0,0,0,.3.62,4.38,4.38,0,0,0,1.2.73l12.42,5.95a5.34,5.34,0,0,0,1.35.52.81.81,0,0,0,.59-.16,2,2,0,0,0,.64-.85l.53-1.1,3.1,1.49-4.85,10.14-3.11-1.48.4-.83a3.26,3.26,0,0,0,.41-1.22.88.88,0,0,0-.24-.6,4.1,4.1,0,0,0-1.12-.7l-12.47-6a5.17,5.17,0,0,0-1.43-.53,1.15,1.15,0,0,0-.72.19,2.8,2.8,0,0,0-.61,1l-.45.92Z"/><path d="M48.21,126.1l1.14-1.86.83.25L57,113.42l-.56-.67,1.14-1.88L66.48,113l-.62,3.23a23.89,23.89,0,0,0-3.18-.23,7.16,7.16,0,0,0-2.81.64,3,3,0,0,0-1.37,1.15.61.61,0,0,0-.11.57c.06.16.3.36.72.62l12.19,7.48a8.13,8.13,0,0,0,1.4.76,1.06,1.06,0,0,0,.58,0,1.09,1.09,0,0,0,.5-.34,17.55,17.55,0,0,0,1-1.55l2.94,1.8-5.89,9.58-2.93-1.8.36-.58a4.11,4.11,0,0,0,.62-1.31,1,1,0,0,0-.2-.69,4.78,4.78,0,0,0-1.28-1L56,123.73a1.41,1.41,0,0,0-.74-.3c-.13,0-.28.15-.43.4a3.62,3.62,0,0,0-.41,2,6.69,6.69,0,0,0,.69,2.63c.17.37.72,1.25,1.65,2.67l-2.57,2Z"/><path d="M61.26,106.76l7.22-8.88,2.67,2.17-.54.67a2.63,2.63,0,0,0-.6,1,.55.55,0,0,0,.23.49,3.25,3.25,0,0,0,1.41.46l6.1,1.06L75.5,97.55l-.32-.9a1.08,1.08,0,0,0-.26-.3.52.52,0,0,0-.47-.13c-.15,0-.37.23-.67.59l-.74.91-2.67-2.17,5.79-7.12,2.67,2.17A3.82,3.82,0,0,0,78,92.1a4.47,4.47,0,0,0,.33,1.77L82,104.73l3.45,2.81a5.4,5.4,0,0,0,1.27.85,1,1,0,0,0,.7,0,3.36,3.36,0,0,0,1-.93l.51-.63L91.54,109l-7.09,8.73-2.67-2.18.38-.47a4,4,0,0,0,.83-1.29,1.13,1.13,0,0,0-.12-.75,5.13,5.13,0,0,0-1.15-1.15l-3-2.45L67,107.79a4.36,4.36,0,0,0-2,0,4.06,4.06,0,0,0-1.14,1.09Z"/><path d="M88,76.27l8.17-6.48,12.55,9.39-6.16-14.45,8.31-6.59,2.14,2.7-.9.71a1.61,1.61,0,0,0-.74,1.12,2.55,2.55,0,0,0,.7,1.46l8.78,11.07a3.93,3.93,0,0,0,.8.85,1,1,0,0,0,.63.13,1.91,1.91,0,0,0,.89-.43l1-.81,2.14,2.7-8.69,6.88-2.13-2.69.67-.54a3.23,3.23,0,0,0,.89-.91,1,1,0,0,0,.08-.69,3.06,3.06,0,0,0-.64-1l-9.5-12,8.41,19.65-2.5,2L96.29,76l9.4,11.85a1.59,1.59,0,0,0,.63.52,1.14,1.14,0,0,0,.66,0,2.5,2.5,0,0,0,.91-.52l.86-.69,2.14,2.7-7.4,5.87-2.14-2.7.73-.58a2.91,2.91,0,0,0,.84-.88,1,1,0,0,0,0-.72,3.62,3.62,0,0,0-.71-1.15L93.59,78.81a4.08,4.08,0,0,0-.87-.9,1,1,0,0,0-.71-.17,2,2,0,0,0-.85.45l-1,.78Z"/><path d="M122.93,51.19l4.5-2.55L142.89,62a5,5,0,0,0,1.8,1.16,2.63,2.63,0,0,0,1.57-.5l1.69,3L138.46,71l-1.69-3,.57-.34a2.31,2.31,0,0,0,1-.85.73.73,0,0,0,0-.73,5.43,5.43,0,0,0-.92-1l-1.71-1.63-6.1,3.44.49,2.61a4.09,4.09,0,0,0,.28,1.05.87.87,0,0,0,.42.36,1.15,1.15,0,0,0,.71,0,10,10,0,0,0,1.38-.7l1.7,3-7.77,4.39-1.69-3a3.29,3.29,0,0,0,1-.76,1.5,1.5,0,0,0,.33-.74,4.13,4.13,0,0,0-.09-1.32Zm6,12,4-2.25-5.3-4.85Z"/><path d="M139.33,42.31,148,38.89l11.61,11-3.26-8.27a4.63,4.63,0,0,0-.63-1.28,1,1,0,0,0-.63-.39,2.29,2.29,0,0,0-1.08.24l-1,.41-1.26-3.2L160.56,34l1.26,3.2-1,.38a2.39,2.39,0,0,0-1,.6,1.06,1.06,0,0,0-.24.67,4.92,4.92,0,0,0,.42,1.41l7,17.9-4.41,1.74L148,45.93l4.7,11.93a4.51,4.51,0,0,0,.64,1.26.92.92,0,0,0,.58.29,2.52,2.52,0,0,0,1.1-.24l1-.41L157.32,62l-8.87,3.49-1.26-3.2.92-.36a3,3,0,0,0,1-.56,1.06,1.06,0,0,0,.25-.66,2.7,2.7,0,0,0-.24-1.11l-5.23-13.28a3.18,3.18,0,0,0-.6-1.06,1.13,1.13,0,0,0-.61-.35,1.82,1.82,0,0,0-.93.18l-1.15.46Z"/><path d="M173.25,30.6l5-1.22L189.5,46.44a4.88,4.88,0,0,0,1.41,1.6,2.59,2.59,0,0,0,1.65,0l.81,3.35-10.6,2.55L182,50.55l.64-.17a2.44,2.44,0,0,0,1.18-.55.77.77,0,0,0,.2-.7,5.4,5.4,0,0,0-.61-1.21l-1.2-2.05-6.81,1.65-.25,2.64a4.24,4.24,0,0,0,0,1.09.8.8,0,0,0,.31.46,1.08,1.08,0,0,0,.68.18,9.17,9.17,0,0,0,1.52-.29l.81,3.34L169.75,57l-.81-3.34a4,4,0,0,0,1.19-.45,1.71,1.71,0,0,0,.52-.62,5,5,0,0,0,.27-1.3Zm2.46,13.18,4.45-1.07-3.77-6.12Z"/><path d="M206.09,36.79l11.2-1.06.33,3.46-.84.08a2.58,2.58,0,0,0-1.11.27,1,1,0,0,0-.41.55,4.13,4.13,0,0,0,0,1.33l.73,7.76-3.36.32-1-1.69a12.11,12.11,0,0,1-3,1.95,10.86,10.86,0,0,1-3.4.88,10.38,10.38,0,0,1-5.87-1.11,11.64,11.64,0,0,1-4.52-4.23,14.51,14.51,0,0,1-2.13-6.5,14,14,0,0,1,.87-6.65,11.38,11.38,0,0,1,3.72-4.93A10.75,10.75,0,0,1,202.83,25a11.21,11.21,0,0,1,3,.13,9.38,9.38,0,0,1,2.68.86l.5-1.15,2.3-.22,2.85,8L211.28,34a22.68,22.68,0,0,0-2.79-3.45,6.65,6.65,0,0,0-2.2-1.33,5.29,5.29,0,0,0-2.31-.34,4.9,4.9,0,0,0-2.82,1.26,6.46,6.46,0,0,0-1.88,3.05,11.65,11.65,0,0,0-.36,4.61,13.62,13.62,0,0,0,1.35,5,7.13,7.13,0,0,0,2.56,3,5.12,5.12,0,0,0,3.17.75,5.21,5.21,0,0,0,2.2-.73,3.4,3.4,0,0,0,1.34-1.29,3.29,3.29,0,0,0,.23-1.76l-.08-.91a3.81,3.81,0,0,0-.23-1.18,1.11,1.11,0,0,0-.53-.46,2.84,2.84,0,0,0-1.21,0l-1.3.12Z"/><path d="M220.43,24.21l19.22.87,2.27,8-3,1a10.73,10.73,0,0,0-1.63-3.18,4.86,4.86,0,0,0-2.18-1.66,9.34,9.34,0,0,0-2.84-.52l-3.52-.15-.28,6.2,1.16,0a4.68,4.68,0,0,0,1.76-.13,1.26,1.26,0,0,0,.69-.61,5.11,5.11,0,0,0,.27-1.73l0-.94,2.94.13-.48,10.53-2.93-.13.05-1.08a4.05,4.05,0,0,0-.17-1.6,1.3,1.3,0,0,0-.62-.71,5.74,5.74,0,0,0-1.82-.26l-1,0L228,44a4,4,0,0,0,0,1.11.55.55,0,0,0,.31.31,3.13,3.13,0,0,0,1,.16l1.94.09a8.94,8.94,0,0,0,3.67-.51,7,7,0,0,0,2.75-2,10.81,10.81,0,0,0,1.95-3.47l3,1.26L239.21,50l-19.9-.9.15-3.44.58,0a4.44,4.44,0,0,0,1.56-.11,1,1,0,0,0,.59-.6,8.09,8.09,0,0,0,.15-1.51L223,29.89a4.93,4.93,0,0,0-.07-1.45,1,1,0,0,0-.42-.52,2.57,2.57,0,0,0-1.16-.23l-1,0Z"/><path d="M247.75,25.59,258,27.68l.88,15.64,7.1-14,10.39,2.13-.69,3.37-1.12-.23a1.59,1.59,0,0,0-1.33.16,2.51,2.51,0,0,0-.67,1.47L269.7,50.05a4.29,4.29,0,0,0-.14,1.15.94.94,0,0,0,.31.58,1.94,1.94,0,0,0,.89.4l1.28.26-.69,3.37L260.5,53.59l.69-3.37.84.17a3.24,3.24,0,0,0,1.27.1,1,1,0,0,0,.58-.38,3.25,3.25,0,0,0,.4-1.17l3.07-15L257.71,53l-3.12-.64-1.32-20.64-3,14.82a1.49,1.49,0,0,0,0,.82,1.12,1.12,0,0,0,.39.53,2.57,2.57,0,0,0,1,.35l1.09.22L252,51.86,242.76,50l.69-3.37.92.19a3,3,0,0,0,1.21.07,1.06,1.06,0,0,0,.58-.43,3.79,3.79,0,0,0,.42-1.28l2.8-13.67a4.38,4.38,0,0,0,.14-1.24,1.1,1.1,0,0,0-.33-.65,1.91,1.91,0,0,0-.89-.37L247.06,29Z"/><path d="M281.61,33.26l18,6.77-.31,8.29-3.21,0a10.65,10.65,0,0,0-.57-3.53A4.93,4.93,0,0,0,294,42.57a9.84,9.84,0,0,0-2.55-1.37L288.14,40,286,45.77l1.09.41a4.87,4.87,0,0,0,1.71.43,1.26,1.26,0,0,0,.84-.37,5,5,0,0,0,.8-1.56l.33-.89,2.75,1-3.71,9.86-2.75-1,.38-1a3.92,3.92,0,0,0,.34-1.58,1.34,1.34,0,0,0-.37-.86,5.93,5.93,0,0,0-1.66-.82l-1-.36-2,5.35a4.28,4.28,0,0,0-.32,1.07.59.59,0,0,0,.2.4,2.93,2.93,0,0,0,.93.46l1.81.68a8.82,8.82,0,0,0,3.65.66,7.08,7.08,0,0,0,3.25-1.1,11.06,11.06,0,0,0,2.93-2.7L297.59,56l-6.08,7.59-18.66-7,1.21-3.22.55.2a4.37,4.37,0,0,0,1.51.38,1.07,1.07,0,0,0,.75-.39,8.71,8.71,0,0,0,.61-1.39l4.77-12.69a4.43,4.43,0,0,0,.37-1.4,1,1,0,0,0-.23-.63,2.78,2.78,0,0,0-1-.57l-1-.36Z"/><path d="M306.74,43.07,315,47.54l-1,16,4.24-7.8a4.83,4.83,0,0,0,.58-1.31,1.16,1.16,0,0,0-.1-.74,2.33,2.33,0,0,0-.88-.67l-1-.53,1.64-3L326.79,54l-1.64,3-.93-.5a2.32,2.32,0,0,0-1.08-.36,1,1,0,0,0-.66.24,5.12,5.12,0,0,0-.82,1.22l-9.19,16.91-4.17-2.27,1.25-20.19-6.13,11.27a4.65,4.65,0,0,0-.56,1.29.9.9,0,0,0,.16.64,2.48,2.48,0,0,0,.88.68l1,.53-1.65,3-8.37-4.55,1.65-3,.87.47a2.87,2.87,0,0,0,1.05.4,1.07,1.07,0,0,0,.68-.23,2.62,2.62,0,0,0,.7-.9l6.82-12.53a3.36,3.36,0,0,0,.43-1.14,1.19,1.19,0,0,0-.13-.7,1.92,1.92,0,0,0-.74-.59l-1.08-.59Z"/><path d="M332.54,56.86l1.76,1.29L334,59l10.46,7.69.72-.5,1.77,1.3-2.87,8.72-3.16-.89a25.82,25.82,0,0,0,.5-3.16,7.22,7.22,0,0,0-.41-2.84,3.08,3.08,0,0,0-1-1.47.63.63,0,0,0-.56-.16,1.91,1.91,0,0,0-.68.67l-8.47,11.52a8.67,8.67,0,0,0-.87,1.33,1,1,0,0,0-.08.58,1,1,0,0,0,.3.52,15.47,15.47,0,0,0,1.46,1.16l-2,2.77L320,79.54l2-2.78.55.41a4.11,4.11,0,0,0,1.25.73,1,1,0,0,0,.71-.14,4.92,4.92,0,0,0,1.08-1.19l8.66-11.78a1.45,1.45,0,0,0,.36-.71c0-.14-.13-.3-.36-.47a3.53,3.53,0,0,0-1.95-.57,6.73,6.73,0,0,0-2.68.46c-.38.14-1.31.62-2.79,1.43l-1.75-2.73Z"/><path d="M372.67,93.7l-4.79,7.12-2.79-1.63a11.79,11.79,0,0,0,.86-5.52,7,7,0,0,0-1.79-4,3.53,3.53,0,0,0-2-1.21,1.76,1.76,0,0,0-1.58.34,2.27,2.27,0,0,0-.69,1.65,6.4,6.4,0,0,0,.83,2.87l2,4.2a10.86,10.86,0,0,1,1.33,5.92,6.82,6.82,0,0,1-2.22,4.15,7.21,7.21,0,0,1-5.62,2,9.37,9.37,0,0,1-6.29-3.19,10.57,10.57,0,0,1-1.91-2.82,12,12,0,0,1-.92-3.51l-1.81.67-1.66-1.81,6-7.74,2.68,1.73A11.82,11.82,0,0,0,351,98.71a7.63,7.63,0,0,0,2,5.06,5.33,5.33,0,0,0,1.64,1.28,2.66,2.66,0,0,0,1.53.27,2.23,2.23,0,0,0,1.19-.55,2.29,2.29,0,0,0,.71-2,11.28,11.28,0,0,0-1.2-3.52l-1.72-3.66a17,17,0,0,1-.86-2.42,8.82,8.82,0,0,1-.42-2.73,6.3,6.3,0,0,1,.61-2.38,7,7,0,0,1,5-3.91,7.34,7.34,0,0,1,4.06.42,9.82,9.82,0,0,1,3.82,2.61,9.29,9.29,0,0,1,2.43,5.11l1.35-.37Z"/><path d="M376.73,98.27l6.62,9.33-2.8,2-.5-.7a2.65,2.65,0,0,0-.78-.84.55.55,0,0,0-.54.1,3.19,3.19,0,0,0-.82,1.23L375.25,115l6.54-.51,1-.07a1.27,1.27,0,0,0,.35-.17.54.54,0,0,0,.26-.42,1.81,1.81,0,0,0-.4-.8l-.67-1,2.8-2,5.32,7.49-2.81,2a3.69,3.69,0,0,0-1.23-1.2,4.1,4.1,0,0,0-1.79-.16l-11.44.59-3.62,2.57a4.88,4.88,0,0,0-1.16,1,1,1,0,0,0-.15.7,3.49,3.49,0,0,0,.64,1.19l.47.66-2.81,2L360,117.69l2.81-2,.35.5a4.35,4.35,0,0,0,1,1.14,1.13,1.13,0,0,0,.76.08,5.06,5.06,0,0,0,1.42-.79l3.17-2.25,4.67-10.83a4.22,4.22,0,0,0,.47-1.9,4.07,4.07,0,0,0-.75-1.39Z"/><path d="M400.41,136.11,394,141.78l-2.28-2.28a12,12,0,0,0,2.23-5.13,6.94,6.94,0,0,0-.72-4.3,3.54,3.54,0,0,0-1.6-1.68,1.74,1.74,0,0,0-1.61-.07,2.27,2.27,0,0,0-1.09,1.42,6.46,6.46,0,0,0,.07,3l.85,4.56a10.86,10.86,0,0,1-.21,6.06,6.82,6.82,0,0,1-3.2,3.46,7.19,7.19,0,0,1-5.93.46,9.33,9.33,0,0,1-5.28-4.67,10.7,10.7,0,0,1-1.13-3.22,12.16,12.16,0,0,1,0-3.62l-1.92.19L371,133.78l7.75-6,2.16,2.35a11.61,11.61,0,0,0-2.75,5.3,7.56,7.56,0,0,0,.64,5.39,5.43,5.43,0,0,0,1.26,1.66,2.72,2.72,0,0,0,1.41.64,2.23,2.23,0,0,0,1.3-.22,2.27,2.27,0,0,0,1.17-1.71,11,11,0,0,0-.26-3.71l-.74-4a17.51,17.51,0,0,1-.22-2.57,8.81,8.81,0,0,1,.29-2.75,6.47,6.47,0,0,1,1.19-2.14,7,7,0,0,1,2.09-1.71,6.85,6.85,0,0,1,3.7-.81,7.28,7.28,0,0,1,3.82,1.43,9.67,9.67,0,0,1,3,3.5A9.22,9.22,0,0,1,397.9,134h1.4Z"/><path d="M405,144l.77,2-.7.51,4.56,12.15.88,0,.78,2.06-7.16,5.74L402,164a25.11,25.11,0,0,0,2.14-2.38,7.16,7.16,0,0,0,1.21-2.61,3.07,3.07,0,0,0-.06-1.79.65.65,0,0,0-.39-.44,2,2,0,0,0-.93.19l-13.38,5a7.8,7.8,0,0,0-1.46.63.94.94,0,0,0-.42,1,14.11,14.11,0,0,0,.6,1.76l-3.22,1.21-4-10.53,3.22-1.21.24.64a4.32,4.32,0,0,0,.65,1.3,1,1,0,0,0,.67.26,4.67,4.67,0,0,0,1.55-.4l13.69-5.15a1.4,1.4,0,0,0,.69-.4.68.68,0,0,0-.05-.58,3.57,3.57,0,0,0-1.32-1.55,6.62,6.62,0,0,0-2.5-1.07,30.64,30.64,0,0,0-3.11-.33l0-3.24Z"/><path d="M412.57,167.46l4.28,18.75-7.08,4.32-1.8-2.66a10.78,10.78,0,0,0,2.63-2.42,4.93,4.93,0,0,0,1-2.54,10,10,0,0,0-.27-2.88l-.78-3.43L404.53,178l.26,1.13a4.84,4.84,0,0,0,.59,1.67,1.19,1.19,0,0,0,.77.49,4.85,4.85,0,0,0,1.74-.19l.92-.21.65,2.87-10.27,2.34-.66-2.87,1.05-.23a4.05,4.05,0,0,0,1.5-.59,1.32,1.32,0,0,0,.52-.79,5.58,5.58,0,0,0-.23-1.83l-.23-1L395.56,180a3.91,3.91,0,0,0-1.06.33.59.59,0,0,0-.23.38,3.21,3.21,0,0,0,.13,1l.43,1.88a8.73,8.73,0,0,0,1.47,3.41,7,7,0,0,0,2.7,2.11,10.9,10.9,0,0,0,3.87,1l-.43,3.2-9.69-.9L388.32,173l3.35-.76.13.56a4.63,4.63,0,0,0,.52,1.48,1.05,1.05,0,0,0,.73.4,7.29,7.29,0,0,0,1.5-.25l13.21-3a4.29,4.29,0,0,0,1.38-.46,1,1,0,0,0,.4-.54,2.65,2.65,0,0,0-.1-1.18l-.22-1Z"/><path d="M418.51,194.17l.7,10.4-14.84,5,15.39,3.11.72,10.58-3.44.23-.07-1.13a1.58,1.58,0,0,0-.51-1.25,2.53,2.53,0,0,0-1.6-.25l-14.09,1a3.7,3.7,0,0,0-1.15.18.92.92,0,0,0-.47.44,1.81,1.81,0,0,0-.15,1l.09,1.3-3.43.24-.75-11.06,3.43-.23.06.86a3.27,3.27,0,0,0,.25,1.25,1,1,0,0,0,.52.46,3.22,3.22,0,0,0,1.23.07l15.27-1-20.95-4.21-.22-3.18,19.55-6.77-15.09,1a1.48,1.48,0,0,0-.79.23,1.09,1.09,0,0,0-.4.52,2.53,2.53,0,0,0-.09,1l.08,1.11-3.43.23-.64-9.43,3.43-.23.07.93a2.71,2.71,0,0,0,.25,1.19,1,1,0,0,0,.56.44,3.69,3.69,0,0,0,1.36.07l13.91-.94a4.08,4.08,0,0,0,1.24-.2,1.16,1.16,0,0,0,.54-.48,2,2,0,0,0,.11-1l-.08-1.26Z"/><path d="M418.68,246l-8.48,1.3-.69-3.16a11.92,11.92,0,0,0,4.64-3.11,7,7,0,0,0,1.72-4,3.59,3.59,0,0,0-.44-2.28,1.8,1.8,0,0,0-1.32-.93,2.33,2.33,0,0,0-1.68.61,6.4,6.4,0,0,0-1.56,2.56l-1.74,4.3a10.81,10.81,0,0,1-3.45,5,6.84,6.84,0,0,1-4.56,1.19,7.2,7.2,0,0,1-5.25-2.81,9.4,9.4,0,0,1-1.92-6.79,10.64,10.64,0,0,1,.78-3.31,12.06,12.06,0,0,1,2-3.06l-1.72-.87.2-2.45,9.75-.84.55,3.14a11.66,11.66,0,0,0-5.17,3,7.58,7.58,0,0,0-2.38,4.89,5.53,5.53,0,0,0,.17,2.07,2.63,2.63,0,0,0,.84,1.3,2.24,2.24,0,0,0,1.21.52,2.26,2.26,0,0,0,1.91-.81,10.86,10.86,0,0,0,1.79-3.26l1.52-3.74a17.52,17.52,0,0,1,1.2-2.28,8.47,8.47,0,0,1,1.72-2.16,6.32,6.32,0,0,1,2.17-1.16,6.7,6.7,0,0,1,2.68-.31,6.86,6.86,0,0,1,3.55,1.31,7.37,7.37,0,0,1,2.45,3.26,10,10,0,0,1,.66,4.59,9.25,9.25,0,0,1-2.11,5.24l1.19.75Z"/><path class="cls-2" d="M182.83,143h17.41v5.47h-1.59a4,4,0,0,0-1.82.27,1.62,1.62,0,0,0-.67.85,7.59,7.59,0,0,0-.22,2.22v21.87a8.78,8.78,0,0,0,.18,2.29,1.28,1.28,0,0,0,.62.74,3.09,3.09,0,0,0,1.61.34h1.89v5.46H182.83v-5.46h1.42a5.15,5.15,0,0,0,2-.24,1.48,1.48,0,0,0,.68-.77,6.53,6.53,0,0,0,.22-2.08V152a8.59,8.59,0,0,0-.22-2.42,1.7,1.7,0,0,0-.73-.89,4,4,0,0,0-1.75-.23h-1.6Z"/><path class="cls-2" d="M230.86,143l3.06,13.26-4.77,1.5a19,19,0,0,0-5.39-6.95,10.71,10.71,0,0,0-6.4-2.2,5.46,5.46,0,0,0-3.46,1,2.84,2.84,0,0,0-1.27,2.21,3.67,3.67,0,0,0,1.15,2.58,9.68,9.68,0,0,0,4.14,2.13l6.85,2.21q5.7,1.81,8.13,4.82a11.05,11.05,0,0,1,2.4,7.06,11.54,11.54,0,0,1-3.68,8.67,14.24,14.24,0,0,1-10.22,3.91,16.31,16.31,0,0,1-5.21-.8,18.45,18.45,0,0,1-5-2.71l-1.13,2.83h-3.8l-2.53-15.32,4.77-1.27a18.66,18.66,0,0,0,5.26,7.8,11.59,11.59,0,0,0,7.83,3.13,8.11,8.11,0,0,0,3.18-.54,4.18,4.18,0,0,0,1.91-1.5,3.58,3.58,0,0,0,.64-2,3.68,3.68,0,0,0-1.49-2.92,17.18,17.18,0,0,0-5.26-2.41l-6-1.92A25.84,25.84,0,0,1,211,164a13.42,13.42,0,0,1-3.55-2.45,10.35,10.35,0,0,1-2.06-3.27,11.41,11.41,0,0,1,.76-10,11.39,11.39,0,0,1,4.73-4.29,14.83,14.83,0,0,1,7-1.65,14,14,0,0,1,8.36,2.67l1-2Z"/><path class="cls-2" d="M257.64,142.35a17.79,17.79,0,0,1,13.74,5.72q5.25,5.73,5.25,14.7a23.11,23.11,0,0,1-2.4,10.71,17.48,17.48,0,0,1-6.63,7.21,19.53,19.53,0,0,1-10.21,2.53q-7.9,0-12.94-4.81-6.07-5.81-6.08-15.52,0-9,5.33-14.79T257.64,142.35Zm.1,6.29a7.54,7.54,0,0,0-6.46,3.37q-3,4.25-3,11t2.81,10.62a7.82,7.82,0,0,0,12.83,0q2.85-4,2.84-10.67a22.46,22.46,0,0,0-1.21-7.91,10.52,10.52,0,0,0-3.29-4.78A7.23,7.23,0,0,0,257.74,148.64Z"/><path class="cls-2" d="M87.84,233.14v-4.63a30.16,30.16,0,0,0,6.51-.86,12.64,12.64,0,0,0,4.05-1.85A10,10,0,0,0,101,223a11,11,0,0,0,1.4-3.71,13.18,13.18,0,0,1-3.56,2.06,10.7,10.7,0,0,1-3.62.6,10.91,10.91,0,0,1-5.57-1.42,9.67,9.67,0,0,1-3.74-3.82A12.88,12.88,0,0,1,88,202.48q3.34-3.4,9.07-3.4,5.91,0,9.23,3.49,3.89,4.1,3.89,11.24a22.68,22.68,0,0,1-1.32,8.21,16.15,16.15,0,0,1-4.11,6,17.6,17.6,0,0,1-6.58,3.85A35.2,35.2,0,0,1,87.84,233.14Zm9.33-16.57a4.8,4.8,0,0,0,4.6-2.95,7.78,7.78,0,0,0,.66-3.28A6.52,6.52,0,0,0,101,206a4.65,4.65,0,0,0-3.67-1.7,4.76,4.76,0,0,0-3.74,1.7,6.53,6.53,0,0,0-1.48,4.46,6.63,6.63,0,0,0,1.44,4.47A4.55,4.55,0,0,0,97.17,216.57Z"/><path class="cls-2" d="M126.56,199.08a11.92,11.92,0,0,1,6.83,1.93,12.71,12.71,0,0,1,4.48,5.52,22.42,22.42,0,0,1,1.62,9.17q0,6.27-1.49,9.68a13.18,13.18,0,0,1-4.55,5.8,12.13,12.13,0,0,1-7,2,11.94,11.94,0,0,1-6.87-1.9,12.92,12.92,0,0,1-4.44-5.62,28.21,28.21,0,0,1,0-18.93,13.1,13.1,0,0,1,4.53-5.64A12.06,12.06,0,0,1,126.56,199.08Zm5.54,17q0-6.45-1.73-9.35a4.57,4.57,0,0,0-4-2.52c-1.54,0-2.82.89-3.87,2.66s-1.56,4.85-1.56,9.21.52,7.43,1.57,9.2,2.37,2.65,4,2.65,3-.91,4-2.72S132.1,220.39,132.1,216.12Z"/><path class="cls-2" d="M155.36,199.08a11.88,11.88,0,0,1,6.82,1.93,12.73,12.73,0,0,1,4.49,5.52,22.42,22.42,0,0,1,1.62,9.17q0,6.27-1.5,9.68a13.16,13.16,0,0,1-4.54,5.8,12.16,12.16,0,0,1-7,2,11.94,11.94,0,0,1-6.87-1.9,12.78,12.78,0,0,1-4.44-5.62,28.21,28.21,0,0,1,0-18.93,13,13,0,0,1,4.52-5.64A12.09,12.09,0,0,1,155.36,199.08Zm5.53,17q0-6.45-1.72-9.35a4.58,4.58,0,0,0-4-2.52q-2.29,0-3.86,2.66t-1.57,9.21c0,4.37.53,7.43,1.58,9.2s2.37,2.65,4,2.65,2.95-.91,4-2.72S160.89,220.39,160.89,216.12Z"/><path class="cls-2" d="M188.58,199.08v25.83a8.12,8.12,0,0,0,.13,2,1.38,1.38,0,0,0,.68.84,4.58,4.58,0,0,0,1.8.24h3v4.58H175.85V228h3a5.72,5.72,0,0,0,2-.22,1.45,1.45,0,0,0,.67-.73,6.4,6.4,0,0,0,.22-2.13V206.49h-6v-4.58a34.84,34.84,0,0,0,3.92-.59,38.6,38.6,0,0,0,4.34-1.22,15.62,15.62,0,0,0,2.39-1Z"/><path class="cls-2" d="M220.72,208.45a3.62,3.62,0,0,1,2.79,1.3,4.77,4.77,0,0,1,0,6.25,3.69,3.69,0,0,1-5.62,0,4.75,4.75,0,0,1,0-6.24A3.67,3.67,0,0,1,220.72,208.45Zm0,15.72a3.62,3.62,0,0,1,2.8,1.29,4.74,4.74,0,0,1,0,6.21,3.64,3.64,0,0,1-2.8,1.28,3.68,3.68,0,0,1-2.82-1.28,4.74,4.74,0,0,1,0-6.21A3.66,3.66,0,0,1,220.72,224.17Z"/><path class="cls-2" d="M249.31,212.7l-4.31.43a13,13,0,0,1-.23-2.34,11.56,11.56,0,0,1,1.45-5.91,11.07,11.07,0,0,1,4.46-4.16,13.82,13.82,0,0,1,6.7-1.64,13,13,0,0,1,6.12,1.43,10.13,10.13,0,0,1,4.12,3.69A9,9,0,0,1,269,209a11.5,11.5,0,0,1-1,4.72,14.85,14.85,0,0,1-3.55,4.75,97,97,0,0,1-9.91,7.34h7.15a7.41,7.41,0,0,0,2.22-.2,1.82,1.82,0,0,0,.81-.8,6.24,6.24,0,0,0,.57-2l.17-1.09h4.14l-1.94,12.06h-2.81l-.26-1.16H245V228a127.92,127.92,0,0,0,11-9.21,20.13,20.13,0,0,0,4.54-5.38,7.68,7.68,0,0,0,.83-3.47,4.67,4.67,0,0,0-1.56-3.55,5.92,5.92,0,0,0-4.19-1.45,6.85,6.85,0,0,0-3.37.79A5.68,5.68,0,0,0,250,208a6.32,6.32,0,0,0-.81,3.1A12.74,12.74,0,0,0,249.31,212.7Z"/><path class="cls-2" d="M286.22,199.08A11.88,11.88,0,0,1,293,201a12.73,12.73,0,0,1,4.49,5.52,22.42,22.42,0,0,1,1.62,9.17q0,6.27-1.49,9.68a13.25,13.25,0,0,1-4.55,5.8,12.16,12.16,0,0,1-7,2,11.94,11.94,0,0,1-6.87-1.9,12.78,12.78,0,0,1-4.44-5.62,28.21,28.21,0,0,1,0-18.93,13,13,0,0,1,4.52-5.64A12.09,12.09,0,0,1,286.22,199.08Zm5.53,17q0-6.45-1.72-9.35a4.58,4.58,0,0,0-4-2.52q-2.29,0-3.86,2.66t-1.57,9.21c0,4.37.53,7.43,1.58,9.2s2.37,2.65,4,2.65,2.95-.91,4-2.72S291.75,220.39,291.75,216.12Z"/><path class="cls-2" d="M319.44,199.08v25.83a8.7,8.7,0,0,0,.13,2,1.38,1.38,0,0,0,.68.84,4.61,4.61,0,0,0,1.8.24h3v4.58H306.71V228h3a5.72,5.72,0,0,0,2-.22,1.45,1.45,0,0,0,.67-.73,6.4,6.4,0,0,0,.22-2.13V206.49h-6v-4.58a34.84,34.84,0,0,0,3.92-.59A38.6,38.6,0,0,0,315,200.1a15.62,15.62,0,0,0,2.39-1Z"/><path class="cls-2" d="M333.56,217.7l.79-18h15a4,4,0,0,0,1.8-.25,1.09,1.09,0,0,0,.45-.88h2.86v8.21H338.93l-.19,4.22a41.34,41.34,0,0,1,4.71-.3,16.66,16.66,0,0,1,7.28,1.41,9.76,9.76,0,0,1,4.32,3.8,11.64,11.64,0,0,1-2.64,14.38,13.62,13.62,0,0,1-8.79,2.9,14.4,14.4,0,0,1-6.22-1.31,10,10,0,0,1-4.12-3.27,6.83,6.83,0,0,1-1.36-3.94,3.87,3.87,0,0,1,1-2.66,3.1,3.1,0,0,1,2.38-1.07,3,3,0,0,1,1.83.61,4.93,4.93,0,0,1,1.45,2.06,12,12,0,0,0,1.62,2.86,5.06,5.06,0,0,0,1.74,1.36,5.14,5.14,0,0,0,2.24.47,6,6,0,0,0,2.94-.72,4.84,4.84,0,0,0,2-1.95,6,6,0,0,0,.66-2.85,5.43,5.43,0,0,0-2.07-4.41c-1.37-1.14-3.55-1.7-6.51-1.7A26.19,26.19,0,0,0,333.56,217.7Z"/><path class="cls-2" d="M145.8,252.51h3l2.92,11.82-4,1.28a22.39,22.39,0,0,0-3.72-6,7.36,7.36,0,0,0-5.26-2.43,6.57,6.57,0,0,0-3.87,1.28,8.53,8.53,0,0,0-2.85,3.75A14.63,14.63,0,0,0,131,268a15.49,15.49,0,0,0,2.42,8.73,7.31,7.31,0,0,0,6.34,3.66,8.36,8.36,0,0,0,4.79-1.58,17.58,17.58,0,0,0,5-5.27l3.3,2.72a26.11,26.11,0,0,1-5.87,6.77A15.3,15.3,0,0,1,137.8,286a13.48,13.48,0,0,1-7.59-2.23,15.85,15.85,0,0,1-5.42-6.24,19.19,19.19,0,0,1-2-8.76,18.76,18.76,0,0,1,2-8.6,15.14,15.14,0,0,1,5.36-6.06,14.57,14.57,0,0,1,15-.18Z"/><path class="cls-2" d="M174.42,276.7l2.92,3.26a17.48,17.48,0,0,1-5.13,4.61,11.41,11.41,0,0,1-5.63,1.43,10.61,10.61,0,0,1-8.18-3.65,12.62,12.62,0,0,1-3.32-8.81,13.14,13.14,0,0,1,1.49-6.22,11,11,0,0,1,4.13-4.41,11.31,11.31,0,0,1,6-1.6,10.42,10.42,0,0,1,3.87.69,8.92,8.92,0,0,1,3.06,2,9.69,9.69,0,0,1,2.11,3.08,14.88,14.88,0,0,1,1.1,3.74,27.75,27.75,0,0,1,.12,3.07H162.62a7.53,7.53,0,0,0,1.59,4.85,4.76,4.76,0,0,0,3.78,1.85,6.39,6.39,0,0,0,3.11-1A12.52,12.52,0,0,0,174.42,276.7Zm-4.26-6.82a5.78,5.78,0,0,0-.61-2.23,3.52,3.52,0,0,0-1.24-1.3,3.06,3.06,0,0,0-1.63-.48,3.32,3.32,0,0,0-1.73.49,3.77,3.77,0,0,0-1.34,1.35,5.56,5.56,0,0,0-.65,2.17Z"/><path class="cls-2" d="M189.88,261.31v3.43a12.65,12.65,0,0,1,3-2.71,4.8,4.8,0,0,1,2.4-.72,3.4,3.4,0,0,1,1.87.53,3.7,3.7,0,0,1,1.3,1.53,4.81,4.81,0,0,1,.48,2.12,4.37,4.37,0,0,1-.89,2.69,2.91,2.91,0,0,1-2.48,1.2,3.45,3.45,0,0,1-.76-.07,10.85,10.85,0,0,1-1.4-.47,3.19,3.19,0,0,0-.92-.19,4.34,4.34,0,0,0-1.83.78v9.23a4.52,4.52,0,0,0,.16,1.54,1,1,0,0,0,.52.51,4.57,4.57,0,0,0,1.57.17h.94v4.55H180.66v-4.55h1.09a4.55,4.55,0,0,0,1.47-.14,1,1,0,0,0,.44-.5,5,5,0,0,0,.15-1.58V267.83h-3.15V263.3a20.38,20.38,0,0,0,7.22-2Z"/><path class="cls-2" d="M210.09,253.78v8.1H217v5h-6.86v8.21a14.28,14.28,0,0,0,.27,3.58,2.45,2.45,0,0,0,1,1.26,3.91,3.91,0,0,0,2.19.64,7.35,7.35,0,0,0,4.37-1.59v5.06a16.28,16.28,0,0,1-3.35,1.35,12.92,12.92,0,0,1-3.25.39,10.26,10.26,0,0,1-3.51-.55,7.36,7.36,0,0,1-2.59-1.58,5.67,5.67,0,0,1-1.49-2.19,10.3,10.3,0,0,1-.42-3.35V266.91h-3.19v-4.53a8.37,8.37,0,0,0,2.91-1.76,8.8,8.8,0,0,0,1.95-2.75,13.35,13.35,0,0,0,1-4.09Z"/><path class="cls-2" d="M230.58,261.31v17.45a5.34,5.34,0,0,0,.13,1.53.94.94,0,0,0,.46.44,4.45,4.45,0,0,0,1.48.15h1.15v4.55H220.64v-4.55h1.13a4.5,4.5,0,0,0,1.41-.13.86.86,0,0,0,.46-.44,3.21,3.21,0,0,0,.15-1.22V267.83h-3.15v-4.44a23.41,23.41,0,0,0,3.22-.4,21.89,21.89,0,0,0,2.76-.73,12.93,12.93,0,0,0,1.94-.95Zm-3.45-10.52a3.59,3.59,0,0,1,2.76,1.26,4.4,4.4,0,0,1,1.14,3.06,4.45,4.45,0,0,1-1.14,3.08,3.64,3.64,0,0,1-5.51,0,4.63,4.63,0,0,1,0-6.12A3.57,3.57,0,0,1,227.13,250.79Z"/><path class="cls-2" d="M249.8,261.88v5h-3.45v11.56a7.43,7.43,0,0,0,.1,1.68,1.07,1.07,0,0,0,.49.59,3.33,3.33,0,0,0,1.41.19h1.19v4.55H236.4v-4.55h1a5,5,0,0,0,1.56-.14.93.93,0,0,0,.41-.51,6.94,6.94,0,0,0,.14-1.81V266.86H236.4v-5h3.15v-2.46a9.26,9.26,0,0,1,.83-4.22,7.55,7.55,0,0,1,3.15-3.19,10.5,10.5,0,0,1,5.2-1.22,7.64,7.64,0,0,1,5,1.5,4.29,4.29,0,0,1,1.81,3.31,3.41,3.41,0,0,1-.82,2.35,2.77,2.77,0,0,1-2.17.91,3.06,3.06,0,0,1-1-.18,3.32,3.32,0,0,1-.95-.53A8.31,8.31,0,0,1,249.5,257a6.83,6.83,0,0,0-1-1,1.09,1.09,0,0,0-.6-.21,1.28,1.28,0,0,0-1.15.74,7,7,0,0,0-.41,3v2.46Z"/><path class="cls-2" d="M262.85,261.31v17.45a5,5,0,0,0,.13,1.53.9.9,0,0,0,.46.44,4.45,4.45,0,0,0,1.48.15h1.15v4.55H252.91v-4.55H254a4.58,4.58,0,0,0,1.42-.13.86.86,0,0,0,.46-.44,3.21,3.21,0,0,0,.15-1.22V267.83h-3.15v-4.44a23.41,23.41,0,0,0,3.22-.4,21.89,21.89,0,0,0,2.76-.73,13.41,13.41,0,0,0,1.94-.95Zm-3.45-10.52a3.59,3.59,0,0,1,2.76,1.26,4.4,4.4,0,0,1,1.14,3.06,4.45,4.45,0,0,1-1.14,3.08,3.65,3.65,0,0,1-5.52,0,4.63,4.63,0,0,1,0-6.12A3.59,3.59,0,0,1,259.4,250.79Z"/><path class="cls-2" d="M287.81,276.7l2.92,3.26a17.33,17.33,0,0,1-5.12,4.61A11.47,11.47,0,0,1,280,286a10.6,10.6,0,0,1-8.18-3.65,12.59,12.59,0,0,1-3.33-8.81,13,13,0,0,1,1.5-6.22,11,11,0,0,1,4.13-4.41,11.27,11.27,0,0,1,6-1.6A10.51,10.51,0,0,1,284,262a9.11,9.11,0,0,1,3.06,2,9.66,9.66,0,0,1,2.1,3.08,14.47,14.47,0,0,1,1.1,3.74,24.93,24.93,0,0,1,.13,3.07H276a7.53,7.53,0,0,0,1.59,4.85,4.76,4.76,0,0,0,3.78,1.85,6.36,6.36,0,0,0,3.11-1A12.52,12.52,0,0,0,287.81,276.7Zm-4.26-6.82a6,6,0,0,0-.6-2.23,3.6,3.6,0,0,0-1.24-1.3,3.09,3.09,0,0,0-1.64-.48,3.34,3.34,0,0,0-1.73.49,3.74,3.74,0,0,0-1.33,1.35,5.24,5.24,0,0,0-.65,2.17Z"/><path class="cls-2" d="M315.93,250.79v27.45a8,8,0,0,0,.13,2,.92.92,0,0,0,.43.5,4.59,4.59,0,0,0,1.63.17h1v4.55l-9.24.36v-2.43a15.47,15.47,0,0,1-3.51,2.06,8.35,8.35,0,0,1-3,.58,7.57,7.57,0,0,1-4.5-1.47,10.65,10.65,0,0,1-3.37-4.38,16.54,16.54,0,0,1,0-12.95,10.52,10.52,0,0,1,3.48-4.4,8.24,8.24,0,0,1,4.79-1.49,9.35,9.35,0,0,1,2.61.37,11.85,11.85,0,0,1,2.76,1.28v-5.61H306v-4.56a30,30,0,0,0,4.29-.72,24.67,24.67,0,0,0,3.56-1.28Zm-6.81,27.89v-7.9a7.86,7.86,0,0,0-.19-2.1,2.93,2.93,0,0,0-1.16-1.54,3.37,3.37,0,0,0-2-.66,3.4,3.4,0,0,0-2.13.77,5.16,5.16,0,0,0-1.56,2.35,11.72,11.72,0,0,0-.57,3.94,9.42,9.42,0,0,0,1.3,5.26,3,3,0,0,0,2.66,1.56,3.62,3.62,0,0,0,1.39-.27A14.46,14.46,0,0,0,309.12,278.68Z"/><rect class="cls-1" x="50.96" y="334.92" width="342.52" height="115.2"/><g id="Layer_2-2" data-name="Layer 2-2"><g id="_Group_" data-name=" Group "><g id="_Path_" data-name=" Path "><path class="cls-3" d="M285.69,420.68a36.07,36.07,0,0,1-9.05.09c-.53,0-.68-.46-.88-.82-1.9-3.37-3.79-6.74-5.77-10.11-1.53-2.71-3-5.44-4.59-8.15-.3-.52-.25-.75.3-1a21.1,21.1,0,0,0,4.78-2.82,7.69,7.69,0,0,0,2.21-9.26,6,6,0,0,0-4.66-3.47,12.43,12.43,0,0,0-3.7-.17c-.66.07-.91.32-.89,1v33.8c0,.75-.13,1.07-1,1.14a35.59,35.59,0,0,1-7,0c-.52,0-.69-.24-.65-.72a4,4,0,0,0,0-.49v-40c0-1.07,0-1.07,1-1.23a56.36,56.36,0,0,1,11.68-.5,19.51,19.51,0,0,1,9.3,2.6,11.12,11.12,0,0,1,5.52,8.9,13.25,13.25,0,0,1-2.77,9.86,12.22,12.22,0,0,1-3.45,3c-.57.35-.72.61-.33,1.28,3.22,5.5,6.37,11.05,9.54,16.57A1.33,1.33,0,0,1,285.69,420.68Z"/></g><g id="_Path_2" data-name=" Path 2"><path class="cls-3" d="M332.66,421.39a26.87,26.87,0,0,1-10.23-1.77c-.71-.26-.83-.57-.7-1.29a48.08,48.08,0,0,1,1.45-5.67c.18-.59.4-.67.95-.45a22.17,22.17,0,0,0,9.61,1.73,11,11,0,0,0,3.8-.82,4.65,4.65,0,0,0,3.07-3.94,5,5,0,0,0-2.13-5,19.47,19.47,0,0,0-4.25-1.95,44.51,44.51,0,0,1-6.43-2.77,9.53,9.53,0,0,1-5-8.31,12.9,12.9,0,0,1,1.44-7.44,11.55,11.55,0,0,1,8-5.47,28.72,28.72,0,0,1,15.44,1.36c.34.12.57.28.51.69a21.93,21.93,0,0,1-1.63,5.78c-.25.59-.65.24-1,.11a19.88,19.88,0,0,0-8.38-1.51,8.54,8.54,0,0,0-3.24.59c-2.89,1.17-2.89,5.18-1.45,6.72a7,7,0,0,0,2.4,1.64c2.8,1.21,5.77,2.16,8.47,3.47a10.57,10.57,0,0,1,6.38,10,13,13,0,0,1-2.88,9.34,14.74,14.74,0,0,1-8.17,4.56A24,24,0,0,1,332.66,421.39Z"/></g><g id="_Path_3" data-name=" Path 3"><path class="cls-3" d="M144.91,358.52l-2.78,3.3q-4.17,5-8.34,10.11c-.85,1-.84,1.05-2,.52A16.66,16.66,0,0,1,121.35,359a38.54,38.54,0,0,1,1.17-15.37c0-.09.09-.16.17-.33a14.46,14.46,0,0,0,4.78,9,23.75,23.75,0,0,0,9.89,4.85,41,41,0,0,0,6.49,1.21C144.14,358.33,144.43,358.42,144.91,358.52Z"/></g><g id="_Path_4" data-name=" Path 4"><path class="cls-3" d="M177,343.28a16.14,16.14,0,0,1,1,4.05,36.36,36.36,0,0,1,.62,8.83A18.77,18.77,0,0,1,174.9,367a17.41,17.41,0,0,1-7.67,5.51.65.65,0,0,1-.9-.23l-9.6-11.54-2-2.38c1.63-.26,3.11-.47,4.6-.74a33,33,0,0,0,8.66-2.74A15.43,15.43,0,0,0,177,343.28Z"/></g><g id="_Compound_Path_" data-name=" Compound Path "><path class="cls-3" d="M320.91,397.58a30,30,0,0,0-1.8-9,15.78,15.78,0,0,0-10.64-10.1,21.86,21.86,0,0,0-9.28-.48A15.41,15.41,0,0,0,287,386.62a28.71,28.71,0,0,0-2.72,13,30.3,30.3,0,0,0,1.76,10.8,16.06,16.06,0,0,0,9.88,10,21.81,21.81,0,0,0,8.57.94,16.69,16.69,0,0,0,6.21-1.45,16.28,16.28,0,0,0,8.77-10.23A32,32,0,0,0,320.91,397.58ZM310.27,409a8.23,8.23,0,0,1-10.61,4.77A8,8,0,0,1,298,413a9.37,9.37,0,0,1-3.68-5.78,32.65,32.65,0,0,1-.68-10.84,18.62,18.62,0,0,1,1.82-7c2.55-4.92,8.66-5.07,11.89-2.89a9.29,9.29,0,0,1,3.55,5.65,26.3,26.3,0,0,1,.81,7.44A24.48,24.48,0,0,1,310.27,409Z"/></g><g id="_Compound_Path_2" data-name=" Compound Path 2"><path class="cls-3" d="M252.47,389.75a12.44,12.44,0,0,0-5.69-9.44,17.5,17.5,0,0,0-8.81-2.48,82.58,82.58,0,0,0-12.28.35c-1.1.1-1.11,0-1.11,1.15v40.73c0,.36,0,.68.51.74a37.53,37.53,0,0,0,7.11.1c.72,0,1-.33,1-1.14V407.65c0-.36.18-.53.56-.48a24.88,24.88,0,0,0,7.84-.47,12.51,12.51,0,0,0,10.43-9A18.69,18.69,0,0,0,252.47,389.75Zm-9.1,5.78a6.49,6.49,0,0,1-6.19,4.54h-3.12c-.66,0-.91-.23-.89-.91V385.78c0-.56.14-.78.73-.85a12.34,12.34,0,0,1,5.4.41,6,6,0,0,1,3.91,3.81,10,10,0,0,1,.16,6.36Z"/></g><g id="_Path_5" data-name=" Path 5"><path class="cls-3" d="M103.05,392.06c-.13,4.59-.28,9.17-.41,13.74s-.27,9.5-.39,14.26c0,.51-.13.71-.66.8a20.92,20.92,0,0,1-6.32,0c-.56-.1-.56-.34-.56-.78q.58-14.44,1.12-29c.16-4,.35-7.93.48-11.9,0-.61.21-.8.82-.88a31.49,31.49,0,0,1,7.39,0,1.32,1.32,0,0,1,1.27,1.05q4.45,11.25,9,22.43l.26.63c.39-.12.39-.5.51-.77q4.62-11.16,9.18-22.33a1.45,1.45,0,0,1,1.31-1.06,26.76,26.76,0,0,1,6.81.09c.47,0,.65.19.68.69.23,5.47.51,10.93.77,16.4l1.12,23.8c.09,1.6.11,1.59-1.51,1.75a24.93,24.93,0,0,1-6-.13c-.49,0-.69-.21-.72-.77q-.37-10.86-.78-21.75c0-2-.16-3.91-.23-5.9-.37.16-.4.55-.53.85q-3.81,8.79-7.6,17.61a1.54,1.54,0,0,1-1.44,1.17,23.66,23.66,0,0,1-4.76,0,1.18,1.18,0,0,1-1.11-1Q107.19,402,103.6,393c-.13-.34-.26-.65-.41-1Z"/></g><g id="_Path_6" data-name=" Path 6"><path class="cls-3" d="M139.33,424.1a37.52,37.52,0,0,1,.89-5.26c1.67-8.82,3.24-17.66,4.64-26.52.7-4.33,1.45-8.8,2-13.21a1.3,1.3,0,0,0-.33-1.14c-1.53-1.81-3-3.71-4.46-5.55a3.69,3.69,0,0,1,0-5.05q2.69-3.76,5.51-7.34a5.06,5.06,0,0,1,.67-.72,2,2,0,0,1,2.8-.43,1.93,1.93,0,0,1,.54.6c2,2.57,4.05,5.19,6,7.83a3.84,3.84,0,0,1-.18,4.83L153,377.92a1.59,1.59,0,0,0-.36,1.34c.94,8.1,2.15,16.16,3.51,24.22,1,6.32,2.26,12.6,3.48,18.89a7.91,7.91,0,0,1-1.45,6.56c-1.83,2.41-3.72,4.76-5.77,7-.17.18-.36.37-.55.54a3,3,0,0,1-4.2.25,2.46,2.46,0,0,1-.43-.48c-1.23-1.34-2.41-2.74-3.58-4.14-.93-1.14-1.79-2.22-2.72-3.38A7.62,7.62,0,0,1,139.33,424.1Z"/></g><g id="_Path_7" data-name=" Path 7"><path class="cls-3" d="M172.14,394.44c.25-.29.36-.44.48-.59,3.3-4.39,8.34-5.14,13-3.42a8.25,8.25,0,0,1,5.24,6.76,23.22,23.22,0,0,1,.39,4.56v18.07c0,.75-.22,1-.94,1.08a27.89,27.89,0,0,1-6.71,0c-.62-.09-.78-.3-.78-.91V403.78a12.73,12.73,0,0,0-.49-4.21,3.58,3.58,0,0,0-3.44-2.56,5.41,5.41,0,0,0-5.94,4.83v0a19.34,19.34,0,0,0-.24,3.48v14.43c0,.83-.27,1.06-1,1.13a26.14,26.14,0,0,1-6.73,0c-.49,0-.69-.2-.69-.76V391c0-.54.17-.75.66-.83a18.44,18.44,0,0,1,5.55,0,1,1,0,0,1,.92.84C171.77,392.08,171.88,393.17,172.14,394.44Z"/></g><g id="_Path_8" data-name=" Path 8"><path class="cls-3" d="M256.65,427.27h90.92c.71-.12.77.27.79.85s-.26.79-.8.72H165.82c-.61,0-.94,0-.94-.8s.38-.77,1-.77Z"/></g><g id="_Path_9" data-name=" Path 9"><path class="cls-3" d="M310.53,436.85c.81-1.29,1.56-2.47,2.25-3.67a1.31,1.31,0,0,1,1.56-.68c.7.18.71.76.71,1.33v6.73a.94.94,0,0,1-1,1.07,1,1,0,0,1-1-1,.66.66,0,0,1,0-.14V436.4a3.31,3.31,0,0,0-.9,1.17c-1.44,2.37-1.89,2.41-3.33,0a3.55,3.55,0,0,0-.87-1v3.71c0,.93-.31,1.44-.93,1.44s-1-.48-1-1.44V434c0-.61,0-1.23.69-1.45a1.35,1.35,0,0,1,1.68.81C309.05,434.5,309.77,435.65,310.53,436.85Z"/></g><g id="_Path_10" data-name=" Path 10"><path class="cls-3" d="M280.05,437.72V434a2.05,2.05,0,0,1,.13-.95.89.89,0,0,1,1-.55.86.86,0,0,1,.8.74c0,.22,0,.45,0,.68v6.25c0,.59,0,1.19-.7,1.44s-1.15-.2-1.54-.72c-1-1.35-2-2.69-3.07-4-.19-.24-.31-.56-.75-.72v4.68a.9.9,0,0,1-.88.88,1,1,0,0,1-1-.84,1.35,1.35,0,0,1,0-.49v-6.55c0-.55.08-1.07.67-1.26a1.37,1.37,0,0,1,1.58.49l3.06,4c.19.25.39.48.59.71Z"/></g><g id="_Path_11" data-name=" Path 11"><path class="cls-3" d="M323.57,436.16v3.89a3.39,3.39,0,0,1,0,.78,1,1,0,0,1-1.07.8h0a.86.86,0,0,1-.85-.88V433.4a.85.85,0,0,1,.62-.88,1.42,1.42,0,0,1,1.57.48l3.08,4a2.66,2.66,0,0,0,.77.83v-4.33a1,1,0,0,1,.73-1.14,1,1,0,0,1,1.2.62,1.14,1.14,0,0,1,0,.37v7.13a1,1,0,0,1-.68,1,1.09,1.09,0,0,1-1.31-.39c-.6-.73-1.16-1.44-1.74-2.23L323.77,436Z"/></g><g id="_Path_12" data-name=" Path 12"><path class="cls-3" d="M183.56,437.09v-3.21c0-1.07.35-1.33,1.36-1.33h4.33c.65,0,1.15.21,1.17.88s-.48.92-1.13.91h-3.13c-.75,0-.67.42-.64.86s-.2,1,.64,1,1.7,0,2.54,0,1.14.25,1.14.92-.55.9-1.17.9h-2.54c-.85,0-.59.58-.61,1s-.16.93.62.89h3.12c1,0,1.26.35,1.21.94s-.56.86-1.17.86h-4.48c-1,0-1.3-.33-1.32-1.44S183.56,438.09,183.56,437.09Z"/></g><g id="_Path_13" data-name=" Path 13"><path class="cls-3" d="M233.56,437v-3.21c0-1.09.36-1.28,1.31-1.28h4.33c.81,0,1.29.35,1.23.91a1,1,0,0,1-1.19.87h-2.33c-1.53,0-1.45-.19-1.45.88s-.08.91,1.45.92h1.76c.57,0,1.14.25,1.12.94s-.55.88-1.17.88H236.1c-.84,0-.64.55-.64,1s-.16,1,.61.91,1.82,0,2.73,0h.69a.88.88,0,0,1,.95.91c0,.6-.39.87-.95.88h-4.88c-.78,0-1.05-.53-1.05-1.24Z"/></g><g id="_Path_14" data-name=" Path 14"><path class="cls-3" d="M181.39,437.09v3.32c0,.77-.39,1.2-1,1.2s-1-.46-1-1.21,0-1.3,0-1.95c0-.42-.12-.56-.55-.55h-2.63c-.37,0-.53.13-.52.51v2a1,1,0,0,1-.84,1.13h-.11a1,1,0,0,1-1-1.14v-6.93c0-.77.4-1.17,1-1.13a1,1,0,0,1,.95,1.12v1.94c0,.65.16.57.58.57h2.63c.39,0,.49-.16.49-.52v-2.05a.92.92,0,0,1,.81-1h.2c.68,0,1,.44,1,1.09Z"/></g><g id="_Path_15" data-name=" Path 15"><path class="cls-3" d="M253.48,441.68a5.67,5.67,0,0,1-3-.88c-.63-.4-.84-1-.48-1.44a1,1,0,0,1,1.35-.24l.1.08a3.55,3.55,0,0,0,2.37.72c.51,0,1-.18,1.08-.78s-.39-.78-.82-.92c-.71-.24-1.45-.4-2.14-.65a2.37,2.37,0,0,1-1.83-2.65,2.63,2.63,0,0,1,2.18-2.42,4.94,4.94,0,0,1,3.66.58,1,1,0,0,1,.58,1.22l-.07.15a.93.93,0,0,1-1.27.38.71.71,0,0,1-.18-.12,3.73,3.73,0,0,0-1.84-.55c-.49,0-1,.11-1.13.71s.38.8.81.94,1.25.36,1.86.58c1.66.56,2.34,1.44,2.12,2.88a2.88,2.88,0,0,1-2.88,2.4Z"/></g><g id="_Path_16" data-name=" Path 16"><path class="cls-3" d="M345,441.67a5.58,5.58,0,0,1-3.06-.81c-.75-.45-1-1-.61-1.44s.84-.56,1.55-.13a3.6,3.6,0,0,0,2.29.68c.49,0,1-.13,1.09-.75s-.37-.81-.8-1c-.71-.24-1.44-.4-2.13-.65a2.32,2.32,0,0,1-1.84-2.69,2.57,2.57,0,0,1,2.15-2.43,5.11,5.11,0,0,1,3.67.56c.52.29.82.68.55,1.27s-.83.68-1.45.39a3.8,3.8,0,0,0-1.74-.56c-.52,0-1.1,0-1.23.69s.41.83.88,1,1.24.37,1.86.57c1.56.55,2.2,1.44,2,2.8a2.77,2.77,0,0,1-2.7,2.48Z"/></g><g id="_Path_17" data-name=" Path 17"><path class="cls-3" d="M245.45,441.7a5.61,5.61,0,0,1-3.2-1,1,1,0,0,1-.38-1.44.9.9,0,0,1,1.22-.35.76.76,0,0,1,.23.18,4.08,4.08,0,0,0,2.26.76c.55,0,1.11-.09,1.26-.71s-.42-.88-.91-1-1.45-.4-2.14-.66a2.37,2.37,0,0,1-1.86-2.47,2.63,2.63,0,0,1,2-2.47,4.87,4.87,0,0,1,3.85.54,1,1,0,0,1,.56,1.22,1,1,0,0,1-.07.15,1,1,0,0,1-1.27.38l-.17-.12a3.67,3.67,0,0,0-1.73-.49c-.48,0-1,0-1.1.72s.37.79.81.94c.65.21,1.31.37,2,.59a2.44,2.44,0,0,1,2,2.81s0,.05,0,.08a2.71,2.71,0,0,1-2.51,2.29C246,441.68,245.67,441.68,245.45,441.7Z"/></g><g id="_Path_18" data-name=" Path 18"><path class="cls-3" d="M225.1,437v-3.32c0-.85.35-1.19,1.18-1.19H231c.73,0,1.14.38,1.09,1a1,1,0,0,1-1.09.85h-3.13c-.59,0-.79.14-.76.76,0,1.45-.12,1.14,1.2,1.17h2.1c.62,0,1,.29,1.06.91s-.41.91-1,.91H228c-.81,0-1,.26-.94,1a8.66,8.66,0,0,1,0,1.44c0,.74-.44,1.21-1,1.16a1,1,0,0,1-1-1s0-.07,0-.11Z"/></g><g id="_Path_19" data-name=" Path 19"><path class="cls-3" d="M167.48,437.72V435c0-.54-.17-.71-.66-.67a5.46,5.46,0,0,1-1,0c-.82,0-1.25-.36-1.19-.95a1,1,0,0,1,1.18-.89h5.47a.88.88,0,0,1,1,.77.54.54,0,0,1,0,.18.85.85,0,0,1-.83.87h-.24c-.54,0-1.25-.24-1.6.13s-.13,1.17-.14,1.78v4.11c0,.84-.36,1.3-1,1.3s-1-.46-1-1.3Z"/></g><g id="_Path_20" data-name=" Path 20"><path class="cls-3" d="M296.11,436.36v2.89c0,.41.13.56.57.54h2.81c.81,0,1.26.36,1.21.94a1,1,0,0,1-1.17.9h-4.18c-.91,0-1.24-.33-1.24-1.24v-6.63c0-.84.37-1.26,1-1.24s1,.42,1,1.28S296.11,435.48,296.11,436.36Z"/></g><g id="_Path_21" data-name=" Path 21"><path class="cls-3" d="M260.69,437v3.42c0,.68-.23,1.16-.95,1.23s-1-.45-1-1.24v-6.74c0-.82.41-1.27,1.06-1.21s.95.56.93,1.22Z"/></g><g id="_Path_22" data-name=" Path 22"><path class="cls-3" d="M319.31,437.09v3.41c0,.74-.43,1.23-1,1.16a1,1,0,0,1-.95-1.06v-7c0-.77.39-1.17,1-1.13a1,1,0,0,1,.95,1.11C319.29,434.73,319.31,435.9,319.31,437.09Z"/></g><g id="_Compound_Path_3" data-name=" Compound Path 3"><path class="cls-3" d="M221,398.7V378.58c0-.71-.19-.94-.91-1a32.42,32.42,0,0,0-6.23,0c-1.45.15-1.2.09-1.2,1.38v10.45c0,.62-.12.78-.77.63a16.23,16.23,0,0,0-4.56-.29,14.3,14.3,0,0,0-10.75,5.15c-4.33,5.29-4.87,11.35-2.76,17.59,1.92,5.84,6.68,8.32,12.5,8.84a38.79,38.79,0,0,0,13.73-1.3c.79-.21,1-.54,1-1.32C221,412,221,405.34,221,398.7Zm-9,15.59a12.35,12.35,0,0,1-6-.19,6.48,6.48,0,0,1-4.47-5.64,14.66,14.66,0,0,1,.4-6.84,7.37,7.37,0,0,1,8.8-5.39c1.91.29,1.91.29,1.91,2.23v14.88C212.69,414,212.51,414.19,212,414.29Z"/></g><g id="_Compound_Path_4" data-name=" Compound Path 4"><path class="cls-3" d="M267.48,432.33a4.69,4.69,0,0,0-4.86,4.52.53.53,0,0,0,0,.13,4.59,4.59,0,0,0,4.46,4.72h.29a4.69,4.69,0,1,0,.62-9.36A4.13,4.13,0,0,0,267.48,432.33Zm-.1,7.55a2.75,2.75,0,0,1-2.66-2.85v0a2.67,2.67,0,0,1,2.54-2.77h.2a2.89,2.89,0,0,1-.08,5.67Z"/></g><g id="_Compound_Path_5" data-name=" Compound Path 5"><path class="cls-3" d="M218.62,432.33a4.67,4.67,0,0,0-4.9,4.44c0,.11,0,.22,0,.32a4.59,4.59,0,0,0,4.52,4.67h.19a4.69,4.69,0,1,0,.68-9.36,3.85,3.85,0,0,0-.48,0Zm0,7.55a2.89,2.89,0,0,1-2.77-2.89,2.74,2.74,0,0,1,2.59-2.88h.12a2.7,2.7,0,0,1,2.75,2.65,1.77,1.77,0,0,1,0,.23,2.74,2.74,0,0,1-2.59,2.89h-.09Z"/></g><g id="_Compound_Path_6" data-name=" Compound Path 6"><path class="cls-3" d="M210.9,438.75c-.25-.28-.33-.46,0-.73a3,3,0,0,0,1.22-3.49,2.88,2.88,0,0,0-2.88-2h-3.42c-.87,0-1.16.3-1.17,1.18s0,2.21,0,3.31h0v3.61a1,1,0,0,0,.86,1h.08a1,1,0,0,0,1-1,.06.06,0,0,0,0-.06v-1.45c0-.17,0-.43.24-.43.66,0,1.34-.2,1.81.56a15.77,15.77,0,0,0,1.58,2,1,1,0,0,0,1.37.23l.07-.06a.88.88,0,0,0,.19-1.25l-.1-.12A4.16,4.16,0,0,0,210.9,438.75Zm-1.72-1.92a7.62,7.62,0,0,1-1.17,0c-1.26,0-1.26,0-1.26-1.28a1.27,1.27,0,0,0,0-.39c-.14-.79.22-1,1-.94a13.25,13.25,0,0,1,1.54.09,1.19,1.19,0,0,1,1,1.31,1.15,1.15,0,0,1-1.1,1.21Z"/></g><g id="_Compound_Path_7" data-name=" Compound Path 7"><path class="cls-3" d="M336.63,432.65a10.05,10.05,0,0,0-2.12-.16h-1.37c-1,0-1.35.32-1.35,1.33v6.52c0,.88.29,1.2,1.16,1.21a25.36,25.36,0,0,0,3,0,4.48,4.48,0,0,0,.66-8.84Zm-1.29,7.09c-1.57,0-1.57,0-1.57-1.58v-3.3c0-.41.13-.61.56-.57a9.13,9.13,0,0,0,1.17,0,2.64,2.64,0,0,1,2.57,2.69,1.34,1.34,0,0,1,0,.2,2.56,2.56,0,0,1-2.55,2.56Z"/></g><g id="_Compound_Path_8" data-name=" Compound Path 8"><path class="cls-3" d="M200.07,432.5h-2.64c-.88,0-1.28.28-1.3,1.28s0,2.15,0,3.21h0v3.71a.9.9,0,0,0,.85.94h.08a1,1,0,0,0,1-.89v-.05a3.91,3.91,0,0,0,0-1.08c0-.56.11-.84.74-.78a6.93,6.93,0,0,0,1.44,0,3.17,3.17,0,0,0-.2-6.34Zm-1,4.59c-.92,0-.92,0-.92-1.44s-.18-1.33.94-1.33c1.44,0,2.16.41,2.19,1.35S200.61,437.09,199.06,437.09Z"/></g><g id="_Compound_Path_9" data-name=" Compound Path 9"><path class="cls-3" d="M292.45,440.28c-1.06-2.39-2.12-4.8-3.21-7.21a1.2,1.2,0,0,0-1.25-.74,1.36,1.36,0,0,0-1.19.88c-1,2.33-2.05,4.64-3.07,6.94a1,1,0,0,0,.43,1.45.88.88,0,0,0,1.19-.37.85.85,0,0,0,.1-.28c.3-1.33,1.15-1.55,2.29-1.44a2.91,2.91,0,0,0,.59,0c1.13-.16,2.05,0,2.28,1.35a1.12,1.12,0,0,0,.39.56.86.86,0,0,0,1,.11.94.94,0,0,0,.51-.94A1.55,1.55,0,0,0,292.45,440.28Zm-5.62-2.58c.38-.91.75-1.79,1.22-2.89.46,1.09.8,1.95,1.21,2.89Z"/></g></g></g></svg>