<svg xmlns="http://www.w3.org/2000/svg" viewBox="0 0 240 234"><title>coldfusion</title><g id="Layer_2" data-name="Layer 2"><g id="cf_builder_2016_appicon.svg"><path d="M0,0V234H240V0ZM10,10H230V224H10Z"/><path d="M126.94,160.43a1.66,1.66,0,0,1-1.16,1.81c-4.28,1.81-11.12,2.47-18.21,2.47-25.71,0-48.46-16.81-48.46-56.37,0-33.95,20.11-56.7,50.77-56.7,8.07,0,13.94.83,17.07,2.31.82.33,1,.83,1,1.81V69.94c0,1.32-.66,1.32-1.16,1.15-4-2-9.81-3.13-16.74-3.13C90.76,68,77.9,82.63,77.9,107.85c0,31.15,17.64,40.38,32.14,40.38,6.6,0,11-.5,15.74-2.15.66-.33,1.16-.33,1.16.83v13.52Zm6.4-59.79c-.66,0-.66-.33-.66-1.15V85.9c0-.83.17-1,.83-1h9.16V79.8c0-6.1,1-11.35,3.3-15.8,4.12-8.4,11.38-12.19,21.26-12.19,3,0,5,.16,6.67.82a1.29,1.29,0,0,1,1,1.49V67.3c0,.82-.33,1.16-1.16,1a21,21,0,0,0-4.51-.49c-5.77,0-8.57,4.12-8.57,12v5.08h13.09c.83,0,1.15.16,1.15.82V99.49c0,.82-.17,1-1,1.15H160.65v61.57c0,.66-.16,1.11-1.15,1.11H143.82a1,1,0,0,1-1.15-1.15V100.64Z"/></g></g></svg>