<svg id="Layer_1" data-name="Layer 1" xmlns="http://www.w3.org/2000/svg" viewBox="0 0 444.45 450.12"><defs><style>.cls-1{fill:#00aced;}.cls-2{fill:#2d3091;}.cls-3{fill:#fff;}</style></defs><path class="cls-1" d="M222.22,377.62c-85.69,0-155.4-69.71-155.4-155.4s69.71-155.4,155.4-155.4,155.4,69.71,155.4,155.4S307.91,377.62,222.22,377.62Zm0-304.8c-82.38,0-149.4,67-149.4,149.4s67,149.4,149.4,149.4,149.4-67,149.4-149.4S304.6,72.82,222.22,72.82Z"/><path class="cls-1" d="M222.22,444.45A222.22,222.22,0,0,1,65.09,65.09,222.22,222.22,0,1,1,379.36,379.36,220.78,220.78,0,0,1,222.22,444.45ZM222.22,6C103,6,6,103,6,222.22s97,216.23,216.22,216.23,216.23-97,216.23-216.23S341.45,6,222.22,6Z"/><path d="M27.55,263.94l-1.63-11.13,3.4-.5.15,1a2.37,2.37,0,0,0,.36,1.12,1,1,0,0,0,.59.36,4.81,4.81,0,0,0,1.51-.09l4.29-.63L35,245.8l-4.6.68a4,4,0,0,0-1.13.27.94.94,0,0,0-.52.52,3.7,3.7,0,0,0,0,1.4l.13.87-3.4.5-1.65-11.16,3.41-.5.13.93a3,3,0,0,0,.36,1.23.92.92,0,0,0,.55.36,5.76,5.76,0,0,0,1.57-.1l13.33-2a5.06,5.06,0,0,0,1.58-.39,1,1,0,0,0,.44-.55,4.31,4.31,0,0,0-.06-1.48l-.1-.66,3.4-.5,1.65,11.16-3.41.5-.1-.73a3.66,3.66,0,0,0-.39-1.37.94.94,0,0,0-.58-.43,5.34,5.34,0,0,0-1.59.09l-5.21.76,1.22,8.3,5.21-.76a6.46,6.46,0,0,0,1.52-.33.91.91,0,0,0,.51-.59,4.41,4.41,0,0,0-.06-1.4l-.12-.76,3.41-.5,1.64,11.12-3.41.51-.11-.76a3.59,3.59,0,0,0-.37-1.31,1,1,0,0,0-.57-.44,4.34,4.34,0,0,0-1.42.07l-13.37,2a5.78,5.78,0,0,0-1.61.38,1,1,0,0,0-.49.51,2.59,2.59,0,0,0,0,1.18l.15,1Z"/><path d="M23.76,234.09l-.32-19.23,7.83-2.75,1.2,3a10.6,10.6,0,0,0-3.07,1.82,4.94,4.94,0,0,0-1.52,2.27,9.34,9.34,0,0,0-.34,2.87l.06,3.52,6.2-.1,0-1.16a4.88,4.88,0,0,0-.23-1.75,1.23,1.23,0,0,0-.65-.64,4.8,4.8,0,0,0-1.75-.17h-.94l-.05-2.94,10.54-.17,0,2.94-1.08,0a4,4,0,0,0-1.59.26,1.36,1.36,0,0,0-.67.67,6,6,0,0,0-.15,1.83l0,1,5.72-.09a4,4,0,0,0,1.11-.1.56.56,0,0,0,.29-.33,3.18,3.18,0,0,0,.1-1l0-1.93a8.66,8.66,0,0,0-.73-3.64,7,7,0,0,0-2.21-2.62,10.75,10.75,0,0,0-3.58-1.73l1.07-3,9.3,2.87.32,19.93-3.44.06v-.58a4.45,4.45,0,0,0-.2-1.55,1.07,1.07,0,0,0-.64-.55,7.92,7.92,0,0,0-1.51-.06l-13.56.22a4.89,4.89,0,0,0-1.44.16,1,1,0,0,0-.5.45,2.68,2.68,0,0,0-.15,1.18l0,1Z"/><path d="M23.93,206.88l1.39-11.16,3.42.42-.12,1a3.52,3.52,0,0,0,0,1,1.13,1.13,0,0,0,.47.64,2.79,2.79,0,0,0,1.13.32l14.11,1.75a4.45,4.45,0,0,0,1.05.06.57.57,0,0,0,.35-.27,2.11,2.11,0,0,0,.22-.87,8.26,8.26,0,0,0-.18-3.6A6.55,6.55,0,0,0,44,193.53a12.27,12.27,0,0,0-3.49-2.31L42,188.35l8.75,4.15L48.62,210l-3.41-.43.13-1.09a1.94,1.94,0,0,0-.07-1,1.12,1.12,0,0,0-.46-.56,2.92,2.92,0,0,0-1.12-.3l-14-1.74a3.85,3.85,0,0,0-1.29,0,1.07,1.07,0,0,0-.62.37,1.83,1.83,0,0,0-.3.93l-.15,1.2Z"/><path d="M27.17,183.17l3-11.81a12.44,12.44,0,0,1,1.43-3.61,7,7,0,0,1,4.93-3.21,7.55,7.55,0,0,1,3.06.15,7.07,7.07,0,0,1,4.63,3.51,8.7,8.7,0,0,1,.57,6.6l-1,3.81,4.51,1.14a3.45,3.45,0,0,0,1.1.16,1,1,0,0,0,.6-.32,2.44,2.44,0,0,0,.41-1l.28-1.14,3.34.84L51.3,189.24,48,188.4l.19-.76a3.67,3.67,0,0,0,.18-1.36,1,1,0,0,0-.38-.59,4.2,4.2,0,0,0-1.36-.5l-13.26-3.33a5.13,5.13,0,0,0-1.5-.24,1,1,0,0,0-.62.28,2.35,2.35,0,0,0-.43,1L30.51,184Zm6-7.23L40,177.67l.48-1.91a6.56,6.56,0,0,0,.25-2.66,3.14,3.14,0,0,0-.86-1.61,3.67,3.67,0,0,0-1.79-1,3.32,3.32,0,0,0-2.92.52,4.15,4.15,0,0,0-1.39,2.43Z"/><path d="M33.44,160l3.82-10.58,3.24,1.17-.35,1a2.72,2.72,0,0,0-.24,1.17,1,1,0,0,0,.36.59,4.44,4.44,0,0,0,1.26.6l12.95,4.68a5.21,5.21,0,0,0,1.4.38.8.8,0,0,0,.57-.21,2,2,0,0,0,.56-.91l.41-1.15,3.24,1.17-3.82,10.58-3.24-1.17.31-.86a3.34,3.34,0,0,0,.29-1.25.87.87,0,0,0-.3-.58,4,4,0,0,0-1.19-.58l-13-4.7a5,5,0,0,0-1.49-.38,1.08,1.08,0,0,0-.69.25,2.74,2.74,0,0,0-.51,1l-.35,1Z"/><path d="M38.72,145.21l4.1-8.4,16,.3-8-3.9a5.06,5.06,0,0,0-1.33-.52,1.14,1.14,0,0,0-.74.14,2.46,2.46,0,0,0-.63.9l-.49,1-3.09-1.51,4.17-8.53,3.09,1.51-.46.94a2.4,2.4,0,0,0-.32,1.1,1,1,0,0,0,.28.66,5.2,5.2,0,0,0,1.25.76l17.29,8.44-2.08,4.26L47.56,142l11.53,5.63a5.12,5.12,0,0,0,1.32.51A1,1,0,0,0,61,148a2.49,2.49,0,0,0,.65-.92l.48-1,3.1,1.51-4.19,8.57L58,154.61l.43-.88a2.87,2.87,0,0,0,.36-1.08,1.06,1.06,0,0,0-.26-.66,2.65,2.65,0,0,0-.93-.66l-12.82-6.26a3.2,3.2,0,0,0-1.15-.38,1.14,1.14,0,0,0-.69.15,1.88,1.88,0,0,0-.57.77l-.54,1.11Z"/><path d="M68.4,115.79l6.32-9.3,2.88,2-.48.7a2.78,2.78,0,0,0-.5,1,1,1,0,0,0,.16.66,4.15,4.15,0,0,0,1,.87l6.44,4.38-1.9,2.8-2-.28a12,12,0,0,1-.43,3.59,10.77,10.77,0,0,1-1.5,3.18,10.33,10.33,0,0,1-4.6,3.81,11.48,11.48,0,0,1-6.14.78,14.36,14.36,0,0,1-6.36-2.5,14,14,0,0,1-4.57-4.91,11.37,11.37,0,0,1-1.42-6,10.74,10.74,0,0,1,1.89-5.75,11.22,11.22,0,0,1,2-2.26A9.28,9.28,0,0,1,61.66,107l-.57-1.13,1.3-1.91,8,2.92L69.55,110a22.74,22.74,0,0,0-4.43,0,6.58,6.58,0,0,0-2.43.85A5.29,5.29,0,0,0,61,112.36a5,5,0,0,0-.83,3,6.52,6.52,0,0,0,1.15,3.39A11.91,11.91,0,0,0,64.59,122a13.72,13.72,0,0,0,4.71,2.15,7.23,7.23,0,0,0,3.92-.08,5.1,5.1,0,0,0,3.44-4.12,3.41,3.41,0,0,0-.13-1.86,3.32,3.32,0,0,0-1.21-1.3l-.75-.51a3.57,3.57,0,0,0-1.06-.58,1.24,1.24,0,0,0-.7.11,3,3,0,0,0-.8.9l-.74,1.08Z"/><path d="M75.69,87.57l8.09-7.81,2.39,2.48-.79.76a2.12,2.12,0,0,0-.64.9,1.09,1.09,0,0,0,.05.73,4.56,4.56,0,0,0,.92,1.17L92,92.32a11.46,11.46,0,0,0,3,2.39,3.9,3.9,0,0,0,2.35.38A4.07,4.07,0,0,0,99.43,94a4.24,4.24,0,0,0,1.24-2.2,4,4,0,0,0-.17-2.35,10.39,10.39,0,0,0-2.19-2.93L91.37,79.3a2,2,0,0,0-.72-.54,1.07,1.07,0,0,0-.73,0,3.49,3.49,0,0,0-.92.74l-.64.62L86,77.65,92.81,71l2.39,2.48-.53.51a4,4,0,0,0-.89,1.06,1.3,1.3,0,0,0,0,.85,4.78,4.78,0,0,0,.93,1.16l6.82,7.05a12.43,12.43,0,0,1,2.63,3.78,8,8,0,0,1,.38,5,9.66,9.66,0,0,1-2.79,4.63,9.91,9.91,0,0,1-3.24,2.14,8.83,8.83,0,0,1-3.52.6,7.66,7.66,0,0,1-3.2-.77,14.23,14.23,0,0,1-3.36-2.76l-6.67-6.91a7.17,7.17,0,0,0-1.28-1.14,1,1,0,0,0-.7-.1,2.59,2.59,0,0,0-1,.67l-.76.74Z"/><path d="M110.21,58l6.55,5.53-1.92,2.6a11.9,11.9,0,0,0-5.4-1.45A7,7,0,0,0,105.29,66a3.57,3.57,0,0,0-1.42,1.83,1.76,1.76,0,0,0,.17,1.6,2.3,2.3,0,0,0,1.56.87,6.42,6.42,0,0,0,3-.52l4.39-1.51a10.72,10.72,0,0,1,6-.68,6.82,6.82,0,0,1,3.89,2.65,7.19,7.19,0,0,1,1.34,5.8A9.32,9.32,0,0,1,120.34,82a10.31,10.31,0,0,1-3,1.59,11.93,11.93,0,0,1-3.58.54l.47,1.87-2,1.46-7-6.79,2-2.48a11.7,11.7,0,0,0,5.65,1.94,7.66,7.66,0,0,0,5.24-1.43,5.33,5.33,0,0,0,1.45-1.5,2.68,2.68,0,0,0,.43-1.49,2.27,2.27,0,0,0-.41-1.25,2.31,2.31,0,0,0-1.87-.9,11,11,0,0,0-3.63.8l-3.82,1.32a17.78,17.78,0,0,1-2.5.6,8.92,8.92,0,0,1-2.76.12,6.23,6.23,0,0,1-2.3-.87,6.77,6.77,0,0,1-2-1.81,7,7,0,0,1-1.35-3.54,7.37,7.37,0,0,1,.85-4,10,10,0,0,1,3-3.52,9.33,9.33,0,0,1,5.34-1.86l-.22-1.39Z"/><path d="M127.24,47.44l11-5.28a12.43,12.43,0,0,1,3.68-1.22,7,7,0,0,1,5.63,1.73,7.6,7.6,0,0,1,1.84,2.45,7.08,7.08,0,0,1,.27,5.8,8.68,8.68,0,0,1-4.7,4.67l-3.54,1.7,2,4.2a3,3,0,0,0,.58.94,1,1,0,0,0,.63.26,2.57,2.57,0,0,0,1-.31l1-.51,1.5,3.1L138,69.86l-1.5-3.11.7-.33a3.73,3.73,0,0,0,1.16-.74,1,1,0,0,0,.22-.67,4.9,4.9,0,0,0-.49-1.36l-5.94-12.32a5.27,5.27,0,0,0-.78-1.3,1,1,0,0,0-.61-.3,2.53,2.53,0,0,0-1.07.33l-1,.48Zm9.39,0,3.07,6.36,1.77-.85a6.53,6.53,0,0,0,2.2-1.51,3.21,3.21,0,0,0,.69-1.7,3.63,3.63,0,0,0-.39-2,3.35,3.35,0,0,0-2.28-1.92,4.18,4.18,0,0,0-2.75.5Z"/><path d="M149.65,36.87l13.52-4.38a19.4,19.4,0,0,1,2.94-.67,7.15,7.15,0,0,1,3.16.22,6.41,6.41,0,0,1,2.65,1.56,6.68,6.68,0,0,1,1.66,2.76,6,6,0,0,1-.37,5,9,9,0,0,1-3.52,3.54L176,49.06l.27.2a4.82,4.82,0,0,0,1.07.6,2.81,2.81,0,0,0,.86.16,3.57,3.57,0,0,0,1-.21l.94-.3,1.06,3.27-7,2.28-10.34-7.93-1.82.59,1.52,4.72a6.24,6.24,0,0,0,.63,1.51,1,1,0,0,0,.56.37,2.75,2.75,0,0,0,1.16-.2l1-.33L168,57.07,157.3,60.54l-1.05-3.28,1-.31a2.64,2.64,0,0,0,1-.54,1.22,1.22,0,0,0,.31-.69,6.06,6.06,0,0,0-.34-1.3l-4.3-13.32a3.94,3.94,0,0,0-.48-1.07.73.73,0,0,0-.53-.31,2,2,0,0,0-.93.1l-.44.16-.82.26ZM159,38.14l2,6.12,3.25-1A8.58,8.58,0,0,0,167,41.9a3,3,0,0,0,1-3.44A3,3,0,0,0,167,37a2.76,2.76,0,0,0-1.6-.58,8.25,8.25,0,0,0-2.8.55Z"/><path d="M189.72,25.79a11.67,11.67,0,0,1,9.35,2.11,12.94,12.94,0,0,1,4.85,8.58,14.19,14.19,0,0,1-.44,6.91A11.12,11.12,0,0,1,200,48.56a12.87,12.87,0,0,1-6.25,2.65A11.79,11.79,0,0,1,185,49.58a12.71,12.71,0,0,1-5.47-9,12.94,12.94,0,0,1,1.88-9.74A11.87,11.87,0,0,1,189.72,25.79Zm.71,3.9a4.91,4.91,0,0,0-3.78,2.77,11.52,11.52,0,0,0-.8,7.13,11,11,0,0,0,2.88,6.3,5.14,5.14,0,0,0,8.18-1.35,11.09,11.09,0,0,0,.72-6.93,13.83,13.83,0,0,0-1.58-4.78,6.68,6.68,0,0,0-2.59-2.63A4.77,4.77,0,0,0,190.43,29.69Z"/><path d="M208.56,23l2.18-.05.25.83,13-.3.27-.84,2.19-.06,3.06,8.66-3,1.23a25,25,0,0,0-1.54-2.8,7.13,7.13,0,0,0-2.06-2,3.13,3.13,0,0,0-1.71-.53.62.62,0,0,0-.54.22,1.82,1.82,0,0,0-.13.94l.33,14.3a8.74,8.74,0,0,0,.12,1.58,1,1,0,0,0,.3.51,1,1,0,0,0,.55.23,15.22,15.22,0,0,0,1.86,0l.08,3.44-11.24.26-.08-3.44h.68A4.11,4.11,0,0,0,214.5,45a1,1,0,0,0,.47-.54,4.69,4.69,0,0,0,.13-1.6l-.34-14.62a1.49,1.49,0,0,0-.15-.79.74.74,0,0,0-.57-.14,3.58,3.58,0,0,0-1.9.74,6.72,6.72,0,0,0-1.83,2c-.21.34-.66,1.28-1.34,2.83l-3.05-1.09Z"/><path d="M233.12,23.57l19.12,2.09,1.77,8.1-3.1.83a10.86,10.86,0,0,0-1.43-3.28,5,5,0,0,0-2.06-1.79,9.55,9.55,0,0,0-2.81-.7l-3.5-.38-.67,6.17,1.15.13a5.17,5.17,0,0,0,1.77,0,1.29,1.29,0,0,0,.72-.57,5,5,0,0,0,.38-1.71l.11-.94,2.92.32-1.14,10.48L243.42,42l.12-1.07a4,4,0,0,0-.06-1.61,1.37,1.37,0,0,0-.58-.75,5.87,5.87,0,0,0-1.8-.38l-1-.11-.62,5.69a4.26,4.26,0,0,0,0,1.11.57.57,0,0,0,.28.34,2.93,2.93,0,0,0,1,.21l1.92.21a8.75,8.75,0,0,0,3.7-.27,7,7,0,0,0,2.87-1.87,10.72,10.72,0,0,0,2.17-3.34l2.88,1.45-4,8.86-19.81-2.15.37-3.43.57.07a4.52,4.52,0,0,0,1.57,0,1.06,1.06,0,0,0,.62-.56,7,7,0,0,0,.25-1.5l1.47-13.48a4.5,4.5,0,0,0,0-1.45,1,1,0,0,0-.38-.55,2.65,2.65,0,0,0-1.14-.29l-1-.12Z"/><path d="M277.09,31.14l2.27.57,0,9.22-3.22.19a16.53,16.53,0,0,0-1.7-5.1,5.75,5.75,0,0,0-3.5-2.78,5.18,5.18,0,0,0-3.15.21A6.44,6.44,0,0,0,265,35.66a10.68,10.68,0,0,0-1.86,4.05,11.46,11.46,0,0,0,.2,6.86,5.71,5.71,0,0,0,4.1,3.88,6.62,6.62,0,0,0,3.89-.25,13.59,13.59,0,0,0,4.7-2.92l2,2.61a19.81,19.81,0,0,1-5.66,3.85,12.1,12.1,0,0,1-7.43.44,10.68,10.68,0,0,1-5.29-3.07,12,12,0,0,1-2.92-5.6,14.24,14.24,0,0,1,.09-6.8,13.88,13.88,0,0,1,3.06-5.93A11.62,11.62,0,0,1,265,29.35a11.55,11.55,0,0,1,11.31,2.7Z"/><path d="M288.34,33.75l2,.81-.1.87,12,4.84.57-.67,2,.82-.6,9.16L301,49.51a25.81,25.81,0,0,0-.3-3.18,7.26,7.26,0,0,0-1.11-2.66,3,3,0,0,0-1.36-1.16.63.63,0,0,0-.58,0,1.76,1.76,0,0,0-.49.82l-5.34,13.27a8.12,8.12,0,0,0-.51,1.5,1,1,0,0,0,.07.58,1,1,0,0,0,.41.43,14.63,14.63,0,0,0,1.71.76L292.24,63l-10.43-4.2,1.28-3.19.64.25a4,4,0,0,0,1.39.4,1,1,0,0,0,.65-.32,4.59,4.59,0,0,0,.75-1.41L292,41a1.53,1.53,0,0,0,.17-.78c0-.13-.2-.25-.46-.36a3.69,3.69,0,0,0-2-.07,6.66,6.66,0,0,0-2.48,1.12c-.33.23-1.11.92-2.35,2.07l-2.37-2.2Z"/><path d="M332.57,56.51A11.61,11.61,0,0,1,338,64.43,13,13,0,0,1,335.65,74a14.18,14.18,0,0,1-5,4.75,11.1,11.1,0,0,1-6.08,1.4,12.83,12.83,0,0,1-6.38-2.33,11.74,11.74,0,0,1-5.27-7.15A12.73,12.73,0,0,1,315,60.36a13,13,0,0,1,8-5.84A11.87,11.87,0,0,1,332.57,56.51Zm-2.14,3.33a4.89,4.89,0,0,0-4.65-.55A11.43,11.43,0,0,0,320.33,64a11.06,11.06,0,0,0-2.2,6.57,5.14,5.14,0,0,0,6.9,4.6,11.11,11.11,0,0,0,5.25-4.58A13.72,13.72,0,0,0,332.39,66a6.69,6.69,0,0,0-.09-3.69A4.79,4.79,0,0,0,330.43,59.84Z"/><path d="M346.09,66.46,354.45,74l-2.3,2.56-.82-.74a2.24,2.24,0,0,0-.94-.58,1.14,1.14,0,0,0-.72.1,4.72,4.72,0,0,0-1.11,1l-6.05,6.74a11.36,11.36,0,0,0-2.18,3.13,3.9,3.9,0,0,0-.21,2.36,4,4,0,0,0,1.28,2,4.21,4.21,0,0,0,2.28,1.08,4,4,0,0,0,2.33-.33,10.21,10.21,0,0,0,2.77-2.4l6.67-7.43a2,2,0,0,0,.49-.76,1.09,1.09,0,0,0-.06-.72,3.87,3.87,0,0,0-.8-.87l-.67-.59,2.3-2.56,7.08,6.35-2.3,2.56-.55-.49a3.49,3.49,0,0,0-1.12-.81,1.25,1.25,0,0,0-.85.08,4.68,4.68,0,0,0-1.08,1L351.33,92a12.35,12.35,0,0,1-3.58,2.89,7.94,7.94,0,0,1-5,.74,10.6,10.6,0,0,1-7.18-5.54,8.68,8.68,0,0,1-.84-3.47,7.32,7.32,0,0,1,.54-3.24,13.84,13.84,0,0,1,2.51-3.55l6.42-7.15a6.63,6.63,0,0,0,1-1.35,1.11,1.11,0,0,0,.06-.71,2.53,2.53,0,0,0-.75-.9l-.78-.71Z"/><path d="M366.93,85.61l9.12,10.9A18,18,0,0,1,377.77,99a7.14,7.14,0,0,1,1,3,6.42,6.42,0,0,1-.46,3,6.69,6.69,0,0,1-1.94,2.57,6,6,0,0,1-4.72,1.51,9,9,0,0,1-4.61-1.93l-1.52,7.46-.08.32a5.21,5.21,0,0,0-.15,1.23,2.73,2.73,0,0,0,.16.85,3.64,3.64,0,0,0,.59.89l.63.76L364,120.9l-4.73-5.66,3.47-12.55-1.23-1.47-3.8,3.18a5.8,5.8,0,0,0-1.17,1.15,1,1,0,0,0-.13.65,2.69,2.69,0,0,0,.62,1l.68.82-2.64,2.2-7.24-8.65,2.64-2.2.66.79a2.51,2.51,0,0,0,.89.76,1.2,1.2,0,0,0,.75,0,5.63,5.63,0,0,0,1.08-.8l10.74-9a3.5,3.5,0,0,0,.81-.85.66.66,0,0,0,.09-.6,2.1,2.1,0,0,0-.44-.83l-.31-.34-.55-.67Zm2.33,9.14-4.94,4.13,2.19,2.62a8.62,8.62,0,0,0,2.24,2.06,3.2,3.2,0,0,0,1.85.41,3.15,3.15,0,0,0,1.72-.78,3,3,0,0,0,1-1.44,2.76,2.76,0,0,0-.06-1.7,8.62,8.62,0,0,0-1.56-2.39Z"/><path d="M392.13,118.79l5.82,10.7a12.22,12.22,0,0,1,1.39,3.62,6.9,6.9,0,0,1-.1,3,7,7,0,0,1-1.34,2.66,7.76,7.76,0,0,1-2.36,2,7.07,7.07,0,0,1-5.78.56,8.69,8.69,0,0,1-4.89-4.47L383,133.41l-4.09,2.22a3.31,3.31,0,0,0-.92.63,1,1,0,0,0-.22.64,2.31,2.31,0,0,0,.35,1l.56,1-3,1.65-5.37-9.88,3-1.65.37.69a3.88,3.88,0,0,0,.79,1.12,1,1,0,0,0,.68.18,4.45,4.45,0,0,0,1.33-.56l12-6.53a5.63,5.63,0,0,0,1.26-.84,1,1,0,0,0,.27-.63,2.56,2.56,0,0,0-.38-1l-.53-1Zm.48,9.38-6.21,3.38.94,1.72A6.38,6.38,0,0,0,389,135.4a3.09,3.09,0,0,0,1.73.6,3.58,3.58,0,0,0,2-.49,3.32,3.32,0,0,0,1.8-2.37,4.14,4.14,0,0,0-.63-2.72Z"/><path d="M403.73,140.67l6.92,18-6.4,5.28-2.15-2.38a10.71,10.71,0,0,0,2.25-2.77,4.87,4.87,0,0,0,.65-2.66,9.57,9.57,0,0,0-.67-2.81L403.07,150l-5.8,2.23.42,1.08a5.17,5.17,0,0,0,.82,1.57,1.31,1.31,0,0,0,.84.38,4.93,4.93,0,0,0,1.69-.44l.88-.34,1.06,2.74L393.14,161l-1.05-2.74,1-.39a3.83,3.83,0,0,0,1.4-.8,1.27,1.27,0,0,0,.4-.85,5.57,5.57,0,0,0-.49-1.78l-.37-1-5.34,2.06a4.9,4.9,0,0,0-1,.47.61.61,0,0,0-.16.41,3.1,3.1,0,0,0,.27,1l.69,1.8a9,9,0,0,0,1.94,3.17,7.08,7.08,0,0,0,3,1.69,10.86,10.86,0,0,0,4,.4l0,3.21-9.72.51-7.17-18.6,3.22-1.24.2.54a4.48,4.48,0,0,0,.73,1.39,1.09,1.09,0,0,0,.78.3,8.26,8.26,0,0,0,1.45-.47l12.65-4.87a5,5,0,0,0,1.29-.65,1,1,0,0,0,.32-.6,2.71,2.71,0,0,0-.26-1.15l-.37-1Z"/><path d="M416.35,178a11.63,11.63,0,0,1-1.54,9.45,13,13,0,0,1-8.27,5.37,14.31,14.31,0,0,1-6.92,0,11.18,11.18,0,0,1-5.38-3.17,12.88,12.88,0,0,1-3-6.08,11.8,11.8,0,0,1,1.1-8.82,12.75,12.75,0,0,1,8.66-6,13,13,0,0,1,9.84,1.29A11.85,11.85,0,0,1,416.35,178Zm-3.84.94a4.94,4.94,0,0,0-3-3.6,11.48,11.48,0,0,0-7.16-.37,11,11,0,0,0-6.12,3.26,5.13,5.13,0,0,0,1.84,8.08,11.18,11.18,0,0,0,7,.3,13.93,13.93,0,0,0,4.68-1.87,6.67,6.67,0,0,0,2.47-2.74A4.8,4.8,0,0,0,412.51,178.89Z"/><path d="M419.27,195.05l1.05,12.14a12.14,12.14,0,0,1-.17,3.87,7.09,7.09,0,0,1-1.31,2.75,7.19,7.19,0,0,1-2.3,1.9,7.63,7.63,0,0,1-2.94.85,7.05,7.05,0,0,1-5.53-1.8,8.73,8.73,0,0,1-2.69-6l-.34-3.92-4.64.4a3.09,3.09,0,0,0-1.09.22,1,1,0,0,0-.46.49,2.39,2.39,0,0,0-.07,1l.1,1.17-3.43.3-1-11.2,3.43-.3.07.78a3.6,3.6,0,0,0,.28,1.34.9.9,0,0,0,.54.43,4.42,4.42,0,0,0,1.45,0l13.63-1.18a5.54,5.54,0,0,0,1.49-.27,1,1,0,0,0,.49-.46,2.49,2.49,0,0,0,.08-1.12l-.1-1.11ZM416,203.84l-7,.62.17,1.95a6.7,6.7,0,0,0,.63,2.6,3.15,3.15,0,0,0,1.34,1.24,3.59,3.59,0,0,0,2,.34,3.33,3.33,0,0,0,2.6-1.45,4.21,4.21,0,0,0,.51-2.75Z"/><path d="M421.07,219.6l-.38,11.24-3.44-.12,0-1a3.6,3.6,0,0,0-.06-1,1.16,1.16,0,0,0-.52-.59,2.82,2.82,0,0,0-1.16-.22l-14.21-.48a3.85,3.85,0,0,0-1,0,.58.58,0,0,0-.33.29,2.27,2.27,0,0,0-.14.89,8.66,8.66,0,0,0,.5,3.58,6.68,6.68,0,0,0,1.93,2.49,12.45,12.45,0,0,0,3.68,2l-1.22,3-9.1-3.34.6-17.58,3.44.12,0,1.1a2.22,2.22,0,0,0,.16,1,1.28,1.28,0,0,0,.51.52,3.08,3.08,0,0,0,1.15.19l14.08.48a4,4,0,0,0,1.29-.11,1.14,1.14,0,0,0,.58-.43,1.8,1.8,0,0,0,.21-1l0-1.21Z"/><path d="M420,243.56l-3.09,19-8.19,1.33-.66-3.14a10.81,10.81,0,0,0,3.35-1.25,5,5,0,0,0,1.9-2,10,10,0,0,0,.84-2.76l.56-3.48-6.12-1-.19,1.14a4.86,4.86,0,0,0-.08,1.77,1.23,1.23,0,0,0,.53.74,4.9,4.9,0,0,0,1.68.48l.94.15-.48,2.9-10.4-1.69.47-2.9,1.06.17a3.81,3.81,0,0,0,1.62,0,1.3,1.3,0,0,0,.77-.53,5.77,5.77,0,0,0,.48-1.78l.16-1-5.64-.92a4.25,4.25,0,0,0-1.11-.1.61.61,0,0,0-.35.27,3.1,3.1,0,0,0-.28,1l-.31,1.9a9,9,0,0,0,.08,3.72,7,7,0,0,0,1.72,3,10.74,10.74,0,0,0,3.22,2.34l-1.6,2.8-8.64-4.47,3.2-19.67,3.4.55-.1.57a4.6,4.6,0,0,0-.07,1.56,1.08,1.08,0,0,0,.53.66,7.57,7.57,0,0,0,1.48.32l13.38,2.18a5.11,5.11,0,0,0,1.45.09,1,1,0,0,0,.57-.35,2.75,2.75,0,0,0,.35-1.13l.17-1Z"/><path class="cls-2" d="M177.89,152.22h19.35v6.08h-1.76a4.49,4.49,0,0,0-2,.3,1.8,1.8,0,0,0-.74,1,8.29,8.29,0,0,0-.24,2.47v24.31a9.88,9.88,0,0,0,.2,2.55,1.4,1.4,0,0,0,.68.82,3.4,3.4,0,0,0,1.79.38h2.1v6.08H177.89v-6.08h1.57a5.62,5.62,0,0,0,2.2-.27,1.59,1.59,0,0,0,.76-.85,7.18,7.18,0,0,0,.24-2.31V162.24a9.4,9.4,0,0,0-.24-2.69,2,2,0,0,0-.81-1,4.71,4.71,0,0,0-2-.25h-1.77Z"/><path class="cls-2" d="M231.29,152.22,234.7,167l-5.31,1.67a21,21,0,0,0-6-7.72,11.88,11.88,0,0,0-7.12-2.45,6.12,6.12,0,0,0-3.85,1.1A3.16,3.16,0,0,0,211,162a4,4,0,0,0,1.28,2.87,10.92,10.92,0,0,0,4.6,2.37l7.62,2.45q6.33,2,9,5.36a12.29,12.29,0,0,1,2.67,7.85,12.89,12.89,0,0,1-4.1,9.65,15.89,15.89,0,0,1-11.36,4.34A17.87,17.87,0,0,1,215,196a20.8,20.8,0,0,1-5.52-3l-1.25,3.15H204l-2.81-17,5.31-1.42a20.66,20.66,0,0,0,5.84,8.68,12.92,12.92,0,0,0,8.71,3.48,9.08,9.08,0,0,0,3.54-.6,4.62,4.62,0,0,0,2.12-1.67,4,4,0,0,0,.71-2.2,4.06,4.06,0,0,0-1.65-3.24,18.73,18.73,0,0,0-5.86-2.68l-6.62-2.14a28.22,28.22,0,0,1-4.08-1.78,15.12,15.12,0,0,1-3.95-2.72,11.21,11.21,0,0,1-2.28-3.64,12.16,12.16,0,0,1-.91-4.68,12.34,12.34,0,0,1,1.75-6.44,12.61,12.61,0,0,1,5.25-4.77,16.56,16.56,0,0,1,7.78-1.83,15.64,15.64,0,0,1,9.29,3l1.11-2.21Z"/><path class="cls-2" d="M261.08,151.47q9.44,0,15.27,6.36t5.84,16.35a25.66,25.66,0,0,1-2.67,11.9,19.49,19.49,0,0,1-7.37,8,21.7,21.7,0,0,1-11.36,2.81q-8.78,0-14.38-5.35-6.76-6.45-6.76-17.26,0-10.05,5.92-16.44T261.08,151.47Zm.11,7a8.39,8.39,0,0,0-7.19,3.75q-3.36,4.72-3.35,12.19t3.12,11.81a8.72,8.72,0,0,0,14.27,0q3.15-4.44,3.15-11.88a24.89,24.89,0,0,0-1.35-8.78,11.7,11.7,0,0,0-3.65-5.33A8.07,8.07,0,0,0,261.19,158.46Z"/><path class="cls-2" d="M96.84,223.4h7.3v19.21h6v6.45h-6v9.78H96.85v-9.78H81.76v-7.92Zm0,8.18-9.52,11h9.52Z"/><path class="cls-2" d="M115.83,242.84l.85-19.44h16.14a4.32,4.32,0,0,0,1.94-.27,1.15,1.15,0,0,0,.49-.95h3.08V231H121.61l-.2,4.55a43.47,43.47,0,0,1,5.06-.33,17.81,17.81,0,0,1,7.84,1.53,10.51,10.51,0,0,1,4.66,4.09,12.55,12.55,0,0,1-2.84,15.47,14.7,14.7,0,0,1-9.47,3.13,15.63,15.63,0,0,1-6.7-1.41,11.05,11.05,0,0,1-4.44-3.52,7.43,7.43,0,0,1-1.45-4.25,4.16,4.16,0,0,1,1-2.86,3.32,3.32,0,0,1,2.56-1.15,3.25,3.25,0,0,1,2,.66,5.21,5.21,0,0,1,1.56,2.21,13.9,13.9,0,0,0,1.74,3.09,5.63,5.63,0,0,0,1.88,1.46,5.56,5.56,0,0,0,2.41.51,6.35,6.35,0,0,0,3.16-.78,5.11,5.11,0,0,0,2.11-2.11,6.34,6.34,0,0,0,.71-3.06A5.86,5.86,0,0,0,131,243.5q-2.22-1.83-7-1.83A28.06,28.06,0,0,0,115.83,242.84Z"/><path class="cls-2" d="M157.86,222.79a12.89,12.89,0,0,1,7.35,2.07,13.72,13.72,0,0,1,4.83,5.95,24.18,24.18,0,0,1,1.74,9.87q0,6.75-1.61,10.42a14.23,14.23,0,0,1-4.89,6.25,13.16,13.16,0,0,1-7.58,2.11,12.88,12.88,0,0,1-7.39-2,13.71,13.71,0,0,1-4.78-6.05,30.35,30.35,0,0,1,0-20.37,14,14,0,0,1,4.88-6.08A13,13,0,0,1,157.86,222.79Zm6,18.35c0-4.64-.62-8-1.86-10.07a4.92,4.92,0,0,0-4.33-2.71q-2.48,0-4.16,2.86t-1.68,9.92q0,7.05,1.69,9.9t4.27,2.85c1.72,0,3.17-1,4.33-2.93S163.82,245.73,163.82,241.14Z"/><path class="cls-2" d="M188.86,222.79a12.89,12.89,0,0,1,7.35,2.07,13.7,13.7,0,0,1,4.82,5.95,24,24,0,0,1,1.75,9.87q0,6.75-1.61,10.42a14.3,14.3,0,0,1-4.89,6.25,13.16,13.16,0,0,1-7.58,2.11,12.91,12.91,0,0,1-7.4-2,13.85,13.85,0,0,1-4.78-6.05,25.55,25.55,0,0,1-1.76-10.2A25.21,25.21,0,0,1,176.51,231a14.06,14.06,0,0,1,4.87-6.08A13,13,0,0,1,188.86,222.79Zm6,18.35c0-4.64-.62-8-1.86-10.07a4.92,4.92,0,0,0-4.33-2.71q-2.48,0-4.16,2.86c-1.12,1.91-1.69,5.22-1.69,9.92s.57,8,1.7,9.9,2.55,2.85,4.27,2.85,3.17-1,4.33-2.93S194.82,245.73,194.82,241.14Z"/><path class="cls-2" d="M224.63,222.79v27.8a9.46,9.46,0,0,0,.13,2.16,1.46,1.46,0,0,0,.74.9,4.72,4.72,0,0,0,1.94.27h3.22v4.92H210.92v-4.92h3.25a5.82,5.82,0,0,0,2.2-.25,1.59,1.59,0,0,0,.73-.78,6.94,6.94,0,0,0,.24-2.3V230.77h-6.42v-4.93a40.19,40.19,0,0,0,4.21-.63,45.84,45.84,0,0,0,4.68-1.33,15.27,15.27,0,0,0,2.57-1.09Z"/><path class="cls-2" d="M239.51,232.88a3.88,3.88,0,0,1,3,1.4,4.84,4.84,0,0,1,1.27,3.35,4.91,4.91,0,0,1-1.25,3.38,4,4,0,0,1-6.06,0,5.09,5.09,0,0,1,0-6.72A3.91,3.91,0,0,1,239.51,232.88Zm0,16.92a3.94,3.94,0,0,1,3,1.38,5.1,5.1,0,0,1,0,6.69,4,4,0,0,1-6.06,0,5.1,5.1,0,0,1,0-6.69A4,4,0,0,1,239.51,249.8Z"/><path class="cls-2" d="M255.26,237.45l-4.63.46a13.27,13.27,0,0,1-.25-2.52,12.52,12.52,0,0,1,1.56-6.36,12,12,0,0,1,4.8-4.47,14.81,14.81,0,0,1,7.21-1.77,14,14,0,0,1,6.59,1.54,10.93,10.93,0,0,1,4.44,4,9.75,9.75,0,0,1,1.49,5.14,12.39,12.39,0,0,1-1.05,5.08,16.05,16.05,0,0,1-3.82,5.11,105.44,105.44,0,0,1-10.68,7.9h7.71a7.54,7.54,0,0,0,2.38-.22,1.87,1.87,0,0,0,.87-.85,6.57,6.57,0,0,0,.62-2.18l.19-1.17h4.44l-2.08,13h-3l-.27-1.25H250.63v-4.9A137.79,137.79,0,0,0,262.44,244a21.9,21.9,0,0,0,4.88-5.79,8.17,8.17,0,0,0,.9-3.73,5,5,0,0,0-1.69-3.83,6.35,6.35,0,0,0-4.5-1.56,7.35,7.35,0,0,0-3.63.85,6.1,6.1,0,0,0-2.4,2.43,6.68,6.68,0,0,0-.88,3.32A15.07,15.07,0,0,0,255.26,237.45Z"/><path class="cls-2" d="M295,222.79a12.84,12.84,0,0,1,7.34,2.07,13.65,13.65,0,0,1,4.83,5.95,24.18,24.18,0,0,1,1.74,9.87q0,6.75-1.6,10.42a14.25,14.25,0,0,1-4.9,6.25,13.13,13.13,0,0,1-7.57,2.11,12.91,12.91,0,0,1-7.4-2,13.78,13.78,0,0,1-4.78-6.05,30.27,30.27,0,0,1,0-20.37,14,14,0,0,1,4.87-6.08A13,13,0,0,1,295,222.79Zm6,18.35c0-4.64-.62-8-1.86-10.07a4.93,4.93,0,0,0-4.33-2.71q-2.47,0-4.17,2.86t-1.68,9.92c0,4.7.56,8,1.7,9.9s2.55,2.85,4.26,2.85,3.17-1,4.33-2.93S301,245.73,301,241.14Z"/><path class="cls-2" d="M324.19,222.79v27.8a8.64,8.64,0,0,0,.14,2.16,1.45,1.45,0,0,0,.73.9,4.72,4.72,0,0,0,1.94.27h3.22v4.92H310.48v-4.92h3.25a5.82,5.82,0,0,0,2.2-.25,1.51,1.51,0,0,0,.73-.78,6.94,6.94,0,0,0,.24-2.3V230.77h-6.42v-4.93a40.89,40.89,0,0,0,4.22-.63,46.42,46.42,0,0,0,4.67-1.33,15.27,15.27,0,0,0,2.57-1.09Z"/><path class="cls-2" d="M351.94,239.15a13.08,13.08,0,0,1,5.48,4.22,8.45,8.45,0,0,1,1.51,5.11,9.88,9.88,0,0,1-3.3,7.65q-3.69,3.33-9.91,3.33a17,17,0,0,1-7.17-1.4,10.62,10.62,0,0,1-4.52-3.6,8,8,0,0,1-1.49-4.53,7.69,7.69,0,0,1,1.64-4.65,12.45,12.45,0,0,1,5.12-3.76,10.62,10.62,0,0,1-4.37-3.74,9.53,9.53,0,0,1-.09-10,10,10,0,0,1,4.24-3.62,14.88,14.88,0,0,1,6.62-1.41,14.07,14.07,0,0,1,8.09,2.28,7.07,7.07,0,0,1,3.37,6.18,7.93,7.93,0,0,1-1.14,4.18A12.32,12.32,0,0,1,351.94,239.15Zm-8.19,4.73a10.1,10.1,0,0,0-3.24,2.73,4.87,4.87,0,0,0-1.05,2.81,3.79,3.79,0,0,0,.71,2.12,5,5,0,0,0,2.16,1.7,8.23,8.23,0,0,0,3.39.65,8.93,8.93,0,0,0,3.4-.6,4.56,4.56,0,0,0,2.08-1.47,3.24,3.24,0,0,0,.62-1.89,3,3,0,0,0-.78-2.11,12,12,0,0,0-3.87-2.44Zm3.83-6.89.85-1a9,9,0,0,0,1.1-1.5,6.08,6.08,0,0,0,.58-1.36,4.43,4.43,0,0,0,.17-1.25,3.08,3.08,0,0,0-1.29-2.43,5.58,5.58,0,0,0-3.61-1,5.43,5.43,0,0,0-3.45,1,2.83,2.83,0,0,0-.5,4.23,11.43,11.43,0,0,0,3.6,2.29Z"/><rect class="cls-1" x="50.96" y="334.92" width="342.52" height="115.2"/><g id="Layer_2-2" data-name="Layer 2-2"><g id="_Group_" data-name=" Group "><g id="_Path_" data-name=" Path "><path class="cls-3" d="M285.69,420.68a36.07,36.07,0,0,1-9.05.09c-.53,0-.68-.46-.88-.82-1.9-3.37-3.79-6.74-5.77-10.11-1.53-2.71-3-5.44-4.59-8.15-.3-.52-.25-.75.3-1a21.1,21.1,0,0,0,4.78-2.82,7.69,7.69,0,0,0,2.21-9.26,6,6,0,0,0-4.66-3.47,12.43,12.43,0,0,0-3.7-.17c-.66.07-.91.32-.89,1v33.8c0,.75-.13,1.07-1,1.14a35.59,35.59,0,0,1-7,0c-.52,0-.69-.24-.65-.72a4,4,0,0,0,0-.49v-40c0-1.07,0-1.07,1-1.23a56.36,56.36,0,0,1,11.68-.5,19.51,19.51,0,0,1,9.3,2.6,11.12,11.12,0,0,1,5.52,8.9,13.25,13.25,0,0,1-2.77,9.86,12.22,12.22,0,0,1-3.45,3c-.57.35-.72.61-.33,1.28,3.22,5.5,6.37,11.05,9.54,16.57A1.33,1.33,0,0,1,285.69,420.68Z"/></g><g id="_Path_2" data-name=" Path 2"><path class="cls-3" d="M332.66,421.39a26.87,26.87,0,0,1-10.23-1.77c-.71-.26-.83-.57-.7-1.29a48.08,48.08,0,0,1,1.45-5.67c.18-.59.4-.67.95-.45a22.17,22.17,0,0,0,9.61,1.73,11,11,0,0,0,3.8-.82,4.65,4.65,0,0,0,3.07-3.94,5,5,0,0,0-2.13-5,19.47,19.47,0,0,0-4.25-1.95,44.51,44.51,0,0,1-6.43-2.77,9.53,9.53,0,0,1-5-8.31,12.9,12.9,0,0,1,1.44-7.44,11.55,11.55,0,0,1,8-5.47,28.72,28.72,0,0,1,15.44,1.36c.34.12.57.28.51.69a21.93,21.93,0,0,1-1.63,5.78c-.25.59-.65.24-1,.11a19.88,19.88,0,0,0-8.38-1.51,8.54,8.54,0,0,0-3.24.59c-2.89,1.17-2.89,5.18-1.45,6.72a7,7,0,0,0,2.4,1.64c2.8,1.21,5.77,2.16,8.47,3.47a10.57,10.57,0,0,1,6.38,10,13,13,0,0,1-2.88,9.34,14.74,14.74,0,0,1-8.17,4.56A24,24,0,0,1,332.66,421.39Z"/></g><g id="_Path_3" data-name=" Path 3"><path class="cls-3" d="M144.91,358.52l-2.78,3.3q-4.17,5-8.34,10.11c-.85,1-.84,1.05-2,.52A16.66,16.66,0,0,1,121.35,359a38.54,38.54,0,0,1,1.17-15.37c0-.09.09-.16.17-.33a14.46,14.46,0,0,0,4.78,9,23.75,23.75,0,0,0,9.89,4.85,41,41,0,0,0,6.49,1.21C144.14,358.33,144.43,358.42,144.91,358.52Z"/></g><g id="_Path_4" data-name=" Path 4"><path class="cls-3" d="M177,343.28a16.14,16.14,0,0,1,1,4.05,36.36,36.36,0,0,1,.62,8.83A18.77,18.77,0,0,1,174.9,367a17.41,17.41,0,0,1-7.67,5.51.65.65,0,0,1-.9-.23l-9.6-11.54-2-2.38c1.63-.26,3.11-.47,4.6-.74a33,33,0,0,0,8.66-2.74A15.43,15.43,0,0,0,177,343.28Z"/></g><g id="_Compound_Path_" data-name=" Compound Path "><path class="cls-3" d="M320.91,397.58a30,30,0,0,0-1.8-9,15.78,15.78,0,0,0-10.64-10.1,21.86,21.86,0,0,0-9.28-.48A15.41,15.41,0,0,0,287,386.62a28.71,28.71,0,0,0-2.72,13,30.3,30.3,0,0,0,1.76,10.8,16.06,16.06,0,0,0,9.88,10,21.81,21.81,0,0,0,8.57.94,16.69,16.69,0,0,0,6.21-1.45,16.28,16.28,0,0,0,8.77-10.23A32,32,0,0,0,320.91,397.58ZM310.27,409a8.23,8.23,0,0,1-10.61,4.77A8,8,0,0,1,298,413a9.37,9.37,0,0,1-3.68-5.78,32.65,32.65,0,0,1-.68-10.84,18.62,18.62,0,0,1,1.82-7c2.55-4.92,8.66-5.07,11.89-2.89a9.29,9.29,0,0,1,3.55,5.65,26.3,26.3,0,0,1,.81,7.44A24.48,24.48,0,0,1,310.27,409Z"/></g><g id="_Compound_Path_2" data-name=" Compound Path 2"><path class="cls-3" d="M252.47,389.75a12.44,12.44,0,0,0-5.69-9.44,17.5,17.5,0,0,0-8.81-2.48,82.58,82.58,0,0,0-12.28.35c-1.1.1-1.11,0-1.11,1.15v40.73c0,.36,0,.68.51.74a37.53,37.53,0,0,0,7.11.1c.72,0,1-.33,1-1.14V407.65c0-.36.18-.53.56-.48a24.88,24.88,0,0,0,7.84-.47,12.51,12.51,0,0,0,10.43-9A18.69,18.69,0,0,0,252.47,389.75Zm-9.1,5.78a6.49,6.49,0,0,1-6.19,4.54h-3.12c-.66,0-.91-.23-.89-.91V385.78c0-.56.14-.78.73-.85a12.34,12.34,0,0,1,5.4.41,6,6,0,0,1,3.91,3.81,10,10,0,0,1,.16,6.36Z"/></g><g id="_Path_5" data-name=" Path 5"><path class="cls-3" d="M103.05,392.06c-.13,4.59-.28,9.17-.41,13.74s-.27,9.5-.39,14.26c0,.51-.13.71-.66.8a20.92,20.92,0,0,1-6.32,0c-.56-.1-.56-.34-.56-.78q.58-14.44,1.12-29c.16-4,.35-7.93.48-11.9,0-.61.21-.8.82-.88a31.49,31.49,0,0,1,7.39,0,1.32,1.32,0,0,1,1.27,1.05q4.45,11.25,9,22.43l.26.63c.39-.12.39-.5.51-.77q4.62-11.16,9.18-22.33a1.45,1.45,0,0,1,1.31-1.06,26.76,26.76,0,0,1,6.81.09c.47,0,.65.19.68.69.23,5.47.51,10.93.77,16.4l1.12,23.8c.09,1.6.11,1.59-1.51,1.75a24.93,24.93,0,0,1-6-.13c-.49,0-.69-.21-.72-.77q-.37-10.86-.78-21.75c0-2-.16-3.91-.23-5.9-.37.16-.4.55-.53.85q-3.81,8.79-7.6,17.61a1.54,1.54,0,0,1-1.44,1.17,23.66,23.66,0,0,1-4.76,0,1.18,1.18,0,0,1-1.11-1Q107.19,402,103.6,393c-.13-.34-.26-.65-.41-1Z"/></g><g id="_Path_6" data-name=" Path 6"><path class="cls-3" d="M139.33,424.1a37.52,37.52,0,0,1,.89-5.26c1.67-8.82,3.24-17.66,4.64-26.52.7-4.33,1.45-8.8,2-13.21a1.3,1.3,0,0,0-.33-1.14c-1.53-1.81-3-3.71-4.46-5.55a3.69,3.69,0,0,1,0-5.05q2.69-3.76,5.51-7.34a5.06,5.06,0,0,1,.67-.72,2,2,0,0,1,2.8-.43,1.93,1.93,0,0,1,.54.6c2,2.57,4.05,5.19,6,7.83a3.84,3.84,0,0,1-.18,4.83L153,377.92a1.59,1.59,0,0,0-.36,1.34c.94,8.1,2.15,16.16,3.51,24.22,1,6.32,2.26,12.6,3.48,18.89a7.91,7.91,0,0,1-1.45,6.56c-1.83,2.41-3.72,4.76-5.77,7-.17.18-.36.37-.55.54a3,3,0,0,1-4.2.25,2.46,2.46,0,0,1-.43-.48c-1.23-1.34-2.41-2.74-3.58-4.14-.93-1.14-1.79-2.22-2.72-3.38A7.62,7.62,0,0,1,139.33,424.1Z"/></g><g id="_Path_7" data-name=" Path 7"><path class="cls-3" d="M172.14,394.44c.25-.29.36-.44.48-.59,3.3-4.39,8.34-5.14,13-3.42a8.25,8.25,0,0,1,5.24,6.76,23.22,23.22,0,0,1,.39,4.56v18.07c0,.75-.22,1-.94,1.08a27.89,27.89,0,0,1-6.71,0c-.62-.09-.78-.3-.78-.91V403.78a12.73,12.73,0,0,0-.49-4.21,3.58,3.58,0,0,0-3.44-2.56,5.41,5.41,0,0,0-5.94,4.83v0a19.34,19.34,0,0,0-.24,3.48v14.43c0,.83-.27,1.06-1,1.13a26.14,26.14,0,0,1-6.73,0c-.49,0-.69-.2-.69-.76V391c0-.54.17-.75.66-.83a18.44,18.44,0,0,1,5.55,0,1,1,0,0,1,.92.84C171.77,392.08,171.88,393.17,172.14,394.44Z"/></g><g id="_Path_8" data-name=" Path 8"><path class="cls-3" d="M256.65,427.27h90.92c.71-.12.77.27.79.85s-.26.79-.8.72H165.82c-.61,0-.94,0-.94-.8s.38-.77,1-.77Z"/></g><g id="_Path_9" data-name=" Path 9"><path class="cls-3" d="M310.53,436.85c.81-1.29,1.56-2.47,2.25-3.67a1.31,1.31,0,0,1,1.56-.68c.7.18.71.76.71,1.33v6.73a.94.94,0,0,1-1,1.07,1,1,0,0,1-1-1,.66.66,0,0,1,0-.14V436.4a3.31,3.31,0,0,0-.9,1.17c-1.44,2.37-1.89,2.41-3.33,0a3.55,3.55,0,0,0-.87-1v3.71c0,.93-.31,1.44-.93,1.44s-1-.48-1-1.44V434c0-.61,0-1.23.69-1.45a1.35,1.35,0,0,1,1.68.81C309.05,434.5,309.77,435.65,310.53,436.85Z"/></g><g id="_Path_10" data-name=" Path 10"><path class="cls-3" d="M280.05,437.72V434a2.05,2.05,0,0,1,.13-.95.89.89,0,0,1,1-.55.86.86,0,0,1,.8.74c0,.22,0,.45,0,.68v6.25c0,.59,0,1.19-.7,1.44s-1.15-.2-1.54-.72c-1-1.35-2-2.69-3.07-4-.19-.24-.31-.56-.75-.72v4.68a.9.9,0,0,1-.88.88,1,1,0,0,1-1-.84,1.35,1.35,0,0,1,0-.49v-6.55c0-.55.08-1.07.67-1.26a1.37,1.37,0,0,1,1.58.49l3.06,4c.19.25.39.48.59.71Z"/></g><g id="_Path_11" data-name=" Path 11"><path class="cls-3" d="M323.57,436.16v3.89a3.39,3.39,0,0,1,0,.78,1,1,0,0,1-1.07.8h0a.86.86,0,0,1-.85-.88V433.4a.85.85,0,0,1,.62-.88,1.42,1.42,0,0,1,1.57.48l3.08,4a2.66,2.66,0,0,0,.77.83v-4.33a1,1,0,0,1,.73-1.14,1,1,0,0,1,1.2.62,1.14,1.14,0,0,1,0,.37v7.13a1,1,0,0,1-.68,1,1.09,1.09,0,0,1-1.31-.39c-.6-.73-1.16-1.44-1.74-2.23L323.77,436Z"/></g><g id="_Path_12" data-name=" Path 12"><path class="cls-3" d="M183.56,437.09v-3.21c0-1.07.35-1.33,1.36-1.33h4.33c.65,0,1.15.21,1.17.88s-.48.92-1.13.91h-3.13c-.75,0-.67.42-.64.86s-.2,1,.64,1,1.7,0,2.54,0,1.14.25,1.14.92-.55.9-1.17.9h-2.54c-.85,0-.59.58-.61,1s-.16.93.62.89h3.12c1,0,1.26.35,1.21.94s-.56.86-1.17.86h-4.48c-1,0-1.3-.33-1.32-1.44S183.56,438.09,183.56,437.09Z"/></g><g id="_Path_13" data-name=" Path 13"><path class="cls-3" d="M233.56,437v-3.21c0-1.09.36-1.28,1.31-1.28h4.33c.81,0,1.29.35,1.23.91a1,1,0,0,1-1.19.87h-2.33c-1.53,0-1.45-.19-1.45.88s-.08.91,1.45.92h1.76c.57,0,1.14.25,1.12.94s-.55.88-1.17.88H236.1c-.84,0-.64.55-.64,1s-.16,1,.61.91,1.82,0,2.73,0h.69a.88.88,0,0,1,.95.91c0,.6-.39.87-.95.88h-4.88c-.78,0-1.05-.53-1.05-1.24Z"/></g><g id="_Path_14" data-name=" Path 14"><path class="cls-3" d="M181.39,437.09v3.32c0,.77-.39,1.2-1,1.2s-1-.46-1-1.21,0-1.3,0-1.95c0-.42-.12-.56-.55-.55h-2.63c-.37,0-.53.13-.52.51v2a1,1,0,0,1-.84,1.13h-.11a1,1,0,0,1-1-1.14v-6.93c0-.77.4-1.17,1-1.13a1,1,0,0,1,.95,1.12v1.94c0,.65.16.57.58.57h2.63c.39,0,.49-.16.49-.52v-2.05a.92.92,0,0,1,.81-1h.2c.68,0,1,.44,1,1.09Z"/></g><g id="_Path_15" data-name=" Path 15"><path class="cls-3" d="M253.48,441.68a5.67,5.67,0,0,1-3-.88c-.63-.4-.84-1-.48-1.44a1,1,0,0,1,1.35-.24l.1.08a3.55,3.55,0,0,0,2.37.72c.51,0,1-.18,1.08-.78s-.39-.78-.82-.92c-.71-.24-1.45-.4-2.14-.65a2.37,2.37,0,0,1-1.83-2.65,2.63,2.63,0,0,1,2.18-2.42,4.94,4.94,0,0,1,3.66.58,1,1,0,0,1,.58,1.22l-.07.15a.93.93,0,0,1-1.27.38.71.71,0,0,1-.18-.12,3.73,3.73,0,0,0-1.84-.55c-.49,0-1,.11-1.13.71s.38.8.81.94,1.25.36,1.86.58c1.66.56,2.34,1.44,2.12,2.88a2.88,2.88,0,0,1-2.88,2.4Z"/></g><g id="_Path_16" data-name=" Path 16"><path class="cls-3" d="M345,441.67a5.58,5.58,0,0,1-3.06-.81c-.75-.45-1-1-.61-1.44s.84-.56,1.55-.13a3.6,3.6,0,0,0,2.29.68c.49,0,1-.13,1.09-.75s-.37-.81-.8-1c-.71-.24-1.44-.4-2.13-.65a2.32,2.32,0,0,1-1.84-2.69,2.57,2.57,0,0,1,2.15-2.43,5.11,5.11,0,0,1,3.67.56c.52.29.82.68.55,1.27s-.83.68-1.45.39a3.8,3.8,0,0,0-1.74-.56c-.52,0-1.1,0-1.23.69s.41.83.88,1,1.24.37,1.86.57c1.56.55,2.2,1.44,2,2.8a2.77,2.77,0,0,1-2.7,2.48Z"/></g><g id="_Path_17" data-name=" Path 17"><path class="cls-3" d="M245.45,441.7a5.61,5.61,0,0,1-3.2-1,1,1,0,0,1-.38-1.44.9.9,0,0,1,1.22-.35.76.76,0,0,1,.23.18,4.08,4.08,0,0,0,2.26.76c.55,0,1.11-.09,1.26-.71s-.42-.88-.91-1-1.45-.4-2.14-.66a2.37,2.37,0,0,1-1.86-2.47,2.63,2.63,0,0,1,2-2.47,4.87,4.87,0,0,1,3.85.54,1,1,0,0,1,.56,1.22,1,1,0,0,1-.07.15,1,1,0,0,1-1.27.38l-.17-.12a3.67,3.67,0,0,0-1.73-.49c-.48,0-1,0-1.1.72s.37.79.81.94c.65.21,1.31.37,2,.59a2.44,2.44,0,0,1,2,2.81s0,.05,0,.08a2.71,2.71,0,0,1-2.51,2.29C246,441.68,245.67,441.68,245.45,441.7Z"/></g><g id="_Path_18" data-name=" Path 18"><path class="cls-3" d="M225.1,437v-3.32c0-.85.35-1.19,1.18-1.19H231c.73,0,1.14.38,1.09,1a1,1,0,0,1-1.09.85h-3.13c-.59,0-.79.14-.76.76,0,1.45-.12,1.14,1.2,1.17h2.1c.62,0,1,.29,1.06.91s-.41.91-1,.91H228c-.81,0-1,.26-.94,1a8.66,8.66,0,0,1,0,1.44c0,.74-.44,1.21-1,1.16a1,1,0,0,1-1-1s0-.07,0-.11Z"/></g><g id="_Path_19" data-name=" Path 19"><path class="cls-3" d="M167.48,437.72V435c0-.54-.17-.71-.66-.67a5.46,5.46,0,0,1-1,0c-.82,0-1.25-.36-1.19-.95a1,1,0,0,1,1.18-.89h5.47a.88.88,0,0,1,1,.77.54.54,0,0,1,0,.18.85.85,0,0,1-.83.87h-.24c-.54,0-1.25-.24-1.6.13s-.13,1.17-.14,1.78v4.11c0,.84-.36,1.3-1,1.3s-1-.46-1-1.3Z"/></g><g id="_Path_20" data-name=" Path 20"><path class="cls-3" d="M296.11,436.36v2.89c0,.41.13.56.57.54h2.81c.81,0,1.26.36,1.21.94a1,1,0,0,1-1.17.9h-4.18c-.91,0-1.24-.33-1.24-1.24v-6.63c0-.84.37-1.26,1-1.24s1,.42,1,1.28S296.11,435.48,296.11,436.36Z"/></g><g id="_Path_21" data-name=" Path 21"><path class="cls-3" d="M260.69,437v3.42c0,.68-.23,1.16-.95,1.23s-1-.45-1-1.24v-6.74c0-.82.41-1.27,1.06-1.21s.95.56.93,1.22Z"/></g><g id="_Path_22" data-name=" Path 22"><path class="cls-3" d="M319.31,437.09v3.41c0,.74-.43,1.23-1,1.16a1,1,0,0,1-.95-1.06v-7c0-.77.39-1.17,1-1.13a1,1,0,0,1,.95,1.11C319.29,434.73,319.31,435.9,319.31,437.09Z"/></g><g id="_Compound_Path_3" data-name=" Compound Path 3"><path class="cls-3" d="M221,398.7V378.58c0-.71-.19-.94-.91-1a32.42,32.42,0,0,0-6.23,0c-1.45.15-1.2.09-1.2,1.38v10.45c0,.62-.12.78-.77.63a16.23,16.23,0,0,0-4.56-.29,14.3,14.3,0,0,0-10.75,5.15c-4.33,5.29-4.87,11.35-2.76,17.59,1.92,5.84,6.68,8.32,12.5,8.84a38.79,38.79,0,0,0,13.73-1.3c.79-.21,1-.54,1-1.32C221,412,221,405.34,221,398.7Zm-9,15.59a12.35,12.35,0,0,1-6-.19,6.48,6.48,0,0,1-4.47-5.64,14.66,14.66,0,0,1,.4-6.84,7.37,7.37,0,0,1,8.8-5.39c1.91.29,1.91.29,1.91,2.23v14.88C212.69,414,212.51,414.19,212,414.29Z"/></g><g id="_Compound_Path_4" data-name=" Compound Path 4"><path class="cls-3" d="M267.48,432.33a4.69,4.69,0,0,0-4.86,4.52.53.53,0,0,0,0,.13,4.59,4.59,0,0,0,4.46,4.72h.29a4.69,4.69,0,1,0,.62-9.36A4.13,4.13,0,0,0,267.48,432.33Zm-.1,7.55a2.75,2.75,0,0,1-2.66-2.85v0a2.67,2.67,0,0,1,2.54-2.77h.2a2.89,2.89,0,0,1-.08,5.67Z"/></g><g id="_Compound_Path_5" data-name=" Compound Path 5"><path class="cls-3" d="M218.62,432.33a4.67,4.67,0,0,0-4.9,4.44c0,.11,0,.22,0,.32a4.59,4.59,0,0,0,4.52,4.67h.19a4.69,4.69,0,1,0,.68-9.36,3.85,3.85,0,0,0-.48,0Zm0,7.55a2.89,2.89,0,0,1-2.77-2.89,2.74,2.74,0,0,1,2.59-2.88h.12a2.7,2.7,0,0,1,2.75,2.65,1.77,1.77,0,0,1,0,.23,2.74,2.74,0,0,1-2.59,2.89h-.09Z"/></g><g id="_Compound_Path_6" data-name=" Compound Path 6"><path class="cls-3" d="M210.9,438.75c-.25-.28-.33-.46,0-.73a3,3,0,0,0,1.22-3.49,2.88,2.88,0,0,0-2.88-2h-3.42c-.87,0-1.16.3-1.17,1.18s0,2.21,0,3.31h0v3.61a1,1,0,0,0,.86,1h.08a1,1,0,0,0,1-1,.06.06,0,0,0,0-.06v-1.45c0-.17,0-.43.24-.43.66,0,1.34-.2,1.81.56a15.77,15.77,0,0,0,1.58,2,1,1,0,0,0,1.37.23l.07-.06a.88.88,0,0,0,.19-1.25l-.1-.12A4.16,4.16,0,0,0,210.9,438.75Zm-1.72-1.92a7.62,7.62,0,0,1-1.17,0c-1.26,0-1.26,0-1.26-1.28a1.27,1.27,0,0,0,0-.39c-.14-.79.22-1,1-.94a13.25,13.25,0,0,1,1.54.09,1.19,1.19,0,0,1,1,1.31,1.15,1.15,0,0,1-1.1,1.21Z"/></g><g id="_Compound_Path_7" data-name=" Compound Path 7"><path class="cls-3" d="M336.63,432.65a10.05,10.05,0,0,0-2.12-.16h-1.37c-1,0-1.35.32-1.35,1.33v6.52c0,.88.29,1.2,1.16,1.21a25.36,25.36,0,0,0,3,0,4.48,4.48,0,0,0,.66-8.84Zm-1.29,7.09c-1.57,0-1.57,0-1.57-1.58v-3.3c0-.41.13-.61.56-.57a9.13,9.13,0,0,0,1.17,0,2.64,2.64,0,0,1,2.57,2.69,1.34,1.34,0,0,1,0,.2,2.56,2.56,0,0,1-2.55,2.56Z"/></g><g id="_Compound_Path_8" data-name=" Compound Path 8"><path class="cls-3" d="M200.07,432.5h-2.64c-.88,0-1.28.28-1.3,1.28s0,2.15,0,3.21h0v3.71a.9.9,0,0,0,.85.94h.08a1,1,0,0,0,1-.89v-.05a3.91,3.91,0,0,0,0-1.08c0-.56.11-.84.74-.78a6.93,6.93,0,0,0,1.44,0,3.17,3.17,0,0,0-.2-6.34Zm-1,4.59c-.92,0-.92,0-.92-1.44s-.18-1.33.94-1.33c1.44,0,2.16.41,2.19,1.35S200.61,437.09,199.06,437.09Z"/></g><g id="_Compound_Path_9" data-name=" Compound Path 9"><path class="cls-3" d="M292.45,440.28c-1.06-2.39-2.12-4.8-3.21-7.21a1.2,1.2,0,0,0-1.25-.74,1.36,1.36,0,0,0-1.19.88c-1,2.33-2.05,4.64-3.07,6.94a1,1,0,0,0,.43,1.45.88.88,0,0,0,1.19-.37.85.85,0,0,0,.1-.28c.3-1.33,1.15-1.55,2.29-1.44a2.91,2.91,0,0,0,.59,0c1.13-.16,2.05,0,2.28,1.35a1.12,1.12,0,0,0,.39.56.86.86,0,0,0,1,.11.94.94,0,0,0,.51-.94A1.55,1.55,0,0,0,292.45,440.28Zm-5.62-2.58c.38-.91.75-1.79,1.22-2.89.46,1.09.8,1.95,1.21,2.89Z"/></g></g></g></svg>