<svg xmlns="http://www.w3.org/2000/svg" viewBox="0 0 111.03 64.03"><defs><style>.cls-1{fill:#231f20;}</style></defs><title>ms-net-logo</title><g id="Layer_2" data-name="Layer 2"><g id="Livello_1" data-name="Livello 1"><path class="cls-1" d="M108.35,6.42h0a1.32,1.32,0,0,0,.71-.38.92.92,0,0,0,.25-.66.9.9,0,0,0-.31-.72,1.55,1.55,0,0,0-1.08-.32h-1.07V8.14h.53V6.54h.35c.25,0,.47.23.68.69l.42.91h.65l-.5-1C108.77,6.71,108.56,6.47,108.35,6.42Zm-.4-.34h-.57V4.79h.48a1.15,1.15,0,0,1,.7.16.6.6,0,0,1,.18.48C108.74,5.87,108.48,6.08,108,6.08ZM108,3.3a2.89,2.89,0,0,0-2.14.87A2.85,2.85,0,0,0,105,6.28a2.83,2.83,0,0,0,.85,2.12,3,3,0,0,0,2.14.83,2.93,2.93,0,0,0,2.14-.85A2.83,2.83,0,0,0,111,6.26a2.84,2.84,0,0,0-.88-2.13A2.94,2.94,0,0,0,108,3.3Zm1.86,4.87a2.53,2.53,0,0,1-1.87.76,2.6,2.6,0,0,1-2.64-2.66,2.66,2.66,0,0,1,4.52-1.88,2.53,2.53,0,0,1,.77,1.88A2.55,2.55,0,0,1,109.89,8.17ZM15.26,6.33c0-1.42,0-2.44-.09-3.07h0a8.65,8.65,0,0,0,.47,1.61l5.38,12H22l5.38-12.1a13,13,0,0,0,.47-1.53h0c-.1,1.2-.16,2.22-.16,3.05V16.89h1.85V1.14H27.23L22.29,12.08c-.19.42-.44,1.07-.75,1.93h-.08a14.14,14.14,0,0,0-.71-1.89l-4.83-11H13.48V16.89h1.78ZM34.35,2.79a1.18,1.18,0,0,0,.84-.34,1.15,1.15,0,0,0,.35-.84,1.14,1.14,0,0,0-.35-.83,1.22,1.22,0,0,0-1.67,0,1.13,1.13,0,0,0-.34.83,1.12,1.12,0,0,0,.34.85A1.16,1.16,0,0,0,34.35,2.79Zm-.92,14.1h1.8V5.64h-1.8Zm9.94.27a5.76,5.76,0,0,0,3.08-.79V14.66a4.55,4.55,0,0,1-2.77,1,3.58,3.58,0,0,1-2.78-1.14,4.46,4.46,0,0,1-1-3.11A4.66,4.66,0,0,1,41,8.1a3.64,3.64,0,0,1,2.8-1.19,4.55,4.55,0,0,1,2.68.88V5.94a5.69,5.69,0,0,0-2.6-.57,5.5,5.5,0,0,0-4.26,1.7A6.23,6.23,0,0,0,38,11.54a5.66,5.66,0,0,0,1.45,4A5.08,5.08,0,0,0,43.37,17.16Zm8.87-11.1A3.9,3.9,0,0,0,51,8H51V5.64h-1.8V16.89H51V11.15a4.9,4.9,0,0,1,.85-3.06,2.23,2.23,0,0,1,1.84-1A2.2,2.2,0,0,1,55,7.47V5.6A3,3,0,0,0,54,5.45,2.66,2.66,0,0,0,52.24,6.06Zm9.07,11.1a5.31,5.31,0,0,0,4.09-1.63,6.06,6.06,0,0,0,1.51-4.31,6.25,6.25,0,0,0-1.4-4.3,5.08,5.08,0,0,0-3.93-1.55A5.58,5.58,0,0,0,57.5,6.86a6,6,0,0,0-1.65,4.54,5.81,5.81,0,0,0,1.45,4.13A5.14,5.14,0,0,0,61.31,17.16ZM58.76,8a3.48,3.48,0,0,1,2.69-1.09A3.36,3.36,0,0,1,64.1,8a5,5,0,0,1,1,3.3,4.92,4.92,0,0,1-.91,3.18,3.28,3.28,0,0,1-2.71,1.15,3.52,3.52,0,0,1-2.74-1.13,4.58,4.58,0,0,1-1-3.16A4.79,4.79,0,0,1,58.76,8Zm16.05,8.17a2.92,2.92,0,0,0,1-2.29A2.75,2.75,0,0,0,75,11.82a6.4,6.4,0,0,0-2.08-1.25,6.48,6.48,0,0,1-1.69-.93,1.51,1.51,0,0,1-.45-1.16,1.41,1.41,0,0,1,.54-1.14,2.22,2.22,0,0,1,1.43-.43,4.21,4.21,0,0,1,2.56.8V5.89a5.37,5.37,0,0,0-2.41-.52,4.33,4.33,0,0,0-2.86.93A2.93,2.93,0,0,0,69,8.63a2.87,2.87,0,0,0,.71,2,5.85,5.85,0,0,0,2,1.27,7.19,7.19,0,0,1,1.84,1A1.37,1.37,0,0,1,74,14.05c0,1-.72,1.57-2.14,1.57a4.59,4.59,0,0,1-2.93-1.07v1.93a5.61,5.61,0,0,0,2.8.68A4.52,4.52,0,0,0,74.81,16.17Zm12.36-.64a6.06,6.06,0,0,0,1.52-4.31,6.21,6.21,0,0,0-1.41-4.3,5.06,5.06,0,0,0-3.93-1.55,5.58,5.58,0,0,0-4.08,1.49,6,6,0,0,0-1.65,4.54,5.81,5.81,0,0,0,1.45,4.13,5.16,5.16,0,0,0,4,1.63A5.29,5.29,0,0,0,87.17,15.53Zm-7.7-4.2A4.79,4.79,0,0,1,80.53,8a3.48,3.48,0,0,1,2.69-1.09A3.34,3.34,0,0,1,85.87,8a4.92,4.92,0,0,1,1,3.3,4.92,4.92,0,0,1-.91,3.18,3.27,3.27,0,0,1-2.71,1.15,3.54,3.54,0,0,1-2.74-1.13A4.63,4.63,0,0,1,79.47,11.33Zm12.27,5.56h1.8V7.17h2.64V5.64H93.54V3.91c0-1.59.63-2.38,1.89-2.38a2.4,2.4,0,0,1,1.2.29V.2A3.53,3.53,0,0,0,95.32,0a3.44,3.44,0,0,0-2.43.91,3.73,3.73,0,0,0-1.15,2.91V5.64H89.83V7.17h1.91Zm7.36-3.07q0,3.32,2.94,3.32a3.33,3.33,0,0,0,1.69-.37V15.24a1.93,1.93,0,0,1-1.16.36,1.57,1.57,0,0,1-1.29-.48,2.55,2.55,0,0,1-.38-1.61V7.17h2.83V5.64H100.9V2.31l-1.8.59V5.64H97.16V7.17H99.1ZM3.17,57.53a3,3,0,0,0-2.25.95A3.14,3.14,0,0,0,0,60.78a3.19,3.19,0,0,0,.92,2.29,3,3,0,0,0,2.25,1,3.11,3.11,0,0,0,2.3-1,3.24,3.24,0,0,0,0-4.58A3.07,3.07,0,0,0,3.17,57.53Zm38.74-6.37a41.86,41.86,0,0,0,.3,6.07h-.12c-.28-.55-.85-1.47-1.67-2.76L19.75,22.08H13.47V63.37h4.84V33.54a43.09,43.09,0,0,0-.23-5.67h.17a15.26,15.26,0,0,0,1.29,2.59L40.85,63.37h5.87V22.08H41.91ZM60.7,44.57H75.62V40.19H60.7V26.45H76.8V22.08H55.87V63.37H77.75V59h-17ZM82.3,26.45H94.21V63.37h4.84V26.45h11.89V22.08H82.3Z"/></g></g></svg>