<svg xmlns="http://www.w3.org/2000/svg" viewBox="0 0 2279.41 291.04"><title>oracle-logo</title><g id="Layer_2" data-name="Layer 2"><g id="Layer_1-2" data-name="Layer 1"><path d="M1594.75,4.23h46.83V244.17h203L1814.81,291H1594.75V4.23ZM1227,291,1053.78,17.72c-10.65-17.75-39-17.75-51.11.71L830.87,291h56.79l51.83-82.36h110.75l29.12-46.86H968.61L1029,67.42,1170.24,291ZM1332.41,4.32c-79.14,0-131.24,64.16-131.24,143.31S1253.28,291,1332.41,291l192.45-.23L1555,244.27H1333.82c-53.34,0-84.56-43.26-84.56-96.64S1280.47,51,1333.82,51h197L1559.9,4.18ZM131.25,51h203c53.37,0,84.58,43.26,84.58,96.63s-31.19,96.64-84.58,96.64h-203c-53.37,0-84.56-43.26-84.56-96.64S77.88,51,131.25,51Zm0-46.68C52.1,4.32,0,68.48,0,147.63S52.1,291,131.25,291h203c79.16,0,131.26-64.18,131.26-143.33S413.44,4.32,334.28,4.32Zm1763.43,166c7.62,42.41,36.8,73.91,82.35,73.91h221.15L2168,290.73l-192.42.23c-79.17,0-131.24-64.18-131.24-143.33S1896.46,4.32,1975.62,4.32l227.48-.13L2174,51h-197c-44.92,0-74.23,31-82.36,72.5h277.94l-29.82,46.86H1894.68ZM730.42,174.51a85.11,85.11,0,0,0,0-170.19l-238.89-.1V291h52.54V51H730.42a38.41,38.41,0,0,1,0,76.81H581L749.56,290.7h67.82L696.7,174.61Zm1521.75-170c12.18,0,21.82,9.62,21.82,22.38,0,13-9.62,22.52-21.82,22.52s-21.93-9.55-21.93-22.52c0-12.76,9.6-22.38,21.93-22.38V0c-14.82,0-27.35,11.4-27.35,26.86,0,15.62,12.54,27,27.35,27a26.9,26.9,0,0,0,27.24-27c0-15.46-12.54-26.86-27.24-26.86Z"/><path d="M2246.48,15.4h6.43c3.27,0,6.76.71,6.76,4.56,0,4.77-3.57,5.07-7.57,5.07h-5.63v4h5.42l8.21,13.47h5.26l-8.84-13.68c4.56-.57,8.05-3,8.05-8.55,0-6.13-3.64-8.84-11-8.84h-11.85V42.5h4.7V15.4Z"/></g></g></svg>