<svg xmlns="http://www.w3.org/2000/svg" viewBox="0 0 2500.1 498.9"><title>sharepoint-logo</title><g id="Layer_2" data-name="Layer 2"><g id="Layer_1-2" data-name="Layer 1"><path d="M0,52.1,291.2,0q.15,249.45,0,498.9C194.2,481.7,97.2,464.2,0,447ZM97,164.7c-11.9,14.1-15.6,33.6-13.4,51.5,1.8,15.6,10.5,29.9,22.3,39.8,10.8,9.2,24.6,14.8,34.3,25.6,7.3,8.1,9.1,21.6,1.8,30.3-5.8,7-15.8,7.5-24,6.1-13.8-2-25.5-10.5-34.6-20.8l.1,43.1c13.4,10.2,30.7,13.8,47.2,13.7,11.7-.3,23.6-3,33.1-10.1,11.9-8.7,18.8-22.9,20.5-37.3,2.4-16.8-.4-34.9-10.8-48.7-9.1-11.5-21.3-19.9-33.7-27.3-6.7-4.1-13.4-8.5-17.9-15.1-5.3-9-5.1-21.8,2.7-29.2,6.5-6.3,16.4-6.8,24.9-5.8,10.4,1.1,20.2,5.8,28.3,12.2V149.9c-13.5-5.5-28.5-6.1-42.8-5-14.5,1.9-28.7,8.5-38,19.8ZM319.4,83.6c10-9.8,23.9-15.8,38-14.5,20.1,1.1,37.8,16.8,42.8,36.1a52.46,52.46,0,0,1,.9,22.3A131,131,0,0,1,472.4,201a47.36,47.36,0,0,1,40.3,11.2c16.9,14.5,21.5,40.8,11.2,60.6-9.2,18.6-31.2,29.7-51.6,25.5-12.5,32.7-38.6,60-71,73.3,2.8,16.1-2.1,33.4-13.8,45-12.1,12.5-31.6,17.1-48.1,11.5a46.51,46.51,0,0,1-19.8-12.8V346.6c9.4-9.8,22.8-15.8,36.4-15.1,12.9.3,24.9,6.8,33.6,15.9,27.3-10.8,49.2-33.7,59.2-61.3-8.1-8.4-13.9-19.2-15.1-30.9-2-15.5,4.3-31.2,15.1-42.1-10-27.7-32-50.8-59.5-61.6a47.81,47.81,0,0,1-30.9,16.1c-14.4,1.6-28.9-4.6-39-14.8Zm538.7-.2h34.6V221.7c10.8-17.8,27.2-33,47.8-38.1,18.4-4.6,38.4-4,56,3.3,15.4,6.4,26.7,20.2,32.1,35.8,5.5,15.1,6.7,31.3,6.8,47.2V399.6H1001V281.1c-.3-15.6-.9-31.7-7.7-46.1-4.7-10.2-13.5-18.9-24.5-22.2-16.8-5.3-36.4-2.7-50.5,8.1-16.6,12.7-25.6,33.7-25.9,54.3V399.4H858q.15-157.8.1-316Zm1230.8,4.9c12.7-4.6,28.3,4.1,29.7,17.9,2.4,11.9-7,24.3-19.1,25.6-10.8,1.8-23-5-25.3-16.1C2071.2,104.7,2077.8,91.8,2088.9,88.3Zm-1390.1,15c18.8-7.7,39.4-8.7,59.3-7.5,15.1,1,30.6,3,44.1,10.1v39.8c-18.8-14.7-43.5-19.6-66.9-18.2-15.6.9-31.7,7.1-41.5,19.5-10.2,13.1-10.2,31.7-4.7,46.7,7.5,16.1,23.9,25,38.4,34.1,23.5,13.8,48.4,26.3,67.4,46.4a70.26,70.26,0,0,1,19.9,51.1c.3,20.1-7.1,40.7-22.2,54.3-17.9,16.9-43,23.9-67,25-19.3,1.6-38.8-2.3-57.3-8-7.1-2.3-14.2-4.8-20.3-9l.1-42c16.4,14.4,37.6,22.5,58.8,26,15.9,2.3,32.6,1.3,47.7-4.8,9.8-4.1,17.9-12.5,20.9-22.9,4.4-14.8,2.6-32-7.1-44.4-7.8-9.8-18.5-16.9-28.9-23.9-18.1-12.1-38-21.3-55.2-34.7-12.5-9.7-24.6-21.1-30.4-36.1a82.34,82.34,0,0,1-1.7-53.9c6.7-22.2,25.4-39.1,46.6-47.6Zm937.4-2.9h56.5c21.3.1,43.2-1.3,64.2,4.6,20.3,5.3,39.4,17.6,50.4,35.8,12.1,20.2,14.1,45,10.5,67.7s-16.8,43.5-35.4,56.9c-13.4,10-29.4,16.1-45.8,18.8-21.5,3.6-43.4,1.4-65.2,2V399.3h-35.3c.1-99.4.3-199.1.1-298.9m35.3,32V254.7c23.3-.7,47.4,2.3,70.1-4.8,13.4-4.3,25.9-12.8,32.9-25.2,7.8-14.1,9.2-31,6.8-46.7-2-12.5-8.1-24.8-18.5-32.4-13.5-10.1-30.9-12.7-47.2-13.2Zm740.2,1.3c11.5-3.6,22.9-7.4,34.4-11.1.1,21.1,0,42.1,0,63.2h53.8v29.6h-53.6v124c.3,8.4,1.3,17.4,6,24.6,4.3,6.8,12.5,10,20.2,10.5a40.2,40.2,0,0,0,27.6-6.7v29.7c-12.4,6.3-26.7,7.5-40.4,6.4-11.8-1-24-5-32.4-13.7-11.1-11.1-14.8-27.3-15.5-42.4V215.2h-37V185.8h37c-.1-17.4-.3-34.7-.1-52.1ZM1126.8,186.2c23-6.4,48.2-8.3,71.1-.3a58.23,58.23,0,0,1,35.3,35.3c6.8,17.6,6.3,37,6.1,55.6V399.4h-34.4V365.5c-8.4,14.7-20.8,27.6-36.8,33.7-17.4,6.8-37,6.8-54.8,2-19.3-5.4-36-20.9-40.7-40.7-3.7-15.6-2.8-32.7,3.6-47.7,4.8-11.8,14.1-21.3,25-27.6,12.1-7,25.7-10.5,39.5-12.5,21.5-3,42.8-6,64.3-9.1-.3-14.2-2.1-29.7-11.7-41-7.8-9.4-20.6-13.1-32.6-12.7-25.3-.4-50.1,9.8-69.3,26V200.2c10.7-6.7,23.2-10.4,35.4-14m17.5,114.2c-11.9,2.7-25.6,5.8-32.9,16.6-5.7,9.1-6.4,20.5-4.8,30.7,2.4,12.4,12.9,21.8,24.8,25.2a58.67,58.67,0,0,0,40.8-3.6,60.29,60.29,0,0,0,30.3-38.4c3.6-12.8,1.8-26.3,2.3-39.4C1184.7,294.8,1164.5,297.2,1144.3,300.4Zm303.2-99.8a90.51,90.51,0,0,1,57.6-19.8c19.1-.4,38.8,4.4,54.1,16.2s25.6,29.7,30.2,48.4c4.8,18.2,4.4,37.1,4.4,55.9-50.2,0-100.6-.1-150.9,0,.9,16.8,3.8,34.3,13.8,48.2,9.7,14.1,25.9,22.8,42.7,24.8,28.2,4.1,57.3-5,79.5-22.8-.1,10.8,0,21.8,0,32.6-19.5,14.4-44.1,19.8-67.9,20.6-20.1.9-40.8-2.3-58.3-12.8s-30.3-27.6-37.1-46.5c-7.5-20.5-9-42.8-7.7-64.4,2.1-30.5,15.4-61.1,39.6-80.4m22.9,21.5c-15.4,12.1-24.2,31-26.9,50.1h114.8c-.1-16.1-3.6-33.1-14.2-45.7-9-11-23.5-16.4-37.4-16.2a54,54,0,0,0-36.3,11.8Zm447.5-40.4c25.3-2.7,52.5-.4,74.5,13.4,23.6,14.5,38.1,40.5,42.7,67.4,4.3,25.7,3.6,52.9-5.5,77.5-9.8,26.7-31.3,49.2-58.5,58.5a127.86,127.86,0,0,1-72,2.4c-25-6.4-46.7-24-58.6-46.8-12.5-23-14.8-50.1-12.5-75.8,2.1-23.5,10.2-46.9,26.3-64.7,15.9-18.6,39.4-29.2,63.6-31.9m3.3,29.3a63.38,63.38,0,0,0-44.5,27.6c-13.1,19.9-15.5,44.8-13.7,68.1,1.7,21.6,11,43.8,29.3,56.5,14.2,10.2,32.4,13.2,49.6,11.7,13.9-1.1,27.9-6.3,37.8-16.1,10.8-10.1,16.9-24.3,19.8-38.7a153.67,153.67,0,0,0,1-48.8c-2.7-19.8-11.8-40.1-29.2-51.2-14.6-9.6-33.1-11.1-50.1-9.1Zm301.7-11.6a74.62,74.62,0,0,1,42-18.4c16.9-1.6,34.9,0,49.5,9.1,16.4,10,26.2,28,30.2,46.2,4.3,18.4,3.1,37.3,3.3,55.8V399.2h-34.4V276.5c-.4-15.6-2-32-10-45.8a39.72,39.72,0,0,0-26.5-19.3c-12.9-2.8-27-1.6-38.8,4.6-20.9,11-33,34.4-33.3,57.6-.1,42,0,83.8,0,125.8h-34.4V185.6h34.4v36c5.2-7.9,10.7-15.8,18-22.2ZM1353,191.6c14.4-10.8,34-11.7,50.8-6.8v36.1c-10.4-7.1-23.9-8.4-36-6-14.5,3.1-25.2,15.2-31.6,28-8.1,16.6-10.1,35.4-9.5,53.8V399.4h-34.4V185.8h34.6v44.7c4.8-15,12.9-29.6,26.1-38.9Zm725.6-5.8h34.6V399.5h-34.4Z"/></g></g></svg>