<svg xmlns="http://www.w3.org/2000/svg" viewBox="0 0 2498.28 658.87"><title>tibco-logo</title><g id="Layer_2" data-name="Layer 2"><g id="Layer_1-2" data-name="Layer 1"><path d="M280.5,140.27v504.8H202.7V140.27H0V66.17H483.4v74.1Zm295.4,504.8V66.17h77.8v578.9Zm626.8-164c0,98.2-65.7,163.9-214.8,163.9H790.6V66.17H982.3c139.8,0,201.9,62.9,201.9,153.7,0,59.2-34.3,102.9-99.2,127.5C1162.5,366.17,1202.7,416.17,1202.7,481.07ZM988.8,138.37H869.3v181.5H976.7c83.3,0,128.8-37,128.8-93.5s-40.8-88-116.7-88Zm-5.6,252.9H869.9v181.5H995.3c86.1,0,128.8-30.6,128.8-90.8,0-66.6-59.4-90.7-140.9-90.7Zm732.7-219a271.6,271.6,0,0,0-158.3-49.6c-126,0-211,87.1-211,230.7s85,235.2,212.5,235.2a279,279,0,0,0,163.9-56.7l12.9,78.8a350.56,350.56,0,0,1-178.7,48.2c-170,0-289.9-117.6-289.9-301.9S1389,52.37,1557.5,52.37a363.75,363.75,0,0,1,183.3,48.2Zm501.9-79.1A274.54,274.54,0,0,0,2191,79c-75.7,145.1-212.5,317.6-395,415.8a272.48,272.48,0,0,0,39.4,63.8c156.4-107.9,301.2-287.1,382.4-465.4Z"/><path d="M2184.1,75.67a313.6,313.6,0,0,0-125.7-25.1c-170,0-290.3,131.3-290.3,304.2a373.17,373.17,0,0,0,8.9,82.3c174-70.9,328.8-227.3,407.1-361.4Zm40.9,21.5c-89.3,219.6-198.3,374.9-337.1,508.5a297,297,0,0,0,171.1,50.6c170,0,290.3-132.2,290.3-305.2-.6-114.5-48-203.5-124.3-253.9Zm123.7-19.1a74.82,74.82,0,1,1,149.5-6.5c.1,2.2.1,4.3,0,6.5a74.82,74.82,0,0,1-149.5,6.5C2348.6,82.37,2348.6,80.17,2348.7,78.07Zm141,0a66.15,66.15,0,1,0-132.3-.1v.1a66.2,66.2,0,1,0,132.4-.4v.4Zm-95.3-39.6h34.4c16.7,0,29.2,8.2,29.2,24.1a22.92,22.92,0,0,1-17.6,23.2l20.3,28.3h-17.6l-18.3-26.9h-15.6v26.9H2395v-76Zm33.1,37.9a13.17,13.17,0,0,0,15.3-10.7,11,11,0,0,0,.2-1.8,12.8,12.8,0,0,0-12.7-12.8,12.41,12.41,0,0,0-2.7.3h-18.3v24.5h18.4Z"/></g></g></svg>