<svg id="Layer_1" data-name="Layer 1" xmlns="http://www.w3.org/2000/svg" viewBox="0 0 928.48 160.2"><defs><style>.cls-1{fill:#2d3091;}.cls-2{fill:#fff;}.cls-3{fill:#00aced;}</style></defs><path class="cls-1" d="M0,31.48c2-.23,4.29-.47,6.87-.7s4.87-.35,6.86-.35a100.29,100.29,0,0,1,14.09,1.05l27.65,99.84,28-99.84c2.34-.35,4.6-.59,6.78-.7s4.37-.18,6.59-.18,4.26.06,6.44.18,4.42.35,6.77.7L69.2,158.08c-2.46.36-4.84.62-7.13.8s-4.73.26-7.31.26q-3.52,0-6.86-.26c-2.24-.18-4.7-.44-7.4-.8Z"/><path class="cls-1" d="M129.07,86.07h-11.8a40.93,40.93,0,0,1-.79-4.85,45.89,45.89,0,0,1-.26-4.84,41,41,0,0,1,1-9.33h36.27v91a74.22,74.22,0,0,1-12.32,1.06,73.24,73.24,0,0,1-12.15-1.06Zm-3.7-34.34a68.19,68.19,0,0,1-1.06-11.8,70.53,70.53,0,0,1,1.06-11.8c2-.35,4.14-.61,6.43-.79s4.37-.26,6.25-.26,4.16.09,6.51.26,4.52.44,6.52.79a53.54,53.54,0,0,1,.71,5.9q.17,2.91.17,5.9c0,1.88-.06,3.82-.17,5.81a52.87,52.87,0,0,1-.71,6,51.66,51.66,0,0,1-6.43.7q-3.43.18-6.43.18-2.82,0-6.33-.18A51.71,51.71,0,0,1,125.37,51.73Z"/><path class="cls-1" d="M195.8,118.47q-9.87-2.82-15.41-8.37t-5.54-16.64q0-13.38,9.6-20.95t26.14-7.57a74.83,74.83,0,0,1,13.56,1.23,86.82,86.82,0,0,1,13.56,3.7A49.2,49.2,0,0,1,236,79.38,45.47,45.47,0,0,1,232.6,88a70.38,70.38,0,0,0-9.33-3.08,42.82,42.82,0,0,0-10.74-1.32q-6,0-9.34,1.85a6.25,6.25,0,0,0-3.34,5.9q0,3.87,2.38,5.46a27.59,27.59,0,0,0,6.77,3l10,3a48.52,48.52,0,0,1,8.9,3.43,24.66,24.66,0,0,1,6.78,5,21.15,21.15,0,0,1,4.4,7.39,32.11,32.11,0,0,1,1.58,10.74A27.46,27.46,0,0,1,238,141.53a28.08,28.08,0,0,1-7.92,9.78,39.42,39.42,0,0,1-12.59,6.51,54.73,54.73,0,0,1-16.73,2.38c-2.81,0-5.4-.09-7.74-.27a60.17,60.17,0,0,1-6.79-.88q-3.25-.62-6.42-1.49t-6.87-2.29a52,52,0,0,1,1.67-9.6,60,60,0,0,1,3.44-9.42,71.84,71.84,0,0,0,11,3.43,49.72,49.72,0,0,0,10.83,1.15,36.45,36.45,0,0,0,5.37-.44,19.26,19.26,0,0,0,5.37-1.59,12.8,12.8,0,0,0,4.14-3A7,7,0,0,0,216.4,131c0-2.82-.85-4.84-2.55-6.08a24.72,24.72,0,0,0-7.13-3.25Z"/><path class="cls-1" d="M315.72,86.07H304.27l-.88-3.53,32.93-42.08h4.05V67.05h21.31a46.38,46.38,0,0,1,.7,4.75q.18,2.11.18,4.41c0,1.64-.06,3.23-.18,4.75s-.36,3.23-.7,5.11H340.37v35.74a35.46,35.46,0,0,0,.88,8.8,13,13,0,0,0,2.55,5.29,8.41,8.41,0,0,0,4.14,2.64,21.25,21.25,0,0,0,5.81.7,29.8,29.8,0,0,0,5.19-.44c1.7-.29,3.2-.55,4.49-.79a33.81,33.81,0,0,1,1.76,7,43.91,43.91,0,0,1,.54,6.43c0,1.29,0,2.37-.1,3.25s-.14,1.73-.26,2.56a71.71,71.71,0,0,1-16.73,1.93q-16,0-24.47-7.48t-8.45-24.39Z"/><path class="cls-1" d="M419.25,160.2A47.55,47.55,0,0,1,400,156.59a36.57,36.57,0,0,1-13.56-10,43.77,43.77,0,0,1-8.11-15.05,61.91,61.91,0,0,1-2.72-18.67A63.61,63.61,0,0,1,378.3,94a43.63,43.63,0,0,1,8.11-15.23A37.42,37.42,0,0,1,400,68.64a46.38,46.38,0,0,1,19.28-3.7,47.11,47.11,0,0,1,19.37,3.7,38.14,38.14,0,0,1,13.73,10.12A41.73,41.73,0,0,1,460.45,94a65.29,65.29,0,0,1,2.64,18.84,63.54,63.54,0,0,1-2.64,18.67,41.83,41.83,0,0,1-8.1,15.05,37.27,37.27,0,0,1-13.73,10A48.3,48.3,0,0,1,419.25,160.2Zm0-19q9.86,0,14.17-7.31t4.32-21q0-13.72-4.32-21t-14.17-7.31q-9.69,0-14,7.31t-4.32,21q0,13.74,4.32,21T419.25,141.18Z"/><path class="cls-1" d="M482.82,67.05c1.76-.35,3.43-.62,5-.79A46.17,46.17,0,0,1,493,66a38.82,38.82,0,0,1,5.2.35c1.7.24,3.37.53,5,.88a10.08,10.08,0,0,1,1,2.56c.3,1.12.56,2.29.8,3.52s.44,2.47.62,3.7.32,2.26.44,3.08a45.29,45.29,0,0,1,9.51-9.77Q521.2,66,529.65,66c1.17,0,2.53.06,4.05.18a15.12,15.12,0,0,1,3.35.53,33.61,33.61,0,0,1,.52,4c.12,1.52.18,3.11.18,4.75,0,2-.08,4.17-.26,6.52a47.64,47.64,0,0,1-1,6.69,23.84,23.84,0,0,0-4.32-.35h-2.9a41,41,0,0,0-6.69.61,15.32,15.32,0,0,0-7,3.26,19.2,19.2,0,0,0-5.55,7.92q-2.2,5.3-2.21,14.79v43.32a56.72,56.72,0,0,1-6.33.7c-2.11.12-4.17.18-6.16.18s-4-.06-6.08-.18a63.15,63.15,0,0,1-6.42-.7Z"/><path class="cls-1" d="M264.18,67.22v19h.13v72a78.15,78.15,0,0,0,12.17,1.08,79,79,0,0,0,12.3-1.08v-91Z"/><path class="cls-2" d="M276.48,0a37.08,37.08,0,0,0-37,37c0,17.75,25.7,56.1,30.85,63.61l6.19,9,6.18-9c5.16-7.51,30.86-45.86,30.86-63.61A37.09,37.09,0,0,0,276.48,0Z"/><path class="cls-3" d="M306,37c0,16.32-29.54,59.36-29.54,59.36s-29.54-43-29.54-59.36A29.54,29.54,0,1,1,306,37Z"/><circle class="cls-2" cx="276.48" cy="38.76" r="14.49"/><path id="_Path_" data-name=" Path " class="cls-3" d="M736.77,157.36a109.07,109.07,0,0,1-27.08.26c-1.6,0-2-1.38-2.64-2.46-5.7-10.07-11.36-20.18-17.28-30.24-4.58-8.13-9.07-16.29-13.74-24.41-.91-1.56-.73-2.25.91-3a63.69,63.69,0,0,0,14.3-8.42,23,23,0,0,0,6.61-27.74,18.09,18.09,0,0,0-14-10.37,36.65,36.65,0,0,0-11.06-.52c-2,.22-2.72,1-2.67,3.11V154.73c0,2.24-.39,3.19-2.9,3.41a109.43,109.43,0,0,1-21,0c-1.56,0-2.08-.74-1.95-2.16a7.22,7.22,0,0,0,0-1.47V34.67c0-3.2,0-3.2,3.07-3.68a169.57,169.57,0,0,1,35-1.51,58.26,58.26,0,0,1,27.82,7.78,33.22,33.22,0,0,1,16.55,26.65,39.79,39.79,0,0,1-8.29,29.51,37,37,0,0,1-10.33,8.94c-1.73,1-2.16,1.82-1,3.85,9.63,16.46,19.05,33.05,28.55,49.6A3.85,3.85,0,0,1,736.77,157.36Z"/><path id="_Path_2" data-name=" Path 2" class="cls-3" d="M877.36,159.48a80.1,80.1,0,0,1-30.63-5.32c-2.12-.77-2.47-1.68-2.08-3.84a144.13,144.13,0,0,1,4.32-17c.56-1.77,1.21-2,2.85-1.34a66.66,66.66,0,0,0,28.78,5.19A33.12,33.12,0,0,0,892,134.72a14,14,0,0,0,9.2-11.79,14.87,14.87,0,0,0-6.39-15,57.92,57.92,0,0,0-12.7-5.83,136.16,136.16,0,0,1-19.27-8.3,28.57,28.57,0,0,1-15.08-24.88A38.52,38.52,0,0,1,852,46.68,34.55,34.55,0,0,1,875.89,30.3a85.74,85.74,0,0,1,46.23,4.06c1,.35,1.68.82,1.51,2.08a65.45,65.45,0,0,1-4.88,17.28c-.74,1.77-2,.73-2.94.34a59.47,59.47,0,0,0-25.06-4.53A25.87,25.87,0,0,0,881,51.3c-8.64,3.5-8.64,15.51-4.32,20.13a21,21,0,0,0,7.17,4.88c8.38,3.63,17.28,6.48,25.36,10.41a31.65,31.65,0,0,1,19.1,29.9,38.85,38.85,0,0,1-8.64,27.95,44.18,44.18,0,0,1-24.46,13.66A72,72,0,0,1,877.36,159.48Z"/><path id="_Compound_Path_" data-name=" Compound Path " class="cls-3" d="M842.19,88.19a88.69,88.69,0,0,0-5.4-27A47.23,47.23,0,0,0,805,30.91a65.47,65.47,0,0,0-27.78-1.43A46.14,46.14,0,0,0,740.71,55.4a85.75,85.75,0,0,0-8.13,38.89,90.69,90.69,0,0,0,5.27,32.31,48,48,0,0,0,29.56,29.94,65.38,65.38,0,0,0,25.66,2.81A49.53,49.53,0,0,0,811.65,155a48.67,48.67,0,0,0,26.26-30.63A96.15,96.15,0,0,0,842.19,88.19ZM810.35,122.5a24.62,24.62,0,0,1-31.76,14.29,24,24,0,0,1-5-2.59,27.94,27.94,0,0,1-11-17.28,97.24,97.24,0,0,1-2-32.44,55.35,55.35,0,0,1,5.44-21c7.65-14.73,25.92-15.16,35.6-8.64a28,28,0,0,1,10.63,16.89A79.79,79.79,0,0,1,814.63,94,73.58,73.58,0,0,1,810.35,122.5Z"/><path id="_Compound_Path_2" data-name=" Compound Path 2" class="cls-3" d="M637.32,64.78a37.17,37.17,0,0,0-17-28.26A52.22,52.22,0,0,0,594,29.09a249.4,249.4,0,0,0-36.77,1c-3.28.3-3.33,0-3.33,3.46V155.5c0,1.08,0,2,1.51,2.21a113.13,113.13,0,0,0,21.3.3c2.16,0,3-1,3-3.41V118.35c0-1.08.57-1.6,1.69-1.43a74,74,0,0,0,23.46-1.42,37.4,37.4,0,0,0,31.23-27A56,56,0,0,0,637.32,64.78ZM610.1,82.06a19.44,19.44,0,0,1-18.53,13.61h-9.33c-2,0-2.72-.69-2.68-2.72V52.9c0-1.69.43-2.34,2.2-2.55a37.12,37.12,0,0,1,16.16,1.21A17.93,17.93,0,0,1,609.63,63,30,30,0,0,1,610.1,82Z"/></svg>