<svg xmlns="http://www.w3.org/2000/svg" viewBox="0 0 36.42 8.53"><title>wsdl</title><g id="Layer_2" data-name="Layer 2"><g id="Layer_1-2" data-name="Layer 1"><path d="M0,.14H2.22L3.48,5.29,5.19.14H7.4L9.1,5.29,10.36.14h2.22L10.19,8.38H8.13L6.3,3.17,4.46,8.38H2.4Z"/><path d="M12.85,7.15,14,5.77a4.23,4.23,0,0,0,2.71,1c.77,0,1.17-.31,1.17-.75s-.39-.6-1.59-.89c-1.76-.4-3.07-.88-3.07-2.53S14.49,0,16.38,0a5,5,0,0,1,3.33,1.13l-1,1.46a4,4,0,0,0-2.35-.87c-.66,0-1,.31-1,.72s.39.67,1.61.93c1.85.4,3,.92,3,2.47s-1.26,2.69-3.3,2.69A5.59,5.59,0,0,1,12.85,7.15Z"/><path d="M21.27.14h3c2.84,0,4.83,1.71,4.83,4.12s-2,4.12-4.83,4.12h-3ZM24.6,6.52A2.26,2.26,0,1,0,24.6,2H23.33V6.52Z"/><path d="M36.42,6.55V8.38h-6V.14h2V6.55Z"/></g></g></svg>