<svg id="Layer_1" data-name="Layer 1" xmlns="http://www.w3.org/2000/svg" viewBox="0 0 444.45 450.12"><defs><style>.cls-1{fill:#00aced;}.cls-2{fill:#2d3091;}.cls-3{fill:#fff;}</style></defs><path class="cls-1" d="M222.22,377.62c-85.69,0-155.4-69.71-155.4-155.4s69.71-155.4,155.4-155.4,155.4,69.71,155.4,155.4S307.91,377.62,222.22,377.62Zm0-304.8c-82.38,0-149.4,67-149.4,149.4s67,149.4,149.4,149.4,149.4-67,149.4-149.4S304.6,72.82,222.22,72.82Z"/><path class="cls-1" d="M222.22,444.45A222.22,222.22,0,0,1,65.09,65.09,222.22,222.22,0,1,1,379.36,379.36,220.78,220.78,0,0,1,222.22,444.45ZM222.22,6C103,6,6,103,6,222.22s97,216.23,216.22,216.23,216.23-97,216.23-216.23S341.45,6,222.22,6Z"/><path d="M53.2,327.2,44,310.34l5.63-6.09L52,306.31a10.73,10.73,0,0,0-1.86,3.05,4.85,4.85,0,0,0-.29,2.72,9.86,9.86,0,0,0,1,2.7l1.69,3.08,5.44-3-.55-1a4.9,4.9,0,0,0-1-1.44,1.23,1.23,0,0,0-.88-.26,4.8,4.8,0,0,0-1.61.66l-.83.45-1.42-2.57L61,305.63l1.42,2.57-1,.52a4.06,4.06,0,0,0-1.28,1,1.28,1.28,0,0,0-.28.9,5.89,5.89,0,0,0,.72,1.69l.5.91,5-2.75a3.78,3.78,0,0,0,.93-.61.54.54,0,0,0,.11-.42,3,3,0,0,0-.4-1l-.93-1.7a8.78,8.78,0,0,0-2.35-2.87,7.07,7.07,0,0,0-3.17-1.29,11,11,0,0,0-4,.14l-.47-3.18,9.57-1.8L75,315.23l-3,1.66-.27-.51a4.37,4.37,0,0,0-.91-1.27,1,1,0,0,0-.81-.19,6.72,6.72,0,0,0-1.37.65l-11.89,6.52a5.08,5.08,0,0,0-1.2.82,1,1,0,0,0-.23.63,2.62,2.62,0,0,0,.42,1.11l.49.9Z"/><path d="M40.51,303.38l-3.32-8.74,11.16-11.48-8.3,3.17a5.11,5.11,0,0,0-1.29.61,1.18,1.18,0,0,0-.4.63,2.36,2.36,0,0,0,.23,1.08l.4,1.05-3.22,1.22-3.38-8.87,3.22-1.22.37,1a2.29,2.29,0,0,0,.59,1,1.1,1.1,0,0,0,.66.25,5.31,5.31,0,0,0,1.42-.4l18-6.85,1.69,4.43L44.23,294.74l12-4.57a4.71,4.71,0,0,0,1.27-.61,1,1,0,0,0,.3-.59,2.5,2.5,0,0,0-.23-1.1l-.39-1,3.21-1.22,3.39,8.9-3.21,1.23-.35-.92a3,3,0,0,0-.54-1,1.1,1.1,0,0,0-.67-.26,2.54,2.54,0,0,0-1.11.23l-13.34,5.07a3.19,3.19,0,0,0-1.06.59,1.12,1.12,0,0,0-.36.61,1.94,1.94,0,0,0,.17.93l.44,1.15Z"/><path d="M31.33,278.67,28.88,268l3.35-.77.08.34a6.48,6.48,0,0,0,.38,1.28,1,1,0,0,0,.48.39,1.11,1.11,0,0,0,.62.06,6.73,6.73,0,0,0,1.41-.71l11.16-6.75L33,260.44a5.3,5.3,0,0,0-1.34,0,.83.83,0,0,0-.64.46,2.39,2.39,0,0,0,.06,1.34l.16.69-3.35.77-2-8.69,3.36-.77a2.8,2.8,0,0,0,.59,1.39,4.44,4.44,0,0,0,2.21.68l20.23,2.43,1.16,5.06L36.2,275a7.85,7.85,0,0,0-1.3,1,1.62,1.62,0,0,0-.34.75,3.19,3.19,0,0,0,.12,1.23Z"/><path d="M25.69,251.83l-1.35-11.16,3.42-.42.12,1a2.74,2.74,0,0,0,.31,1.15,1,1,0,0,0,.58.36,4.4,4.4,0,0,0,1.41,0l13.67-1.66a5.68,5.68,0,0,0,1.42-.28.85.85,0,0,0,.41-.45,1.92,1.92,0,0,0,.09-1.06l-.15-1.21,3.42-.42,1.35,11.17-3.42.41-.11-.91a3.62,3.62,0,0,0-.3-1.25,1,1,0,0,0-.53-.38,4.13,4.13,0,0,0-1.32,0L31,248.4a5.19,5.19,0,0,0-1.5.32,1.05,1.05,0,0,0-.5.54,2.58,2.58,0,0,0,0,1.13l.13,1Z"/><path d="M23.78,236.46l-.23-14.2a19.31,19.31,0,0,1,.22-3,7.16,7.16,0,0,1,1.13-3,6.37,6.37,0,0,1,2.27-2.08,6.67,6.67,0,0,1,3.12-.77,6,6,0,0,1,4.63,1.8,9,9,0,0,1,2.36,4.39l5.88-4.83.26-.21a4.92,4.92,0,0,0,.89-.85,2.63,2.63,0,0,0,.41-.77,3.44,3.44,0,0,0,.1-1.06v-1l3.44,0,.12,7.38-10.6,7.57,0,1.91,5-.08a5.48,5.48,0,0,0,1.63-.16,1,1,0,0,0,.51-.43,2.58,2.58,0,0,0,.15-1.16l0-1.06,3.45-.05.18,11.27-3.44.06,0-1a2.54,2.54,0,0,0-.21-1.15,1.08,1.08,0,0,0-.57-.5,6,6,0,0,0-1.33-.06l-14,.22a3.74,3.74,0,0,0-1.17.15.71.71,0,0,0-.45.41,2.25,2.25,0,0,0-.18.92l0,.46v.87Zm3.95-8.56,6.44-.11-.06-3.42a8.43,8.43,0,0,0-.45-3,3.24,3.24,0,0,0-1.17-1.49,3.28,3.28,0,0,0-1.83-.47,3,3,0,0,0-1.68.5,2.8,2.8,0,0,0-1,1.35,8.45,8.45,0,0,0-.29,2.84Z"/><path d="M25,194.78a11.61,11.61,0,0,1,4.77-8.3,13,13,0,0,1,9.64-2.1,14.15,14.15,0,0,1,6.46,2.45,11.2,11.2,0,0,1,3.92,4.87,12.93,12.93,0,0,1,.68,6.75,11.81,11.81,0,0,1-4.14,7.87,12.75,12.75,0,0,1-10.22,2.56,13,13,0,0,1-8.75-4.68A11.84,11.84,0,0,1,25,194.78Zm3.93.48a4.89,4.89,0,0,0,1.53,4.42,11.41,11.41,0,0,0,6.57,2.87,11.06,11.06,0,0,0,6.88-.88,5.14,5.14,0,0,0,1.13-8.22,11.2,11.2,0,0,0-6.42-2.73,13.84,13.84,0,0,0-5,.1,6.73,6.73,0,0,0-3.28,1.69A4.74,4.74,0,0,0,29,195.26Z"/><path d="M28.28,177.62l2.6-9,15.83-2.45-8.54-2.47a4.84,4.84,0,0,0-1.4-.29,1.17,1.17,0,0,0-.7.26,2.37,2.37,0,0,0-.46,1l-.31,1.08-3.31-1,2.64-9.12,3.31,1-.29,1a2.35,2.35,0,0,0-.13,1.13,1,1,0,0,0,.38.6,4.8,4.8,0,0,0,1.37.53l18.49,5.36-1.32,4.55-20,3.12,12.31,3.56a4.89,4.89,0,0,0,1.39.28,1,1,0,0,0,.59-.29,2.6,2.6,0,0,0,.48-1l.3-1.05,3.31.95-2.65,9.16-3.31-1,.28-1a2.82,2.82,0,0,0,.16-1.12,1,1,0,0,0-.37-.61,2.59,2.59,0,0,0-1-.49l-13.7-4a3.44,3.44,0,0,0-1.2-.18,1.18,1.18,0,0,0-.66.28,1.84,1.84,0,0,0-.42.85l-.34,1.18Z"/><path d="M36.26,150.73l4.45-9.43,15.41,2.84L44.19,133.93l4.52-9.59,3.12,1.47-.49,1a1.62,1.62,0,0,0-.17,1.33,2.56,2.56,0,0,0,1.28,1l12.77,6a3.87,3.87,0,0,0,1.09.4,1,1,0,0,0,.63-.16,1.88,1.88,0,0,0,.6-.77l.56-1.18L71.21,135l-4.73,10-3.11-1.47.37-.78a3.36,3.36,0,0,0,.4-1.22,1.1,1.1,0,0,0-.24-.65,3.07,3.07,0,0,0-1-.66L49,133.67l16.25,13.88-1.36,2.88-20.36-3.61,13.67,6.46a1.47,1.47,0,0,0,.8.18,1.11,1.11,0,0,0,.61-.26,2.73,2.73,0,0,0,.58-.87l.47-1,3.11,1.47-4,8.55-3.11-1.47L56,159a2.77,2.77,0,0,0,.37-1.16,1.08,1.08,0,0,0-.28-.66,3.94,3.94,0,0,0-1.15-.72l-12.62-6a4.28,4.28,0,0,0-1.17-.43,1.15,1.15,0,0,0-.71.16,2,2,0,0,0-.57.78l-.54,1.15Z"/><path d="M51.73,119.65l10.81-15.91,8,2.25-.72,3.13a10.53,10.53,0,0,0-3.56-.28,4.86,4.86,0,0,0-2.55,1A9.32,9.32,0,0,0,61.76,112l-2,2.91,5.13,3.49.65-1a5.08,5.08,0,0,0,.82-1.57,1.27,1.27,0,0,0-.16-.9,4.89,4.89,0,0,0-1.33-1.15l-.78-.53,1.65-2.43,8.72,5.93-1.65,2.43-.89-.61a3.83,3.83,0,0,0-1.46-.69,1.31,1.31,0,0,0-.93.15,5.9,5.9,0,0,0-1.18,1.42l-.58.86,4.73,3.21a3.92,3.92,0,0,0,1,.56.54.54,0,0,0,.43-.1,2.82,2.82,0,0,0,.67-.79l1.09-1.6a8.86,8.86,0,0,0,1.5-3.4,7.25,7.25,0,0,0-.3-3.41,11,11,0,0,0-1.94-3.48l2.63-1.86,6,7.7L72.3,133.64l-2.85-1.94.33-.47a4.42,4.42,0,0,0,.72-1.39,1,1,0,0,0-.2-.81,6.42,6.42,0,0,0-1.2-.92l-11.21-7.62a4.67,4.67,0,0,0-1.27-.7,1,1,0,0,0-.67.07,2.83,2.83,0,0,0-.8.88l-.58.85Z"/><path d="M67.16,97.55l6.26-6.94,15.3,4.71-6.59-5.95A5.27,5.27,0,0,0,81,88.5a1.16,1.16,0,0,0-.74-.07,2.34,2.34,0,0,0-.86.7l-.75.83-2.56-2.31,6.36-7.05L85,82.91l-.71.78a2.33,2.33,0,0,0-.6,1,1,1,0,0,0,.08.71,4.84,4.84,0,0,0,1,1.08L99.06,99.32l-3.17,3.52L76.54,96.92l9.52,8.59a5.27,5.27,0,0,0,1.13.85,1,1,0,0,0,.66,0,2.44,2.44,0,0,0,.87-.7l.74-.82L92,107.14l-6.39,7.07-2.55-2.3.66-.73a2.94,2.94,0,0,0,.64-.94,1,1,0,0,0-.07-.71,2.65,2.65,0,0,0-.71-.89L73,99.09a3.2,3.2,0,0,0-1-.69,1.17,1.17,0,0,0-.71,0,1.88,1.88,0,0,0-.75.58l-.83.92Z"/><path d="M86.54,75.71l1.66-1.4.72.49,9.91-8.39-.33-.82,1.67-1.42L108,69l-1.59,2.87a27,27,0,0,0-3-1.22,7.31,7.31,0,0,0-2.86-.26,3.11,3.11,0,0,0-1.67.66.64.64,0,0,0-.28.51,1.85,1.85,0,0,0,.49.81l9.24,10.92a8.56,8.56,0,0,0,1.09,1.15,1,1,0,0,0,.55.21,1,1,0,0,0,.58-.16A17.34,17.34,0,0,0,112,83.31l2.22,2.63-8.58,7.27-2.22-2.63.51-.44a4.34,4.34,0,0,0,1-1,1,1,0,0,0,0-.72,4.82,4.82,0,0,0-.9-1.33L94.65,75.88a1.59,1.59,0,0,0-.61-.51.74.74,0,0,0-.53.24,3.58,3.58,0,0,0-1,1.77,6.86,6.86,0,0,0-.17,2.71c.05.4.3,1.41.74,3l-3,1.07Z"/><path d="M113.08,56.2l4.36-2.79,16.18,12.45a4.88,4.88,0,0,0,1.86,1,2.55,2.55,0,0,0,1.54-.58l1.85,2.9-9.17,5.88-1.86-2.9.55-.37a2.28,2.28,0,0,0,.93-.91.75.75,0,0,0,0-.73,5.75,5.75,0,0,0-1-.94l-1.8-1.54-5.9,3.78.63,2.58a4.48,4.48,0,0,0,.34,1,.88.88,0,0,0,.44.34,1.19,1.19,0,0,0,.71,0,9.12,9.12,0,0,0,1.34-.78l1.86,2.9-7.51,4.81-1.86-2.9a3.62,3.62,0,0,0,1-.81,1.58,1.58,0,0,0,.29-.76,4.72,4.72,0,0,0-.16-1.31Zm6.64,11.65,3.85-2.46L118,60.84Z"/><path d="M128.9,46.57l10.17-4.81,1.47,3.11-.89.43a3.17,3.17,0,0,0-.9.52,1.15,1.15,0,0,0-.29.74,2.9,2.9,0,0,0,.34,1.13l6.07,12.85a4.43,4.43,0,0,0,.52.92.56.56,0,0,0,.41.15,2.22,2.22,0,0,0,.85-.27,8.44,8.44,0,0,0,2.95-2.09,6.62,6.62,0,0,0,1.34-2.85,12.2,12.2,0,0,0,.08-4.19l3.23-.28,1.18,9.62-15.9,7.51L138.06,66l1-.47a2.12,2.12,0,0,0,.84-.61,1.21,1.21,0,0,0,.23-.69,3,3,0,0,0-.35-1.11l-6-12.74a3.94,3.94,0,0,0-.69-1.09,1.19,1.19,0,0,0-.65-.33,2,2,0,0,0-.94.25l-1.1.52Z"/><path d="M163,32l10.16-2.35,7.32,13.85.61-15.69,10.34-2.4.77,3.36-1.11.26a1.6,1.6,0,0,0-1.15.69,2.56,2.56,0,0,0,0,1.62l3.19,13.76a4,4,0,0,0,.36,1.11.93.93,0,0,0,.51.39,1.81,1.81,0,0,0,1,0l1.27-.29.78,3.35-10.79,2.5-.78-3.35.84-.19a3.34,3.34,0,0,0,1.2-.45,1,1,0,0,0,.36-.58,3.35,3.35,0,0,0-.12-1.23l-3.45-14.91-.82,21.35-3.11.72L170.6,35.29,174,50a1.6,1.6,0,0,0,.35.74,1.15,1.15,0,0,0,.58.32,2.55,2.55,0,0,0,1-.09l1.08-.25.78,3.36-9.21,2.13-.77-3.36.9-.21a2.88,2.88,0,0,0,1.14-.43,1.1,1.1,0,0,0,.35-.63,3.76,3.76,0,0,0-.15-1.35L167,36.66a4.39,4.39,0,0,0-.39-1.19A1.11,1.11,0,0,0,166,35a1.89,1.89,0,0,0-1,0l-1.23.28Z"/><path d="M205.29,24.27l5.16-.37,8.27,18.67a4.84,4.84,0,0,0,1.13,1.81,2.55,2.55,0,0,0,1.63.22l.25,3.44-10.87.78-.25-3.44.66-.06a2.27,2.27,0,0,0,1.25-.35.75.75,0,0,0,.31-.66,5.71,5.71,0,0,0-.4-1.29l-.85-2.21-7,.5-.68,2.57a4.42,4.42,0,0,0-.19,1.07.83.83,0,0,0,.23.5,1.16,1.16,0,0,0,.64.29,8.8,8.8,0,0,0,1.56,0l.24,3.44-8.89.63-.25-3.43a3.49,3.49,0,0,0,1.24-.25,1.52,1.52,0,0,0,.62-.53,4.68,4.68,0,0,0,.48-1.23Zm.27,13.41,4.56-.33-2.71-6.65Z"/><path d="M223.85,23.27l9.33.59L239,38.78l.56-8.86a5.29,5.29,0,0,0,0-1.43,1.18,1.18,0,0,0-.41-.63,2.5,2.5,0,0,0-1.07-.24l-1.13-.07.22-3.43,9.48.6-.22,3.44-1-.07a2.49,2.49,0,0,0-1.13.12,1.07,1.07,0,0,0-.5.51,4.73,4.73,0,0,0-.23,1.45l-1.22,19.2-4.73-.3-7.37-18.84L229.36,43a5.06,5.06,0,0,0,0,1.41.94.94,0,0,0,.42.51,2.41,2.41,0,0,0,1.09.25l1.1.07-.22,3.43-9.51-.6.22-3.44,1,.07a3,3,0,0,0,1.13-.08,1.09,1.09,0,0,0,.52-.5,2.6,2.6,0,0,0,.25-1.11l.91-14.24a3,3,0,0,0-.09-1.21,1.14,1.14,0,0,0-.4-.58,2,2,0,0,0-.93-.23l-1.23-.08Z"/><path d="M259.5,27.06l5.07,1,2.95,20.2a4.87,4.87,0,0,0,.6,2.05,2.57,2.57,0,0,0,1.51.65L269,54.37l-10.68-2.18.68-3.37.65.11a2.31,2.31,0,0,0,1.3,0,.76.76,0,0,0,.48-.54,5.44,5.44,0,0,0,0-1.36l-.22-2.36-6.87-1.39-1.34,2.29a4.41,4.41,0,0,0-.47,1,.78.78,0,0,0,.08.54,1.1,1.1,0,0,0,.54.46,9.86,9.86,0,0,0,1.51.38l-.69,3.37-8.74-1.78.69-3.37a3.48,3.48,0,0,0,1.26.09,1.49,1.49,0,0,0,.73-.34,4.4,4.4,0,0,0,.8-1.06Zm-3.34,13,4.48.91-.82-7.13Z"/><path d="M286.63,46.57l10.59,3.78-1.16,3.27-.8-.28a2.68,2.68,0,0,0-1.12-.23,1,1,0,0,0-.6.33,3.85,3.85,0,0,0-.58,1.2L290.34,62l-3.19-1.14-.22-2a11.88,11.88,0,0,1-3.59.48,11.13,11.13,0,0,1-3.45-.64,10.38,10.38,0,0,1-4.85-3.5,11.59,11.59,0,0,1-2.3-5.74,14.51,14.51,0,0,1,.82-6.79,14,14,0,0,1,3.6-5.66,11.43,11.43,0,0,1,5.46-2.89,10.8,10.8,0,0,1,6,.38,11.11,11.11,0,0,1,2.71,1.41,9.15,9.15,0,0,1,2.06,1.92l.95-.83,2.17.77-.81,8.46h-3.22a21.71,21.71,0,0,0-1.07-4.3A6.67,6.67,0,0,0,290,39.79a5.3,5.3,0,0,0-2-1.29,4.93,4.93,0,0,0-3.09-.06,6.59,6.59,0,0,0-3,2,11.8,11.8,0,0,0-2.28,4,13.46,13.46,0,0,0-.89,5.1,7.15,7.15,0,0,0,1.06,3.77,5,5,0,0,0,2.56,2,5,5,0,0,0,2.29.27,3.29,3.29,0,0,0,1.77-.6,3.23,3.23,0,0,0,.95-1.49l.31-.86a3.57,3.57,0,0,0,.29-1.16,1.14,1.14,0,0,0-.28-.65,3,3,0,0,0-1.08-.56l-1.23-.44Z"/><path d="M305,41.25l17,9-1.33,8.19L317.47,58a10.87,10.87,0,0,0-.12-3.57A5,5,0,0,0,316.09,52a9.57,9.57,0,0,0-2.36-1.67l-3.11-1.64-2.89,5.49,1,.54a5.1,5.1,0,0,0,1.65.64,1.27,1.27,0,0,0,.88-.27,4.89,4.89,0,0,0,1-1.44l.44-.84,2.6,1.37-4.9,9.33-2.61-1.37.5-1a4.13,4.13,0,0,0,.54-1.53,1.36,1.36,0,0,0-.26-.9,5.54,5.54,0,0,0-1.54-1l-.92-.48-2.67,5.06a4.15,4.15,0,0,0-.44,1,.64.64,0,0,0,.14.42,3.17,3.17,0,0,0,.87.58l1.71.9a8.76,8.76,0,0,0,3.54,1.1,7,7,0,0,0,3.36-.68,10.89,10.89,0,0,0,3.24-2.31l2.15,2.4-7,6.77-17.63-9.28,1.6-3,.51.27a4.61,4.61,0,0,0,1.46.56,1,1,0,0,0,.78-.29,6.73,6.73,0,0,0,.78-1.3l6.31-12a4.39,4.39,0,0,0,.55-1.34.94.94,0,0,0-.15-.66,2.65,2.65,0,0,0-1-.69l-.9-.48Z"/><path d="M329.09,54.11l8.36,6.23-5.84,14.54L344,65.21l8.5,6.34-2.05,2.76-.92-.69a1.59,1.59,0,0,0-1.27-.42,2.49,2.49,0,0,0-1.23,1l-8.44,11.33a3.68,3.68,0,0,0-.61,1,.87.87,0,0,0,0,.64,1.89,1.89,0,0,0,.64.75l1.05.78-2.06,2.76-8.89-6.62,2.06-2.76.69.51a3.28,3.28,0,0,0,1.11.63,1,1,0,0,0,.69-.1,3.29,3.29,0,0,0,.85-.89L343.28,70,326.47,83.18l-2.56-1.9L331.47,62l-9,12.12a1.53,1.53,0,0,0-.34.75,1.09,1.09,0,0,0,.14.65,2.59,2.59,0,0,0,.73.74l.89.66-2.06,2.76-7.57-5.64,2.06-2.77.74.56a2.77,2.77,0,0,0,1.07.58,1,1,0,0,0,.7-.14,4,4,0,0,0,.94-1l8.33-11.19a4,4,0,0,0,.65-1.07,1,1,0,0,0,0-.72,2,2,0,0,0-.65-.71l-1-.76Z"/><path d="M356.48,75.41l13.46,13.74-3.77,7.38-2.92-1.33a10.86,10.86,0,0,0,1-3.44,4.87,4.87,0,0,0-.46-2.69A9.63,9.63,0,0,0,362,86.75l-2.46-2.51-4.43,4.35.8.82a5,5,0,0,0,1.38,1.11,1.27,1.27,0,0,0,.92,0,5,5,0,0,0,1.38-1.08l.67-.66,2.06,2.1-7.53,7.38-2.06-2.1.77-.75a3.82,3.82,0,0,0,1-1.29,1.34,1.34,0,0,0,0-.94,6,6,0,0,0-1.16-1.44l-.73-.74-4.08,4a4.11,4.11,0,0,0-.74.83.61.61,0,0,0,0,.44,3.06,3.06,0,0,0,.65.82l1.35,1.38a8.78,8.78,0,0,0,3,2.13,7.06,7.06,0,0,0,3.41.38,10.8,10.8,0,0,0,3.79-1.21l1.31,2.94-8.72,4.32-14-14.24,2.46-2.41.4.42a4.47,4.47,0,0,0,1.22,1,1,1,0,0,0,.84,0,8,8,0,0,0,1.14-1l9.68-9.49a4.64,4.64,0,0,0,.93-1.11,1,1,0,0,0,.06-.67,2.64,2.64,0,0,0-.7-1l-.72-.73Z"/><path d="M375.09,94.87l5.57,7.5L373,116.45l7.13-5.3a4.91,4.91,0,0,0,1.07-.94,1.12,1.12,0,0,0,.22-.71,2.26,2.26,0,0,0-.52-1l-.67-.9,2.77-2.05,5.66,7.62-2.76,2-.63-.84a2.35,2.35,0,0,0-.83-.79,1.09,1.09,0,0,0-.71-.06,5.19,5.19,0,0,0-1.25.77L367.07,125.8,364.25,122l9.61-17.8-10.29,7.65a5,5,0,0,0-1.06.94,1,1,0,0,0-.12.64,2.37,2.37,0,0,0,.52,1l.65.88-2.76,2-5.68-7.65,2.76-2,.59.79a2.72,2.72,0,0,0,.79.81,1,1,0,0,0,.71.08,2.59,2.59,0,0,0,1-.53l11.46-8.5a3.42,3.42,0,0,0,.86-.85,1.16,1.16,0,0,0,.18-.69,1.87,1.87,0,0,0-.42-.85l-.73-1Z"/><path d="M392.72,118.22l1,1.91-.62.61,6.26,11.37.87-.16,1.06,1.92-6.26,6.71-2.5-2.13a25.48,25.48,0,0,0,1.78-2.66,7.15,7.15,0,0,0,.82-2.75,3,3,0,0,0-.32-1.76.63.63,0,0,0-.44-.38,1.77,1.77,0,0,0-.89.32L381,138.12a9,9,0,0,0-1.35.84,1,1,0,0,0-.31.49,1,1,0,0,0,.05.6,12.85,12.85,0,0,0,.84,1.66l-3,1.67-5.42-9.85,3-1.67.33.6a4,4,0,0,0,.83,1.19,1,1,0,0,0,.7.17,5,5,0,0,0,1.48-.63L391,126.13c.36-.2.57-.36.62-.49a.72.72,0,0,0-.13-.57,3.55,3.55,0,0,0-1.53-1.34,6.62,6.62,0,0,0-2.63-.7,29.45,29.45,0,0,0-3.13.12l-.44-3.21Z"/><path d="M413.66,168.5l-7.34,4.44-1.84-2.65a12,12,0,0,0,3.1-4.65,7,7,0,0,0,.05-4.37,3.6,3.6,0,0,0-1.28-1.93,1.75,1.75,0,0,0-1.57-.35,2.26,2.26,0,0,0-1.32,1.2,6.41,6.41,0,0,0-.46,3l0,4.64a10.93,10.93,0,0,1-1.28,5.93,6.83,6.83,0,0,1-3.76,2.83,7.18,7.18,0,0,1-5.93-.59,9.33,9.33,0,0,1-4.36-5.53,10.55,10.55,0,0,1-.55-3.37,12.1,12.1,0,0,1,.64-3.57l-1.92-.14-.75-2.35,8.68-4.51,1.71,2.7a11.73,11.73,0,0,0-3.64,4.73,7.6,7.6,0,0,0-.32,5.43,5.42,5.42,0,0,0,.95,1.85,2.7,2.7,0,0,0,1.27.88,2.2,2.2,0,0,0,1.32,0,2.28,2.28,0,0,0,1.45-1.47,11,11,0,0,0,.41-3.7l0-4a16.18,16.18,0,0,1,.24-2.56,8.73,8.73,0,0,1,.76-2.66,6.6,6.6,0,0,1,1.56-1.9,6.67,6.67,0,0,1,2.36-1.31,7,7,0,0,1,3.78-.15,7.31,7.31,0,0,1,3.51,2.08,9.91,9.91,0,0,1,2.37,4,9.27,9.27,0,0,1,.05,5.66l1.39.23Z"/><path d="M415.43,174.39l2.08,11.26-3.39.62-.16-.85a2.55,2.55,0,0,0-.35-1.09.56.56,0,0,0-.53-.14,3.49,3.49,0,0,0-1.27.77l-4.76,4,6.15,2.29.9.34a1.68,1.68,0,0,0,.39,0,.54.54,0,0,0,.41-.27,1.75,1.75,0,0,0,0-.89l-.21-1.16,3.38-.62,1.66,9-3.38.62a3.75,3.75,0,0,0-.61-1.61,4.14,4.14,0,0,0-1.56-.89l-10.62-4.29-4.36.8a5,5,0,0,0-1.48.42.94.94,0,0,0-.42.57,3.47,3.47,0,0,0,.08,1.34l.14.8-3.38.63-2-11.06,3.39-.63.11.6a4.17,4.17,0,0,0,.44,1.47,1.16,1.16,0,0,0,.65.39,5.15,5.15,0,0,0,1.62-.12l3.82-.71,8.8-7.85a4.29,4.29,0,0,0,1.23-1.52,4.15,4.15,0,0,0-.09-1.58Z"/><path d="M421,218.66l-8.23,2.43-1.11-3a12,12,0,0,0,4.18-3.71,7,7,0,0,0,1.15-4.21,3.66,3.66,0,0,0-.74-2.2,1.76,1.76,0,0,0-1.44-.73,2.27,2.27,0,0,0-1.58.83,6.36,6.36,0,0,0-1.19,2.74l-1.15,4.5a10.85,10.85,0,0,1-2.74,5.41,6.84,6.84,0,0,1-4.35,1.79,7.19,7.19,0,0,1-5.59-2.08,9.4,9.4,0,0,1-2.82-6.46,10.63,10.63,0,0,1,.33-3.39,12.11,12.11,0,0,1,1.52-3.29l-1.82-.63-.13-2.45,9.54-2.16,1,3a11.81,11.81,0,0,0-4.72,3.66,7.62,7.62,0,0,0-1.69,5.16,5.6,5.6,0,0,0,.45,2,2.76,2.76,0,0,0,1,1.18,2.23,2.23,0,0,0,1.27.34,2.28,2.28,0,0,0,1.78-1.06,11,11,0,0,0,1.33-3.48l1-3.91a17,17,0,0,1,.87-2.42,8.56,8.56,0,0,1,1.42-2.37,6.14,6.14,0,0,1,2-1.44,6.73,6.73,0,0,1,2.62-.68,6.87,6.87,0,0,1,3.7.82,7.26,7.26,0,0,1,2.86,2.9,9.73,9.73,0,0,1,1.28,4.45,9.31,9.31,0,0,1-1.37,5.49l1.28.57Z"/><path d="M421.83,227.67l-.15,2.17-.85.17-.93,13,.82.34-.16,2.19-8.9,2.23-.94-3.15a27.64,27.64,0,0,0,2.94-1.26,7.17,7.17,0,0,0,2.18-1.87,3.05,3.05,0,0,0,.7-1.65.65.65,0,0,0-.17-.56,1.9,1.9,0,0,0-.92-.22l-14.27-1a8.75,8.75,0,0,0-1.59,0,1.08,1.08,0,0,0-.53.24,1.13,1.13,0,0,0-.29.53,17.75,17.75,0,0,0-.19,1.85l-3.43-.24.8-11.22,3.43.25-.05.67a4.19,4.19,0,0,0,.05,1.46,1,1,0,0,0,.5.52,4.94,4.94,0,0,0,1.58.27l14.59,1a1.42,1.42,0,0,0,.79-.08.73.73,0,0,0,.2-.55,3.62,3.62,0,0,0-.56-2,6.6,6.6,0,0,0-1.82-2c-.32-.24-1.22-.77-2.7-1.6l1.38-2.93Z"/><path d="M418.93,252.14,415,271l-8.23,1-.53-3.16a10.53,10.53,0,0,0,3.4-1.11,4.94,4.94,0,0,0,2-1.88,9.53,9.53,0,0,0,1-2.72l.72-3.45-6.08-1.26-.24,1.13a4.9,4.9,0,0,0-.15,1.77,1.2,1.2,0,0,0,.49.76,5,5,0,0,0,1.66.55l.93.19-.6,2.88L399,263.5l.6-2.88,1.05.22a3.87,3.87,0,0,0,1.61.09,1.34,1.34,0,0,0,.8-.5,5.49,5.49,0,0,0,.55-1.76l.21-1-5.6-1.16a4.77,4.77,0,0,0-1.1-.15.6.6,0,0,0-.36.26,2.9,2.9,0,0,0-.32,1l-.39,1.89a8.86,8.86,0,0,0-.09,3.71,7.15,7.15,0,0,0,1.59,3,11.09,11.09,0,0,0,3.11,2.48L399,271.43l-8.44-4.84,4.05-19.51,3.37.7-.11.56a4.5,4.5,0,0,0-.15,1.56,1.09,1.09,0,0,0,.5.68,7.08,7.08,0,0,0,1.47.38l13.27,2.76a4.84,4.84,0,0,0,1.44.16,1.05,1.05,0,0,0,.59-.33,2.71,2.71,0,0,0,.4-1.11l.21-1Z"/><path d="M413.23,278.87l-3.69,9.75L394,287l12.71,9.23-3.76,9.92-3.22-1.22.41-1.06a1.65,1.65,0,0,0,.06-1.35,2.6,2.6,0,0,0-1.35-.89l-13.21-5a3.76,3.76,0,0,0-1.12-.31.93.93,0,0,0-.62.21,2,2,0,0,0-.54.81l-.46,1.23-3.22-1.22L383.56,287l3.21,1.22-.3.8a3.47,3.47,0,0,0-.3,1.25,1,1,0,0,0,.29.63,3.15,3.15,0,0,0,1.08.58l14.32,5.42-17.3-12.55,1.13-3,20.59,2L392.13,278a1.49,1.49,0,0,0-.81-.13,1.14,1.14,0,0,0-.58.31,2.66,2.66,0,0,0-.51.92l-.39,1-3.22-1.22,3.34-8.83,3.22,1.21-.33.87a2.89,2.89,0,0,0-.27,1.19,1,1,0,0,0,.33.64,3.68,3.68,0,0,0,1.21.62l13,4.94a3.81,3.81,0,0,0,1.21.33,1.09,1.09,0,0,0,.69-.21,2,2,0,0,0,.5-.82l.45-1.19Z"/><path d="M391.75,326.07l-8.24-2.36.69-3.16a11.82,11.82,0,0,0,5.52-.89,7,7,0,0,0,3.24-2.92,3.59,3.59,0,0,0,.55-2.25,1.79,1.79,0,0,0-.81-1.4,2.29,2.29,0,0,0-1.78-.15,6.39,6.39,0,0,0-2.48,1.68l-3.39,3.17a11,11,0,0,1-5.22,3.09,6.86,6.86,0,0,1-4.63-.83,7.17,7.17,0,0,1-3.59-4.75,9.33,9.33,0,0,1,1.09-7,10.78,10.78,0,0,1,2.09-2.68,12.13,12.13,0,0,1,3.06-2l-1.2-1.51,1.21-2.14,9.21,3.31-.82,3.08a11.7,11.7,0,0,0-5.94.55,7.59,7.59,0,0,0-4.2,3.44,5.31,5.31,0,0,0-.72,2,2.75,2.75,0,0,0,.22,1.54,2.19,2.19,0,0,0,3,1,11,11,0,0,0,3-2.22L384.5,310a18,18,0,0,1,2-1.57,8.88,8.88,0,0,1,2.47-1.24,6.53,6.53,0,0,1,2.45-.15,7,7,0,0,1,5.25,3.52,7.34,7.34,0,0,1,.86,4,9.9,9.9,0,0,1-1.32,4.45,9.28,9.28,0,0,1-4.11,3.88l.77,1.17Z"/><path class="cls-2" d="M177.89,152.22h19.35v6.08h-1.76a4.49,4.49,0,0,0-2,.3,1.8,1.8,0,0,0-.74,1,8.29,8.29,0,0,0-.24,2.47v24.31a9.88,9.88,0,0,0,.2,2.55,1.4,1.4,0,0,0,.68.82,3.43,3.43,0,0,0,1.79.38h2.1v6.08H177.89v-6.08h1.57a5.62,5.62,0,0,0,2.2-.27,1.59,1.59,0,0,0,.76-.85,7.18,7.18,0,0,0,.24-2.31V162.24a9.4,9.4,0,0,0-.24-2.69,2,2,0,0,0-.81-1,4.71,4.71,0,0,0-2-.25h-1.77Z"/><path class="cls-2" d="M231.29,152.22,234.7,167l-5.31,1.67a21,21,0,0,0-6-7.72,11.88,11.88,0,0,0-7.12-2.45,6.12,6.12,0,0,0-3.85,1.1A3.16,3.16,0,0,0,211,162a4,4,0,0,0,1.28,2.87,11,11,0,0,0,4.6,2.37l7.62,2.45q6.33,2,9,5.36a12.29,12.29,0,0,1,2.67,7.85,12.89,12.89,0,0,1-4.1,9.65,15.89,15.89,0,0,1-11.36,4.34A17.87,17.87,0,0,1,215,196a20.8,20.8,0,0,1-5.52-3l-1.25,3.15H204l-2.81-17,5.31-1.42a20.66,20.66,0,0,0,5.84,8.68,12.92,12.92,0,0,0,8.71,3.48,9.08,9.08,0,0,0,3.54-.6,4.62,4.62,0,0,0,2.12-1.67,4,4,0,0,0,.71-2.2,4.06,4.06,0,0,0-1.65-3.24,18.76,18.76,0,0,0-5.85-2.68l-6.63-2.14a28.22,28.22,0,0,1-4.08-1.78,15.12,15.12,0,0,1-3.95-2.72,11.21,11.21,0,0,1-2.28-3.64,12.16,12.16,0,0,1-.91-4.68,12.42,12.42,0,0,1,1.74-6.44,12.7,12.7,0,0,1,5.26-4.77,16.56,16.56,0,0,1,7.78-1.83,15.67,15.67,0,0,1,9.29,3l1.11-2.21Z"/><path class="cls-2" d="M261.08,151.47q9.44,0,15.27,6.36t5.84,16.35a25.66,25.66,0,0,1-2.67,11.9,19.49,19.49,0,0,1-7.37,8,21.7,21.7,0,0,1-11.36,2.81q-8.78,0-14.38-5.35-6.76-6.45-6.76-17.26,0-10.05,5.92-16.44T261.08,151.47Zm.11,7a8.39,8.39,0,0,0-7.19,3.75q-3.36,4.72-3.35,12.19t3.12,11.81a8.72,8.72,0,0,0,14.27,0q3.15-4.44,3.15-11.88a24.89,24.89,0,0,0-1.35-8.78,11.7,11.7,0,0,0-3.65-5.33A8.07,8.07,0,0,0,261.19,158.46Z"/><path class="cls-2" d="M102,222.79v27.8a9.2,9.2,0,0,0,.14,2.16,1.48,1.48,0,0,0,.73.9,4.75,4.75,0,0,0,1.94.27h3.22v4.92H88.33v-4.92h3.26a5.85,5.85,0,0,0,2.2-.25,1.53,1.53,0,0,0,.72-.78,6.94,6.94,0,0,0,.24-2.3V230.77H88.33v-4.93a40.46,40.46,0,0,0,4.22-.63,45.84,45.84,0,0,0,4.68-1.33,15.52,15.52,0,0,0,2.56-1.09Z"/><path class="cls-2" d="M126.43,223.4h7.3v19.21h6v6.45h-6v9.78h-7.29v-9.78H111.35v-7.92Zm0,8.18-9.52,11h9.52Z"/><path class="cls-2" d="M156.45,222.79a12.85,12.85,0,0,1,7.35,2.07,13.65,13.65,0,0,1,4.83,5.95,24.18,24.18,0,0,1,1.74,9.87q0,6.75-1.6,10.42a14.25,14.25,0,0,1-4.9,6.25,13.16,13.16,0,0,1-7.58,2.11,12.88,12.88,0,0,1-7.39-2,13.71,13.71,0,0,1-4.78-6.05,30.27,30.27,0,0,1,0-20.37,14,14,0,0,1,4.87-6.08A13,13,0,0,1,156.45,222.79Zm6,18.35c0-4.64-.62-8-1.85-10.07a4.94,4.94,0,0,0-4.34-2.71c-1.65,0-3,.95-4.16,2.86s-1.68,5.22-1.68,9.92.56,8,1.69,9.9,2.56,2.85,4.27,2.85,3.17-1,4.33-2.93S162.41,245.73,162.41,241.14Z"/><path class="cls-2" d="M187.45,222.79a12.89,12.89,0,0,1,7.35,2.07,13.72,13.72,0,0,1,4.83,5.95,24.18,24.18,0,0,1,1.74,9.87q0,6.75-1.61,10.42a14.23,14.23,0,0,1-4.89,6.25,13.16,13.16,0,0,1-7.58,2.11,12.88,12.88,0,0,1-7.39-2,13.71,13.71,0,0,1-4.78-6.05,30.35,30.35,0,0,1,0-20.37,14,14,0,0,1,4.88-6.08A13,13,0,0,1,187.45,222.79Zm6,18.35c0-4.64-.62-8-1.85-10.07a5,5,0,0,0-4.34-2.71q-2.47,0-4.16,2.86t-1.68,9.92q0,7.05,1.69,9.9t4.27,2.85c1.72,0,3.17-1,4.33-2.93S193.41,245.73,193.41,241.14Z"/><path class="cls-2" d="M223.22,222.79v27.8a8.64,8.64,0,0,0,.14,2.16,1.45,1.45,0,0,0,.73.9,4.72,4.72,0,0,0,1.94.27h3.22v4.92H209.51v-4.92h3.25a5.82,5.82,0,0,0,2.2-.25,1.51,1.51,0,0,0,.73-.78,6.94,6.94,0,0,0,.24-2.3V230.77h-6.42v-4.93a40.89,40.89,0,0,0,4.22-.63,46.42,46.42,0,0,0,4.67-1.33,15.27,15.27,0,0,0,2.57-1.09Z"/><path class="cls-2" d="M238.1,232.88a3.92,3.92,0,0,1,3,1.4,4.83,4.83,0,0,1,1.26,3.35,4.91,4.91,0,0,1-1.25,3.38,4,4,0,0,1-6.06,0,5.09,5.09,0,0,1,0-6.72A3.93,3.93,0,0,1,238.1,232.88Zm0,16.92a3.94,3.94,0,0,1,3,1.38,5.1,5.1,0,0,1,0,6.69,4,4,0,0,1-6.06,0,5.1,5.1,0,0,1,0-6.69A4,4,0,0,1,238.1,249.8Z"/><path class="cls-2" d="M253.85,237.45l-4.63.46a13.27,13.27,0,0,1-.25-2.52,12.52,12.52,0,0,1,1.56-6.36,12,12,0,0,1,4.8-4.47,14.84,14.84,0,0,1,7.21-1.77,14,14,0,0,1,6.59,1.54,10.93,10.93,0,0,1,4.44,4,9.75,9.75,0,0,1,1.49,5.14,12.39,12.39,0,0,1-1.05,5.08,15.91,15.91,0,0,1-3.82,5.11,105,105,0,0,1-10.67,7.9h7.7a7.54,7.54,0,0,0,2.38-.22,1.93,1.93,0,0,0,.88-.85,6.88,6.88,0,0,0,.61-2.18l.19-1.17h4.45l-2.09,13h-3l-.27-1.25H249.22v-4.9A136.26,136.26,0,0,0,261,244a21.71,21.71,0,0,0,4.88-5.79,8.17,8.17,0,0,0,.9-3.73,5,5,0,0,0-1.69-3.83,6.35,6.35,0,0,0-4.5-1.56A7.38,7.38,0,0,0,257,230a6.1,6.1,0,0,0-2.4,2.43,6.78,6.78,0,0,0-.87,3.32A14.67,14.67,0,0,0,253.85,237.45Z"/><path class="cls-2" d="M293.59,222.79a12.89,12.89,0,0,1,7.35,2.07,13.7,13.7,0,0,1,4.82,5.95,24.18,24.18,0,0,1,1.74,9.87q0,6.75-1.6,10.42a14.25,14.25,0,0,1-4.9,6.25,13.13,13.13,0,0,1-7.57,2.11,12.91,12.91,0,0,1-7.4-2,13.78,13.78,0,0,1-4.78-6.05,30.43,30.43,0,0,1,0-20.37,14,14,0,0,1,4.87-6.08A13,13,0,0,1,293.59,222.79Zm6,18.35c0-4.64-.62-8-1.86-10.07a4.92,4.92,0,0,0-4.33-2.71q-2.48,0-4.16,2.86t-1.69,9.92q0,7.05,1.7,9.9t4.26,2.85c1.73,0,3.17-1,4.34-2.93S299.55,245.73,299.55,241.14Z"/><path class="cls-2" d="M322.78,222.79v27.8a9.2,9.2,0,0,0,.14,2.16,1.45,1.45,0,0,0,.73.9,4.72,4.72,0,0,0,1.94.27h3.22v4.92H309.07v-4.92h3.26a5.85,5.85,0,0,0,2.2-.25,1.53,1.53,0,0,0,.72-.78,6.94,6.94,0,0,0,.24-2.3V230.77h-6.42v-4.93a40.89,40.89,0,0,0,4.22-.63,46.42,46.42,0,0,0,4.67-1.33,15.27,15.27,0,0,0,2.57-1.09Z"/><path class="cls-2" d="M333.29,242.84l.84-19.44h16.14a4.32,4.32,0,0,0,1.94-.27,1.16,1.16,0,0,0,.5-.95h3.07V231H339.06l-.2,4.55a43.47,43.47,0,0,1,5.06-.33,17.81,17.81,0,0,1,7.84,1.53,10.51,10.51,0,0,1,4.66,4.09,12.55,12.55,0,0,1-2.84,15.47,14.7,14.7,0,0,1-9.47,3.13,15.63,15.63,0,0,1-6.7-1.41,11,11,0,0,1-4.43-3.52,7.37,7.37,0,0,1-1.46-4.25,4.16,4.16,0,0,1,1-2.86,3.32,3.32,0,0,1,2.56-1.15,3.22,3.22,0,0,1,2,.66,5.21,5.21,0,0,1,1.56,2.21,13.9,13.9,0,0,0,1.74,3.09,5.63,5.63,0,0,0,1.88,1.46,5.56,5.56,0,0,0,2.41.51,6.35,6.35,0,0,0,3.16-.78,5.11,5.11,0,0,0,2.11-2.11,6.34,6.34,0,0,0,.72-3.06,5.87,5.87,0,0,0-2.23-4.75q-2.22-1.83-7-1.83A27.94,27.94,0,0,0,333.29,242.84Z"/><rect class="cls-1" x="50.96" y="334.92" width="342.52" height="115.2"/><g id="Layer_2-2" data-name="Layer 2-2"><g id="_Group_" data-name=" Group "><g id="_Path_" data-name=" Path "><path class="cls-3" d="M285.69,420.68a36.07,36.07,0,0,1-9.05.09c-.53,0-.68-.46-.88-.82-1.9-3.37-3.79-6.74-5.77-10.11-1.53-2.71-3-5.44-4.59-8.15-.3-.52-.25-.75.3-1a21.1,21.1,0,0,0,4.78-2.82,7.69,7.69,0,0,0,2.21-9.26,6,6,0,0,0-4.66-3.47,12.43,12.43,0,0,0-3.7-.17c-.66.07-.91.32-.89,1v33.8c0,.75-.13,1.07-1,1.14a35.59,35.59,0,0,1-7,0c-.52,0-.69-.24-.65-.72a4,4,0,0,0,0-.49v-40c0-1.07,0-1.07,1-1.23a56.36,56.36,0,0,1,11.68-.5,19.51,19.51,0,0,1,9.3,2.6,11.12,11.12,0,0,1,5.52,8.9,13.25,13.25,0,0,1-2.77,9.86,12.22,12.22,0,0,1-3.45,3c-.57.35-.72.61-.33,1.28,3.22,5.5,6.37,11.05,9.54,16.57A1.33,1.33,0,0,1,285.69,420.68Z"/></g><g id="_Path_2" data-name=" Path 2"><path class="cls-3" d="M332.66,421.39a26.87,26.87,0,0,1-10.23-1.77c-.71-.26-.83-.57-.7-1.29a48.08,48.08,0,0,1,1.45-5.67c.18-.59.4-.67.95-.45a22.17,22.17,0,0,0,9.61,1.73,11,11,0,0,0,3.8-.82,4.65,4.65,0,0,0,3.07-3.94,5,5,0,0,0-2.13-5,19.47,19.47,0,0,0-4.25-1.95,44.51,44.51,0,0,1-6.43-2.77,9.53,9.53,0,0,1-5-8.31,12.9,12.9,0,0,1,1.44-7.44,11.55,11.55,0,0,1,8-5.47,28.72,28.72,0,0,1,15.44,1.36c.34.12.57.28.51.69a21.93,21.93,0,0,1-1.63,5.78c-.25.59-.65.24-1,.11a19.88,19.88,0,0,0-8.38-1.51,8.54,8.54,0,0,0-3.24.59c-2.89,1.17-2.89,5.18-1.45,6.72a7,7,0,0,0,2.4,1.64c2.8,1.21,5.77,2.16,8.47,3.47a10.57,10.57,0,0,1,6.38,10,13,13,0,0,1-2.88,9.34,14.74,14.74,0,0,1-8.17,4.56A24,24,0,0,1,332.66,421.39Z"/></g><g id="_Path_3" data-name=" Path 3"><path class="cls-3" d="M144.91,358.52l-2.78,3.3q-4.17,5-8.34,10.11c-.85,1-.84,1.05-2,.52A16.66,16.66,0,0,1,121.35,359a38.54,38.54,0,0,1,1.17-15.37c0-.09.09-.16.17-.33a14.46,14.46,0,0,0,4.78,9,23.75,23.75,0,0,0,9.89,4.85,41,41,0,0,0,6.49,1.21C144.14,358.33,144.43,358.42,144.91,358.52Z"/></g><g id="_Path_4" data-name=" Path 4"><path class="cls-3" d="M177,343.28a16.14,16.14,0,0,1,1,4.05,36.36,36.36,0,0,1,.62,8.83A18.77,18.77,0,0,1,174.9,367a17.41,17.41,0,0,1-7.67,5.51.65.65,0,0,1-.9-.23l-9.6-11.54-2-2.38c1.63-.26,3.11-.47,4.6-.74a33,33,0,0,0,8.66-2.74A15.43,15.43,0,0,0,177,343.28Z"/></g><g id="_Compound_Path_" data-name=" Compound Path "><path class="cls-3" d="M320.91,397.58a30,30,0,0,0-1.8-9,15.78,15.78,0,0,0-10.64-10.1,21.86,21.86,0,0,0-9.28-.48A15.41,15.41,0,0,0,287,386.62a28.71,28.71,0,0,0-2.72,13,30.3,30.3,0,0,0,1.76,10.8,16.06,16.06,0,0,0,9.88,10,21.81,21.81,0,0,0,8.57.94,16.69,16.69,0,0,0,6.21-1.45,16.28,16.28,0,0,0,8.77-10.23A32,32,0,0,0,320.91,397.58ZM310.27,409a8.23,8.23,0,0,1-10.61,4.77A8,8,0,0,1,298,413a9.37,9.37,0,0,1-3.68-5.78,32.65,32.65,0,0,1-.68-10.84,18.62,18.62,0,0,1,1.82-7c2.55-4.92,8.66-5.07,11.89-2.89a9.29,9.29,0,0,1,3.55,5.65,26.3,26.3,0,0,1,.81,7.44A24.48,24.48,0,0,1,310.27,409Z"/></g><g id="_Compound_Path_2" data-name=" Compound Path 2"><path class="cls-3" d="M252.47,389.75a12.44,12.44,0,0,0-5.69-9.44,17.5,17.5,0,0,0-8.81-2.48,82.58,82.58,0,0,0-12.28.35c-1.1.1-1.11,0-1.11,1.15v40.73c0,.36,0,.68.51.74a37.53,37.53,0,0,0,7.11.1c.72,0,1-.33,1-1.14V407.65c0-.36.18-.53.56-.48a24.88,24.88,0,0,0,7.84-.47,12.51,12.51,0,0,0,10.43-9A18.69,18.69,0,0,0,252.47,389.75Zm-9.1,5.78a6.49,6.49,0,0,1-6.19,4.54h-3.12c-.66,0-.91-.23-.89-.91V385.78c0-.56.14-.78.73-.85a12.34,12.34,0,0,1,5.4.41,6,6,0,0,1,3.91,3.81,10,10,0,0,1,.16,6.36Z"/></g><g id="_Path_5" data-name=" Path 5"><path class="cls-3" d="M103.05,392.06c-.13,4.59-.28,9.17-.41,13.74s-.27,9.5-.39,14.26c0,.51-.13.71-.66.8a20.92,20.92,0,0,1-6.32,0c-.56-.1-.56-.34-.56-.78q.58-14.44,1.12-29c.16-4,.35-7.93.48-11.9,0-.61.21-.8.82-.88a31.49,31.49,0,0,1,7.39,0,1.32,1.32,0,0,1,1.27,1.05q4.45,11.25,9,22.43l.26.63c.39-.12.39-.5.51-.77q4.62-11.16,9.18-22.33a1.45,1.45,0,0,1,1.31-1.06,26.76,26.76,0,0,1,6.81.09c.47,0,.65.19.68.69.23,5.47.51,10.93.77,16.4l1.12,23.8c.09,1.6.11,1.59-1.51,1.75a24.93,24.93,0,0,1-6-.13c-.49,0-.69-.21-.72-.77q-.37-10.86-.78-21.75c0-2-.16-3.91-.23-5.9-.37.16-.4.55-.53.85q-3.81,8.79-7.6,17.61a1.54,1.54,0,0,1-1.44,1.17,23.66,23.66,0,0,1-4.76,0,1.18,1.18,0,0,1-1.11-1Q107.19,402,103.6,393c-.13-.34-.26-.65-.41-1Z"/></g><g id="_Path_6" data-name=" Path 6"><path class="cls-3" d="M139.33,424.1a37.52,37.52,0,0,1,.89-5.26c1.67-8.82,3.24-17.66,4.64-26.52.7-4.33,1.45-8.8,2-13.21a1.3,1.3,0,0,0-.33-1.14c-1.53-1.81-3-3.71-4.46-5.55a3.69,3.69,0,0,1,0-5.05q2.69-3.76,5.51-7.34a5.06,5.06,0,0,1,.67-.72,2,2,0,0,1,2.8-.43,1.93,1.93,0,0,1,.54.6c2,2.57,4.05,5.19,6,7.83a3.84,3.84,0,0,1-.18,4.83L153,377.92a1.59,1.59,0,0,0-.36,1.34c.94,8.1,2.15,16.16,3.51,24.22,1,6.32,2.26,12.6,3.48,18.89a7.91,7.91,0,0,1-1.45,6.56c-1.83,2.41-3.72,4.76-5.77,7-.17.18-.36.37-.55.54a3,3,0,0,1-4.2.25,2.46,2.46,0,0,1-.43-.48c-1.23-1.34-2.41-2.74-3.58-4.14-.93-1.14-1.79-2.22-2.72-3.38A7.62,7.62,0,0,1,139.33,424.1Z"/></g><g id="_Path_7" data-name=" Path 7"><path class="cls-3" d="M172.14,394.44c.25-.29.36-.44.48-.59,3.3-4.39,8.34-5.14,13-3.42a8.25,8.25,0,0,1,5.24,6.76,23.22,23.22,0,0,1,.39,4.56v18.07c0,.75-.22,1-.94,1.08a27.89,27.89,0,0,1-6.71,0c-.62-.09-.78-.3-.78-.91V403.78a12.73,12.73,0,0,0-.49-4.21,3.58,3.58,0,0,0-3.44-2.56,5.41,5.41,0,0,0-5.94,4.83v0a19.34,19.34,0,0,0-.24,3.48v14.43c0,.83-.27,1.06-1,1.13a26.14,26.14,0,0,1-6.73,0c-.49,0-.69-.2-.69-.76V391c0-.54.17-.75.66-.83a18.44,18.44,0,0,1,5.55,0,1,1,0,0,1,.92.84C171.77,392.08,171.88,393.17,172.14,394.44Z"/></g><g id="_Path_8" data-name=" Path 8"><path class="cls-3" d="M256.65,427.27h90.92c.71-.12.77.27.79.85s-.26.79-.8.72H165.82c-.61,0-.94,0-.94-.8s.38-.77,1-.77Z"/></g><g id="_Path_9" data-name=" Path 9"><path class="cls-3" d="M310.53,436.85c.81-1.29,1.56-2.47,2.25-3.67a1.31,1.31,0,0,1,1.56-.68c.7.18.71.76.71,1.33v6.73a.94.94,0,0,1-1,1.07,1,1,0,0,1-1-1,.66.66,0,0,1,0-.14V436.4a3.31,3.31,0,0,0-.9,1.17c-1.44,2.37-1.89,2.41-3.33,0a3.55,3.55,0,0,0-.87-1v3.71c0,.93-.31,1.44-.93,1.44s-1-.48-1-1.44V434c0-.61,0-1.23.69-1.45a1.35,1.35,0,0,1,1.68.81C309.05,434.5,309.77,435.65,310.53,436.85Z"/></g><g id="_Path_10" data-name=" Path 10"><path class="cls-3" d="M280.05,437.72V434a2.05,2.05,0,0,1,.13-.95.89.89,0,0,1,1-.55.86.86,0,0,1,.8.74c0,.22,0,.45,0,.68v6.25c0,.59,0,1.19-.7,1.44s-1.15-.2-1.54-.72c-1-1.35-2-2.69-3.07-4-.19-.24-.31-.56-.75-.72v4.68a.9.9,0,0,1-.88.88,1,1,0,0,1-1-.84,1.35,1.35,0,0,1,0-.49v-6.55c0-.55.08-1.07.67-1.26a1.37,1.37,0,0,1,1.58.49l3.06,4c.19.25.39.48.59.71Z"/></g><g id="_Path_11" data-name=" Path 11"><path class="cls-3" d="M323.57,436.16v3.89a3.39,3.39,0,0,1,0,.78,1,1,0,0,1-1.07.8h0a.86.86,0,0,1-.85-.88V433.4a.85.85,0,0,1,.62-.88,1.42,1.42,0,0,1,1.57.48l3.08,4a2.66,2.66,0,0,0,.77.83v-4.33a1,1,0,0,1,.73-1.14,1,1,0,0,1,1.2.62,1.14,1.14,0,0,1,0,.37v7.13a1,1,0,0,1-.68,1,1.09,1.09,0,0,1-1.31-.39c-.6-.73-1.16-1.44-1.74-2.23L323.77,436Z"/></g><g id="_Path_12" data-name=" Path 12"><path class="cls-3" d="M183.56,437.09v-3.21c0-1.07.35-1.33,1.36-1.33h4.33c.65,0,1.15.21,1.17.88s-.48.92-1.13.91h-3.13c-.75,0-.67.42-.64.86s-.2,1,.64,1,1.7,0,2.54,0,1.14.25,1.14.92-.55.9-1.17.9h-2.54c-.85,0-.59.58-.61,1s-.16.93.62.89h3.12c1,0,1.26.35,1.21.94s-.56.86-1.17.86h-4.48c-1,0-1.3-.33-1.32-1.44S183.56,438.09,183.56,437.09Z"/></g><g id="_Path_13" data-name=" Path 13"><path class="cls-3" d="M233.56,437v-3.21c0-1.09.36-1.28,1.31-1.28h4.33c.81,0,1.29.35,1.23.91a1,1,0,0,1-1.19.87h-2.33c-1.53,0-1.45-.19-1.45.88s-.08.91,1.45.92h1.76c.57,0,1.14.25,1.12.94s-.55.88-1.17.88H236.1c-.84,0-.64.55-.64,1s-.16,1,.61.91,1.82,0,2.73,0h.69a.88.88,0,0,1,.95.91c0,.6-.39.87-.95.88h-4.88c-.78,0-1.05-.53-1.05-1.24Z"/></g><g id="_Path_14" data-name=" Path 14"><path class="cls-3" d="M181.39,437.09v3.32c0,.77-.39,1.2-1,1.2s-1-.46-1-1.21,0-1.3,0-1.95c0-.42-.12-.56-.55-.55h-2.63c-.37,0-.53.13-.52.51v2a1,1,0,0,1-.84,1.13h-.11a1,1,0,0,1-1-1.14v-6.93c0-.77.4-1.17,1-1.13a1,1,0,0,1,.95,1.12v1.94c0,.65.16.57.58.57h2.63c.39,0,.49-.16.49-.52v-2.05a.92.92,0,0,1,.81-1h.2c.68,0,1,.44,1,1.09Z"/></g><g id="_Path_15" data-name=" Path 15"><path class="cls-3" d="M253.48,441.68a5.67,5.67,0,0,1-3-.88c-.63-.4-.84-1-.48-1.44a1,1,0,0,1,1.35-.24l.1.08a3.55,3.55,0,0,0,2.37.72c.51,0,1-.18,1.08-.78s-.39-.78-.82-.92c-.71-.24-1.45-.4-2.14-.65a2.37,2.37,0,0,1-1.83-2.65,2.63,2.63,0,0,1,2.18-2.42,4.94,4.94,0,0,1,3.66.58,1,1,0,0,1,.58,1.22l-.07.15a.93.93,0,0,1-1.27.38.71.71,0,0,1-.18-.12,3.73,3.73,0,0,0-1.84-.55c-.49,0-1,.11-1.13.71s.38.8.81.94,1.25.36,1.86.58c1.66.56,2.34,1.44,2.12,2.88a2.88,2.88,0,0,1-2.88,2.4Z"/></g><g id="_Path_16" data-name=" Path 16"><path class="cls-3" d="M345,441.67a5.58,5.58,0,0,1-3.06-.81c-.75-.45-1-1-.61-1.44s.84-.56,1.55-.13a3.6,3.6,0,0,0,2.29.68c.49,0,1-.13,1.09-.75s-.37-.81-.8-1c-.71-.24-1.44-.4-2.13-.65a2.32,2.32,0,0,1-1.84-2.69,2.57,2.57,0,0,1,2.15-2.43,5.11,5.11,0,0,1,3.67.56c.52.29.82.68.55,1.27s-.83.68-1.45.39a3.8,3.8,0,0,0-1.74-.56c-.52,0-1.1,0-1.23.69s.41.83.88,1,1.24.37,1.86.57c1.56.55,2.2,1.44,2,2.8a2.77,2.77,0,0,1-2.7,2.48Z"/></g><g id="_Path_17" data-name=" Path 17"><path class="cls-3" d="M245.45,441.7a5.61,5.61,0,0,1-3.2-1,1,1,0,0,1-.38-1.44.9.9,0,0,1,1.22-.35.76.76,0,0,1,.23.18,4.08,4.08,0,0,0,2.26.76c.55,0,1.11-.09,1.26-.71s-.42-.88-.91-1-1.45-.4-2.14-.66a2.37,2.37,0,0,1-1.86-2.47,2.63,2.63,0,0,1,2-2.47,4.87,4.87,0,0,1,3.85.54,1,1,0,0,1,.56,1.22,1,1,0,0,1-.07.15,1,1,0,0,1-1.27.38l-.17-.12a3.67,3.67,0,0,0-1.73-.49c-.48,0-1,0-1.1.72s.37.79.81.94c.65.21,1.31.37,2,.59a2.44,2.44,0,0,1,2,2.81s0,.05,0,.08a2.71,2.71,0,0,1-2.51,2.29C246,441.68,245.67,441.68,245.45,441.7Z"/></g><g id="_Path_18" data-name=" Path 18"><path class="cls-3" d="M225.1,437v-3.32c0-.85.35-1.19,1.18-1.19H231c.73,0,1.14.38,1.09,1a1,1,0,0,1-1.09.85h-3.13c-.59,0-.79.14-.76.76,0,1.45-.12,1.14,1.2,1.17h2.1c.62,0,1,.29,1.06.91s-.41.91-1,.91H228c-.81,0-1,.26-.94,1a8.66,8.66,0,0,1,0,1.44c0,.74-.44,1.21-1,1.16a1,1,0,0,1-1-1s0-.07,0-.11Z"/></g><g id="_Path_19" data-name=" Path 19"><path class="cls-3" d="M167.48,437.72V435c0-.54-.17-.71-.66-.67a5.46,5.46,0,0,1-1,0c-.82,0-1.25-.36-1.19-.95a1,1,0,0,1,1.18-.89h5.47a.88.88,0,0,1,1,.77.54.54,0,0,1,0,.18.85.85,0,0,1-.83.87h-.24c-.54,0-1.25-.24-1.6.13s-.13,1.17-.14,1.78v4.11c0,.84-.36,1.3-1,1.3s-1-.46-1-1.3Z"/></g><g id="_Path_20" data-name=" Path 20"><path class="cls-3" d="M296.11,436.36v2.89c0,.41.13.56.57.54h2.81c.81,0,1.26.36,1.21.94a1,1,0,0,1-1.17.9h-4.18c-.91,0-1.24-.33-1.24-1.24v-6.63c0-.84.37-1.26,1-1.24s1,.42,1,1.28S296.11,435.48,296.11,436.36Z"/></g><g id="_Path_21" data-name=" Path 21"><path class="cls-3" d="M260.69,437v3.42c0,.68-.23,1.16-.95,1.23s-1-.45-1-1.24v-6.74c0-.82.41-1.27,1.06-1.21s.95.56.93,1.22Z"/></g><g id="_Path_22" data-name=" Path 22"><path class="cls-3" d="M319.31,437.09v3.41c0,.74-.43,1.23-1,1.16a1,1,0,0,1-.95-1.06v-7c0-.77.39-1.17,1-1.13a1,1,0,0,1,.95,1.11C319.29,434.73,319.31,435.9,319.31,437.09Z"/></g><g id="_Compound_Path_3" data-name=" Compound Path 3"><path class="cls-3" d="M221,398.7V378.58c0-.71-.19-.94-.91-1a32.42,32.42,0,0,0-6.23,0c-1.45.15-1.2.09-1.2,1.38v10.45c0,.62-.12.78-.77.63a16.23,16.23,0,0,0-4.56-.29,14.3,14.3,0,0,0-10.75,5.15c-4.33,5.29-4.87,11.35-2.76,17.59,1.92,5.84,6.68,8.32,12.5,8.84a38.79,38.79,0,0,0,13.73-1.3c.79-.21,1-.54,1-1.32C221,412,221,405.34,221,398.7Zm-9,15.59a12.35,12.35,0,0,1-6-.19,6.48,6.48,0,0,1-4.47-5.64,14.66,14.66,0,0,1,.4-6.84,7.37,7.37,0,0,1,8.8-5.39c1.91.29,1.91.29,1.91,2.23v14.88C212.69,414,212.51,414.19,212,414.29Z"/></g><g id="_Compound_Path_4" data-name=" Compound Path 4"><path class="cls-3" d="M267.48,432.33a4.69,4.69,0,0,0-4.86,4.52.53.53,0,0,0,0,.13,4.59,4.59,0,0,0,4.46,4.72h.29a4.69,4.69,0,1,0,.62-9.36A4.13,4.13,0,0,0,267.48,432.33Zm-.1,7.55a2.75,2.75,0,0,1-2.66-2.85v0a2.67,2.67,0,0,1,2.54-2.77h.2a2.89,2.89,0,0,1-.08,5.67Z"/></g><g id="_Compound_Path_5" data-name=" Compound Path 5"><path class="cls-3" d="M218.62,432.33a4.67,4.67,0,0,0-4.9,4.44c0,.11,0,.22,0,.32a4.59,4.59,0,0,0,4.52,4.67h.19a4.69,4.69,0,1,0,.68-9.36,3.85,3.85,0,0,0-.48,0Zm0,7.55a2.89,2.89,0,0,1-2.77-2.89,2.74,2.74,0,0,1,2.59-2.88h.12a2.7,2.7,0,0,1,2.75,2.65,1.77,1.77,0,0,1,0,.23,2.74,2.74,0,0,1-2.59,2.89h-.09Z"/></g><g id="_Compound_Path_6" data-name=" Compound Path 6"><path class="cls-3" d="M210.9,438.75c-.25-.28-.33-.46,0-.73a3,3,0,0,0,1.22-3.49,2.88,2.88,0,0,0-2.88-2h-3.42c-.87,0-1.16.3-1.17,1.18s0,2.21,0,3.31h0v3.61a1,1,0,0,0,.86,1h.08a1,1,0,0,0,1-1,.06.06,0,0,0,0-.06v-1.45c0-.17,0-.43.24-.43.66,0,1.34-.2,1.81.56a15.77,15.77,0,0,0,1.58,2,1,1,0,0,0,1.37.23l.07-.06a.88.88,0,0,0,.19-1.25l-.1-.12A4.16,4.16,0,0,0,210.9,438.75Zm-1.72-1.92a7.62,7.62,0,0,1-1.17,0c-1.26,0-1.26,0-1.26-1.28a1.27,1.27,0,0,0,0-.39c-.14-.79.22-1,1-.94a13.25,13.25,0,0,1,1.54.09,1.19,1.19,0,0,1,1,1.31,1.15,1.15,0,0,1-1.1,1.21Z"/></g><g id="_Compound_Path_7" data-name=" Compound Path 7"><path class="cls-3" d="M336.63,432.65a10.05,10.05,0,0,0-2.12-.16h-1.37c-1,0-1.35.32-1.35,1.33v6.52c0,.88.29,1.2,1.16,1.21a25.36,25.36,0,0,0,3,0,4.48,4.48,0,0,0,.66-8.84Zm-1.29,7.09c-1.57,0-1.57,0-1.57-1.58v-3.3c0-.41.13-.61.56-.57a9.13,9.13,0,0,0,1.17,0,2.64,2.64,0,0,1,2.57,2.69,1.34,1.34,0,0,1,0,.2,2.56,2.56,0,0,1-2.55,2.56Z"/></g><g id="_Compound_Path_8" data-name=" Compound Path 8"><path class="cls-3" d="M200.07,432.5h-2.64c-.88,0-1.28.28-1.3,1.28s0,2.15,0,3.21h0v3.71a.9.9,0,0,0,.85.94h.08a1,1,0,0,0,1-.89v-.05a3.91,3.91,0,0,0,0-1.08c0-.56.11-.84.74-.78a6.93,6.93,0,0,0,1.44,0,3.17,3.17,0,0,0-.2-6.34Zm-1,4.59c-.92,0-.92,0-.92-1.44s-.18-1.33.94-1.33c1.44,0,2.16.41,2.19,1.35S200.61,437.09,199.06,437.09Z"/></g><g id="_Compound_Path_9" data-name=" Compound Path 9"><path class="cls-3" d="M292.45,440.28c-1.06-2.39-2.12-4.8-3.21-7.21a1.2,1.2,0,0,0-1.25-.74,1.36,1.36,0,0,0-1.19.88c-1,2.33-2.05,4.64-3.07,6.94a1,1,0,0,0,.43,1.45.88.88,0,0,0,1.19-.37.85.85,0,0,0,.1-.28c.3-1.33,1.15-1.55,2.29-1.44a2.91,2.91,0,0,0,.59,0c1.13-.16,2.05,0,2.28,1.35a1.12,1.12,0,0,0,.39.56.86.86,0,0,0,1,.11.94.94,0,0,0,.51-.94A1.55,1.55,0,0,0,292.45,440.28Zm-5.62-2.58c.38-.91.75-1.79,1.22-2.89.46,1.09.8,1.95,1.21,2.89Z"/></g></g></g></svg>