<svg id="Layer_1" data-name="Layer 1" xmlns="http://www.w3.org/2000/svg" viewBox="0 0 444.45 450.12"><defs><style>.cls-1{fill:#00aced;}.cls-2{fill:#2d3091;}.cls-3{fill:#fff;}</style></defs><path class="cls-1" d="M222.22,377.62c-85.69,0-155.4-69.71-155.4-155.4s69.71-155.4,155.4-155.4,155.4,69.71,155.4,155.4S307.91,377.62,222.22,377.62Zm0-304.8c-82.38,0-149.4,67-149.4,149.4s67,149.4,149.4,149.4,149.4-67,149.4-149.4S304.6,72.82,222.22,72.82Z"/><path class="cls-1" d="M222.22,444.45A222.22,222.22,0,0,1,65.09,65.09,222.22,222.22,0,0,1,379.36,379.36,220.78,220.78,0,0,1,222.22,444.45ZM222.22,6C103,6,6,103,6,222.22s97,216.23,216.22,216.23,216.22-97,216.22-216.23S341.45,6,222.22,6Z"/><path d="M34.91,288.75l-3.46-10.7L34.72,277l.32,1a2.71,2.71,0,0,0,.52,1.07,1.05,1.05,0,0,0,.64.25,4.8,4.8,0,0,0,1.38-.3l13.1-4.24a5.52,5.52,0,0,0,1.34-.55.79.79,0,0,0,.32-.52,2.11,2.11,0,0,0-.12-1.06l-.37-1.16,3.27-1.06,3.46,10.7-3.27,1.06-.28-.87a3.54,3.54,0,0,0-.54-1.17.93.93,0,0,0-.6-.27,4.1,4.1,0,0,0-1.29.27l-13.15,4.25A5.67,5.67,0,0,0,38,285a1.09,1.09,0,0,0-.38.63,2.47,2.47,0,0,0,.21,1.12l.32,1Z"/><path d="M30,273.81l-1.91-9.15L41,255.09l-8.69,1.81a5.13,5.13,0,0,0-1.38.4,1.12,1.12,0,0,0-.49.56,2.5,2.5,0,0,0,.05,1.1l.23,1.1-3.37.7-1.93-9.3,3.37-.7.21,1a2.32,2.32,0,0,0,.43,1.06,1,1,0,0,0,.61.35,5.11,5.11,0,0,0,1.46-.17l18.84-3.92,1,4.65-16.21,12.1,12.55-2.61a4.47,4.47,0,0,0,1.36-.41.92.92,0,0,0,.38-.53,2.44,2.44,0,0,0-.05-1.12l-.23-1.08,3.38-.7,1.93,9.33-3.37.7-.2-1a2.82,2.82,0,0,0-.37-1.07,1.11,1.11,0,0,0-.62-.37,2.63,2.63,0,0,0-1.13,0l-14,2.91a3.25,3.25,0,0,0-1.15.4,1.15,1.15,0,0,0-.45.55,1.94,1.94,0,0,0,0,.95l.25,1.21Z"/><path d="M24.82,246.78l-1.36-19,7.73-3.17,1.33,2.9A12.58,12.58,0,0,0,30,229.08a6.2,6.2,0,0,0-1.35,1.67,5.32,5.32,0,0,0-.64,2,16.09,16.09,0,0,0,.05,2.52l.2,2.83,6.58-.47-.1-1.45a2.67,2.67,0,0,0-.36-1.28,1.62,1.62,0,0,0-.74-.62,3.61,3.61,0,0,0-1.44-.11l-1.31.1-.22-3,11.1-.79.22,3-1.6.12a2.94,2.94,0,0,0-1,.19,1.63,1.63,0,0,0-.66.46,1.5,1.5,0,0,0-.34.63,4.69,4.69,0,0,0,0,1.23l.09,1.27,5.21-.38a3.33,3.33,0,0,0,1.26-.24,1,1,0,0,0,.46-.51,3.28,3.28,0,0,0,.06-1.28L45.4,234l3.43-.24.8,11.21-3.43.25-.05-.74a2.63,2.63,0,0,0-.47-1.61,1.83,1.83,0,0,0-1.42-.29l-14.27,1a3.91,3.91,0,0,0-1.29.24,1,1,0,0,0-.44.54,3.81,3.81,0,0,0-.06,1.38l.05.75Z"/><path d="M23.59,208.91a11.64,11.64,0,0,1,4.17-8.62,13,13,0,0,1,9.46-2.78,14.19,14.19,0,0,1,6.63,2,11.17,11.17,0,0,1,4.25,4.57,13,13,0,0,1,1.16,6.69,11.81,11.81,0,0,1-3.58,8.14,12.71,12.71,0,0,1-10,3.28,13,13,0,0,1-9.06-4.05A11.81,11.81,0,0,1,23.59,208.91Zm3.95.19a4.92,4.92,0,0,0,1.85,4.31,11.46,11.46,0,0,0,6.76,2.4,11.07,11.07,0,0,0,6.79-1.38,5.13,5.13,0,0,0,.54-8.27,11.14,11.14,0,0,0-6.59-2.27,13.66,13.66,0,0,0-5,.46,6.58,6.58,0,0,0-3.14,1.92A4.77,4.77,0,0,0,27.54,209.1Z"/><path d="M25.56,191.58l3-13.89a17.63,17.63,0,0,1,.9-2.87,7,7,0,0,1,1.77-2.63,6.4,6.4,0,0,1,2.68-1.51,6.76,6.76,0,0,1,3.23,0,6,6,0,0,1,4.09,2.81,9.08,9.08,0,0,1,1.29,4.82l6.83-3.37.3-.14a4.47,4.47,0,0,0,1.06-.63,2.28,2.28,0,0,0,.57-.65,3.53,3.53,0,0,0,.35-1l.21-1,3.36.73-1.56,7.22-12,5-.41,1.87,4.85,1.06a5.82,5.82,0,0,0,1.62.21.91.91,0,0,0,.6-.3,2.56,2.56,0,0,0,.41-1.1l.22-1,3.37.73-2.4,11-3.36-.73.22-1a2.7,2.7,0,0,0,.06-1.17,1.15,1.15,0,0,0-.44-.61,6,6,0,0,0-1.29-.37l-13.68-3a3.73,3.73,0,0,0-1.17-.12.7.7,0,0,0-.53.3,2.15,2.15,0,0,0-.39.85l-.08.46-.18.84Zm5.8-7.45,6.29,1.37.73-3.34a8.62,8.62,0,0,0,.24-3,3,3,0,0,0-2.47-2.59,2.94,2.94,0,0,0-1.75.1,2.78,2.78,0,0,0-1.3,1.09,8,8,0,0,0-.93,2.69Z"/><path d="M32.08,162.74l3.83-9.7,15.57,1.85-12.57-9.43,3.9-9.86,3.2,1.27-.41,1.06a1.61,1.61,0,0,0-.09,1.34,2.51,2.51,0,0,0,1.34.91L60,145.38a3.55,3.55,0,0,0,1.11.33.94.94,0,0,0,.62-.2,1.89,1.89,0,0,0,.55-.81l.48-1.21,3.2,1.27-4.08,10.3-3.2-1.27L59,153a3.5,3.5,0,0,0,.32-1.24,1.07,1.07,0,0,0-.28-.63,3.28,3.28,0,0,0-1.08-.6l-14.23-5.63L60.83,157.7l-1.18,3L39.1,158.37l14.06,5.57a1.59,1.59,0,0,0,.81.13,1.15,1.15,0,0,0,.59-.3,2.52,2.52,0,0,0,.52-.9l.41-1,3.2,1.26-3.48,8.79L52,170.62l.34-.86a2.81,2.81,0,0,0,.29-1.19,1.06,1.06,0,0,0-.32-.64,3.9,3.9,0,0,0-1.19-.64l-13-5.13a3.76,3.76,0,0,0-1.21-.35,1,1,0,0,0-.69.2,1.89,1.89,0,0,0-.52.82L35.28,164Z"/><path d="M49.76,123.55l2.63-4.46,20.06,3.82a5.06,5.06,0,0,0,2.14.1,2.57,2.57,0,0,0,1.1-1.22l3,1.75-5.54,9.39-3-1.75.32-.58a2.34,2.34,0,0,0,.43-1.23.77.77,0,0,0-.36-.63,6,6,0,0,0-1.3-.4l-2.3-.56-3.56,6,1.73,2a4.49,4.49,0,0,0,.77.76.77.77,0,0,0,.54.1,1.13,1.13,0,0,0,.61-.36,10.09,10.09,0,0,0,.85-1.3l3,1.75-4.53,7.68-3-1.75a3.48,3.48,0,0,0,.49-1.16,1.49,1.49,0,0,0-.08-.81,4.69,4.69,0,0,0-.74-1.1ZM60.94,131,63.27,127l-7-1.55Z"/><path d="M59.82,106l1.35-1.71.8.33,8-10.2-.48-.74L70.87,92l8.62,3.14-1,3.14a24.42,24.42,0,0,0-3.14-.6A7.21,7.21,0,0,0,72.5,98,3.14,3.14,0,0,0,71,99a.61.61,0,0,0-.17.55,1.82,1.82,0,0,0,.64.7L82.71,109A9.71,9.71,0,0,0,84,110a.94.94,0,0,0,1.11-.19,13.52,13.52,0,0,0,1.2-1.42L89,110.48l-7,8.84-2.7-2.13.42-.54a4,4,0,0,0,.77-1.23,1,1,0,0,0-.12-.71,4.79,4.79,0,0,0-1.15-1.11l-11.49-9a1.55,1.55,0,0,0-.7-.38.78.78,0,0,0-.48.34,3.62,3.62,0,0,0-.63,1.94,6.67,6.67,0,0,0,.37,2.69c.13.38.58,1.33,1.34,2.84l-2.78,1.66Z"/><path d="M75.6,88.08,83.43,80l2.47,2.39-.71.74a2.57,2.57,0,0,0-.7,1,1,1,0,0,0,.08.68,4.62,4.62,0,0,0,.91,1.07l9.89,9.58a5.3,5.3,0,0,0,1.12.92.77.77,0,0,0,.61,0,2.06,2.06,0,0,0,.87-.6l.85-.88,2.48,2.4-7.83,8.08L91,103l.64-.65a3.6,3.6,0,0,0,.78-1,1,1,0,0,0,0-.65,4.09,4.09,0,0,0-.85-1L81.6,90a5,5,0,0,0-1.19-1,1.08,1.08,0,0,0-.73,0,2.73,2.73,0,0,0-.89.71l-.72.74Z"/><path d="M95.74,68.48a11.64,11.64,0,0,1,9.15-2.86,12.93,12.93,0,0,1,8.5,5,14.24,14.24,0,0,1,3.09,6.19,11.14,11.14,0,0,1-.42,6.23A12.85,12.85,0,0,1,112,88.44a11.76,11.76,0,0,1-8.38,3,12.7,12.7,0,0,1-9.25-5A13,13,0,0,1,91.1,77,11.84,11.84,0,0,1,95.74,68.48Zm2.57,3a4.93,4.93,0,0,0-1.87,4.3,11.41,11.41,0,0,0,2.89,6.57,11,11,0,0,0,5.65,4,5.13,5.13,0,0,0,6.4-5.27,11.21,11.21,0,0,0-2.86-6.36,14.12,14.12,0,0,0-3.77-3.34,6.64,6.64,0,0,0-3.56-1A4.78,4.78,0,0,0,98.31,71.49Z"/><path d="M109.78,58.06l8-4.84,13.3,8.91-4.6-7.6a5.67,5.67,0,0,0-.84-1.16,1.18,1.18,0,0,0-.69-.28,2.33,2.33,0,0,0-1,.42l-1,.59-1.79-3,8.12-4.92,1.79,2.94-.9.55a2.29,2.29,0,0,0-.86.75,1,1,0,0,0-.12.7,4.79,4.79,0,0,0,.64,1.32l10,16.45-4,2.46L119,60.16l6.65,11a4.93,4.93,0,0,0,.83,1.14.94.94,0,0,0,.63.18,2.26,2.26,0,0,0,1-.42l.94-.57,1.78,3-8.14,4.94-1.79-3,.84-.51a2.81,2.81,0,0,0,.89-.71,1.14,1.14,0,0,0,.14-.7,2.75,2.75,0,0,0-.43-1.06l-7.4-12.2a3.36,3.36,0,0,0-.76-.94,1.17,1.17,0,0,0-.67-.24,1.89,1.89,0,0,0-.89.34l-1,.64Z"/><path d="M161.34,32.94l4.72,7.16-2.58,1.95a11.77,11.77,0,0,0-4.76-2.92,7,7,0,0,0-4.37.11,3.54,3.54,0,0,0-1.88,1.35,1.73,1.73,0,0,0-.29,1.58,2.24,2.24,0,0,0,1.25,1.28,6.39,6.39,0,0,0,3,.34l4.64-.2a10.88,10.88,0,0,1,6,1,6.87,6.87,0,0,1,3,3.65,7.22,7.22,0,0,1-.37,5.94,9.36,9.36,0,0,1-5.37,4.58,10.55,10.55,0,0,1-3.34.67,12.47,12.47,0,0,1-3.59-.5l-.07,1.92-2.31.84-4.84-8.51,2.63-1.81a11.59,11.59,0,0,0,4.87,3.46A7.61,7.61,0,0,0,163,55a5.31,5.31,0,0,0,1.81-1,2.63,2.63,0,0,0,.84-1.31,2.23,2.23,0,0,0,0-1.31,2.31,2.31,0,0,0-1.53-1.4,11,11,0,0,0-3.72-.26l-4,.18a17.64,17.64,0,0,1-2.57-.14,8.57,8.57,0,0,1-2.68-.67,6.3,6.3,0,0,1-2-1.48,7,7,0,0,1-1.4-2.31,6.84,6.84,0,0,1-.29-3.77,7.43,7.43,0,0,1,1.95-3.59,9.81,9.81,0,0,1,3.89-2.51,9.26,9.26,0,0,1,5.65-.27l.17-1.4Z"/><path d="M167.12,31l11.17-2.5.75,3.35-.84.19a2.52,2.52,0,0,0-1.07.4.54.54,0,0,0-.12.53,3.32,3.32,0,0,0,.82,1.24L182,38.78l2-6.23c.19-.54.29-.85.31-.91a1.33,1.33,0,0,0,0-.4.48.48,0,0,0-.28-.39,1.65,1.65,0,0,0-.89,0l-1.14.26-.76-3.36,9-2,.76,3.36a3.69,3.69,0,0,0-1.59.67,4.21,4.21,0,0,0-.84,1.59l-3.88,10.78,1,4.33a5.13,5.13,0,0,0,.47,1.46,1,1,0,0,0,.59.4,3.4,3.4,0,0,0,1.34-.13l.79-.18.75,3.36-11,2.46-.75-3.36.59-.13a4.22,4.22,0,0,0,1.45-.5,1.14,1.14,0,0,0,.37-.67,4.91,4.91,0,0,0-.19-1.61l-.85-3.8L171,35.33a4.29,4.29,0,0,0-1.56-1.17,4.08,4.08,0,0,0-1.57.15Z"/><path d="M211.19,23.74l2.74,8.13-3,1.22a11.93,11.93,0,0,0-3.87-4,7,7,0,0,0-4.25-1,3.6,3.6,0,0,0-2.17.82,1.78,1.78,0,0,0-.68,1.47,2.24,2.24,0,0,0,.89,1.54A6.3,6.3,0,0,0,203.66,33l4.53,1a10.86,10.86,0,0,1,5.51,2.54,6.78,6.78,0,0,1,2,4.28,7.2,7.2,0,0,1-1.86,5.66,9.34,9.34,0,0,1-6.35,3.06,10.61,10.61,0,0,1-3.41-.2,12,12,0,0,1-3.34-1.4l-.56,1.84-2.45.23-2.52-9.46,3-1.08A11.76,11.76,0,0,0,202,44a7.6,7.6,0,0,0,5.22,1.5,5.35,5.35,0,0,0,2-.53,2.6,2.6,0,0,0,1.14-1,2.18,2.18,0,0,0,.3-1.28,2.29,2.29,0,0,0-1.13-1.74,11,11,0,0,0-3.52-1.2l-4-.85a18.19,18.19,0,0,1-2.45-.79,8.76,8.76,0,0,1-2.43-1.32,6.52,6.52,0,0,1-1.51-1.93,7,7,0,0,1-.09-6.32,7.31,7.31,0,0,1,2.79-3,10,10,0,0,1,4.4-1.45,9.21,9.21,0,0,1,5.53,1.18l.53-1.31Z"/><path d="M220.17,22.55l2.18.07.2.85,13,.44.31-.83,2.19.08L240.59,32,237.48,33a25.56,25.56,0,0,0-1.37-2.89,7.27,7.27,0,0,0-2-2.12,3.07,3.07,0,0,0-1.68-.63.67.67,0,0,0-.55.19,1.92,1.92,0,0,0-.18.93l-.49,14.3a10.77,10.77,0,0,0,0,1.59,1,1,0,0,0,.27.51,1.06,1.06,0,0,0,.54.27,16.22,16.22,0,0,0,1.85.13l-.11,3.44-11.24-.39.12-3.44.68,0a4.5,4.5,0,0,0,1.45-.1,1.06,1.06,0,0,0,.5-.52,5.18,5.18,0,0,0,.22-1.59l.49-14.62a1.46,1.46,0,0,0-.1-.79.74.74,0,0,0-.56-.18,3.58,3.58,0,0,0-1.94.63,6.71,6.71,0,0,0-1.94,1.9,27.31,27.31,0,0,0-1.5,2.75l-3-1.26Z"/><path d="M244.7,24.53l19,3.2L265,35.92l-3.14.65a10.88,10.88,0,0,0-1.24-3.36,5,5,0,0,0-1.95-1.91,9.61,9.61,0,0,0-2.77-.85l-3.46-.59-1,6.12,1.15.2a5.13,5.13,0,0,0,1.76.09,1.28,1.28,0,0,0,.75-.53,4.92,4.92,0,0,0,.49-1.68l.15-.93,2.9.49L256.81,44l-2.9-.49.18-1.06a4,4,0,0,0,0-1.61,1.29,1.29,0,0,0-.53-.78,5.33,5.33,0,0,0-1.78-.48l-1-.18-.95,5.65a4.4,4.4,0,0,0-.11,1.1.62.62,0,0,0,.27.36,3.17,3.17,0,0,0,1,.27l1.91.32a8.79,8.79,0,0,0,3.71,0,7,7,0,0,0,3-1.7A10.79,10.79,0,0,0,262,42.15l2.79,1.61-4.52,8.62-19.65-3.31.57-3.4.57.1a4.19,4.19,0,0,0,1.56.08,1.06,1.06,0,0,0,.66-.52,8.32,8.32,0,0,0,.33-1.48l2.26-13.37a4.85,4.85,0,0,0,.1-1.45,1.13,1.13,0,0,0-.35-.57,2.81,2.81,0,0,0-1.13-.36l-1-.17Z"/><path d="M271.63,29.22l9.88,3.32-1,15.63,8.75-13,10.05,3.37-1.09,3.27-1.08-.37a1.64,1.64,0,0,0-1.35,0,2.58,2.58,0,0,0-.84,1.39l-4.49,13.39a4,4,0,0,0-.28,1.13.94.94,0,0,0,.24.6,1.88,1.88,0,0,0,.84.51l1.23.42-1.09,3.26-10.51-3.53L282,55.3l.81.27a3.42,3.42,0,0,0,1.26.26,1.11,1.11,0,0,0,.62-.31,3.54,3.54,0,0,0,.53-1.11l4.87-14.51L278.18,57.66l-3-1L276.36,36l-4.82,14.34a1.61,1.61,0,0,0-.09.81,1.1,1.1,0,0,0,.33.57,2.64,2.64,0,0,0,.93.47l1.05.36-1.09,3.26-9-3,1.1-3.26.88.3a3,3,0,0,0,1.2.22,1.05,1.05,0,0,0,.62-.35,3.9,3.9,0,0,0,.58-1.23l4.44-13.22a4.47,4.47,0,0,0,.29-1.22,1.18,1.18,0,0,0-.25-.69,2,2,0,0,0-.84-.47l-1.2-.4Z"/><path d="M316.2,46.57,325,52.15l-4.74,14.94,11.61-10.57,9,5.68L339,65.11l-1-.61a1.61,1.61,0,0,0-1.3-.34,2.56,2.56,0,0,0-1.15,1.15L328,77.23a4.39,4.39,0,0,0-.54,1,1,1,0,0,0,.08.65,1.89,1.89,0,0,0,.69.69l1.1.7-1.84,2.91-9.35-5.94L320,74.36l.72.46a3.37,3.37,0,0,0,1.16.55,1,1,0,0,0,.68-.15,3.22,3.22,0,0,0,.79-1l8.19-12.92-15.78,14.4L313.07,74l6.1-19.76-8.1,12.77a1.58,1.58,0,0,0-.29.77,1.13,1.13,0,0,0,.19.63,2.71,2.71,0,0,0,.79.69l.93.59-1.84,2.9-8-5.06,1.85-2.9.78.5a3,3,0,0,0,1.11.5,1,1,0,0,0,.69-.2,3.7,3.7,0,0,0,.86-1l7.47-11.77a4.52,4.52,0,0,0,.57-1.12,1.08,1.08,0,0,0-.07-.72,1.91,1.91,0,0,0-.71-.66l-1.06-.68Z"/><path d="M351.35,71.24l3.89,3.42-7.48,19a4.88,4.88,0,0,0-.5,2.08,2.58,2.58,0,0,0,1,1.32L346,99.64l-8.18-7.2,2.27-2.58.51.42a2.3,2.3,0,0,0,1.12.65.75.75,0,0,0,.69-.24,5.61,5.61,0,0,0,.64-1.2l1-2.15-5.27-4.63L336.43,84a4.4,4.4,0,0,0-.9.62.76.76,0,0,0-.19.51,1.12,1.12,0,0,0,.24.67,9.79,9.79,0,0,0,1.11,1.07l-2.27,2.59-6.7-5.88L330,81a3.66,3.66,0,0,0,1,.71,1.73,1.73,0,0,0,.81.07,4.68,4.68,0,0,0,1.22-.53ZM342,80.85l3.44,3,2.83-6.6Z"/><path d="M365.11,83.77l6.12,7.07-6.55,14.61,6.71-5.82a4.48,4.48,0,0,0,1-1,1.09,1.09,0,0,0,.16-.73A2.32,2.32,0,0,0,372,97l-.74-.85,2.61-2.25,6.21,7.18-2.6,2.25-.69-.8a2.51,2.51,0,0,0-.88-.72,1.08,1.08,0,0,0-.71,0,5,5,0,0,0-1.2.86l-14.54,12.59-3.1-3.58,8.26-18.47-9.7,8.4a4.77,4.77,0,0,0-1,1,1,1,0,0,0-.08.65,2.53,2.53,0,0,0,.59,1l.72.83-2.6,2.25-6.24-7.2,2.61-2.25.64.74a2.93,2.93,0,0,0,.85.75,1.1,1.1,0,0,0,.72,0,2.6,2.6,0,0,0,1-.6l10.79-9.34a3.17,3.17,0,0,0,.8-.91,1.12,1.12,0,0,0,.13-.69,2,2,0,0,0-.48-.82l-.81-.93Z"/><path d="M387.44,111.87l2.82,4.33-12.33,16.27a5,5,0,0,0-1,1.87,2.62,2.62,0,0,0,.59,1.54l-2.88,1.87-5.94-9.13,2.88-1.88.38.55a2.31,2.31,0,0,0,.91.92.73.73,0,0,0,.72,0,5.56,5.56,0,0,0,.94-1l1.52-1.81-3.82-5.87-2.58.64a4.73,4.73,0,0,0-1,.36.78.78,0,0,0-.33.44,1.16,1.16,0,0,0,.05.7,9.63,9.63,0,0,0,.79,1.34l-2.89,1.88-4.86-7.48,2.89-1.87a3.54,3.54,0,0,0,.81,1,1.57,1.57,0,0,0,.76.28,4.51,4.51,0,0,0,1.32-.17Zm-11.61,6.72,2.5,3.84,4.51-5.6Z"/><path d="M392.57,144.86l4.74,10.2-3.15,1.46-.36-.76a2.74,2.74,0,0,0-.62-1,1,1,0,0,0-.65-.19,3.74,3.74,0,0,0-1.27.42l-7.07,3.29-1.42-3.07,1.25-1.54a12.33,12.33,0,0,1-2.87-2.22,10.79,10.79,0,0,1-2-2.91,10.41,10.41,0,0,1-.92-5.9,11.58,11.58,0,0,1,2.47-5.68,14.6,14.6,0,0,1,5.41-4.18,14,14,0,0,1,6.57-1.41,11.45,11.45,0,0,1,5.89,1.86,10.91,10.91,0,0,1,4,4.57,11.5,11.5,0,0,1,.89,2.92,9,9,0,0,1,.08,2.82l1.26.08,1,2.1-6.59,5.36-2.26-2.3a22.41,22.41,0,0,0,2.32-3.78,6.56,6.56,0,0,0,.51-2.52,5.28,5.28,0,0,0-.45-2.3,5,5,0,0,0-2.13-2.24,6.5,6.5,0,0,0-3.5-.74,11.79,11.79,0,0,0-4.47,1.2,13.69,13.69,0,0,0-4.26,2.94,7.24,7.24,0,0,0-1.94,3.41,5.12,5.12,0,0,0,1.78,5.06,3.38,3.38,0,0,0,1.66.84,3.34,3.34,0,0,0,1.74-.37l.82-.39a3.53,3.53,0,0,0,1-.6,1.2,1.2,0,0,0,.26-.66,3,3,0,0,0-.36-1.16l-.55-1.18Z"/><path d="M409.23,154.2l5.57,18.41L408,177.4l-2-2.52a10.85,10.85,0,0,0,2.45-2.6,4.91,4.91,0,0,0,.85-2.6,9.84,9.84,0,0,0-.47-2.86l-1-3.36-5.93,1.8.33,1.1A5.21,5.21,0,0,0,403,168a1.25,1.25,0,0,0,.81.43,4.73,4.73,0,0,0,1.72-.31l.9-.27.86,2.81-10.09,3-.85-2.81,1-.31a3.9,3.9,0,0,0,1.45-.69,1.34,1.34,0,0,0,.47-.83,6,6,0,0,0-.36-1.8l-.31-1-5.47,1.66a4,4,0,0,0-1,.4.61.61,0,0,0-.2.39,3.23,3.23,0,0,0,.2,1l.56,1.85a8.82,8.82,0,0,0,1.7,3.3,7.21,7.21,0,0,0,2.84,1.92,11,11,0,0,0,3.93.68l-.2,3.21-9.73-.21-5.77-19.08,3.29-1,.17.55a4.3,4.3,0,0,0,.62,1.43,1,1,0,0,0,.76.36,7.8,7.8,0,0,0,1.47-.36l13-3.93a4.47,4.47,0,0,0,1.34-.55,1,1,0,0,0,.36-.56,2.72,2.72,0,0,0-.18-1.18l-.3-1Z"/><path d="M417,180.41l1.43,10.33-14.46,6,15.57,2,1.45,10.5-3.41.47-.15-1.13a1.67,1.67,0,0,0-.59-1.21,2.58,2.58,0,0,0-1.62-.13l-14,1.93a4,4,0,0,0-1.13.25,1,1,0,0,0-.44.48,1.81,1.81,0,0,0-.08,1l.18,1.29-3.41.47-1.52-11,3.41-.47.12.85a3.1,3.1,0,0,0,.33,1.23,1,1,0,0,0,.55.42,3.31,3.31,0,0,0,1.23,0l15.16-2.09-21.19-2.75-.43-3.16,19-8.1-15,2.06a1.57,1.57,0,0,0-.77.28,1.15,1.15,0,0,0-.36.55,2.54,2.54,0,0,0,0,1l.15,1.09-3.41.47-1.29-9.35,3.41-.47.12.92a2.92,2.92,0,0,0,.34,1.17,1,1,0,0,0,.59.4,3.91,3.91,0,0,0,1.36,0L412,183.9a3.82,3.82,0,0,0,1.22-.29,1.07,1.07,0,0,0,.51-.52,1.89,1.89,0,0,0,0-1l-.18-1.25Z"/><path d="M421,214.85l-.34,19.24-7.91,2.49-1.1-3a10.92,10.92,0,0,0,3.13-1.72,5,5,0,0,0,1.6-2.22,9.72,9.72,0,0,0,.43-2.86l.07-3.52-6.21-.1,0,1.15a4.87,4.87,0,0,0,.17,1.76,1.29,1.29,0,0,0,.63.67,5.27,5.27,0,0,0,1.74.23h.94l-.05,2.94-10.54-.18.06-2.94,1.07,0a4.07,4.07,0,0,0,1.6-.21A1.32,1.32,0,0,0,407,226a5.46,5.46,0,0,0,.21-1.83l0-1-5.72-.1a4.32,4.32,0,0,0-1.11.06.61.61,0,0,0-.31.32,3.23,3.23,0,0,0-.12,1l0,1.93a8.94,8.94,0,0,0,.61,3.66,7.05,7.05,0,0,0,2.12,2.69,11.18,11.18,0,0,0,3.53,1.86l-1.18,3-9.19-3.18.34-19.93,3.45.06v.58a4.09,4.09,0,0,0,.15,1.55,1,1,0,0,0,.61.58,8.29,8.29,0,0,0,1.51.1l13.56.24a4.71,4.71,0,0,0,1.44-.11,1.06,1.06,0,0,0,.52-.43,2.66,2.66,0,0,0,.19-1.17l0-1Z"/><path d="M420.23,241.8,418.8,251l-15.38,4.45,8.78,1.36a5.32,5.32,0,0,0,1.42.11,1.13,1.13,0,0,0,.66-.35,2.22,2.22,0,0,0,.34-1.05l.17-1.11,3.4.52-1.45,9.39-3.4-.53.16-1a2.43,2.43,0,0,0,0-1.14,1.07,1.07,0,0,0-.46-.54,5.25,5.25,0,0,0-1.43-.36l-19-2.94.72-4.69,19.43-5.64-12.67-2a4.87,4.87,0,0,0-1.41-.09,1,1,0,0,0-.55.36,2.51,2.51,0,0,0-.34,1.07l-.17,1.09-3.4-.53,1.46-9.42,3.4.53-.15,1a2.71,2.71,0,0,0,0,1.14,1,1,0,0,0,.44.56,2.72,2.72,0,0,0,1.08.35l14.1,2.18a3.18,3.18,0,0,0,1.22,0,1.12,1.12,0,0,0,.61-.36,1.77,1.77,0,0,0,.31-.89l.19-1.22Z"/><path d="M416,270.72l-.62,2.08h-.87l-3.71,12.44.73.5-.63,2.11-9.17.25-.24-3.28a25.72,25.72,0,0,0,3.14-.6,7.32,7.32,0,0,0,2.54-1.34,3,3,0,0,0,1-1.47.6.6,0,0,0,0-.58,1.85,1.85,0,0,0-.85-.41l-13.71-4.09A8.9,8.9,0,0,0,392,276a1,1,0,0,0-.57.13,1,1,0,0,0-.4.45,17.82,17.82,0,0,0-.59,1.76l-3.3-1,3.21-10.78,3.3,1-.19.65a4.26,4.26,0,0,0-.27,1.43,1,1,0,0,0,.38.61,4.65,4.65,0,0,0,1.48.62l14,4.18a1.35,1.35,0,0,0,.79.09c.13-.05.24-.21.32-.49a3.62,3.62,0,0,0-.12-2,6.62,6.62,0,0,0-1.34-2.37c-.26-.3-1-1-2.29-2.14l2-2.57Z"/><path class="cls-2" d="M176.3,130.84h20.39v6.4h-1.86a4.73,4.73,0,0,0-2.14.32,1.88,1.88,0,0,0-.78,1,8.78,8.78,0,0,0-.25,2.61v25.61a10.42,10.42,0,0,0,.21,2.69,1.48,1.48,0,0,0,.72.86,3.5,3.5,0,0,0,1.88.4h2.22v6.4H176.3v-6.4H178a6.24,6.24,0,0,0,2.32-.28,1.71,1.71,0,0,0,.79-.9,7.47,7.47,0,0,0,.26-2.44V141.39a9.87,9.87,0,0,0-.26-2.84,2,2,0,0,0-.85-1,4.74,4.74,0,0,0-2.05-.27H176.3Z"/><path class="cls-2" d="M232.56,130.84l3.59,15.53-5.6,1.75a22.06,22.06,0,0,0-6.31-8.13,12.48,12.48,0,0,0-7.5-2.58,6.42,6.42,0,0,0-4.05,1.16,3.3,3.3,0,0,0-1.48,2.59,4.27,4.27,0,0,0,1.35,3,11.38,11.38,0,0,0,4.85,2.49l8,2.59q6.67,2.13,9.52,5.65a12.9,12.9,0,0,1,2.81,8.27,13.55,13.55,0,0,1-4.31,10.16,16.71,16.71,0,0,1-12,4.58,18.91,18.91,0,0,1-6.11-.95,21.57,21.57,0,0,1-5.81-3.17l-1.32,3.32h-4.46l-3-18,5.6-1.49a21.79,21.79,0,0,0,6.15,9.14,13.64,13.64,0,0,0,9.18,3.67,9.49,9.49,0,0,0,3.72-.63,4.91,4.91,0,0,0,2.24-1.76,4.21,4.21,0,0,0,.74-2.32,4.31,4.31,0,0,0-1.73-3.42,20.09,20.09,0,0,0-6.17-2.82l-7-2.25a30.61,30.61,0,0,1-4.29-1.88,15.71,15.71,0,0,1-4.17-2.87,11.77,11.77,0,0,1-2.4-3.83,12.85,12.85,0,0,1-1-4.93,13,13,0,0,1,1.84-6.78,13.41,13.41,0,0,1,5.54-5,17.48,17.48,0,0,1,8.19-1.93,16.47,16.47,0,0,1,9.79,3.12l1.16-2.32Z"/><path class="cls-2" d="M263.93,130q9.94,0,16.09,6.71T286.18,154a27,27,0,0,1-2.82,12.54,20.46,20.46,0,0,1-7.77,8.45,22.84,22.84,0,0,1-12,3q-9.26,0-15.15-5.64-7.12-6.81-7.12-18.18,0-10.59,6.24-17.32T263.93,130Zm.12,7.37a8.81,8.81,0,0,0-7.57,4q-3.54,5-3.54,12.84t3.3,12.44a9.18,9.18,0,0,0,15,0q3.32-4.68,3.32-12.51a26.48,26.48,0,0,0-1.42-9.26,12.34,12.34,0,0,0-3.85-5.6A8.48,8.48,0,0,0,264.05,137.41Z"/><path class="cls-2" d="M143.79,212.45l-5,.49a14.75,14.75,0,0,1-.27-2.73,13.66,13.66,0,0,1,1.69-6.93,13,13,0,0,1,5.23-4.86,16.16,16.16,0,0,1,7.85-1.93,15.23,15.23,0,0,1,7.17,1.68,11.88,11.88,0,0,1,4.83,4.32,10.58,10.58,0,0,1,1.62,5.59,13.36,13.36,0,0,1-1.15,5.53,17.28,17.28,0,0,1-4.15,5.56A113.53,113.53,0,0,1,150,227.76h8.39a8.42,8.42,0,0,0,2.59-.23,2.11,2.11,0,0,0,.95-.93,7.39,7.39,0,0,0,.67-2.37l.2-1.28h4.84l-2.27,14.13H162l-.3-1.35h-23v-5.34a150.3,150.3,0,0,0,12.85-10.78,23.83,23.83,0,0,0,5.31-6.31,8.9,8.9,0,0,0,1-4.06,5.43,5.43,0,0,0-1.84-4.16,6.92,6.92,0,0,0-4.9-1.7,8.08,8.08,0,0,0-3.94.92,6.55,6.55,0,0,0-2.62,2.65,7.39,7.39,0,0,0-1,3.62A15.87,15.87,0,0,0,143.79,212.45Z"/><path class="cls-2" d="M175.55,196h3.29l.35,1.19h23.28v5.33a50,50,0,0,0-5.35,6.72,45.54,45.54,0,0,0-3.77,7.37,51,51,0,0,0-2.58,7.91,89.77,89.77,0,0,0-1.52,11.24h-9a54.85,54.85,0,0,1,2-11.39,46.92,46.92,0,0,1,4.57-9.85,52,52,0,0,1,6.63-9H182.16a8.93,8.93,0,0,0-2.84.28,2.26,2.26,0,0,0-1.07.88,10.1,10.1,0,0,0-.9,2.74l-.53,2.25-4.76-1.25Z"/><path class="cls-2" d="M220.76,196.49a14.05,14.05,0,0,1,8,2.26,15,15,0,0,1,5.25,6.47A26.37,26.37,0,0,1,235.9,216q0,7.35-1.74,11.33a15.5,15.5,0,0,1-5.33,6.81,14.28,14.28,0,0,1-8.25,2.29,13.93,13.93,0,0,1-8-2.23,14.91,14.91,0,0,1-5.2-6.58,33.12,33.12,0,0,1,0-22.17,15.21,15.21,0,0,1,5.31-6.61A14.09,14.09,0,0,1,220.76,196.49Zm6.49,20q0-7.56-2-11a5.37,5.37,0,0,0-4.72-2.95q-2.7,0-4.53,3.12t-1.83,10.79q0,7.66,1.84,10.77t4.64,3.1c1.88,0,3.46-1.06,4.72-3.18S227.25,221.46,227.25,216.46Z"/><path class="cls-2" d="M254.49,196.49a14.05,14.05,0,0,1,8,2.26,15,15,0,0,1,5.25,6.47A26.37,26.37,0,0,1,269.63,216q0,7.35-1.74,11.33a15.5,15.5,0,0,1-5.33,6.81,14.25,14.25,0,0,1-8.24,2.29,14,14,0,0,1-8-2.23,14.91,14.91,0,0,1-5.2-6.58,33.12,33.12,0,0,1,0-22.17,15.21,15.21,0,0,1,5.31-6.61A14.09,14.09,0,0,1,254.49,196.49Zm6.49,20q0-7.56-2-11a5.37,5.37,0,0,0-4.72-2.95c-1.8,0-3.3,1-4.53,3.12s-1.83,5.67-1.83,10.79.61,8.7,1.84,10.77,2.78,3.1,4.65,3.1,3.45-1.06,4.71-3.18S261,221.46,261,216.46Z"/><path class="cls-2" d="M293.41,196.49v30.25a9.91,9.91,0,0,0,.15,2.35,1.56,1.56,0,0,0,.8,1,5.09,5.09,0,0,0,2.11.29H300v5.37H278.49v-5.37H282a6.58,6.58,0,0,0,2.4-.26,1.67,1.67,0,0,0,.79-.86,7.55,7.55,0,0,0,.26-2.49V205.18h-7v-5.37a44,44,0,0,0,4.59-.69,47,47,0,0,0,5.09-1.44,17.2,17.2,0,0,0,2.8-1.19Z"/><path class="cls-2" d="M132.92,259.08h3.54l3.41,13.85-4.64,1.49a26,26,0,0,0-4.36-7,8.6,8.6,0,0,0-6.16-2.85,7.64,7.64,0,0,0-4.53,1.5,10,10,0,0,0-3.35,4.39,17.38,17.38,0,0,0-1.23,6.8,18.08,18.08,0,0,0,2.83,10.23,8.56,8.56,0,0,0,7.42,4.29,9.82,9.82,0,0,0,5.62-1.85,20.77,20.77,0,0,0,5.81-6.17l3.87,3.18q-3.77,5.7-6.88,7.94a18,18,0,0,1-10.73,3.45,15.83,15.83,0,0,1-8.88-2.61,18.49,18.49,0,0,1-6.35-7.31,22.5,22.5,0,0,1-2.37-10.26,21.92,21.92,0,0,1,2.31-10.08,17.77,17.77,0,0,1,6.28-7.09,17.1,17.1,0,0,1,17.57-.22Z"/><path class="cls-2" d="M166.44,287.42l3.42,3.81a20.39,20.39,0,0,1-6,5.41,13.57,13.57,0,0,1-6.6,1.67,12.46,12.46,0,0,1-9.58-4.27,14.82,14.82,0,0,1-3.89-10.33,15.27,15.27,0,0,1,1.75-7.28,12.91,12.91,0,0,1,4.84-5.17,13.25,13.25,0,0,1,7-1.87,12.44,12.44,0,0,1,4.54.8,10.68,10.68,0,0,1,3.58,2.3A11.34,11.34,0,0,1,168,276.1a17.32,17.32,0,0,1,1.28,4.38,30.35,30.35,0,0,1,.15,3.59H152.62a8.84,8.84,0,0,0,1.86,5.68,5.55,5.55,0,0,0,4.43,2.17,7.42,7.42,0,0,0,3.64-1.12A14.62,14.62,0,0,0,166.44,287.42Zm-5-8a6.79,6.79,0,0,0-.72-2.61,4.07,4.07,0,0,0-1.45-1.52,3.57,3.57,0,0,0-1.91-.57,3.87,3.87,0,0,0-2,.58,4.43,4.43,0,0,0-1.56,1.57,6.39,6.39,0,0,0-.77,2.55Z"/><path class="cls-2" d="M184.56,269.39v4a14.75,14.75,0,0,1,3.46-3.16,5.58,5.58,0,0,1,2.82-.85A4,4,0,0,1,193,270a4.36,4.36,0,0,1,1.53,1.79,5.67,5.67,0,0,1,.56,2.48,5.21,5.21,0,0,1-1,3.16,3.4,3.4,0,0,1-2.91,1.41,3.94,3.94,0,0,1-.89-.09,12.89,12.89,0,0,1-1.64-.55,3.38,3.38,0,0,0-1.07-.22,5.05,5.05,0,0,0-2.15.91v10.81a5.6,5.6,0,0,0,.18,1.8,1.21,1.21,0,0,0,.61.61,5.51,5.51,0,0,0,1.85.19h1.1v5.34h-15.4v-5.34H175a5.31,5.31,0,0,0,1.73-.16,1.13,1.13,0,0,0,.51-.58,5.89,5.89,0,0,0,.18-1.86V277h-3.7v-5.31a23.7,23.7,0,0,0,8.46-2.32Z"/><path class="cls-2" d="M208.23,260.57v9.49h8v5.88h-8v9.63a16.55,16.55,0,0,0,.32,4.18,2.69,2.69,0,0,0,1.16,1.48,4.49,4.49,0,0,0,2.57.75,8.68,8.68,0,0,0,5.11-1.85V296a18.59,18.59,0,0,1-3.93,1.59,14.82,14.82,0,0,1-3.8.46,12.06,12.06,0,0,1-4.11-.65,8.57,8.57,0,0,1-3-1.85,6.79,6.79,0,0,1-1.75-2.56,12.34,12.34,0,0,1-.48-3.93V275.94h-3.75v-5.3a9.81,9.81,0,0,0,3.42-2.06,10.22,10.22,0,0,0,2.28-3.22,15.8,15.8,0,0,0,1.19-4.79Z"/><path class="cls-2" d="M232.24,269.39v20.43a6.07,6.07,0,0,0,.15,1.8,1,1,0,0,0,.53.51,5.15,5.15,0,0,0,1.74.18H236v5.34H220.58v-5.34h1.33a5.59,5.59,0,0,0,1.66-.15,1,1,0,0,0,.53-.51,3.74,3.74,0,0,0,.18-1.44V277h-3.7v-5.2a27.91,27.91,0,0,0,3.78-.46,24.34,24.34,0,0,0,3.24-.86,14.33,14.33,0,0,0,2.26-1.11Zm-4.05-12.33a4.17,4.17,0,0,1,3.23,1.48,5.49,5.49,0,0,1,0,7.19,4.26,4.26,0,0,1-6.46,0,5.42,5.42,0,0,1,0-7.16A4.18,4.18,0,0,1,228.19,257.06Z"/><path class="cls-2" d="M254.74,270.06v5.83h-4v13.54a8.76,8.76,0,0,0,.12,2,1.28,1.28,0,0,0,.58.69,3.87,3.87,0,0,0,1.64.22h1.4v5.34H239.05v-5.34h1.22a5.67,5.67,0,0,0,1.82-.16,1,1,0,0,0,.49-.6,8,8,0,0,0,.16-2.12V275.89h-3.69v-5.83h3.69v-2.88a10.79,10.79,0,0,1,1-4.95,8.89,8.89,0,0,1,3.69-3.73,12.19,12.19,0,0,1,6.09-1.44,9,9,0,0,1,5.87,1.76,5,5,0,0,1,2.12,3.88,3.94,3.94,0,0,1-1,2.75,3.28,3.28,0,0,1-2.54,1.07,3.58,3.58,0,0,1-1.21-.21,4.08,4.08,0,0,1-1.11-.62,9.83,9.83,0,0,1-1.27-1.39,7.13,7.13,0,0,0-1.16-1.21,1.25,1.25,0,0,0-.7-.25,1.48,1.48,0,0,0-1.34.87,8,8,0,0,0-.49,3.47v2.88Z"/><path class="cls-2" d="M270,269.39v20.43a6.07,6.07,0,0,0,.15,1.8,1,1,0,0,0,.54.51,5.12,5.12,0,0,0,1.73.18h1.35v5.34H258.38v-5.34h1.32a5.5,5.5,0,0,0,1.66-.15,1,1,0,0,0,.54-.51,3.8,3.8,0,0,0,.17-1.44V277h-3.69v-5.2a27.91,27.91,0,0,0,3.78-.46,24.17,24.17,0,0,0,3.23-.86,14.37,14.37,0,0,0,2.27-1.11Zm-4-12.33a4.17,4.17,0,0,1,3.23,1.48,5.49,5.49,0,0,1,0,7.19,4.26,4.26,0,0,1-6.46,0,5.42,5.42,0,0,1,0-7.16A4.18,4.18,0,0,1,266,257.06Z"/><path class="cls-2" d="M299.27,287.42l3.42,3.81a20.39,20.39,0,0,1-6,5.41,13.6,13.6,0,0,1-6.6,1.67,12.46,12.46,0,0,1-9.58-4.27,14.82,14.82,0,0,1-3.89-10.33,15.27,15.27,0,0,1,1.75-7.28,12.91,12.91,0,0,1,4.84-5.17,13.25,13.25,0,0,1,7-1.87,12.47,12.47,0,0,1,4.54.8,10.78,10.78,0,0,1,3.58,2.3,11.51,11.51,0,0,1,2.47,3.61,17.32,17.32,0,0,1,1.28,4.38,30.35,30.35,0,0,1,.15,3.59H285.45a8.78,8.78,0,0,0,1.86,5.68,5.55,5.55,0,0,0,4.43,2.17,7.42,7.42,0,0,0,3.64-1.12A14.62,14.62,0,0,0,299.27,287.42Zm-5-8a6.63,6.63,0,0,0-.71-2.61,4.07,4.07,0,0,0-1.45-1.52,3.57,3.57,0,0,0-1.91-.57,3.87,3.87,0,0,0-2,.58,4.54,4.54,0,0,0-1.57,1.57,6.56,6.56,0,0,0-.76,2.55Z"/><path class="cls-2" d="M332.21,257.06v32.16a9.6,9.6,0,0,0,.15,2.3,1.08,1.08,0,0,0,.51.6,5.38,5.38,0,0,0,1.91.19H336v5.34l-10.83.41v-2.85a17.44,17.44,0,0,1-4.12,2.42,9.67,9.67,0,0,1-3.54.68,8.9,8.9,0,0,1-5.28-1.73,12.46,12.46,0,0,1-3.94-5.13,19.37,19.37,0,0,1,0-15.16,12.3,12.3,0,0,1,4.07-5.16,9.65,9.65,0,0,1,5.61-1.74,11,11,0,0,1,3.06.43,14.12,14.12,0,0,1,3.24,1.51v-6.58h-3.64v-5.34a34.89,34.89,0,0,0,5-.84,28.14,28.14,0,0,0,4.17-1.51Zm-8,32.68v-9.26A9.22,9.22,0,0,0,324,278a3.45,3.45,0,0,0-1.36-1.8,3.9,3.9,0,0,0-2.36-.77,4,4,0,0,0-2.5.9A5.87,5.87,0,0,0,316,279.1a13.55,13.55,0,0,0-.68,4.61,11.14,11.14,0,0,0,1.52,6.17,3.58,3.58,0,0,0,3.13,1.82,4.25,4.25,0,0,0,1.62-.31A18.52,18.52,0,0,0,324.24,289.74Z"/><rect class="cls-1" x="50.96" y="334.92" width="342.52" height="115.2"/><g id="Layer_2-2" data-name="Layer 2-2"><g id="_Group_" data-name=" Group "><g id="_Path_" data-name=" Path "><path class="cls-3" d="M285.69,420.68a36.07,36.07,0,0,1-9.05.09c-.53,0-.68-.46-.88-.82-1.9-3.37-3.79-6.74-5.77-10.11-1.53-2.71-3-5.44-4.59-8.15-.3-.52-.25-.75.3-1a21.1,21.1,0,0,0,4.78-2.82,7.69,7.69,0,0,0,2.21-9.26,6,6,0,0,0-4.66-3.47,12.43,12.43,0,0,0-3.7-.17c-.66.07-.91.32-.89,1v33.8c0,.75-.13,1.07-1,1.14a35.59,35.59,0,0,1-7,0c-.52,0-.69-.24-.65-.72a4,4,0,0,0,0-.49v-40c0-1.07,0-1.07,1-1.23a56.36,56.36,0,0,1,11.68-.5,19.51,19.51,0,0,1,9.3,2.6,11.12,11.12,0,0,1,5.52,8.9,13.25,13.25,0,0,1-2.77,9.86,12.22,12.22,0,0,1-3.45,3c-.57.35-.72.61-.33,1.28,3.22,5.5,6.37,11.05,9.54,16.57A1.33,1.33,0,0,1,285.69,420.68Z"/></g><g id="_Path_2" data-name=" Path 2"><path class="cls-3" d="M332.66,421.39a26.87,26.87,0,0,1-10.23-1.77c-.71-.26-.83-.57-.7-1.29a48.08,48.08,0,0,1,1.45-5.67c.18-.59.4-.67.95-.45a22.17,22.17,0,0,0,9.61,1.73,11,11,0,0,0,3.8-.82,4.65,4.65,0,0,0,3.07-3.94,5,5,0,0,0-2.13-5,19.47,19.47,0,0,0-4.25-1.95,44.51,44.51,0,0,1-6.43-2.77,9.53,9.53,0,0,1-5-8.31,12.9,12.9,0,0,1,1.44-7.44,11.55,11.55,0,0,1,8-5.47,28.72,28.72,0,0,1,15.44,1.36c.34.12.57.28.51.69a21.93,21.93,0,0,1-1.63,5.78c-.25.59-.65.24-1,.11a19.88,19.88,0,0,0-8.38-1.51,8.54,8.54,0,0,0-3.24.59c-2.89,1.17-2.89,5.18-1.45,6.72a7,7,0,0,0,2.4,1.64c2.8,1.21,5.77,2.16,8.47,3.47a10.57,10.57,0,0,1,6.38,10,13,13,0,0,1-2.88,9.34,14.74,14.74,0,0,1-8.17,4.56A24,24,0,0,1,332.66,421.39Z"/></g><g id="_Path_3" data-name=" Path 3"><path class="cls-3" d="M144.91,358.52l-2.78,3.3q-4.17,5-8.34,10.11c-.85,1-.84,1.05-2,.52A16.66,16.66,0,0,1,121.35,359a38.54,38.54,0,0,1,1.17-15.37c0-.09.09-.16.17-.33a14.46,14.46,0,0,0,4.78,9,23.75,23.75,0,0,0,9.89,4.85,41,41,0,0,0,6.49,1.21C144.14,358.33,144.43,358.42,144.91,358.52Z"/></g><g id="_Path_4" data-name=" Path 4"><path class="cls-3" d="M177,343.28a16.14,16.14,0,0,1,1,4.05,36.36,36.36,0,0,1,.62,8.83A18.77,18.77,0,0,1,174.9,367a17.41,17.41,0,0,1-7.67,5.51.65.65,0,0,1-.9-.23l-9.6-11.54-2-2.38c1.63-.26,3.11-.47,4.6-.74a33,33,0,0,0,8.66-2.74A15.43,15.43,0,0,0,177,343.28Z"/></g><g id="_Compound_Path_" data-name=" Compound Path "><path class="cls-3" d="M320.91,397.58a30,30,0,0,0-1.8-9,15.78,15.78,0,0,0-10.64-10.1,21.86,21.86,0,0,0-9.28-.48A15.41,15.41,0,0,0,287,386.62a28.71,28.71,0,0,0-2.72,13,30.3,30.3,0,0,0,1.76,10.8,16.06,16.06,0,0,0,9.88,10,21.81,21.81,0,0,0,8.57.94,16.69,16.69,0,0,0,6.21-1.45,16.28,16.28,0,0,0,8.77-10.23A32,32,0,0,0,320.91,397.58ZM310.27,409a8.23,8.23,0,0,1-10.61,4.77A8,8,0,0,1,298,413a9.37,9.37,0,0,1-3.68-5.78,32.65,32.65,0,0,1-.68-10.84,18.62,18.62,0,0,1,1.82-7c2.55-4.92,8.66-5.07,11.89-2.89a9.29,9.29,0,0,1,3.55,5.65,26.3,26.3,0,0,1,.81,7.44A24.48,24.48,0,0,1,310.27,409Z"/></g><g id="_Compound_Path_2" data-name=" Compound Path 2"><path class="cls-3" d="M252.47,389.75a12.44,12.44,0,0,0-5.69-9.44,17.5,17.5,0,0,0-8.81-2.48,82.58,82.58,0,0,0-12.28.35c-1.1.1-1.11,0-1.11,1.15v40.73c0,.36,0,.68.51.74a37.53,37.53,0,0,0,7.11.1c.72,0,1-.33,1-1.14V407.65c0-.36.18-.53.56-.48a24.88,24.88,0,0,0,7.84-.47,12.51,12.51,0,0,0,10.43-9A18.69,18.69,0,0,0,252.47,389.75Zm-9.1,5.78a6.49,6.49,0,0,1-6.19,4.54h-3.12c-.66,0-.91-.23-.89-.91V385.78c0-.56.14-.78.73-.85a12.34,12.34,0,0,1,5.4.41,6,6,0,0,1,3.91,3.81,10,10,0,0,1,.16,6.36Z"/></g><g id="_Path_5" data-name=" Path 5"><path class="cls-3" d="M103.05,392.06c-.13,4.59-.28,9.17-.41,13.74s-.27,9.5-.39,14.26c0,.51-.13.71-.66.8a20.92,20.92,0,0,1-6.32,0c-.56-.1-.56-.34-.56-.78q.58-14.44,1.12-29c.16-4,.35-7.93.48-11.9,0-.61.21-.8.82-.88a31.49,31.49,0,0,1,7.39,0,1.32,1.32,0,0,1,1.27,1.05q4.45,11.25,9,22.43l.26.63c.39-.12.39-.5.51-.77q4.62-11.16,9.18-22.33a1.45,1.45,0,0,1,1.31-1.06,26.76,26.76,0,0,1,6.81.09c.47,0,.65.19.68.69.23,5.47.51,10.93.77,16.4l1.12,23.8c.09,1.6.11,1.59-1.51,1.75a24.93,24.93,0,0,1-6-.13c-.49,0-.69-.21-.72-.77q-.37-10.86-.78-21.75c0-2-.16-3.91-.23-5.9-.37.16-.4.55-.53.85q-3.81,8.79-7.6,17.61a1.54,1.54,0,0,1-1.44,1.17,23.66,23.66,0,0,1-4.76,0,1.18,1.18,0,0,1-1.11-1Q107.19,402,103.6,393c-.13-.34-.26-.65-.41-1Z"/></g><g id="_Path_6" data-name=" Path 6"><path class="cls-3" d="M139.33,424.1a37.52,37.52,0,0,1,.89-5.26c1.67-8.82,3.24-17.66,4.64-26.52.7-4.33,1.45-8.8,2-13.21a1.3,1.3,0,0,0-.33-1.14c-1.53-1.81-3-3.71-4.46-5.55a3.69,3.69,0,0,1,0-5.05q2.69-3.76,5.51-7.34a5.06,5.06,0,0,1,.67-.72,2,2,0,0,1,2.8-.43,1.93,1.93,0,0,1,.54.6c2,2.57,4.05,5.19,6,7.83a3.84,3.84,0,0,1-.18,4.83L153,377.92a1.59,1.59,0,0,0-.36,1.34c.94,8.1,2.15,16.16,3.51,24.22,1,6.32,2.26,12.6,3.48,18.89a7.91,7.91,0,0,1-1.45,6.56c-1.83,2.41-3.72,4.76-5.77,7-.17.18-.36.37-.55.54a3,3,0,0,1-4.2.25,2.46,2.46,0,0,1-.43-.48c-1.23-1.34-2.41-2.74-3.58-4.14-.93-1.14-1.79-2.22-2.72-3.38A7.62,7.62,0,0,1,139.33,424.1Z"/></g><g id="_Path_7" data-name=" Path 7"><path class="cls-3" d="M172.14,394.44c.25-.29.36-.44.48-.59,3.3-4.39,8.34-5.14,13-3.42a8.25,8.25,0,0,1,5.24,6.76,23.22,23.22,0,0,1,.39,4.56v18.07c0,.75-.22,1-.94,1.08a27.89,27.89,0,0,1-6.71,0c-.62-.09-.78-.3-.78-.91V403.78a12.73,12.73,0,0,0-.49-4.21,3.58,3.58,0,0,0-3.44-2.56,5.41,5.41,0,0,0-5.94,4.83v0a19.34,19.34,0,0,0-.24,3.48v14.43c0,.83-.27,1.06-1,1.13a26.14,26.14,0,0,1-6.73,0c-.49,0-.69-.2-.69-.76V391c0-.54.17-.75.66-.83a18.44,18.44,0,0,1,5.55,0,1,1,0,0,1,.92.84C171.77,392.08,171.88,393.17,172.14,394.44Z"/></g><g id="_Path_8" data-name=" Path 8"><path class="cls-3" d="M256.65,427.27h90.92c.71-.12.77.27.79.85s-.26.79-.8.72H165.82c-.61,0-.94,0-.94-.8s.38-.77,1-.77Z"/></g><g id="_Path_9" data-name=" Path 9"><path class="cls-3" d="M310.53,436.85c.81-1.29,1.56-2.47,2.25-3.67a1.31,1.31,0,0,1,1.56-.68c.7.18.71.76.71,1.33v6.73a.94.94,0,0,1-1,1.07,1,1,0,0,1-1-1,.66.66,0,0,1,0-.14V436.4a3.31,3.31,0,0,0-.9,1.17c-1.44,2.37-1.89,2.41-3.33,0a3.55,3.55,0,0,0-.87-1v3.71c0,.93-.31,1.44-.93,1.44s-1-.48-1-1.44V434c0-.61,0-1.23.69-1.45a1.35,1.35,0,0,1,1.68.81C309.05,434.5,309.77,435.65,310.53,436.85Z"/></g><g id="_Path_10" data-name=" Path 10"><path class="cls-3" d="M280.05,437.72V434a2.05,2.05,0,0,1,.13-.95.89.89,0,0,1,1-.55.86.86,0,0,1,.8.74c0,.22,0,.45,0,.68v6.25c0,.59,0,1.19-.7,1.44s-1.15-.2-1.54-.72c-1-1.35-2-2.69-3.07-4-.19-.24-.31-.56-.75-.72v4.68a.9.9,0,0,1-.88.88,1,1,0,0,1-1-.84,1.35,1.35,0,0,1,0-.49v-6.55c0-.55.08-1.07.67-1.26a1.37,1.37,0,0,1,1.58.49l3.06,4c.19.25.39.48.59.71Z"/></g><g id="_Path_11" data-name=" Path 11"><path class="cls-3" d="M323.57,436.16v3.89a3.39,3.39,0,0,1,0,.78,1,1,0,0,1-1.07.8h0a.86.86,0,0,1-.85-.88V433.4a.85.85,0,0,1,.62-.88,1.42,1.42,0,0,1,1.57.48l3.08,4a2.66,2.66,0,0,0,.77.83v-4.33a1,1,0,0,1,.73-1.14,1,1,0,0,1,1.2.62,1.14,1.14,0,0,1,0,.37v7.13a1,1,0,0,1-.68,1,1.09,1.09,0,0,1-1.31-.39c-.6-.73-1.16-1.44-1.74-2.23L323.77,436Z"/></g><g id="_Path_12" data-name=" Path 12"><path class="cls-3" d="M183.56,437.09v-3.21c0-1.07.35-1.33,1.36-1.33h4.33c.65,0,1.15.21,1.17.88s-.48.92-1.13.91h-3.13c-.75,0-.67.42-.64.86s-.2,1,.64,1,1.7,0,2.54,0,1.14.25,1.14.92-.55.9-1.17.9h-2.54c-.85,0-.59.58-.61,1s-.16.93.62.89h3.12c1,0,1.26.35,1.21.94s-.56.86-1.17.86h-4.48c-1,0-1.3-.33-1.32-1.44S183.56,438.09,183.56,437.09Z"/></g><g id="_Path_13" data-name=" Path 13"><path class="cls-3" d="M233.56,437v-3.21c0-1.09.36-1.28,1.31-1.28h4.33c.81,0,1.29.35,1.23.91a1,1,0,0,1-1.19.87h-2.33c-1.53,0-1.45-.19-1.45.88s-.08.91,1.45.92h1.76c.57,0,1.14.25,1.12.94s-.55.88-1.17.88H236.1c-.84,0-.64.55-.64,1s-.16,1,.61.91,1.82,0,2.73,0h.69a.88.88,0,0,1,.95.91c0,.6-.39.87-.95.88h-4.88c-.78,0-1.05-.53-1.05-1.24Z"/></g><g id="_Path_14" data-name=" Path 14"><path class="cls-3" d="M181.39,437.09v3.32c0,.77-.39,1.2-1,1.2s-1-.46-1-1.21,0-1.3,0-1.95c0-.42-.12-.56-.55-.55h-2.63c-.37,0-.53.13-.52.51v2a1,1,0,0,1-.84,1.13h-.11a1,1,0,0,1-1-1.14v-6.93c0-.77.4-1.17,1-1.13a1,1,0,0,1,.95,1.12v1.94c0,.65.16.57.58.57h2.63c.39,0,.49-.16.49-.52v-2.05a.92.92,0,0,1,.81-1h.2c.68,0,1,.44,1,1.09Z"/></g><g id="_Path_15" data-name=" Path 15"><path class="cls-3" d="M253.48,441.68a5.67,5.67,0,0,1-3-.88c-.63-.4-.84-1-.48-1.44a1,1,0,0,1,1.35-.24l.1.08a3.55,3.55,0,0,0,2.37.72c.51,0,1-.18,1.08-.78s-.39-.78-.82-.92c-.71-.24-1.45-.4-2.14-.65a2.37,2.37,0,0,1-1.83-2.65,2.63,2.63,0,0,1,2.18-2.42,4.94,4.94,0,0,1,3.66.58,1,1,0,0,1,.58,1.22l-.07.15a.93.93,0,0,1-1.27.38.71.71,0,0,1-.18-.12,3.73,3.73,0,0,0-1.84-.55c-.49,0-1,.11-1.13.71s.38.8.81.94,1.25.36,1.86.58c1.66.56,2.34,1.44,2.12,2.88a2.88,2.88,0,0,1-2.88,2.4Z"/></g><g id="_Path_16" data-name=" Path 16"><path class="cls-3" d="M345,441.67a5.58,5.58,0,0,1-3.06-.81c-.75-.45-1-1-.61-1.44s.84-.56,1.55-.13a3.6,3.6,0,0,0,2.29.68c.49,0,1-.13,1.09-.75s-.37-.81-.8-1c-.71-.24-1.44-.4-2.13-.65a2.32,2.32,0,0,1-1.84-2.69,2.57,2.57,0,0,1,2.15-2.43,5.11,5.11,0,0,1,3.67.56c.52.29.82.68.55,1.27s-.83.68-1.45.39a3.8,3.8,0,0,0-1.74-.56c-.52,0-1.1,0-1.23.69s.41.83.88,1,1.24.37,1.86.57c1.56.55,2.2,1.44,2,2.8a2.77,2.77,0,0,1-2.7,2.48Z"/></g><g id="_Path_17" data-name=" Path 17"><path class="cls-3" d="M245.45,441.7a5.61,5.61,0,0,1-3.2-1,1,1,0,0,1-.38-1.44.9.9,0,0,1,1.22-.35.76.76,0,0,1,.23.18,4.08,4.08,0,0,0,2.26.76c.55,0,1.11-.09,1.26-.71s-.42-.88-.91-1-1.45-.4-2.14-.66a2.37,2.37,0,0,1-1.86-2.47,2.63,2.63,0,0,1,2-2.47,4.87,4.87,0,0,1,3.85.54,1,1,0,0,1,.56,1.22,1,1,0,0,1-.07.15,1,1,0,0,1-1.27.38l-.17-.12a3.67,3.67,0,0,0-1.73-.49c-.48,0-1,0-1.1.72s.37.79.81.94c.65.21,1.31.37,2,.59a2.44,2.44,0,0,1,2,2.81s0,.05,0,.08a2.71,2.71,0,0,1-2.51,2.29C246,441.68,245.67,441.68,245.45,441.7Z"/></g><g id="_Path_18" data-name=" Path 18"><path class="cls-3" d="M225.1,437v-3.32c0-.85.35-1.19,1.18-1.19H231c.73,0,1.14.38,1.09,1a1,1,0,0,1-1.09.85h-3.13c-.59,0-.79.14-.76.76,0,1.45-.12,1.14,1.2,1.17h2.1c.62,0,1,.29,1.06.91s-.41.91-1,.91H228c-.81,0-1,.26-.94,1a8.66,8.66,0,0,1,0,1.44c0,.74-.44,1.21-1,1.16a1,1,0,0,1-1-1s0-.07,0-.11Z"/></g><g id="_Path_19" data-name=" Path 19"><path class="cls-3" d="M167.48,437.72V435c0-.54-.17-.71-.66-.67a5.46,5.46,0,0,1-1,0c-.82,0-1.25-.36-1.19-.95a1,1,0,0,1,1.18-.89h5.47a.88.88,0,0,1,1,.77.54.54,0,0,1,0,.18.85.85,0,0,1-.83.87h-.24c-.54,0-1.25-.24-1.6.13s-.13,1.17-.14,1.78v4.11c0,.84-.36,1.3-1,1.3s-1-.46-1-1.3Z"/></g><g id="_Path_20" data-name=" Path 20"><path class="cls-3" d="M296.11,436.36v2.89c0,.41.13.56.57.54h2.81c.81,0,1.26.36,1.21.94a1,1,0,0,1-1.17.9h-4.18c-.91,0-1.24-.33-1.24-1.24v-6.63c0-.84.37-1.26,1-1.24s1,.42,1,1.28S296.11,435.48,296.11,436.36Z"/></g><g id="_Path_21" data-name=" Path 21"><path class="cls-3" d="M260.69,437v3.42c0,.68-.23,1.16-.95,1.23s-1-.45-1-1.24v-6.74c0-.82.41-1.27,1.06-1.21s.95.56.93,1.22Z"/></g><g id="_Path_22" data-name=" Path 22"><path class="cls-3" d="M319.31,437.09v3.41c0,.74-.43,1.23-1,1.16a1,1,0,0,1-.95-1.06v-7c0-.77.39-1.17,1-1.13a1,1,0,0,1,.95,1.11C319.29,434.73,319.31,435.9,319.31,437.09Z"/></g><g id="_Compound_Path_3" data-name=" Compound Path 3"><path class="cls-3" d="M221,398.7V378.58c0-.71-.19-.94-.91-1a32.42,32.42,0,0,0-6.23,0c-1.45.15-1.2.09-1.2,1.38v10.45c0,.62-.12.78-.77.63a16.23,16.23,0,0,0-4.56-.29,14.3,14.3,0,0,0-10.75,5.15c-4.33,5.29-4.87,11.35-2.76,17.59,1.92,5.84,6.68,8.32,12.5,8.84a38.79,38.79,0,0,0,13.73-1.3c.79-.21,1-.54,1-1.32C221,412,221,405.34,221,398.7Zm-9,15.59a12.35,12.35,0,0,1-6-.19,6.48,6.48,0,0,1-4.47-5.64,14.66,14.66,0,0,1,.4-6.84,7.37,7.37,0,0,1,8.8-5.39c1.91.29,1.91.29,1.91,2.23v14.88C212.69,414,212.51,414.19,212,414.29Z"/></g><g id="_Compound_Path_4" data-name=" Compound Path 4"><path class="cls-3" d="M267.48,432.33a4.69,4.69,0,0,0-4.86,4.52.53.53,0,0,0,0,.13,4.59,4.59,0,0,0,4.46,4.72h.29a4.69,4.69,0,1,0,.62-9.36A4.13,4.13,0,0,0,267.48,432.33Zm-.1,7.55a2.75,2.75,0,0,1-2.66-2.85v0a2.67,2.67,0,0,1,2.54-2.77h.2a2.89,2.89,0,0,1-.08,5.67Z"/></g><g id="_Compound_Path_5" data-name=" Compound Path 5"><path class="cls-3" d="M218.62,432.33a4.67,4.67,0,0,0-4.9,4.44c0,.11,0,.22,0,.32a4.59,4.59,0,0,0,4.52,4.67h.19a4.69,4.69,0,1,0,.68-9.36,3.85,3.85,0,0,0-.48,0Zm0,7.55a2.89,2.89,0,0,1-2.77-2.89,2.74,2.74,0,0,1,2.59-2.88h.12a2.7,2.7,0,0,1,2.75,2.65,1.77,1.77,0,0,1,0,.23,2.74,2.74,0,0,1-2.59,2.89h-.09Z"/></g><g id="_Compound_Path_6" data-name=" Compound Path 6"><path class="cls-3" d="M210.9,438.75c-.25-.28-.33-.46,0-.73a3,3,0,0,0,1.22-3.49,2.88,2.88,0,0,0-2.88-2h-3.42c-.87,0-1.16.3-1.17,1.18s0,2.21,0,3.31h0v3.61a1,1,0,0,0,.86,1h.08a1,1,0,0,0,1-1,.06.06,0,0,0,0-.06v-1.45c0-.17,0-.43.24-.43.66,0,1.34-.2,1.81.56a15.77,15.77,0,0,0,1.58,2,1,1,0,0,0,1.37.23l.07-.06a.88.88,0,0,0,.19-1.25l-.1-.12A4.16,4.16,0,0,0,210.9,438.75Zm-1.72-1.92a7.62,7.62,0,0,1-1.17,0c-1.26,0-1.26,0-1.26-1.28a1.27,1.27,0,0,0,0-.39c-.14-.79.22-1,1-.94a13.25,13.25,0,0,1,1.54.09,1.19,1.19,0,0,1,1,1.31,1.15,1.15,0,0,1-1.1,1.21Z"/></g><g id="_Compound_Path_7" data-name=" Compound Path 7"><path class="cls-3" d="M336.63,432.65a10.05,10.05,0,0,0-2.12-.16h-1.37c-1,0-1.35.32-1.35,1.33v6.52c0,.88.29,1.2,1.16,1.21a25.36,25.36,0,0,0,3,0,4.48,4.48,0,0,0,.66-8.84Zm-1.29,7.09c-1.57,0-1.57,0-1.57-1.58v-3.3c0-.41.13-.61.56-.57a9.13,9.13,0,0,0,1.17,0,2.64,2.64,0,0,1,2.57,2.69,1.34,1.34,0,0,1,0,.2,2.56,2.56,0,0,1-2.55,2.56Z"/></g><g id="_Compound_Path_8" data-name=" Compound Path 8"><path class="cls-3" d="M200.07,432.5h-2.64c-.88,0-1.28.28-1.3,1.28s0,2.15,0,3.21h0v3.71a.9.9,0,0,0,.85.94h.08a1,1,0,0,0,1-.89v-.05a3.91,3.91,0,0,0,0-1.08c0-.56.11-.84.74-.78a6.93,6.93,0,0,0,1.44,0,3.17,3.17,0,0,0-.2-6.34Zm-1,4.59c-.92,0-.92,0-.92-1.44s-.18-1.33.94-1.33c1.44,0,2.16.41,2.19,1.35S200.61,437.09,199.06,437.09Z"/></g><g id="_Compound_Path_9" data-name=" Compound Path 9"><path class="cls-3" d="M292.45,440.28c-1.06-2.39-2.12-4.8-3.21-7.21a1.2,1.2,0,0,0-1.25-.74,1.36,1.36,0,0,0-1.19.88c-1,2.33-2.05,4.64-3.07,6.94a1,1,0,0,0,.43,1.45.88.88,0,0,0,1.19-.37.85.85,0,0,0,.1-.28c.3-1.33,1.15-1.55,2.29-1.44a2.91,2.91,0,0,0,.59,0c1.13-.16,2.05,0,2.28,1.35a1.12,1.12,0,0,0,.39.56.86.86,0,0,0,1,.11.94.94,0,0,0,.51-.94A1.55,1.55,0,0,0,292.45,440.28Zm-5.62-2.58c.38-.91.75-1.79,1.22-2.89.46,1.09.8,1.95,1.21,2.89Z"/></g></g></g></svg>