<svg width="153" height="157" viewBox="0 0 153 157" fill="none" xmlns="http://www.w3.org/2000/svg">
<path d="M75.6004 11.3L83.4004 4.30005L89.5004 12.8L98.6004 7.60005L102.8 17.1L112.7 13.9L114.9 24.1L125.3 23V33.4001L135.7 34.5L133.5 44.7001L143.4 47.9001L139.1 57.5L148.2 62.7001L142 71.1L149.8 78.1L142 85.1L148.2 93.5L139.1 98.7L143.4 108.3L133.5 111.5L135.7 121.7L125.3 122.8V133.2L114.9 132.1L112.7 142.4L102.8 139.1L98.6004 148.7L89.5004 143.4L83.4004 151.9L75.6004 144.9L67.9004 151.9L61.8004 143.4L52.7004 148.7L48.5004 139.1L38.5004 142.4L36.4004 132.1L26.0004 133.2V122.8L15.6004 121.7L17.8004 111.5L7.90039 108.3L12.1004 98.7L3.10039 93.5L9.20039 85.1L1.40039 78.1L9.20039 71.1L3.10039 62.7001L12.1004 57.5L7.90039 47.9001L17.8004 44.7001L15.6004 34.5L26.0004 33.4001V23L36.4004 24.1L38.5004 13.9L48.5004 17.1L52.7004 7.60005L61.8004 12.8L67.9004 4.30005L75.6004 11.3Z" fill="#2D3091"/>
<path d="M39.8008 35.3L41.1008 34.5L43.5008 36.5L42.9008 33.4L44.2008 32.6L46.6008 36.5L45.7008 37L43.9008 34L44.7008 37.6L44.0008 38.1L41.2008 35.7L43.0008 38.7L42.1008 39.2L39.8008 35.3Z" fill="white"/>
<path d="M46.001 31.7001L46.901 31.2001L48.901 35.3001L48.001 35.8001L46.001 31.7001Z" fill="white"/>
<path d="M48.8008 30.3001L50.1008 29.8001L53.1008 32.0001L51.9008 29.1001L52.8008 28.7001L54.5008 32.9001L53.3008 33.4001L50.2008 31.2001L51.4008 34.2001L50.5008 34.6001L48.8008 30.3001Z" fill="white"/>
<path d="M55.2006 30.2C55.1006 29.9 55.1006 29.5 55.1006 29.2C55.1006 28.9 55.2006 28.6 55.4006 28.3C55.5006 28 55.8006 27.8 56.0006 27.6C56.3006 27.4 56.6006 27.3 56.9006 27.2C57.2006 27.1 57.6006 27.1 57.9006 27.1C58.2006 27.1 58.5006 27.2 58.8006 27.3C59.1006 27.4 59.3006 27.6 59.5006 27.9C59.7006 28.1 59.9006 28.4 60.0006 28.8C60.1006 29.1 60.1006 29.5 60.1006 29.8C60.1006 30.1 60.0006 30.4 59.8006 30.7C59.7006 31 59.4006 31.2 59.2006 31.4C58.9006 31.6 58.6006 31.7 58.3006 31.8C58.0006 31.9 57.6006 31.9 57.3006 31.9C57.0006 31.9 56.7006 31.8 56.4006 31.7C56.1006 31.6 55.9006 31.4 55.7006 31.1C55.5006 30.8 55.4006 30.5 55.2006 30.2ZM56.2006 29.9C56.3006 30.1 56.4006 30.3 56.5006 30.4C56.6006 30.6 56.8006 30.7 56.9006 30.8C57.1006 30.9 57.2006 30.9 57.4006 31C57.6006 31 57.8006 31 58.0006 30.9C58.2006 30.8 58.4006 30.7 58.5006 30.6C58.6006 30.5 58.8006 30.3 58.8006 30.2C59.0006 30 59.0006 29.8 59.0006 29.7C59.0006 29.5 59.0006 29.3 58.9006 29.1C58.8006 28.9 58.8006 28.7 58.6006 28.6C58.5006 28.4 58.3006 28.3 58.2006 28.2C58.0006 28.1 57.9006 28.1 57.7006 28C57.5006 28 57.3006 28 57.1006 28.1C56.9006 28.2 56.7006 28.3 56.6006 28.4C56.5006 28.5 56.3006 28.7 56.3006 28.8C56.2006 29 56.2006 29.1 56.2006 29.3C56.2006 29.5 56.2006 29.7 56.2006 29.9Z" fill="white"/>
<path d="M61.1006 26.1L62.8006 25.7C63.0006 25.7 63.2006 25.6 63.5006 25.6C63.7006 25.6 63.9006 25.6 64.1006 25.7C64.3006 25.8 64.4006 25.9 64.6006 26C64.7006 26.2 64.8006 26.4 64.9006 26.6C65.0006 26.9 64.9006 27.2 64.8006 27.5C64.7006 27.8 64.5006 27.9 64.2006 28.1L65.7006 29.7L64.5006 29.9L63.2006 28.3L62.7006 28.4L63.1006 30.2L62.1006 30.4L61.1006 26.1ZM62.5006 27.8L63.1006 27.7C63.2006 27.7 63.3006 27.7 63.4006 27.6C63.5006 27.6 63.6006 27.5 63.7006 27.5C63.8006 27.5 63.8006 27.4 63.9006 27.3C63.9006 27.2 63.9006 27.1 63.9006 27C63.9006 26.9 63.8006 26.8 63.8006 26.7C63.7006 26.6 63.7006 26.6 63.6006 26.6C63.5006 26.6 63.4006 26.6 63.3006 26.6C63.2006 26.6 63.1006 26.6 63.0006 26.6L62.4006 26.7L62.5006 27.8Z" fill="white"/>
<path d="M66.3008 25.2L67.3008 25.1L67.9008 29.6L66.9008 29.7L66.3008 25.2Z" fill="white"/>
<path d="M70.2004 25.6L69.0004 25.7L68.9004 24.8L72.5004 24.5L72.6004 25.4L71.3004 25.5L71.6004 29.2L70.6004 29.3L70.2004 25.6Z" fill="white"/>
<path d="M75.3006 27L73.6006 24.4H74.8006L75.8006 26.1L76.8006 24.4H78.0006L76.3006 27V28.9H75.3006V27Z" fill="white"/>
<path d="M79.8012 27.9L78.2012 27.8V27L79.8012 27.1V27.9Z" fill="white"/>
<path d="M81.2012 26.9001C81.2012 26.5001 81.3012 26.2001 81.5012 25.9001C81.7012 25.6001 81.9012 25.4001 82.1012 25.2001C82.3012 25.0001 82.6012 24.9001 82.9012 24.8001C83.2012 24.7001 83.5012 24.7001 83.9012 24.7001C84.3012 24.7001 84.6012 24.8001 84.9012 25.0001C85.2012 25.1001 85.4012 25.3001 85.6012 25.6001C85.8012 25.8001 85.9012 26.1001 86.0012 26.4001C86.1012 26.7001 86.1012 27.0001 86.1012 27.4001C86.1012 27.8001 86.0012 28.1001 85.8012 28.4001C85.6012 28.7001 85.4012 28.9001 85.2012 29.1001C85.0012 29.3001 84.7012 29.4001 84.4012 29.5001C84.1012 29.6001 83.8012 29.6001 83.4012 29.6001C83.0012 29.6001 82.7012 29.5001 82.4012 29.3001C82.1012 29.2001 81.9012 29.0001 81.7012 28.7001C81.5012 28.5001 81.4012 28.2001 81.3012 27.9001C81.2012 27.6001 81.2012 27.2001 81.2012 26.9001ZM82.2012 27.0001C82.2012 27.2001 82.2012 27.4001 82.2012 27.6001C82.2012 27.8001 82.3012 27.9001 82.4012 28.1001C82.5012 28.2001 82.6012 28.4001 82.8012 28.5001C83.0012 28.6001 83.2012 28.7001 83.4012 28.7001C83.6012 28.7001 83.8012 28.7001 84.0012 28.7001C84.2012 28.6001 84.3012 28.6001 84.5012 28.4001C84.6012 28.3001 84.8012 28.1001 84.8012 28.0001C84.9012 27.8001 84.9012 27.6001 85.0012 27.4001C85.0012 27.2001 85.0012 27.0001 85.0012 26.8001C85.0012 26.6001 84.9012 26.4001 84.8012 26.3001C84.7012 26.2001 84.6012 26.0001 84.4012 25.9001C84.2012 25.8001 84.0012 25.7001 83.8012 25.7001C83.6012 25.7001 83.4012 25.7001 83.2012 25.7001C83.0012 25.8001 82.9012 25.8001 82.7012 26.0001C82.6012 26.1001 82.4012 26.3001 82.4012 26.4001C82.3012 26.6001 82.3012 26.8001 82.2012 27.0001Z" fill="white"/>
<path d="M87.8008 25.4L88.9008 25.6L89.0008 28.6L90.6008 26L91.5008 26.2L91.8008 29.3L93.2008 26.5L94.2008 26.7L91.9008 30.8L91.0008 30.6L90.7008 27.3L89.0008 30.3L88.2008 30.1L87.8008 25.4Z" fill="white"/>
<path d="M95.8008 27.3L97.1008 27.7001L97.9008 31.3L98.9008 28.3L99.8008 28.6L98.4008 33L97.2008 32.6L96.4008 28.9L95.2008 32L94.3008 31.7001L95.8008 27.3Z" fill="white"/>
<path d="M101.8 29.5L104.6 30.8L104.2 31.6L102.3 30.7L102 31.5L103.8 32.3L103.4 33.1L101.6 32.3L101.2 33.1L103.2 34L102.8 34.8L99.9004 33.5L101.8 29.5Z" fill="white"/>
<path d="M106.601 31.7001L107.901 32.4001C108.201 32.6001 108.501 32.8001 108.701 33.0001C108.901 33.2001 109.101 33.5001 109.301 33.8001C109.401 34.1001 109.501 34.4001 109.501 34.7001C109.501 35.0001 109.401 35.4001 109.201 35.7001C109.001 36.0001 108.801 36.3001 108.501 36.5001C108.201 36.7001 108.001 36.8001 107.701 36.8001C107.401 36.9001 107.101 36.8001 106.801 36.8001C106.501 36.7001 106.201 36.6001 105.901 36.5001L104.501 35.7001L106.601 31.7001ZM105.701 35.4001L106.201 35.7001C106.401 35.8001 106.601 35.9001 106.801 36.0001C107.001 36.1001 107.201 36.1001 107.401 36.0001C107.601 36.0001 107.801 35.9001 107.901 35.8001C108.101 35.7001 108.201 35.5001 108.301 35.3001C108.401 35.1001 108.501 34.9001 108.501 34.7001C108.501 34.5001 108.501 34.3001 108.401 34.2001C108.301 34.1001 108.201 33.9001 108.101 33.7001C108.001 33.6001 107.801 33.4001 107.601 33.3001L107.001 33.0001L105.701 35.4001Z" fill="white"/>
<path d="M24.9004 57H36.4004L44.4004 79.6H44.5004L52.5004 57H64.0004V91.6H56.4004V65.1H56.3004L47.2004 91.6H41.4004L32.7004 65.1H32.6004V91.6H25.0004V57H24.9004Z" fill="white"/>
<path d="M71 57H83.9C85.4 57 86.9 57.1 88.4 57.3C89.9 57.5 91.3 57.9 92.5 58.6C93.7 59.2 94.7 60.1 95.4 61.3C96.1 62.4 96.5 64 96.5 65.8C96.5 67.8 96 69.4 94.9 70.7C93.8 72 92.4 72.9 90.6 73.5V73.6C91.7 73.8 92.8 74.1 93.7 74.6C94.6 75.1 95.4 75.7 96.1 76.4C96.8 77.1 97.3 78 97.6 79C98 80 98.1 81 98.1 82.1C98.1 83.9 97.7 85.4 96.9 86.7C96.1 87.9 95.1 88.9 93.9 89.7C92.7 90.4 91.3 91 89.7 91.3C88.2 91.6 86.6 91.8 85.1 91.8H71V57ZM78.6 70.9H84.1C84.7 70.9 85.3 70.8 85.8 70.7C86.4 70.6 86.9 70.4 87.3 70.1C87.8 69.8 88.1 69.4 88.4 68.9C88.7 68.4 88.8 67.8 88.8 67.1C88.8 66.4 88.6 65.8 88.3 65.3C88 64.8 87.6 64.5 87.1 64.2C86.6 63.9 86.1 63.8 85.4 63.6C84.8 63.5 84.2 63.4 83.6 63.4H78.4V70.9H78.6ZM78.6 85.2H85.4C86 85.2 86.6 85.1 87.2 85C87.8 84.9 88.3 84.6 88.8 84.3C89.3 84 89.7 83.6 90 83C90.3 82.5 90.5 81.8 90.5 81.1C90.5 80.3 90.3 79.6 89.9 79.1C89.5 78.6 89 78.2 88.4 78C87.8 77.7 87.1 77.6 86.4 77.5C85.7 77.4 85 77.4 84.4 77.4H78.6V85.2Z" fill="white"/>
<path d="M102.901 57H126.401V64H110.501V70.4H125.501V77.4H110.501V84.4H127.201V91.4H102.801V57H102.901Z" fill="white"/>
<path d="M38.7006 114.5L40.0006 115.6C40.2006 115.7 40.3006 115.9 40.4006 116C40.5006 116.1 40.6006 116.3 40.7006 116.5C40.8006 116.7 40.8006 116.8 40.8006 117C40.8006 117.2 40.7006 117.4 40.5006 117.6C40.3006 117.8 40.1006 117.9 39.9006 118C39.7006 118 39.5006 118 39.2006 117.9C39.3006 118 39.4006 118.1 39.4006 118.3C39.5006 118.4 39.5006 118.6 39.5006 118.7C39.5006 118.8 39.5006 119 39.4006 119.1C39.4006 119.2 39.3006 119.4 39.2006 119.5C39.0006 119.7 38.9006 119.8 38.7006 119.9C38.5006 120 38.3006 120 38.1006 119.9C37.9006 119.9 37.7006 119.8 37.5006 119.7C37.3006 119.6 37.1006 119.5 37.0006 119.4L35.6006 118.2L38.7006 114.5ZM37.1006 118L37.8006 118.6C37.9006 118.6 37.9006 118.7 38.0006 118.7C38.1006 118.7 38.1006 118.8 38.2006 118.8C38.3006 118.8 38.4006 118.8 38.4006 118.8C38.5006 118.8 38.5006 118.7 38.6006 118.6C38.7006 118.5 38.7006 118.4 38.7006 118.3C38.7006 118.2 38.7006 118.1 38.6006 118.1C38.6006 118 38.5006 117.9 38.4006 117.9C38.3006 117.8 38.3006 117.8 38.2006 117.7L37.6006 117.2L37.1006 118ZM38.3006 116.6L38.9006 117.1C39.0006 117.1 39.0006 117.2 39.1006 117.2C39.2006 117.2 39.2006 117.3 39.3006 117.3C39.4006 117.3 39.4006 117.3 39.5006 117.3C39.6006 117.3 39.6006 117.2 39.7006 117.2C39.8006 117.1 39.8006 117.1 39.8006 117C39.8006 116.9 39.8006 116.9 39.8006 116.8C39.8006 116.7 39.7006 116.7 39.7006 116.6C39.6006 116.5 39.6006 116.5 39.5006 116.4L39.0006 116L38.3006 116.6Z" fill="white"/>
<path d="M44.1006 122.1C43.9006 122.3 43.8006 122.5 43.6006 122.6C43.4006 122.7 43.2006 122.8 43.0006 122.9C42.8006 122.9 42.5006 122.9 42.3006 122.9C42.0006 122.8 41.8006 122.7 41.5006 122.5C41.2006 122.3 41.0006 122.1 40.9006 121.9C40.8006 121.7 40.7006 121.5 40.6006 121.2C40.6006 121 40.6006 120.7 40.6006 120.5C40.7006 120.3 40.8006 120 40.9006 119.8L42.5006 117.5L43.3006 118.1L41.7006 120.4C41.6006 120.5 41.6006 120.6 41.5006 120.8C41.5006 120.9 41.5006 121 41.5006 121.2C41.5006 121.3 41.6006 121.4 41.6006 121.5C41.7006 121.6 41.8006 121.7 41.9006 121.8C42.0006 121.9 42.1006 121.9 42.2006 121.9C42.3006 121.9 42.4006 121.9 42.6006 121.9C42.7006 121.9 42.8006 121.8 42.9006 121.7C43.0006 121.6 43.1006 121.5 43.2006 121.4L44.8006 119.1L45.6006 119.7L44.1006 122.1Z" fill="white"/>
<path d="M48.5008 122.7C48.5008 122.6 48.4008 122.5 48.3008 122.3C48.2008 122.2 48.1008 122.1 48.0008 122C47.9008 122 47.9008 121.9 47.8008 121.9C47.7008 121.9 47.6008 121.9 47.6008 121.9C47.5008 121.9 47.5008 121.9 47.4008 121.9C47.3008 121.9 47.3008 122 47.2008 122.1C47.1008 122.2 47.1008 122.3 47.2008 122.5C47.3008 122.6 47.3008 122.7 47.4008 122.9C47.5008 123 47.6008 123.1 47.8008 123.3C47.9008 123.4 48.0008 123.6 48.1008 123.7C48.2008 123.9 48.2008 124 48.3008 124.2C48.3008 124.4 48.3008 124.6 48.1008 124.8C48.0008 125 47.8008 125.2 47.7008 125.3C47.5008 125.4 47.3008 125.5 47.1008 125.5C46.9008 125.5 46.7008 125.5 46.5008 125.5C46.3008 125.4 46.1008 125.4 45.9008 125.3C45.6008 125.2 45.4008 125 45.2008 124.8C45.0008 124.6 44.9008 124.4 44.8008 124.1L45.8008 123.8C45.8008 124 45.9008 124.1 46.0008 124.3C46.1008 124.4 46.2008 124.6 46.4008 124.6C46.5008 124.6 46.5008 124.7 46.6008 124.7C46.7008 124.7 46.8008 124.7 46.8008 124.7C46.9008 124.7 46.9008 124.7 47.0008 124.6C47.1008 124.6 47.1008 124.5 47.2008 124.4C47.3008 124.3 47.3008 124.2 47.2008 124C47.1008 123.9 47.1008 123.8 47.0008 123.6C46.9008 123.5 46.8008 123.3 46.6008 123.2C46.5008 123.1 46.4008 122.9 46.3008 122.8C46.2008 122.6 46.2008 122.5 46.1008 122.3C46.1008 122.1 46.1008 121.9 46.3008 121.7C46.4008 121.5 46.6008 121.3 46.7008 121.2C46.9008 121.1 47.1008 121 47.3008 121C47.5008 121 47.7008 121 47.9008 121C48.1008 121 48.3008 121.1 48.5008 121.2C48.7008 121.3 48.9008 121.5 49.1008 121.7C49.3008 121.9 49.4008 122.1 49.5008 122.3L48.5008 122.7Z" fill="white"/>
<path d="M51.001 122.8L51.901 123.2L49.901 127.3L49.001 126.9L51.001 122.8Z" fill="white"/>
<path d="M53.5008 123.9L54.8008 124.4L55.5008 128L56.6008 125.1L57.5008 125.5L55.8008 129.7L54.6008 129.2L53.9008 125.5L52.7008 128.5L51.8008 128.1L53.5008 123.9Z" fill="white"/>
<path d="M59.1002 126L62.1002 126.8L61.8002 127.7L59.8002 127.1L59.6002 127.9L61.5002 128.4L61.2002 129.3L59.3002 128.8L59.0002 129.7L61.1002 130.3L60.8002 131.2L57.7002 130.3L59.1002 126Z" fill="white"/>
<path d="M65.701 128.7C65.601 128.6 65.501 128.5 65.401 128.4C65.301 128.3 65.101 128.3 65.001 128.3C64.901 128.3 64.901 128.3 64.801 128.3C64.701 128.3 64.601 128.3 64.601 128.3C64.501 128.3 64.501 128.4 64.401 128.4C64.301 128.5 64.301 128.5 64.301 128.6C64.301 128.7 64.301 128.8 64.401 128.9C64.501 129 64.601 129.1 64.701 129.2C64.801 129.3 65.001 129.4 65.201 129.4C65.401 129.5 65.501 129.6 65.701 129.7C65.801 129.8 65.901 130 66.001 130.1C66.101 130.3 66.101 130.5 66.001 130.8C66.001 131 65.901 131.3 65.701 131.4C65.601 131.6 65.401 131.7 65.201 131.8C65.001 131.9 64.801 131.9 64.601 132C64.401 132 64.201 132 63.901 132C63.601 131.9 63.301 131.8 63.101 131.7C62.901 131.6 62.701 131.4 62.501 131.1L63.401 130.5C63.501 130.7 63.601 130.8 63.701 130.9C63.801 131 64.001 131.1 64.201 131.1C64.301 131.1 64.401 131.1 64.401 131.1C64.501 131.1 64.601 131.1 64.601 131.1C64.701 131.1 64.701 131 64.801 131C64.901 130.9 64.901 130.9 64.901 130.8C64.901 130.7 64.901 130.5 64.801 130.5C64.701 130.4 64.601 130.3 64.501 130.2C64.401 130.1 64.201 130 64.001 129.9C63.801 129.8 63.701 129.7 63.501 129.6C63.401 129.5 63.301 129.3 63.201 129.2C63.101 129 63.101 128.8 63.201 128.6C63.201 128.4 63.301 128.2 63.501 128C63.601 127.8 63.801 127.7 64.001 127.6C64.201 127.5 64.401 127.5 64.601 127.4C64.801 127.4 65.001 127.4 65.301 127.4C65.601 127.5 65.801 127.5 66.001 127.7C66.201 127.8 66.401 128 66.601 128.2L65.701 128.7Z" fill="white"/>
<path d="M70.2008 129.4C70.1008 129.3 70.0008 129.2 69.9008 129.1C69.8008 129 69.6008 129 69.5008 129C69.4008 129 69.4008 129 69.3008 129C69.2008 129 69.1008 129 69.1008 129.1C69.0008 129.1 69.0008 129.2 68.9008 129.2C68.9008 129.3 68.8008 129.3 68.8008 129.4C68.8008 129.5 68.8008 129.6 68.9008 129.7C69.0008 129.8 69.1008 129.9 69.3008 129.9C69.4008 130 69.6008 130 69.8008 130.1C70.0008 130.2 70.1008 130.3 70.3008 130.4C70.4008 130.5 70.6008 130.7 70.6008 130.8C70.7008 131 70.7008 131.2 70.7008 131.5C70.7008 131.8 70.6008 132 70.5008 132.1C70.4008 132.3 70.2008 132.4 70.1008 132.5C69.9008 132.6 69.7008 132.7 69.5008 132.7C69.3008 132.7 69.1008 132.7 68.8008 132.7C68.5008 132.7 68.2008 132.6 68.0008 132.5C67.8008 132.4 67.5008 132.2 67.3008 132L68.1008 131.3C68.2008 131.4 68.3008 131.6 68.4008 131.7C68.5008 131.8 68.7008 131.8 68.9008 131.9C69.0008 131.9 69.1008 131.9 69.1008 131.9C69.2008 131.9 69.3008 131.9 69.3008 131.8C69.4008 131.8 69.4008 131.7 69.5008 131.7C69.5008 131.6 69.6008 131.6 69.6008 131.5C69.6008 131.4 69.6008 131.3 69.5008 131.2C69.4008 131.1 69.3008 131 69.1008 131C68.9008 130.9 68.8008 130.9 68.6008 130.8C68.4008 130.7 68.3008 130.6 68.1008 130.5C67.9008 130.4 67.8008 130.2 67.8008 130.1C67.7008 129.9 67.7008 129.7 67.7008 129.5C67.7008 129.3 67.8008 129.1 67.9008 128.9C68.0008 128.7 68.2008 128.6 68.3008 128.5C68.5008 128.4 68.7008 128.3 68.9008 128.3C69.1008 128.3 69.3008 128.3 69.6008 128.3C69.9008 128.3 70.1008 128.4 70.3008 128.5C70.5008 128.6 70.7008 128.7 70.9008 128.9L70.2008 129.4Z" fill="white"/>
<path d="M75.3008 128.6H78.4008V129.5H76.3008V130.3H78.3008V131.2H76.3008V132.1H78.5008V133H75.3008V128.6Z" fill="white"/>
<path d="M80.001 128.5L81.401 128.4L83.701 131.3L83.401 128.2L84.401 128.1L84.901 132.6L83.601 132.7L81.301 129.7L81.601 132.9L80.601 133L80.001 128.5Z" fill="white"/>
<path d="M87.001 128.5L85.701 128.8L85.501 127.9L89.001 127.2L89.201 128.1L87.901 128.4L88.601 132L87.601 132.2L87.001 128.5Z" fill="white"/>
<path d="M90.4004 126.8L93.4004 126L93.7004 126.9L91.7004 127.5L91.9004 128.3L93.8004 127.8L94.1004 128.7L92.2004 129.2L92.5004 130.1L94.6004 129.5L94.9004 130.4L91.8004 131.3L90.4004 126.8Z" fill="white"/>
<path d="M94.9004 125.5L96.5004 124.9C96.7004 124.8 96.9004 124.8 97.1004 124.7C97.3004 124.7 97.5004 124.7 97.7004 124.7C97.9004 124.7 98.0004 124.8 98.2004 125C98.3004 125.1 98.5004 125.3 98.6004 125.6C98.7004 125.9 98.7004 126.2 98.7004 126.5C98.6004 126.8 98.4004 127 98.2004 127.2L100 128.6L98.9004 129L97.4004 127.6L96.9004 127.8L97.5004 129.5L96.6004 129.9L94.9004 125.5ZM96.5004 126.9L97.1004 126.7C97.2004 126.7 97.3004 126.6 97.4004 126.6C97.5004 126.6 97.6004 126.5 97.6004 126.4C97.7004 126.3 97.7004 126.3 97.7004 126.2C97.7004 126.1 97.7004 126 97.7004 125.9C97.7004 125.8 97.6004 125.7 97.5004 125.7C97.4004 125.7 97.4004 125.6 97.3004 125.6C97.2004 125.6 97.1004 125.6 97.0004 125.6C96.9004 125.6 96.8004 125.6 96.7004 125.7L96.1004 125.9L96.5004 126.9Z" fill="white"/>
<path d="M99.501 123.7L101.001 123C101.201 122.9 101.401 122.8 101.601 122.8C101.801 122.7 102.001 122.7 102.201 122.8C102.401 122.8 102.601 122.9 102.701 123C102.901 123.1 103.001 123.3 103.101 123.5C103.201 123.7 103.301 124 103.301 124.2C103.301 124.4 103.301 124.6 103.201 124.7C103.101 124.9 103.001 125 102.801 125.1C102.601 125.2 102.401 125.3 102.201 125.4L101.501 125.7L102.301 127.3L101.401 127.7L99.501 123.7ZM101.201 125L101.801 124.7C101.901 124.7 102.001 124.6 102.001 124.6C102.101 124.5 102.101 124.5 102.201 124.4C102.201 124.3 102.301 124.3 102.301 124.2C102.301 124.1 102.301 124 102.201 123.9C102.201 123.8 102.101 123.7 102.001 123.7C101.901 123.7 101.801 123.6 101.701 123.6C101.601 123.6 101.501 123.6 101.401 123.7C101.301 123.7 101.201 123.8 101.101 123.8L100.601 124L101.201 125Z" fill="white"/>
<path d="M103.801 121.5L105.301 120.6C105.501 120.5 105.701 120.4 105.901 120.3C106.101 120.2 106.301 120.2 106.501 120.2C106.701 120.2 106.901 120.3 107.001 120.4C107.201 120.5 107.301 120.7 107.501 120.9C107.701 121.2 107.701 121.5 107.701 121.7C107.701 122 107.501 122.2 107.301 122.4L109.301 123.5L108.301 124.1L106.601 123L106.201 123.3L107.101 124.9L106.201 125.4L103.801 121.5ZM105.601 122.7L106.101 122.4C106.201 122.4 106.301 122.3 106.301 122.2C106.401 122.1 106.501 122.1 106.501 122C106.601 121.9 106.601 121.9 106.601 121.8C106.601 121.7 106.601 121.6 106.501 121.5C106.401 121.4 106.401 121.3 106.301 121.3C106.201 121.3 106.101 121.3 106.101 121.3C106.001 121.3 105.901 121.3 105.801 121.4C105.701 121.4 105.601 121.5 105.601 121.5L105.001 121.8L105.601 122.7Z" fill="white"/>
<path d="M108.001 119L108.801 118.4L111.401 122.2L110.601 122.8L108.001 119Z" fill="white"/>
<path d="M112.7 116.9C112.6 116.9 112.4 116.9 112.3 116.9C112.2 116.9 112 117 111.9 117.1C111.8 117.1 111.8 117.2 111.7 117.3C111.6 117.4 111.6 117.4 111.6 117.5C111.6 117.6 111.6 117.6 111.6 117.7C111.6 117.8 111.6 117.8 111.7 117.9C111.8 118 111.9 118.1 112 118.1C112.1 118.1 112.3 118.1 112.4 118C112.6 117.9 112.7 117.9 112.9 117.8C113.1 117.7 113.3 117.7 113.4 117.7C113.6 117.7 113.8 117.7 113.9 117.8C114.1 117.9 114.2 118 114.4 118.2C114.6 118.4 114.7 118.6 114.7 118.8C114.7 119 114.7 119.2 114.7 119.4C114.6 119.6 114.6 119.8 114.4 120C114.3 120.2 114.1 120.3 113.9 120.5C113.7 120.7 113.4 120.8 113.2 120.9C112.9 121 112.7 121 112.4 121L112.5 119.9C112.7 119.9 112.8 119.9 113 119.9C113.2 119.9 113.3 119.8 113.5 119.7C113.6 119.7 113.6 119.6 113.7 119.5C113.8 119.4 113.8 119.4 113.8 119.3C113.8 119.2 113.8 119.2 113.8 119.1C113.8 119 113.8 119 113.7 118.9C113.6 118.8 113.5 118.7 113.4 118.7C113.3 118.7 113.1 118.7 113 118.8C112.8 118.9 112.7 118.9 112.5 119C112.3 119.1 112.1 119.1 112 119.1C111.8 119.1 111.6 119.1 111.5 119C111.3 118.9 111.2 118.8 111 118.6C110.8 118.4 110.8 118.2 110.7 118C110.7 117.8 110.7 117.6 110.7 117.4C110.8 117.2 110.8 117 111 116.8C111.1 116.6 111.3 116.5 111.5 116.3C111.7 116.1 111.9 116 112.2 115.9C112.4 115.8 112.7 115.8 112.9 115.8L112.7 116.9Z" fill="white"/>
<path d="M113.7 114.6L116 112.5L116.6 113.2L115.1 114.6L115.7 115.2L117.2 113.9L117.8 114.6L116.3 115.9L116.9 116.6L118.5 115.1L119.1 115.8L116.7 118L113.7 114.6Z" fill="white"/>
<path d="M30.1 96.9C29.9 96.6 29.6 96.3 29.2 96.2C28.8 96 28.5 96 28.1 96C27.7 96 27.2 96.1 26.9 96.3C26.5 96.5 26.2 96.7 25.9 97C25.6 97.3 25.4 97.7 25.3 98.1C25.1 98.5 25.1 98.9 25.1 99.4C25.1 99.9 25.2 100.3 25.3 100.7C25.5 101.1 25.7 101.5 25.9 101.8C26.2 102.1 26.5 102.3 26.9 102.5C27.3 102.7 27.7 102.8 28.1 102.8C28.6 102.8 29 102.7 29.4 102.5C29.8 102.3 30.1 102 30.4 101.7L31.1 102.3C30.7 102.8 30.3 103.1 29.8 103.4C29.3 103.6 28.7 103.7 28.1 103.7C27.5 103.7 27 103.6 26.5 103.4C26 103.2 25.6 102.9 25.2 102.5C24.8 102.1 24.5 101.7 24.3 101.2C24.1 100.7 24 100.1 24 99.5C24 98.9 24.1 98.4 24.3 97.8C24.5 97.3 24.8 96.8 25.1 96.5C25.5 96.1 25.9 95.8 26.4 95.6C26.9 95.4 27.4 95.3 28 95.3C28.5 95.3 29.1 95.4 29.6 95.6C30.1 95.8 30.5 96.1 30.9 96.6L30.1 96.9Z" fill="white"/>
<path d="M38.6 95.3H43.6V96.2H39.5V98.7H43.3V99.6H39.5V102.5H43.8V103.4H38.5V95.3H38.6Z" fill="white"/>
<path d="M51.5 95.3H53.6C54 95.3 54.4 95.3 54.8 95.4C55.2 95.4 55.5 95.5 55.8 95.7C56.1 95.9 56.3 96.1 56.5 96.4C56.7 96.7 56.8 97.1 56.8 97.6C56.8 98.2 56.6 98.7 56.3 99C55.9 99.4 55.5 99.6 54.8 99.7L57.1 103.4H55.9L53.7 99.8H52.5V103.4H51.5V95.3V95.3ZM52.4 98.8H53.3C53.6 98.8 53.8 98.8 54.1 98.8C54.4 98.8 54.6 98.7 54.9 98.7C55.1 98.6 55.3 98.5 55.5 98.3C55.7 98.1 55.7 97.9 55.7 97.5C55.7 97.2 55.6 97 55.5 96.8C55.4 96.6 55.2 96.5 55.1 96.4C54.9 96.3 54.7 96.2 54.5 96.2C54.3 96.2 54 96.2 53.8 96.2H52.5V98.8H52.4Z" fill="white"/>
<path d="M69.6998 96.1001H66.9998V103.2H65.9998V96.1001H63.2998V95.2001H69.5998V96.1001H69.6998Z" fill="white"/>
<path d="M76.9004 95.3H77.9004V103.3H76.9004V95.3Z" fill="white"/>
<path d="M86 95.3H91V96.2H87V98.9H90.7V99.8H87V103.4H86V95.3Z" fill="white"/>
<path d="M98.4004 95.3H99.4004V103.3H98.4004V95.3Z" fill="white"/>
<path d="M107.5 95.3H112.5V96.2H108.4V98.7H112.2V99.6H108.4V102.5H112.7V103.4H107.4V95.3H107.5Z" fill="white"/>
<path d="M120.2 95.3H123.3C123.6 95.3 123.8 95.3 124.1 95.4C124.4 95.5 124.7 95.6 125 95.7C125.3 95.8 125.6 96 125.8 96.2C126.1 96.4 126.3 96.7 126.5 97C126.7 97.3 126.9 97.6 127 98C127.1 98.4 127.2 98.8 127.2 99.3C127.2 99.8 127.1 100.2 127 100.6C126.9 101 126.7 101.3 126.5 101.6C126.3 101.9 126.1 102.2 125.8 102.4C125.5 102.6 125.3 102.8 125 102.9C124.7 103 124.4 103.1 124.1 103.2C123.8 103.3 123.5 103.3 123.3 103.3H120.2V95.3ZM121.2 102.4H123C123.5 102.4 123.9 102.3 124.3 102.2C124.7 102.1 125 101.9 125.3 101.6C125.6 101.3 125.8 101 126 100.6C126.2 100.2 126.2 99.7 126.2 99.2C126.2 98.6 126.1 98.2 126 97.8C125.8 97.4 125.6 97.1 125.3 96.8C125 96.5 124.7 96.4 124.3 96.2C123.9 96.1 123.5 96 123 96H121.2V102.4Z" fill="white"/>
</svg>
