<?xml version="1.0" encoding="utf-8"?>
<!-- Generator: Adobe Illustrator 24.1.2, SVG Export Plug-In . SVG Version: 6.00 Build 0)  -->
<svg version="1.1" id="Layer_1" xmlns="http://www.w3.org/2000/svg" xmlns:xlink="http://www.w3.org/1999/xlink" x="0px" y="0px"
	 viewBox="0 0 777.13 238.41" style="enable-background:new 0 0 777.13 238.41;" xml:space="preserve">
<style type="text/css">
	.st0{fill:#2D3091;}
	.st1{fill:#00ACED;}
	.st2{fill:#FFFFFF;}
</style>
<g>
	<g>
		<path class="st0" d="M161.32,1.23c4.21-0.36,8.46-0.66,12.76-0.89c4.3-0.23,8.64-0.34,13.03-0.34c4.57,0,9.21,0.46,13.92,1.37
			C205.75,2.29,210,4,213.8,6.52c3.79,2.52,6.88,6.01,9.26,10.49c2.38,4.48,3.57,10.29,3.57,17.42c0,7.13-1.19,12.92-3.57,17.35
			c-2.38,4.44-5.44,7.94-9.19,10.49c-3.75,2.56-7.94,4.3-12.55,5.21c-4.62,0.92-9.17,1.37-13.65,1.37c-1.19,0-2.31-0.02-3.36-0.07
			c-1.05-0.05-2.04-0.11-2.95-0.21v31.69c-1.74,0.27-3.43,0.46-5.08,0.55c-1.65,0.09-3.25,0.14-4.8,0.14c-1.46,0-3.07-0.05-4.8-0.14
			c-1.74-0.09-3.52-0.27-5.35-0.55V1.23z M181.35,51.99c1.1,0.18,2.13,0.28,3.09,0.28c0.96,0,2.13,0,3.5,0
			c2.29,0,4.53-0.3,6.72-0.89c2.19-0.59,4.14-1.58,5.83-2.95c1.69-1.37,3.04-3.18,4.05-5.42c1.01-2.24,1.51-5.01,1.51-8.3
			c0-3.38-0.5-6.24-1.51-8.57c-1.01-2.33-2.36-4.21-4.05-5.62c-1.69-1.42-3.64-2.42-5.83-3.02c-2.19-0.59-4.44-0.89-6.72-0.89
			c-1.01,0-1.94,0.02-2.81,0.07c-0.87,0.05-2.13,0.16-3.77,0.34V51.99z"/>
		<path class="st0" d="M275.32,53.64c0-2.2-0.37-3.98-1.1-5.35c-0.73-1.37-1.74-2.45-3.02-3.22c-1.28-0.78-2.86-1.3-4.73-1.58
			c-1.88-0.27-3.96-0.41-6.24-0.41c-4.94,0-10.2,0.96-15.78,2.88c-1.28-2.38-2.24-4.62-2.88-6.72c-0.64-2.1-0.96-4.62-0.96-7.55
			c4.02-1.37,8.05-2.38,12.07-3.02c4.02-0.64,7.77-0.96,11.25-0.96c9.51,0,16.94,2.29,22.29,6.86c5.35,4.57,8.03,11.89,8.03,21.95
			v41.15c-3.2,1.01-7.09,1.97-11.66,2.88c-4.57,0.91-9.74,1.37-15.5,1.37c-4.66,0-8.94-0.41-12.83-1.23
			c-3.89-0.82-7.23-2.2-10.01-4.12c-2.79-1.92-4.94-4.39-6.45-7.41c-1.51-3.02-2.26-6.72-2.26-11.11s0.94-8.07,2.81-11.04
			c1.87-2.97,4.3-5.35,7.27-7.13c2.97-1.78,6.29-3.06,9.95-3.84c3.66-0.78,7.32-1.17,10.97-1.17c2.65,0,5.58,0.14,8.78,0.41V53.64z
			 M275.32,67.77c-1.1-0.18-2.29-0.34-3.57-0.48c-1.28-0.14-2.42-0.21-3.43-0.21c-4.48,0-8.02,0.8-10.63,2.4
			c-2.61,1.6-3.91,4.18-3.91,7.75c0,2.38,0.5,4.21,1.51,5.49c1.01,1.28,2.22,2.22,3.64,2.81c1.42,0.6,2.93,0.96,4.53,1.1
			c1.6,0.14,2.99,0.21,4.18,0.21c1.37,0,2.74-0.11,4.12-0.34c1.37-0.23,2.56-0.43,3.57-0.62V67.77z"/>
		<path class="st0" d="M311.54,29.36c1.37-0.27,2.67-0.48,3.91-0.62s2.58-0.21,4.05-0.21c1.37,0,2.72,0.09,4.05,0.27
			c1.32,0.18,2.63,0.41,3.91,0.69c0.27,0.46,0.53,1.12,0.75,1.99c0.23,0.87,0.43,1.78,0.62,2.74c0.18,0.96,0.34,1.92,0.48,2.88
			c0.14,0.96,0.25,1.76,0.34,2.4c2.01-2.83,4.48-5.37,7.41-7.61c2.93-2.24,6.58-3.36,10.97-3.36c0.91,0,1.97,0.05,3.16,0.14
			c1.19,0.09,2.06,0.23,2.61,0.41c0.18,0.92,0.32,1.97,0.41,3.15c0.09,1.19,0.14,2.42,0.14,3.7c0,1.56-0.07,3.25-0.21,5.08
			c-0.14,1.83-0.39,3.57-0.75,5.21c-1.01-0.18-2.13-0.27-3.36-0.27c-1.23,0-1.99,0-2.26,0c-1.56,0-3.29,0.16-5.21,0.48
			c-1.92,0.32-3.75,1.17-5.49,2.54c-1.74,1.37-3.18,3.43-4.32,6.17c-1.14,2.74-1.71,6.58-1.71,11.52v33.75
			c-1.65,0.27-3.29,0.46-4.94,0.55c-1.65,0.09-3.25,0.14-4.8,0.14c-1.56,0-3.13-0.05-4.73-0.14c-1.6-0.09-3.27-0.27-5.01-0.55V29.36
			z"/>
		<path class="st0" d="M368.6,44.17h-8.92L359,41.43l25.65-32.79h3.16v20.71h16.6c0.28,1.37,0.46,2.61,0.55,3.7
			c0.09,1.1,0.14,2.24,0.14,3.43c0,1.28-0.05,2.52-0.14,3.7c-0.09,1.19-0.27,2.52-0.55,3.98h-16.6v27.85c0,2.84,0.23,5.12,0.69,6.86
			c0.46,1.74,1.12,3.11,1.99,4.12c0.87,1.01,1.94,1.69,3.22,2.06c1.28,0.37,2.79,0.55,4.53,0.55c1.37,0,2.72-0.11,4.05-0.34
			c1.33-0.23,2.49-0.43,3.5-0.62c0.64,1.74,1.1,3.55,1.37,5.42c0.27,1.88,0.41,3.55,0.41,5.01c0,1.01-0.02,1.85-0.07,2.54
			c-0.05,0.69-0.12,1.35-0.21,1.99c-4.21,1.01-8.55,1.51-13.03,1.51c-8.32,0-14.68-1.94-19.07-5.83c-4.39-3.89-6.58-10.22-6.58-19
			V44.17z"/>
		<path class="st0" d="M419.22,29.36c1.28-0.27,2.56-0.48,3.84-0.62c1.28-0.14,2.7-0.21,4.25-0.21c1.55,0,2.93,0.07,4.12,0.21
			c1.19,0.14,2.42,0.34,3.7,0.62c0.27,0.46,0.53,1.12,0.75,1.99c0.23,0.87,0.43,1.78,0.62,2.74c0.18,0.96,0.34,1.9,0.48,2.81
			c0.14,0.92,0.25,1.69,0.34,2.33c0.91-1.37,2.01-2.74,3.29-4.12c1.28-1.37,2.77-2.61,4.46-3.7c1.69-1.1,3.59-1.99,5.69-2.68
			c2.1-0.69,4.43-1.03,7-1.03c8.05,0,14.11,2.19,18.18,6.58c4.07,4.39,6.1,11.3,6.1,20.71v45.27c-3.29,0.55-6.54,0.82-9.74,0.82
			c-3.2,0-6.45-0.27-9.74-0.82V60.22c0-4.94-0.75-8.73-2.26-11.39c-1.51-2.65-4.14-3.98-7.89-3.98c-1.56,0-3.15,0.23-4.8,0.69
			c-1.65,0.46-3.13,1.35-4.46,2.68c-1.33,1.33-2.4,3.18-3.22,5.56c-0.82,2.38-1.23,5.49-1.23,9.33v37.18
			c-3.29,0.55-6.54,0.82-9.74,0.82c-3.2,0-6.45-0.27-9.74-0.82V29.36z"/>
		<path class="st0" d="M515.25,70.79c0.36,5.49,2.28,9.47,5.76,11.94c3.47,2.47,8.05,3.7,13.72,3.7c3.11,0,6.29-0.3,9.53-0.89
			c3.25-0.59,6.33-1.44,9.26-2.54c1.01,1.83,1.87,4.03,2.61,6.58c0.73,2.56,1.14,5.31,1.23,8.23c-7.13,2.74-15.18,4.12-24.14,4.12
			c-6.58,0-12.23-0.92-16.94-2.74c-4.71-1.83-8.55-4.37-11.52-7.61c-2.97-3.25-5.17-7.11-6.58-11.59
			c-1.42-4.48-2.13-9.37-2.13-14.68c0-5.21,0.73-10.1,2.19-14.68c1.46-4.57,3.64-8.55,6.52-11.93c2.88-3.38,6.45-6.06,10.7-8.03
			c4.25-1.97,9.21-2.95,14.88-2.95c4.94,0,9.33,0.87,13.17,2.61c3.84,1.74,7.11,4.12,9.81,7.13c2.7,3.02,4.73,6.61,6.1,10.77
			c1.37,4.16,2.06,8.62,2.06,13.38c0,1.74-0.07,3.45-0.21,5.14c-0.14,1.69-0.3,3.04-0.48,4.05H515.25z M543.1,57.2
			c-0.18-4.39-1.4-7.93-3.64-10.63c-2.24-2.7-5.37-4.05-9.4-4.05c-4.57,0-8.05,1.28-10.43,3.84c-2.38,2.56-3.8,6.17-4.25,10.84
			H543.1z"/>
		<path class="st0" d="M576.84,29.36c1.37-0.27,2.68-0.48,3.91-0.62c1.23-0.14,2.58-0.21,4.05-0.21c1.37,0,2.72,0.09,4.05,0.27
			c1.33,0.18,2.63,0.41,3.91,0.69c0.27,0.46,0.52,1.12,0.75,1.99c0.23,0.87,0.43,1.78,0.62,2.74c0.18,0.96,0.34,1.92,0.48,2.88
			c0.14,0.96,0.25,1.76,0.34,2.4c2.01-2.83,4.48-5.37,7.41-7.61c2.93-2.24,6.58-3.36,10.97-3.36c0.91,0,1.97,0.05,3.16,0.14
			c1.19,0.09,2.06,0.23,2.61,0.41c0.18,0.92,0.32,1.97,0.41,3.15c0.09,1.19,0.14,2.42,0.14,3.7c0,1.56-0.07,3.25-0.21,5.08
			c-0.14,1.83-0.39,3.57-0.75,5.21c-1.01-0.18-2.13-0.27-3.36-0.27c-1.23,0-1.99,0-2.26,0c-1.56,0-3.29,0.16-5.21,0.48
			c-1.92,0.32-3.75,1.17-5.49,2.54c-1.74,1.37-3.18,3.43-4.32,6.17c-1.14,2.74-1.71,6.58-1.71,11.52v33.75
			c-1.65,0.27-3.29,0.46-4.94,0.55c-1.65,0.09-3.25,0.14-4.8,0.14c-1.56,0-3.13-0.05-4.73-0.14c-1.6-0.09-3.27-0.27-5.01-0.55V29.36
			z"/>
	</g>
	<g>
		<path class="st1" d="M0,138.13c3.84-0.46,7.86-0.84,12.07-1.17c4.21-0.32,8.87-0.48,13.99-0.48c17.29,0,30.43,4.3,39.44,12.9
			c9.01,8.6,13.51,21.49,13.51,38.68c0,17.28-4.57,30-13.72,38.14c-9.15,8.14-22.73,12.21-40.74,12.21c-4.66,0-8.96-0.16-12.9-0.48
			c-3.93-0.32-7.82-0.71-11.66-1.17V138.13z M20.17,220.85c0.82,0.09,1.87,0.18,3.16,0.27c1.28,0.09,2.83,0.14,4.66,0.14
			c4.21,0,8.12-0.48,11.73-1.44c3.61-0.96,6.74-2.72,9.4-5.28c2.65-2.56,4.75-5.99,6.31-10.29c1.55-4.3,2.33-9.83,2.33-16.6
			c0-6.58-0.78-12.07-2.33-16.46c-1.56-4.39-3.66-7.86-6.31-10.43c-2.65-2.56-5.69-4.37-9.12-5.42c-3.43-1.05-7.06-1.58-10.91-1.58
			c-1.28,0-2.77,0.02-4.46,0.07c-1.69,0.05-3.18,0.16-4.46,0.34V220.85z"/>
		<path class="st1" d="M115.1,138.13c1.92-0.27,3.75-0.48,5.49-0.62c1.74-0.14,3.66-0.21,5.76-0.21c1.83,0,3.61,0.07,5.35,0.21
			c1.74,0.14,3.66,0.34,5.76,0.62l30.87,98.63c-3.75,0.55-7.41,0.82-10.97,0.82c-3.48,0-6.86-0.27-10.15-0.82l-5.49-19.75h-32.65
			l-5.62,19.75c-3.29,0.55-6.45,0.82-9.47,0.82c-3.38,0-6.72-0.27-10.01-0.82L115.1,138.13z M137.04,200.41l-11.39-41.43
			l-11.93,41.43H137.04z"/>
		<path class="st1" d="M197.4,191.08c-3.11-1.19-5.9-2.49-8.37-3.91c-2.47-1.42-4.57-3.11-6.31-5.08c-1.74-1.97-3.09-4.32-4.05-7.06
			c-0.96-2.74-1.44-6.04-1.44-9.88c0-4.66,0.8-8.78,2.4-12.35c1.6-3.57,3.86-6.56,6.79-8.99c2.93-2.42,6.45-4.25,10.56-5.49
			c4.12-1.23,8.73-1.85,13.86-1.85c4.66,0,9.03,0.41,13.1,1.23c4.07,0.82,8.34,2.01,12.83,3.57c-0.55,5.31-2.01,10.52-4.39,15.64
			c-1.37-0.55-2.77-1.1-4.18-1.65c-1.42-0.55-2.93-1.01-4.53-1.37c-1.6-0.36-3.41-0.66-5.42-0.89c-2.01-0.23-4.3-0.34-6.86-0.34
			c-1.56,0-3.13,0.14-4.73,0.41c-1.6,0.27-3.04,0.78-4.32,1.51c-1.28,0.73-2.33,1.81-3.16,3.22c-0.82,1.42-1.23,3.27-1.23,5.56
			c0,1.83,0.32,3.36,0.96,4.6c0.64,1.23,1.51,2.29,2.61,3.15c1.1,0.87,2.33,1.6,3.7,2.19c1.37,0.6,2.74,1.17,4.12,1.71l8.23,3.15
			c3.47,1.37,6.63,2.79,9.47,4.25c2.83,1.46,5.23,3.27,7.2,5.42c1.97,2.15,3.5,4.76,4.6,7.82c1.1,3.07,1.65,6.84,1.65,11.32
			c0,4.66-0.85,8.92-2.54,12.76c-1.69,3.84-4.14,7.13-7.34,9.88c-3.2,2.74-7.16,4.89-11.87,6.45c-4.71,1.55-10.13,2.33-16.26,2.33
			c-3.02,0-5.72-0.09-8.09-0.27c-2.38-0.18-4.64-0.48-6.79-0.89c-2.15-0.41-4.28-0.94-6.38-1.58c-2.1-0.64-4.3-1.42-6.58-2.33
			c0.27-2.65,0.78-5.42,1.51-8.3c0.73-2.88,1.6-5.78,2.61-8.71c3.84,1.56,7.45,2.72,10.84,3.5c3.38,0.78,7,1.17,10.84,1.17
			c5.76,0,10.29-1.07,13.58-3.22c3.29-2.15,4.94-5.42,4.94-9.81c0-2.19-0.39-4.02-1.17-5.49c-0.78-1.46-1.78-2.7-3.02-3.7
			c-1.23-1-2.63-1.85-4.18-2.54c-1.56-0.69-3.16-1.35-4.8-1.99L197.4,191.08z"/>
		<path class="st1" d="M254.88,138.13c3.38-0.55,6.72-0.82,10.01-0.82c3.29,0,6.67,0.27,10.15,0.82v38.68h33.06v-38.68
			c3.38-0.55,6.72-0.82,10.01-0.82c3.29,0,6.67,0.27,10.15,0.82v98.63c-3.48,0.55-6.81,0.82-10.01,0.82
			c-3.38,0-6.77-0.27-10.15-0.82V194.1h-33.06v42.66c-3.48,0.55-6.81,0.82-10.01,0.82c-3.38,0-6.77-0.27-10.15-0.82V138.13z"/>
		<path class="st1" d="M347.75,137.99c2.93-0.46,6.31-0.82,10.15-1.1c3.84-0.27,8.64-0.41,14.4-0.41c5.03,0,9.78,0.41,14.27,1.23
			c4.48,0.82,8.39,2.22,11.73,4.18c3.34,1.97,5.97,4.6,7.89,7.89c1.92,3.29,2.88,7.41,2.88,12.35c0,2.93-0.44,5.65-1.3,8.16
			c-0.87,2.52-2.04,4.71-3.5,6.58c-1.46,1.88-3.11,3.43-4.94,4.66c-1.83,1.23-3.7,1.99-5.62,2.26c2.1,0.27,4.43,0.92,7,1.92
			c2.56,1.01,4.94,2.49,7.13,4.46c2.19,1.97,4.02,4.51,5.49,7.61c1.46,3.11,2.2,6.86,2.2,11.25c0,5.95-1.12,10.82-3.36,14.61
			c-2.24,3.8-5.26,6.79-9.05,8.99c-3.8,2.2-8.19,3.7-13.17,4.53c-4.99,0.82-10.22,1.23-15.71,1.23c-4.21,0-8.37-0.12-12.48-0.34
			c-4.12-0.23-8.78-0.66-13.99-1.3V137.99z M373.68,178.05c2.28,0,4.41-0.21,6.38-0.62c1.97-0.41,3.68-1.14,5.14-2.19
			c1.46-1.05,2.61-2.47,3.43-4.25c0.82-1.78,1.23-4.05,1.23-6.79c0-2.65-0.48-4.82-1.44-6.52c-0.96-1.69-2.19-3.02-3.7-3.98
			c-1.51-0.96-3.2-1.6-5.08-1.92c-1.88-0.32-3.73-0.48-5.56-0.48c-2.56,0-4.71,0.14-6.45,0.41v26.34H373.68z M367.64,221.67
			c1.28,0.18,2.77,0.32,4.46,0.41c1.69,0.09,3.22,0.14,4.6,0.14c1.92,0,3.93-0.18,6.04-0.55c2.1-0.36,4.07-1.07,5.9-2.13
			c1.83-1.05,3.34-2.51,4.53-4.39c1.19-1.87,1.78-4.32,1.78-7.34c0-2.83-0.46-5.19-1.37-7.06c-0.92-1.87-2.22-3.38-3.91-4.53
			c-1.69-1.14-3.7-1.94-6.04-2.4c-2.33-0.46-4.92-0.69-7.75-0.69h-8.23V221.67z"/>
		<path class="st1" d="M470.66,238.41c-7.41,0-13.81-1.28-19.2-3.84c-5.4-2.56-9.83-6.1-13.31-10.63
			c-3.48-4.53-6.06-9.88-7.75-16.05c-1.69-6.17-2.54-12.92-2.54-20.23c0-7.32,0.84-14.11,2.54-20.37
			c1.69-6.26,4.27-11.68,7.75-16.26c3.47-4.57,7.91-8.14,13.31-10.7c5.39-2.56,11.8-3.84,19.2-3.84c7.41,0,13.81,1.28,19.21,3.84
			c5.4,2.56,9.83,6.13,13.31,10.7c3.47,4.57,6.06,9.99,7.75,16.26c1.69,6.27,2.54,13.06,2.54,20.37c0,7.32-0.85,14.06-2.54,20.23
			c-1.69,6.17-4.28,11.52-7.75,16.05c-3.48,4.53-7.91,8.07-13.31,10.63C484.47,237.12,478.07,238.41,470.66,238.41z M470.66,221.67
			c14.17,0,21.26-11.34,21.26-34.02c0-11.34-1.71-19.84-5.14-25.52c-3.43-5.67-8.76-8.51-15.98-8.51
			c-14.36,0-21.54,11.34-21.54,34.02C449.26,210.33,456.4,221.67,470.66,221.67z"/>
		<path class="st1" d="M549.54,138.13c1.92-0.27,3.75-0.48,5.49-0.62c1.74-0.14,3.66-0.21,5.76-0.21c1.83,0,3.61,0.07,5.35,0.21
			c1.74,0.14,3.66,0.34,5.76,0.62l30.87,98.63c-3.75,0.55-7.41,0.82-10.97,0.82c-3.48,0-6.86-0.27-10.15-0.82l-5.49-19.75h-32.65
			l-5.62,19.75c-3.29,0.55-6.45,0.82-9.47,0.82c-3.38,0-6.72-0.27-10.01-0.82L549.54,138.13z M571.49,200.41l-11.39-41.43
			l-11.93,41.43H571.49z"/>
		<path class="st1" d="M614.84,138.13c4.02-0.46,7.8-0.84,11.32-1.17c3.52-0.32,7.43-0.48,11.73-0.48c5.03,0,9.99,0.46,14.88,1.37
			c4.89,0.92,9.3,2.54,13.24,4.87c3.93,2.33,7.11,5.49,9.53,9.47c2.42,3.98,3.64,9.03,3.64,15.16c0,3.66-0.46,6.88-1.37,9.67
			c-0.92,2.79-2.08,5.24-3.5,7.34c-1.42,2.1-2.95,3.91-4.6,5.42c-1.65,1.51-3.2,2.72-4.66,3.64l-2.33,1.51l24.01,41.7
			c-1.83,0.18-3.75,0.36-5.76,0.55c-2.01,0.18-4.07,0.27-6.17,0.27c-3.48,0-6.91-0.27-10.29-0.82l-25.79-45.82l3.29-1.65
			c1.28-0.64,2.83-1.46,4.66-2.47c1.83-1,3.59-2.26,5.28-3.77c1.69-1.51,3.13-3.34,4.32-5.49c1.19-2.15,1.78-4.69,1.78-7.61
			c0-5.76-1.65-9.99-4.94-12.69c-3.29-2.7-7.55-4.05-12.76-4.05c-2.01,0-3.84,0.14-5.49,0.41v83.27c-1.65,0.18-3.29,0.34-4.94,0.48
			c-1.65,0.14-3.25,0.21-4.8,0.21c-1.56,0-3.2-0.05-4.94-0.14c-1.74-0.09-3.52-0.27-5.35-0.55V138.13z"/>
		<path class="st1" d="M698.11,138.13c3.84-0.46,7.86-0.84,12.07-1.17c4.21-0.32,8.87-0.48,13.99-0.48c17.28,0,30.43,4.3,39.44,12.9
			c9.01,8.6,13.51,21.49,13.51,38.68c0,17.28-4.57,30-13.72,38.14c-9.15,8.14-22.73,12.21-40.74,12.21c-4.66,0-8.96-0.16-12.9-0.48
			c-3.93-0.32-7.82-0.71-11.66-1.17V138.13z M718.27,220.85c0.82,0.09,1.87,0.18,3.15,0.27c1.28,0.09,2.83,0.14,4.66,0.14
			c4.21,0,8.11-0.48,11.73-1.44c3.61-0.96,6.74-2.72,9.4-5.28c2.65-2.56,4.75-5.99,6.31-10.29c1.55-4.3,2.33-9.83,2.33-16.6
			c0-6.58-0.78-12.07-2.33-16.46c-1.56-4.39-3.66-7.86-6.31-10.43c-2.65-2.56-5.69-4.37-9.12-5.42c-3.43-1.05-7.06-1.58-10.91-1.58
			c-1.28,0-2.77,0.02-4.46,0.07c-1.69,0.05-3.18,0.16-4.46,0.34V220.85z"/>
	</g>
	<rect x="444.3" y="148.55" class="st1" width="51.74" height="76.83"/>
	<path class="st2" d="M487.25,156.31h-33.37c-2.74,0-4.96,2.22-4.96,4.96v33.37c0,2.74,2.22,4.96,4.96,4.96h33.37
		c2.74,0,4.96-2.22,4.96-4.96v-33.37C492.21,158.53,489.99,156.31,487.25,156.31z M468.76,191.04c0,1.74-1.42,3.16-3.16,3.16h-8.12
		c-1.74,0-3.16-1.42-3.16-3.16v-11.73c0-1.74,1.42-3.16,3.16-3.16h8.12c1.74,0,3.16,1.42,3.16,3.16V191.04z M468.76,169.39
		c0,1.74-1.42,3.16-3.16,3.16h-8.12c-1.74,0-3.16-1.42-3.16-3.16v-4.51c0-1.74,1.42-3.16,3.16-3.16h8.12c1.74,0,3.16,1.42,3.16,3.16
		V169.39z M486.8,191.04c0,1.74-1.42,3.16-3.16,3.16h-8.12c-1.74,0-3.16-1.42-3.16-3.16v-4.51c0-1.74,1.42-3.16,3.16-3.16h8.12
		c1.74,0,3.16,1.42,3.16,3.16V191.04z M486.8,176.6c0,1.74-1.42,3.16-3.16,3.16h-8.12c-1.74,0-3.16-1.42-3.16-3.16v-11.73
		c0-1.74,1.42-3.16,3.16-3.16h8.12c1.74,0,3.16,1.42,3.16,3.16V176.6z"/>
	<circle class="st1" cx="470.57" cy="204.81" r="23.15"/>
	<g>
		<g>
			<path class="st2" d="M461.12,222c-0.1,0-0.2-0.03-0.28-0.07c-0.53-0.3-1.03-0.62-1.49-0.94c-0.25-0.18-0.32-0.53-0.14-0.78
				c0.18-0.25,0.53-0.32,0.78-0.14c0.44,0.31,0.91,0.6,1.41,0.89c0.27,0.15,0.36,0.5,0.21,0.77C461.51,221.89,461.32,222,461.12,222
				L461.12,222z"/>
			<path class="st2" d="M461.12,222.54C461.12,222.54,461.12,222.54,461.12,222.54c-0.2,0-0.38-0.05-0.55-0.15
				c-0.54-0.31-1.06-0.63-1.53-0.97c-0.24-0.17-0.4-0.42-0.45-0.71c-0.05-0.29,0.01-0.58,0.18-0.82c0.35-0.5,1.04-0.62,1.53-0.27
				c0.42,0.29,0.88,0.58,1.37,0.86c0.25,0.14,0.44,0.38,0.51,0.66c0.08,0.28,0.04,0.58-0.11,0.84
				C461.88,222.32,461.52,222.54,461.12,222.54L461.12,222.54C461.12,222.54,461.12,222.54,461.12,222.54z M459.69,220.5
				c0.42,0.35,0.91,0.66,1.42,0.95l0.01,0.49l0-0.49l0,0.25l0-0.25C460.61,221.12,460.13,220.81,459.69,220.5z"/>
		</g>
		<g>
			<path class="st2" d="M470.57,224.49h-0.23c-0.31,0-0.56-0.25-0.56-0.56s0.25-0.56,0.56-0.56h0.23c10.24,0,18.55-8.31,18.55-18.55
				c0-10.24-8.31-18.55-18.55-18.55c-10.24,0-18.55,8.31-18.55,18.55c0,4.58,1.7,9,4.76,12.41c0.21,0.23,0.19,0.59-0.04,0.79
				c-0.23,0.21-0.59,0.19-0.79-0.04c-7.27-8.07-6.62-20.51,1.46-27.79c8.07-7.27,20.51-6.62,27.79,1.46
				c7.27,8.07,6.62,20.51-1.46,27.79C480.12,222.69,475.43,224.49,470.57,224.49z"/>
			<path class="st2" d="M470.57,225.03h-0.23c-0.61,0-1.1-0.49-1.1-1.1s0.49-1.1,1.1-1.1h0.23c9.93,0,18.01-8.08,18.01-18.01
				c0-4.81-1.87-9.33-5.28-12.74c-3.4-3.4-7.92-5.27-12.73-5.27c0,0,0,0,0,0c-9.93,0-18.01,8.08-18.01,18.01
				c0,4.46,1.64,8.74,4.63,12.05c0.2,0.22,0.3,0.5,0.28,0.79c-0.02,0.29-0.14,0.56-0.36,0.76c-0.22,0.2-0.51,0.29-0.79,0.28
				c-0.29-0.01-0.56-0.14-0.76-0.36c-3.61-4.01-5.45-9.19-5.16-14.58c0.28-5.39,2.65-10.35,6.66-13.96
				c4.01-3.61,9.19-5.45,14.58-5.16c5.39,0.28,10.35,2.65,13.96,6.66c3.61,4.01,5.45,9.19,5.16,14.58
				c-0.28,5.39-2.65,10.35-6.66,13.96C480.37,223.18,475.57,225.03,470.57,225.03z M470.34,223.9l0.23,0.05
				c4.74,0,9.28-1.75,12.8-4.92c3.8-3.42,6.04-8.11,6.31-13.22c0.27-5.1-1.47-10.01-4.89-13.81c-3.42-3.8-8.11-6.04-13.22-6.31
				c-5.12-0.27-10.01,1.47-13.81,4.89c-7.84,7.06-8.48,19.18-1.42,27.02c-3.13-3.54-4.87-8.08-4.87-12.8
				c0-10.53,8.56-19.09,19.09-19.09c0,0,0,0,0,0c10.52,0,19.09,8.56,19.09,19.09c0,10.53-8.56,19.09-19.09,19.09H470.34z"/>
		</g>
		<g>
			<path class="st2" d="M466.39,224.03c-0.04,0-0.08,0-0.12-0.01c-0.55-0.12-1.11-0.27-1.67-0.45c-0.29-0.12-0.43-0.45-0.31-0.73
				c0.1-0.26,0.38-0.4,0.65-0.34c0.52,0.17,1.05,0.31,1.56,0.42c0.3,0.07,0.5,0.37,0.43,0.67
				C466.88,223.84,466.65,224.03,466.39,224.03L466.39,224.03z"/>
			<path class="st2" d="M466.39,224.57c-0.08,0-0.16-0.01-0.23-0.03c-0.58-0.13-1.16-0.28-1.72-0.46c-0.6-0.24-0.87-0.89-0.64-1.45
				c0.21-0.5,0.74-0.78,1.27-0.66c0.53,0.17,1.04,0.31,1.55,0.42c0.59,0.13,0.97,0.72,0.84,1.31
				C467.35,224.21,466.91,224.56,466.39,224.57L466.39,224.57z M464.78,223.01c0.52,0.21,1.06,0.36,1.61,0.48l0,0.54l0-0.54
				c0.01,0,0.02-0.01,0.02-0.02C465.84,223.32,465.3,223.18,464.78,223.01z"/>
		</g>
		<g>
			<path class="st2" d="M484.15,211.35c-0.31,0-0.56-0.25-0.56-0.56c0-0.08,0.02-0.16,0.05-0.23c0.83-1.83,1.25-3.82,1.25-5.83
				c0-7.91-6.41-14.31-14.32-14.31c-7.9,0-14.31,6.41-14.31,14.31c-0.01,2.01,0.42,4,1.25,5.83c0.13,0.28,0.01,0.62-0.27,0.75
				c-0.28,0.13-0.62,0.01-0.75-0.27c0-0.01-0.01-0.01-0.01-0.02c-0.89-1.98-1.35-4.12-1.35-6.29c0-8.53,6.91-15.44,15.44-15.44
				s15.44,6.91,15.44,15.44c0,2.17-0.45,4.31-1.34,6.29C484.57,211.22,484.37,211.35,484.15,211.35L484.15,211.35z"/>
			<path class="st2" d="M457,211.9c-0.12,0-0.25-0.02-0.37-0.06c-0.28-0.1-0.5-0.3-0.62-0.56c-0.95-2.09-1.42-4.28-1.41-6.54
				c0-8.81,7.17-15.98,15.98-15.98c8.81,0,15.98,7.17,15.98,15.98c0,2.26-0.46,4.45-1.39,6.51c-0.18,0.39-0.57,0.65-1,0.65
				c0,0,0,0-0.01,0c-0.61,0-1.1-0.49-1.1-1.1c0-0.16,0.03-0.31,0.1-0.45c0.8-1.77,1.2-3.66,1.2-5.61c0-3.68-1.43-7.14-4.04-9.74
				c-2.6-2.6-6.06-4.03-9.74-4.03c0,0,0,0,0,0c-7.6,0-13.77,6.18-13.78,13.78c-0.01,1.95,0.4,3.83,1.2,5.61
				c0.12,0.26,0.14,0.55,0.04,0.83c-0.1,0.28-0.3,0.5-0.57,0.63C457.32,211.86,457.16,211.9,457,211.9z M470.57,189.87
				c3.97,0,7.7,1.54,10.5,4.35c2.81,2.8,4.35,6.54,4.35,10.5c0,2.1-0.43,4.14-1.29,6.05l0.02,0.03c0,0,0.02,0,0.02-0.01
				c0.86-1.92,1.3-3.96,1.3-6.07c0-8.22-6.68-14.9-14.9-14.9c-8.22,0-14.9,6.69-14.9,14.9c-0.01,2.11,0.43,4.15,1.3,6.07
				c-0.82-1.93-1.26-3.97-1.26-6.07C455.71,196.54,462.38,189.87,470.57,189.87C470.57,189.87,470.57,189.87,470.57,189.87z"/>
		</g>
		<g>
			<path class="st2" d="M469.3,212.95c-1.69,0-3.06-1.38-3.05-3.06c0-0.46,0.1-0.91,0.3-1.32c0.61-1.26,6.66-8.59,7.35-9.42
				c0.2-0.24,0.55-0.27,0.79-0.07c0.16,0.13,0.23,0.35,0.19,0.55c-0.22,1.06-2.22,10.34-2.83,11.61
				C471.54,212.27,470.47,212.94,469.3,212.95L469.3,212.95z M473.29,201.65c-2.5,3.06-5.38,6.68-5.73,7.4
				c-0.48,0.96-0.09,2.12,0.87,2.59c0.96,0.48,2.12,0.09,2.59-0.87c0.01-0.01,0.01-0.03,0.02-0.04
				C471.39,210.01,472.44,205.5,473.29,201.65L473.29,201.65z"/>
			<path class="st2" d="M469.3,213.48L469.3,213.48c-1.98,0-3.6-1.62-3.59-3.6c0-0.54,0.12-1.08,0.36-1.56
				c0.63-1.3,6.29-8.16,7.42-9.53c0.19-0.23,0.45-0.37,0.74-0.39c0.29-0.02,0.58,0.06,0.81,0.25c0.32,0.26,0.46,0.67,0.37,1.08
				c-0.37,1.73-2.25,10.44-2.87,11.73C471.94,212.69,470.67,213.48,469.3,213.48z M474.18,199.71c-2.54,3.01-6.68,8.12-7.14,9.08
				c-0.16,0.34-0.25,0.71-0.25,1.09c0,0.67,0.26,1.31,0.73,1.78c0.48,0.48,1.11,0.74,1.78,0.74c0.96,0,1.85-0.56,2.27-1.42
				c0.47-0.98,1.97-7.68,2.79-11.48c-0.02,0.02-0.04,0.04-0.05,0.06l-0.48,2.2c-0.54,2.46-1.85,8.29-2.29,9.2
				c-0.31,0.63-0.82,1.08-1.45,1.29c-0.63,0.21-1.3,0.16-1.89-0.13c-0.59-0.29-1.03-0.8-1.24-1.43c-0.21-0.63-0.16-1.3,0.13-1.89
				c0.44-0.9,4.2-5.55,5.79-7.5L474.18,199.71z M472.27,203.76c-2.39,2.97-4,5.06-4.22,5.52c-0.17,0.34-0.19,0.72-0.08,1.07
				c0.12,0.35,0.37,0.64,0.7,0.8c0.33,0.17,0.71,0.19,1.06,0.07c0.35-0.12,0.64-0.37,0.8-0.7
				C470.77,210.04,471.42,207.48,472.27,203.76z"/>
		</g>
	</g>
</g>
</svg>
