<svg id="Layer_1" data-name="Layer 1" xmlns="http://www.w3.org/2000/svg" viewBox="0 0 1028.41 161.97"><defs><style>.cls-1{fill:#2d3091;}.cls-2{fill:#fff;}.cls-3{fill:#00aced;}</style></defs><path class="cls-1" d="M28.38,112.49q.81,13.07,8.52,19t20.27,5.89a72.41,72.41,0,0,0,14.09-1.42,75.57,75.57,0,0,0,13.69-4,52.66,52.66,0,0,1,3.85,10.46,57.65,57.65,0,0,1,1.83,13.08Q74.81,162,54.94,162q-14.59,0-25-4.36a44.27,44.27,0,0,1-17-12.1,49.48,49.48,0,0,1-9.72-18.42A81.78,81.78,0,0,1,0,103.77,81.55,81.55,0,0,1,3.24,80.44a55.91,55.91,0,0,1,9.63-19A45.93,45.93,0,0,1,28.69,48.73Q38.12,44,50.68,44a44,44,0,0,1,19.47,4.14A43.21,43.21,0,0,1,84.64,59.52a48.61,48.61,0,0,1,9,17.1,72.17,72.17,0,0,1,3,21.26c0,2.77-.1,5.49-.31,8.18s-.44,4.83-.71,6.43ZM69.54,90.91Q69.13,80.44,64.17,74T50.28,67.58q-10.14,0-15.41,6.1T28.59,90.91Z"/><path class="cls-1" d="M253.14,20.47Q233.19,0,194.84,0c-7.51,0-14.4.28-20.67.76S162,1.86,156.32,2.62v156.7c5.72.76,11.44,1.38,17.3,1.86s12.13.76,19,.76c26.6,0,46.72-6.41,60.22-19.36s20.26-33.15,20.26-60.64Q273.12,41,253.14,20.47Zm-14.89,87.24Q234.84,117.94,229,124A30.62,30.62,0,0,1,215,132.45a63,63,0,0,1-17.29,2.27c-2.76,0-5-.07-6.9-.2s-3.44-.28-4.68-.42v-106a54.57,54.57,0,0,1,6.61-.56c2.48-.06,4.69-.06,6.55-.06A51.17,51.17,0,0,1,215.45,30,32.57,32.57,0,0,1,229,38.59q5.9,6.1,9.3,16.54c2.28,7,3.45,15.71,3.45,26.19C241.7,92.07,240.53,100.89,238.25,107.71Z"/><path class="cls-1" d="M350,85.24a19.09,19.09,0,0,0-1.63-8.51,12.72,12.72,0,0,0-4.45-5.12,17.75,17.75,0,0,0-7-2.5,59.07,59.07,0,0,0-9.22-.65A67.12,67.12,0,0,0,304.35,73a60.54,60.54,0,0,1-4.25-10.68,44.24,44.24,0,0,1-1.42-12,101.66,101.66,0,0,1,17.83-4.8A99.74,99.74,0,0,1,333.14,44q21.09,0,32.94,10.9T378,89.81v65.41a159.12,159.12,0,0,1-17.24,4.57A109.64,109.64,0,0,1,337.8,162a85.25,85.25,0,0,1-18.95-2,39.15,39.15,0,0,1-14.8-6.54,30.14,30.14,0,0,1-9.53-11.77q-3.34-7.2-3.34-17.66t4.15-17.55a33.2,33.2,0,0,1,10.75-11.33,45.58,45.58,0,0,1,14.69-6.11A73,73,0,0,1,337,87.2q5.88,0,13,.65Zm0,22.45c-1.63-.29-3.38-.54-5.27-.76a44.61,44.61,0,0,0-5.07-.33q-9.93,0-15.72,3.82t-5.77,12.31q0,5.67,2.23,8.72a13.33,13.33,0,0,0,5.37,4.47,20.66,20.66,0,0,0,6.69,1.75c2.36.21,4.43.32,6.19.32a34.79,34.79,0,0,0,6.08-.54c2-.36,3.78-.69,5.27-1Z"/><path class="cls-1" d="M406.32,70.19H393.14l-1-4.35L430,13.74h4.66V46.65h24.54a59.45,59.45,0,0,1,.81,5.89c.13,1.74.2,3.56.2,5.45s-.07,4-.2,5.89-.41,4-.81,6.31H434.7v44.26a47.09,47.09,0,0,0,1,10.9,16.54,16.54,0,0,0,2.94,6.54,9.59,9.59,0,0,0,4.76,3.27,22.91,22.91,0,0,0,6.69.87,33.2,33.2,0,0,0,6-.54q2.92-.54,5.16-1a45.57,45.57,0,0,1,2,8.61,60.79,60.79,0,0,1,.61,8c0,1.6,0,2.94-.11,4s-.17,2.14-.3,3.15a76.94,76.94,0,0,1-19.26,2.4q-18.45,0-28.17-9.26t-9.74-30.2Z"/><path class="cls-1" d="M533.44,85.24a19.09,19.09,0,0,0-1.63-8.51,12.64,12.64,0,0,0-4.45-5.12,17.75,17.75,0,0,0-7-2.5,59.07,59.07,0,0,0-9.22-.65A67.12,67.12,0,0,0,487.82,73a60.54,60.54,0,0,1-4.25-10.68,44.24,44.24,0,0,1-1.42-12A101.53,101.53,0,0,1,500,45.56,99.54,99.54,0,0,1,516.61,44q21.09,0,32.94,10.9t11.87,34.87v65.41a159.12,159.12,0,0,1-17.24,4.57,109.54,109.54,0,0,1-22.9,2.18,85.28,85.28,0,0,1-19-2,39.15,39.15,0,0,1-14.8-6.54A30.14,30.14,0,0,1,478,141.7q-3.35-7.2-3.34-17.66t4.15-17.55a33.2,33.2,0,0,1,10.75-11.33,45.58,45.58,0,0,1,14.69-6.11,73,73,0,0,1,16.22-1.85q5.88,0,13,.65Zm0,22.45c-1.63-.29-3.38-.54-5.27-.76a44.47,44.47,0,0,0-5.07-.33q-9.93,0-15.72,3.82t-5.77,12.31q0,5.67,2.23,8.72a13.33,13.33,0,0,0,5.37,4.47,20.66,20.66,0,0,0,6.69,1.75c2.36.21,4.43.32,6.19.32a34.79,34.79,0,0,0,6.08-.54c2-.36,3.78-.69,5.27-1Z"/><rect class="cls-1" x="144.4" y="21.71" width="11.92" height="23.91"/><rect class="cls-2" x="156.32" y="21.71" width="11.99" height="23.91"/><rect class="cls-3" x="158.84" y="57.17" width="23.93" height="23.93"/><rect class="cls-1" x="128.72" y="67.28" width="23.93" height="23.93"/><rect class="cls-3" x="108.51" y="99.42" width="23.93" height="23.93"/><rect class="cls-1" x="120.47" y="132.67" width="23.93" height="23.93"/><rect class="cls-2" x="158.84" y="114.78" width="23.93" height="23.93"/><path id="_Path_" data-name=" Path " class="cls-3" d="M796.23,157.12a132.85,132.85,0,0,1-32.8.32c-1.94,0-2.46-1.68-3.2-3-6.9-12.19-13.76-24.43-20.92-36.62-5.55-9.84-11-19.73-16.64-29.57-1.1-1.88-.89-2.72,1.1-3.66a77.1,77.1,0,0,0,17.31-10.2,27.88,27.88,0,0,0,8-33.59,21.88,21.88,0,0,0-16.9-12.56,44.3,44.3,0,0,0-13.4-.63c-2.4.26-3.29,1.15-3.24,3.77V153.93c0,2.72-.47,3.87-3.51,4.13a132.74,132.74,0,0,1-25.37,0c-1.89,0-2.51-.89-2.36-2.61a8.82,8.82,0,0,0,0-1.78V8.52c0-3.87,0-3.87,3.72-4.44a204.58,204.58,0,0,1,42.33-1.84,70.74,70.74,0,0,1,33.69,9.42,40.26,40.26,0,0,1,20,32.29,48.19,48.19,0,0,1-10,35.73,45.07,45.07,0,0,1-12.51,10.83c-2.09,1.26-2.61,2.2-1.2,4.66,11.67,19.94,23.07,40,34.58,60.07A4.69,4.69,0,0,1,796.23,157.12Z"/><path id="_Path_2" data-name=" Path 2" class="cls-3" d="M966.49,159.69a97.08,97.08,0,0,1-37.09-6.44c-2.57-.94-3-2-2.52-4.66A173.47,173.47,0,0,1,932.12,128c.68-2.15,1.46-2.41,3.45-1.62a80.7,80.7,0,0,0,34.85,6.28,40.24,40.24,0,0,0,13.76-3,16.94,16.94,0,0,0,11.14-14.28,18,18,0,0,0-7.74-18.16A70.89,70.89,0,0,0,972.2,90.2a163.69,163.69,0,0,1-23.34-10A34.59,34.59,0,0,1,930.6,50a46.76,46.76,0,0,1,5.23-26.95A41.86,41.86,0,0,1,964.71,3.24a103.78,103.78,0,0,1,56,4.92c1.2.42,2,1,1.83,2.51a78.67,78.67,0,0,1-5.91,20.93c-.89,2.14-2.36.89-3.56.42a71.9,71.9,0,0,0-30.35-5.5,31.4,31.4,0,0,0-11.77,2.15c-10.46,4.24-10.46,18.78-5.23,24.38A25.28,25.28,0,0,0,974.39,59c10.15,4.4,20.93,7.85,30.72,12.61a38.29,38.29,0,0,1,23.12,36.21,47,47,0,0,1-10.46,33.85,53.38,53.38,0,0,1-29.62,16.54A86.91,86.91,0,0,1,966.49,159.69Z"/><path id="_Compound_Path_" data-name=" Compound Path " class="cls-3" d="M923.9,73.35a107.57,107.57,0,0,0-6.54-32.75A57.2,57.2,0,0,0,878.8,4a79.44,79.44,0,0,0-33.64-1.73A55.93,55.93,0,0,0,801,33.64a103.73,103.73,0,0,0-9.83,47.09,109.58,109.58,0,0,0,6.38,39.14,58.08,58.08,0,0,0,35.79,36.26,79.21,79.21,0,0,0,31.08,3.4,60.08,60.08,0,0,0,22.5-5.23,59,59,0,0,0,31.81-37.1A116.31,116.31,0,0,0,923.9,73.35ZM885.34,114.9a29.85,29.85,0,0,1-44.53,14.18,33.91,33.91,0,0,1-13.34-20.93A118.32,118.32,0,0,1,825,68.85a67.48,67.48,0,0,1,6.59-25.43C840.86,25.58,863,25.06,874.72,33a33.87,33.87,0,0,1,12.87,20.46,96.28,96.28,0,0,1,2.93,27A89.13,89.13,0,0,1,885.34,114.9Z"/><path id="_Compound_Path_2" data-name=" Compound Path 2" class="cls-3" d="M675.78,45a45,45,0,0,0-20.61-34.22,63.34,63.34,0,0,0-31.92-9A300.85,300.85,0,0,0,578.73,3c-4,.37-4,0-4,4.19V154.87c0,1.31,0,2.46,1.83,2.67a137.18,137.18,0,0,0,25.79.37c2.62,0,3.67-1.21,3.61-4.14v-43.9c0-1.3.68-1.93,2-1.72a89.58,89.58,0,0,0,28.42-1.73,45.32,45.32,0,0,0,37.83-32.75A68.07,68.07,0,0,0,675.78,45Zm-33,20.93A23.53,23.53,0,0,1,620.37,82.4h-11.3c-2.4,0-3.29-.83-3.24-3.29V30.6c0-2,.52-2.82,2.67-3.08A45,45,0,0,1,628.07,29a21.76,21.76,0,0,1,14.18,13.81,36.39,36.39,0,0,1,.57,23.08Z"/></svg>