<svg id="Layer_1" data-name="Layer 1" xmlns="http://www.w3.org/2000/svg" viewBox="0 0 1101.63 191.29"><defs><style>.cls-1{fill:#00aced;}.cls-2{fill:#fff;}.cls-3{fill:#2d3091;}</style></defs><path id="_Path_" data-name=" Path " class="cls-1" d="M893.74,159.55a118.31,118.31,0,0,1-29.37.28c-1.73,0-2.2-1.5-2.86-2.67-6.18-10.91-12.32-21.88-18.74-32.79-5-8.81-9.84-17.66-14.9-26.47-1-1.69-.79-2.44,1-3.28a68.7,68.7,0,0,0,15.5-9.14,25,25,0,0,0,7.17-30.07A19.61,19.61,0,0,0,836.4,44.16a39.88,39.88,0,0,0-12-.56c-2.16.24-2.95,1-2.91,3.37V156.69c0,2.44-.42,3.47-3.14,3.71a119.76,119.76,0,0,1-22.72,0c-1.69,0-2.25-.8-2.11-2.35a8.45,8.45,0,0,0,0-1.59V26.5c0-3.47,0-3.47,3.33-4a182.7,182.7,0,0,1,37.9-1.64,63.37,63.37,0,0,1,30.17,8.43,36,36,0,0,1,17.94,28.91,43.14,43.14,0,0,1-9,32,40.32,40.32,0,0,1-11.2,9.69c-1.87,1.13-2.34,2-1.08,4.17,10.45,17.85,20.66,35.84,31,53.79A4.23,4.23,0,0,1,893.74,159.55Z"/><path id="_Path_2" data-name=" Path 2" class="cls-1" d="M1046.19,161.85a87,87,0,0,1-33.22-5.76c-2.29-.85-2.67-1.83-2.25-4.17a155.8,155.8,0,0,1,4.69-18.42c.61-1.92,1.31-2.15,3.09-1.45a72,72,0,0,0,31.2,5.62A35.67,35.67,0,0,0,1062,135a15.15,15.15,0,0,0,10-12.79,16.11,16.11,0,0,0-6.93-16.25,63.12,63.12,0,0,0-13.77-6.33,146.71,146.71,0,0,1-20.9-9,31,31,0,0,1-16.35-27,41.74,41.74,0,0,1,4.69-24.12,37.46,37.46,0,0,1,25.86-17.76,93,93,0,0,1,50.13,4.4c1.07.38,1.82.89,1.63,2.25a70.63,70.63,0,0,1-5.29,18.74c-.8,1.92-2.11.8-3.18.38a64.28,64.28,0,0,0-27.18-4.92,28.16,28.16,0,0,0-10.54,1.92c-9.37,3.79-9.37,16.82-4.68,21.83a22.6,22.6,0,0,0,7.77,5.29c9.09,3.94,18.74,7,27.5,11.29a34.3,34.3,0,0,1,20.71,32.42,42.2,42.2,0,0,1-9.37,30.32,47.8,47.8,0,0,1-26.51,14.8A78,78,0,0,1,1046.19,161.85Z"/><path id="_Compound_Path_" data-name=" Compound Path " class="cls-1" d="M1008.05,84.55a96.14,96.14,0,0,0-5.85-29.33,51.2,51.2,0,0,0-34.53-32.79,70.91,70.91,0,0,0-30.12-1.55A50,50,0,0,0,898,49a92.84,92.84,0,0,0-8.81,42.16,98.22,98.22,0,0,0,5.71,35.05A52,52,0,0,0,927,158.66a70.88,70.88,0,0,0,27.83,3.05A53.49,53.49,0,0,0,974.93,157a52.82,52.82,0,0,0,28.49-33.21A104.21,104.21,0,0,0,1008.05,84.55Zm-34.52,37.2a26.71,26.71,0,0,1-34.44,15.5,27.14,27.14,0,0,1-5.43-2.81,30.32,30.32,0,0,1-11.95-18.74,105.65,105.65,0,0,1-2.2-35.18,60.26,60.26,0,0,1,5.9-22.77c8.3-16,28.11-16.44,38.61-9.37A30.34,30.34,0,0,1,975.54,66.7a86,86,0,0,1,2.62,24.17A79.74,79.74,0,0,1,973.53,121.75Z"/><path id="_Compound_Path_2" data-name=" Compound Path 2" class="cls-1" d="M785.9,59.16a40.29,40.29,0,0,0-18.46-30.64,56.49,56.49,0,0,0-28.58-8.06A269.47,269.47,0,0,0,699,21.58c-3.56.33-3.61,0-3.61,3.75V157.54c0,1.17,0,2.2,1.64,2.39a123.82,123.82,0,0,0,23.1.33c2.34,0,3.28-1.08,3.23-3.71v-39.3c0-1.17.61-1.74,1.83-1.55a80,80,0,0,0,25.44-1.54,40.58,40.58,0,0,0,33.87-29.33A61,61,0,0,0,785.9,59.16ZM756.38,77.89a21.07,21.07,0,0,1-20.1,14.76H726.16c-2.15,0-2.95-.75-2.9-3V46.27c0-1.83.47-2.53,2.39-2.76a40.26,40.26,0,0,1,17.52,1.31,19.45,19.45,0,0,1,12.7,12.37,32.54,32.54,0,0,1,.51,20.66Z"/><rect class="cls-2" x="97.94" width="9.7" height="19.04" rx="2.66"/><path class="cls-3" d="M238,150.9V88.59h-5.44V150.9a13,13,0,0,1-13,13h-1.52a13,13,0,0,1-13-13V122.36a18.43,18.43,0,0,0-36.85,0V150.9a13,13,0,0,1-12.92,13h-3.18a13,13,0,0,1-13-13V137.84H133.7V150.9a18.43,18.43,0,0,0,18.43,18.43h3.18a18.43,18.43,0,0,0,18.42-18.43V122.36a13,13,0,1,1,25.91,0V150.9a18.43,18.43,0,0,0,18.43,18.43h1.52A18.43,18.43,0,0,0,238,150.9Z"/><path class="cls-2" d="M119.27,84.5a17.1,17.1,0,1,0,22-16.37V55.87c0-2.59-1.6-4.71-3.55-4.71h-2.61c-1.95,0-3.54,2.12-3.54,4.71V68.09A17.09,17.09,0,0,0,119.27,84.5Z"/><circle class="cls-1" cx="136.44" cy="84.43" r="7.61" transform="translate(-19.74 121.21) rotate(-45)"/><path class="cls-3" d="M133.7,191.09v.2h5.44v-.2Z"/><path class="cls-3" d="M166.6,60a19.67,19.67,0,0,0,.75,4.82V60Zm53-40.95h-3.18A18.47,18.47,0,0,0,198,37.44v22.2a13,13,0,0,1-12.94,13,9.43,9.43,0,0,1-3-.43,13,13,0,0,1-10-12.57V37.44A18,18,0,0,0,171,31.31a18.47,18.47,0,0,0-17.38-12.25h-1.5a18.47,18.47,0,0,0-18.45,18.38V48.88A6.24,6.24,0,0,0,128.9,55V65.89a19.82,19.82,0,0,0-12.2,18.32,18.1,18.1,0,0,0,2.07,8.63l4.81-2.38a13.5,13.5,0,0,1-1.44-6.25,14.32,14.32,0,1,1,14.32,14.26,14.1,14.1,0,0,1-10.06-4.13l-3.88,3.81a19.39,19.39,0,0,0,13.94,5.76,19.75,19.75,0,0,0,7.51-38V55a6.19,6.19,0,0,0-4.82-6.07V37.44a13,13,0,0,1,13-12.94h1.5A12.92,12.92,0,0,1,166.6,37.44V56.32H171V71.45a12.86,12.86,0,0,0,1,1.13l.06.12a18.39,18.39,0,0,0,31.39-13.06V37.44a13,13,0,0,1,13-12.94h3.18a13,13,0,0,1,13,12.94V92.71h5.44V37.44A18.47,18.47,0,0,0,219.62,19.06Zm-81,45.45c-.69-.06-1.44-.06-2.13-.06s-1.5,0-2.12.06V55a1,1,0,0,1,.5-.82H138a1.06,1.06,0,0,1,.56.82Z"/><path class="cls-3" d="M116.82,51.16h-2.41a3.91,3.91,0,0,0-3.9,3.9v2.52h-7.43v41h3.67V61.25h3.76v2.53a3.9,3.9,0,0,0,3.9,3.89h2.41a3.9,3.9,0,0,0,3.9-3.89V55.06A3.91,3.91,0,0,0,116.82,51.16Zm.23,12.62a.22.22,0,0,1-.23.22h-2.41a.23.23,0,0,1-.23-.22V55.06a.24.24,0,0,1,.23-.23h2.41a.23.23,0,0,1,.23.23Z"/><path class="cls-3" d="M161.91,57.58V55.06a3.91,3.91,0,0,0-3.9-3.9h-2.42a3.9,3.9,0,0,0-3.89,3.9v8.72a3.89,3.89,0,0,0,3.89,3.89H158a3.9,3.9,0,0,0,3.9-3.89V61.25h4.24V93.41h3.67V57.58Zm-3.67,6.2A.23.23,0,0,1,158,64h-2.42a.23.23,0,0,1-.23-.22V55.06a.24.24,0,0,1,.23-.23H158a.24.24,0,0,1,.23.23Z"/><path class="cls-1" d="M140.26,130.91v5.41a3.61,3.61,0,0,1-3.54,3.69h-.49a3.61,3.61,0,0,1-3.54-3.69v-5.45a3.64,3.64,0,0,0-2.82-3.62c-14.91-3-26.5-15.86-28.23-31.81a3.65,3.65,0,0,1,3.51-4.14h0a3.62,3.62,0,0,1,3.52,3.32c1.58,14.56,13.45,25.91,27.8,25.91s26.23-11.35,27.81-25.91a3.62,3.62,0,0,1,3.52-3.32h0a3.64,3.64,0,0,1,3.5,4.14c-1.72,16-13.31,28.83-28.22,31.81a3.63,3.63,0,0,0-2.82,3.62Z"/><path class="cls-3" d="M26.78,119.7q.76,11.47,8,16.64t19.13,5.16a73.57,73.57,0,0,0,13.29-1.24,75.61,75.61,0,0,0,12.91-3.54,44.55,44.55,0,0,1,3.64,9.18,47.22,47.22,0,0,1,1.72,11.48q-14.93,5.75-33.66,5.74-13.79,0-23.63-3.83a41.9,41.9,0,0,1-16.06-10.61A42.64,42.64,0,0,1,3,132.51a67.35,67.35,0,0,1-3-20.46A66.82,66.82,0,0,1,3.06,91.58a47.85,47.85,0,0,1,9.09-16.64A42.84,42.84,0,0,1,27.06,63.75a49,49,0,0,1,20.76-4.11,44,44,0,0,1,18.36,3.64,40.45,40.45,0,0,1,13.68,9.94,42,42,0,0,1,8.51,15,59.34,59.34,0,0,1,2.87,18.66q0,3.63-.29,7.16t-.67,5.65Zm38.83-18.94q-.39-9.18-5.07-14.82T47.43,80.29q-9.55,0-14.53,5.36T27,100.76Z"/><path class="cls-3" d="M274.88,119.7q.76,11.47,8,16.64T302,141.5a73.48,73.48,0,0,0,13.29-1.24,75.72,75.72,0,0,0,12.92-3.54,44.56,44.56,0,0,1,3.63,9.18,46.74,46.74,0,0,1,1.72,11.48q-14.91,5.75-33.66,5.74-13.77,0-23.62-3.83a41.94,41.94,0,0,1-16.07-10.61,42.49,42.49,0,0,1-9.18-16.17,67.35,67.35,0,0,1-3-20.46,66.82,66.82,0,0,1,3.06-20.47,47.85,47.85,0,0,1,9.09-16.64,43,43,0,0,1,14.92-11.19,49,49,0,0,1,20.75-4.11,44,44,0,0,1,18.36,3.64A40.35,40.35,0,0,1,328,73.22a41.89,41.89,0,0,1,8.51,15,59.06,59.06,0,0,1,2.87,18.66q0,3.63-.28,7.16t-.67,5.65Zm38.83-18.94q-.39-9.18-5.07-14.82t-13.1-5.65q-9.57,0-14.53,5.36t-5.93,15.11Z"/><path class="cls-3" d="M410.11,95.79a15.82,15.82,0,0,0-1.53-7.46,11.53,11.53,0,0,0-4.2-4.5,17.57,17.57,0,0,0-6.61-2.19,59.29,59.29,0,0,0-8.7-.58,67.7,67.7,0,0,0-22,4,52.07,52.07,0,0,1-4-9.37,36.12,36.12,0,0,1-1.34-10.52A101.56,101.56,0,0,1,378.55,61a100.52,100.52,0,0,1,15.68-1.34q19.9,0,31.09,9.56t11.19,30.61v57.38a161.69,161.69,0,0,1-16.26,4,111.19,111.19,0,0,1-21.61,1.91,87,87,0,0,1-17.89-1.72,38.34,38.34,0,0,1-14-5.74,27,27,0,0,1-9-10.33q-3.15-6.32-3.16-15.5t3.92-15.39a30.33,30.33,0,0,1,10.14-10,44.89,44.89,0,0,1,13.87-5.35,73.68,73.68,0,0,1,15.3-1.63q5.55,0,12.24.58Zm0,19.7c-1.53-.25-3.19-.48-5-.67a45.65,45.65,0,0,0-4.78-.28q-9.37,0-14.83,3.34t-5.45,10.81c0,3.32.7,5.86,2.11,7.65a12.53,12.53,0,0,0,5.06,3.92,20.76,20.76,0,0,0,6.32,1.53q3.35.28,5.83.29a34.74,34.74,0,0,0,5.74-.48c1.91-.32,3.57-.6,5-.86Z"/><path class="cls-3" d="M459.84,21a83.09,83.09,0,0,1,13.58-1.15A82,82,0,0,1,486.81,21V121.42a54.35,54.35,0,0,0,.67,9.56,14.17,14.17,0,0,0,2.1,5.64,7.34,7.34,0,0,0,3.73,2.78,18.47,18.47,0,0,0,5.74.76c1,0,2.13-.06,3.35-.18a31.11,31.11,0,0,0,3.54-.58,59,59,0,0,1,2.1,15.3v2.78a11.75,11.75,0,0,1-.38,2.77,36.39,36.39,0,0,1-7.37,1.34c-2.86.25-5.51.38-7.93.38q-14.73,0-23.62-8.13t-8.9-26.49Z"/><path class="cls-3" d="M525.25,82.59H512.82l-1-3.82,35.77-45.72H552V61.93h23.14a45.47,45.47,0,0,1,.77,5.17c.13,1.53.19,3.12.19,4.78s-.06,3.51-.19,5.16a50.2,50.2,0,0,1-.77,5.55H552v38.83a39.11,39.11,0,0,0,1,9.56,14.19,14.19,0,0,0,2.78,5.74,9.07,9.07,0,0,0,4.5,2.87,23,23,0,0,0,6.3.76,33.06,33.06,0,0,0,5.65-.47l4.87-.86a36.83,36.83,0,0,1,1.92,7.55,49.29,49.29,0,0,1,.57,7c0,1.4,0,2.58-.09,3.53s-.17,1.89-.29,2.77A77.48,77.48,0,0,1,561,162q-17.41,0-26.59-8.13t-9.18-26.49Z"/><path class="cls-3" d="M595.45,21a57.48,57.48,0,0,1,6.69-.76q3.43-.19,6.7-.2c2.17,0,4.39.07,6.69.2a64.5,64.5,0,0,1,6.89.76V73.6c.89-1.15,2.07-2.51,3.53-4.11a30.87,30.87,0,0,1,5.46-4.59,31.74,31.74,0,0,1,7.84-3.73,33.24,33.24,0,0,1,10.52-1.53q16.44,0,25,9.18t8.51,28.88V161a61.79,61.79,0,0,1-6.89.77c-2.29.12-4.52.19-6.69.19s-4.4-.07-6.69-.19a62.05,62.05,0,0,1-6.89-.77V105q0-10.32-3.25-15.88t-11.09-5.54a24.87,24.87,0,0,0-6.7,1,14,14,0,0,0-6.22,3.72A21.06,21.06,0,0,0,624.23,96a38.72,38.72,0,0,0-1.81,13v52a62.05,62.05,0,0,1-6.89.77c-2.3.12-4.52.19-6.69.19s-4.37-.07-6.6-.19a61.64,61.64,0,0,1-6.79-.77Z"/></svg>