<svg id="Layer_1" data-name="Layer 1" xmlns="http://www.w3.org/2000/svg" viewBox="0 0 995.04 162.18"><defs><style>.cls-1,.cls-4{fill:#2d3091;}.cls-2{fill:none;stroke:#2d3091;stroke-width:1.48px;}.cls-2,.cls-3,.cls-4{stroke-miterlimit:10;}.cls-3,.cls-5{fill:#00aced;}.cls-3,.cls-4{stroke:#fff;stroke-width:2.75px;}</style></defs><path class="cls-1" d="M23.87,94q.69,10.23,7.17,14.84t17.05,4.6a65.62,65.62,0,0,0,11.85-1.11,68,68,0,0,0,11.52-3.15,40.75,40.75,0,0,1,3.24,8.18,42.78,42.78,0,0,1,1.53,10.24,83.36,83.36,0,0,1-30,5.11q-12.28,0-21.07-3.41a37.28,37.28,0,0,1-14.32-9.47,38,38,0,0,1-8.19-14.4A60.38,60.38,0,0,1,0,87.14,59.55,59.55,0,0,1,2.73,68.89a42.61,42.61,0,0,1,8.1-14.84,38.38,38.38,0,0,1,13.3-10,43.63,43.63,0,0,1,18.5-3.67A39.3,39.3,0,0,1,59,43.65a36.05,36.05,0,0,1,12.2,8.87A37.47,37.47,0,0,1,78.79,65.9a53,53,0,0,1,2.56,16.63q0,3.24-.26,6.4c-.17,2.1-.37,3.78-.6,5ZM58.49,77.07Q58.16,68.9,54,63.86c-2.78-3.35-6.68-5-11.67-5q-8.53,0-13,4.78T24.05,77.07Z"/><path class="cls-1" d="M113.07,73.83A73.7,73.7,0,0,1,102.66,69a31.05,31.05,0,0,1-7.84-6.31,26.16,26.16,0,0,1-5-8.79A37.11,37.11,0,0,1,88,41.61a37.11,37.11,0,0,1,3-15.35,30.51,30.51,0,0,1,8.44-11.18,37.13,37.13,0,0,1,13.13-6.81A59.72,59.72,0,0,1,129.78,6,81.63,81.63,0,0,1,146.07,7.5,123.7,123.7,0,0,1,162,11.93a60.55,60.55,0,0,1-5.46,19.44c-1.7-.68-3.44-1.36-5.2-2a38.83,38.83,0,0,0-5.62-1.71A64.92,64.92,0,0,0,139,26.51a77.31,77.31,0,0,0-8.53-.42,34.78,34.78,0,0,0-5.88.51,16.26,16.26,0,0,0-5.38,1.87,10.72,10.72,0,0,0-3.92,4,13.74,13.74,0,0,0-1.53,6.91,12.23,12.23,0,0,0,1.19,5.71A12,12,0,0,0,118.18,49a20.47,20.47,0,0,0,4.61,2.73c1.7.74,3.41,1.45,5.11,2.13l10.24,3.92q6.48,2.56,11.76,5.29a31.77,31.77,0,0,1,9,6.74,28.5,28.5,0,0,1,5.71,9.72,42.17,42.17,0,0,1,2,14.07,39,39,0,0,1-3.15,15.86,34,34,0,0,1-9.12,12.27,43,43,0,0,1-14.75,8,64.58,64.58,0,0,1-20.21,2.9q-5.62,0-10.07-.34a76.92,76.92,0,0,1-8.44-1.11,77.58,77.58,0,0,1-7.92-2c-2.62-.8-5.35-1.76-8.19-2.9A72.3,72.3,0,0,1,86.63,116c.91-3.58,2-7.18,3.24-10.83a89.47,89.47,0,0,0,13.48,4.36A60.34,60.34,0,0,0,116.82,111q10.74,0,16.88-4t6.14-12.19A14.38,14.38,0,0,0,138.39,88a14.79,14.79,0,0,0-3.75-4.6,22.42,22.42,0,0,0-5.2-3.16c-1.94-.85-3.92-1.67-6-2.47Z"/><path class="cls-1" d="M234,109.82a35,35,0,0,1,3.41,7.93,37,37,0,0,1,1.37,10.66A52.68,52.68,0,0,1,226,131.9a97.92,97.92,0,0,1-12.45.77,48.64,48.64,0,0,1-19.27-3.5,36.88,36.88,0,0,1-13.56-9.63,41,41,0,0,1-8.1-14.58,59.28,59.28,0,0,1-2.73-18.33,59.41,59.41,0,0,1,2.65-18.08,41.66,41.66,0,0,1,8-14.67A37.3,37.3,0,0,1,193.9,44a45.27,45.27,0,0,1,18.59-3.58q3.75,0,6.9.17a50.34,50.34,0,0,1,6.06.68,55.16,55.16,0,0,1,5.79,1.37q2.91.85,6.49,2.22a43.31,43.31,0,0,1-1,8.78,38.08,38.08,0,0,1-3.24,9.29,56.07,56.07,0,0,0-9-2.3,57.4,57.4,0,0,0-8.78-.6q-10.59,0-15.95,6.91t-5.37,19.7q0,13.8,5.8,20.12t15.68,6.31c1.71,0,3.27,0,4.69-.09a31.64,31.64,0,0,0,4.18-.42,30.6,30.6,0,0,0,4.18-1Q231.07,110.84,234,109.82Z"/><path class="cls-1" d="M245.74,6a49.75,49.75,0,0,1,6-.68q3.07-.17,6-.17t6,.17a55.24,55.24,0,0,1,6.13.68v46.9q1.2-1.53,3.16-3.67a27.49,27.49,0,0,1,4.86-4.09,28.75,28.75,0,0,1,7-3.33,29.65,29.65,0,0,1,9.38-1.36q14.67,0,22.26,8.19T324,74.34V130.8a61.31,61.31,0,0,1-6.14.68q-3.08.17-6,.17c-1.94,0-3.92-.06-6-.17a60.66,60.66,0,0,1-6.14-.68v-50q0-9.21-2.9-14.16T287,61.73a22.23,22.23,0,0,0-6,.85,12.58,12.58,0,0,0-5.54,3.32,18.75,18.75,0,0,0-4.09,6.91,34.49,34.49,0,0,0-1.63,11.6V130.8a60.47,60.47,0,0,1-6.13.68q-3.07.17-6,.17c-1.93,0-3.9-.06-5.88-.17s-4-.35-6.06-.68Z"/><path class="cls-1" d="M532.52,132.67a45.89,45.89,0,0,1-18.68-3.5,35.36,35.36,0,0,1-13.13-9.71,42.41,42.41,0,0,1-7.84-14.58,59.46,59.46,0,0,1-2.64-18.08,61.1,61.1,0,0,1,2.64-18.25,42.05,42.05,0,0,1,7.84-14.75A36.37,36.37,0,0,1,513.84,44a45.21,45.21,0,0,1,18.68-3.58A45.8,45.8,0,0,1,551.28,44a37,37,0,0,1,13.3,9.81,40.34,40.34,0,0,1,7.84,14.75A63.09,63.09,0,0,1,575,86.8a61.39,61.39,0,0,1-2.56,18.08,40.64,40.64,0,0,1-7.84,14.58,36,36,0,0,1-13.3,9.71A46.48,46.48,0,0,1,532.52,132.67Zm0-18.41q9.54,0,13.72-7.09t4.18-20.37q0-13.3-4.18-20.38t-13.72-7.08q-9.39,0-13.56,7.08T514.78,86.8q0,13.29,4.18,20.37T532.52,114.26Z"/><path class="cls-1" d="M583.68,6a73.68,73.68,0,0,1,12.11-1,72.73,72.73,0,0,1,11.93,1V95.5a48.6,48.6,0,0,0,.6,8.52,12.79,12.79,0,0,0,1.87,5,6.57,6.57,0,0,0,3.33,2.48,16.53,16.53,0,0,0,5.12.68,29.62,29.62,0,0,0,3-.17,31.36,31.36,0,0,0,3.15-.51,52.08,52.08,0,0,1,1.88,13.64v2.47a10.06,10.06,0,0,1-.34,2.47,31.74,31.74,0,0,1-6.56,1.2c-2.56.22-4.93.34-7.08.34q-13.14,0-21.06-7.25t-7.93-23.62Z"/><path class="cls-2" d="M431,69c19,36.51,24.23,71.46,11.59,78.06s-38.35-17.65-57.4-54.15S361,21.42,373.64,14.82,412,32.47,431,69Z"/><path class="cls-2" d="M396.18,58C432.69,39,467.64,33.78,474.24,46.43s-17.65,38.35-54.15,57.4S348.63,128.06,342,115.42,359.68,77.07,396.18,58Z"/><ellipse class="cls-2" cx="408.13" cy="80.92" rx="74.56" ry="25.83" transform="translate(208.57 446.02) rotate(-72.55)"/><path class="cls-2" d="M415.88,56.28c39.29,12.34,67.66,33.39,63.39,47s-39.6,14.64-78.88,2.29-67.66-33.39-63.39-47S376.6,43.93,415.88,56.28Z"/><circle class="cls-1" cx="408.13" cy="80.92" r="20.63" transform="translate(11.41 206.34) rotate(-28.76)"/><path class="cls-3" d="M422.16,13.75a8.46,8.46,0,1,1,11.41,3.59A8.45,8.45,0,0,1,422.16,13.75Z"/><path class="cls-4" d="M377.56,156.26A8.46,8.46,0,1,1,389,159.84,8.47,8.47,0,0,1,377.56,156.26Z"/><path id="_Path_" data-name=" Path " class="cls-5" d="M812.15,130.52a103.93,103.93,0,0,1-25.84.25c-1.53,0-1.94-1.32-2.52-2.35-5.44-9.6-10.84-19.25-16.49-28.85-4.37-7.75-8.65-15.54-13.1-23.29-.87-1.48-.7-2.14.86-2.88a60.85,60.85,0,0,0,13.65-8A22,22,0,0,0,775,38.9,17.23,17.23,0,0,0,761.7,29a34.91,34.91,0,0,0-10.55-.49c-1.9.21-2.6.91-2.56,3V128c0,2.14-.37,3.05-2.76,3.26a106,106,0,0,1-20,0c-1.48,0-2-.71-1.86-2.07a6.55,6.55,0,0,0,0-1.4V13.47c0-3.05,0-3.05,2.93-3.51a161.77,161.77,0,0,1,33.35-1.44,55.66,55.66,0,0,1,26.54,7.42,31.76,31.76,0,0,1,15.79,25.43,38,38,0,0,1-7.92,28.15,35.46,35.46,0,0,1-9.85,8.53c-1.65,1-2.06,1.73-1,3.67,9.19,15.71,18.18,31.53,27.25,47.32A3.82,3.82,0,0,1,812.15,130.52Z"/><path id="_Path_2" data-name=" Path 2" class="cls-5" d="M946.27,132.54a76.32,76.32,0,0,1-29.22-5.07c-2-.74-2.35-1.6-2-3.66a136.79,136.79,0,0,1,4.12-16.2c.54-1.69,1.15-1.9,2.72-1.28a63.49,63.49,0,0,0,27.45,4.94,31.48,31.48,0,0,0,10.84-2.34A13.37,13.37,0,0,0,969,97.67a14.17,14.17,0,0,0-6.1-14.3,55.63,55.63,0,0,0-12.12-5.56,129.23,129.23,0,0,1-18.38-7.92A27.25,27.25,0,0,1,918,46.15a36.84,36.84,0,0,1,4.13-21.23A33,33,0,0,1,944.87,9.3,81.67,81.67,0,0,1,989,13.18c.95.33,1.61.78,1.44,2a62.17,62.17,0,0,1-4.65,16.48c-.7,1.69-1.86.7-2.81.33a56.73,56.73,0,0,0-23.9-4.33,25,25,0,0,0-9.28,1.69c-8.24,3.34-8.24,14.8-4.12,19.21a20.05,20.05,0,0,0,6.84,4.66c8,3.46,16.49,6.18,24.2,9.93a30.2,30.2,0,0,1,18.22,28.53,37,37,0,0,1-8.25,26.66,42,42,0,0,1-23.33,13A68.24,68.24,0,0,1,946.27,132.54Z"/><path id="_Compound_Path_" data-name=" Compound Path " class="cls-5" d="M912.72,64.53a84.67,84.67,0,0,0-5.15-25.8A45.09,45.09,0,0,0,877.19,9.88a62.56,62.56,0,0,0-26.5-1.36A44,44,0,0,0,815.9,33.25a81.64,81.64,0,0,0-7.75,37.1,86.36,86.36,0,0,0,5,30.83,45.77,45.77,0,0,0,28.19,28.56,62.46,62.46,0,0,0,24.48,2.68,47.23,47.23,0,0,0,17.73-4.12,46.5,46.5,0,0,0,25.06-29.23A91.81,91.81,0,0,0,912.72,64.53ZM882.34,97.26a23.49,23.49,0,0,1-35.07,11.17,26.65,26.65,0,0,1-10.51-16.49A92.85,92.85,0,0,1,834.82,61,53,53,0,0,1,840,41c7.3-14.06,24.73-14.47,34-8.25a26.68,26.68,0,0,1,10.14,16.12,75.88,75.88,0,0,1,2.31,21.27A70,70,0,0,1,882.34,97.26Z"/><path id="_Compound_Path_2" data-name=" Compound Path 2" class="cls-5" d="M717.27,42.19A35.46,35.46,0,0,0,701,15.24a49.75,49.75,0,0,0-25.15-7.09,236,236,0,0,0-35.07,1c-3.14.29-3.18,0-3.18,3.3V128.75c0,1,0,1.94,1.45,2.1a107.78,107.78,0,0,0,20.32.29c2.06,0,2.88-.95,2.84-3.25V93.3c0-1,.54-1.52,1.61-1.36a70.15,70.15,0,0,0,22.38-1.36A35.68,35.68,0,0,0,716,64.78,53.66,53.66,0,0,0,717.27,42.19Zm-26,16.49a18.55,18.55,0,0,1-17.68,13h-8.91c-1.89,0-2.59-.65-2.55-2.59V30.86c0-1.61.41-2.23,2.1-2.43a35.45,35.45,0,0,1,15.42,1.15,17.13,17.13,0,0,1,11.17,10.88,28.64,28.64,0,0,1,.45,18.18Z"/></svg>